<?xml version="1.0" encoding="utf-8"?>
<!-- Generator: Adobe Illustrator 14.0.0, SVG Export Plug-In . SVG Version: 6.00 Build 43363)  -->
<!DOCTYPE svg PUBLIC "-//W3C//DTD SVG 1.1//EN" "http://www.w3.org/Graphics/SVG/1.1/DTD/svg11.dtd">
<svg version="1.1" id="Calque_1" xmlns="http://www.w3.org/2000/svg" xmlns:xlink="http://www.w3.org/1999/xlink" x="0px" y="0px"
	 width="141.73px" height="65.91px" viewBox="0 0 141.73 65.91" enable-background="new 0 0 141.73 65.91" xml:space="preserve">
<g>
	<path fill="#1D508E" d="M78.412,11.344c0.012,0.764,0.666,1.075,1.379,1.075c0.518,0,1.178-0.199,1.178-0.816
		c0-0.531-0.75-0.715-2.039-0.988c-1.039-0.221-2.078-0.579-2.078-1.702c0-1.631,1.445-2.05,2.852-2.05
		c1.428,0,2.744,0.47,2.887,2.038h-1.711c-0.053-0.679-0.582-0.866-1.23-0.866c-0.402,0-0.998,0.076-0.998,0.594
		c0,0.628,1.012,0.715,2.039,0.951c1.049,0.233,2.074,0.605,2.074,1.789c0,1.679-1.492,2.222-2.986,2.222
		c-1.518,0-3.002-0.554-3.078-2.245H78.412"/>
	<path fill="#1D508E" d="M88.523,10.294c-0.305,0.258-0.938,0.271-1.494,0.37c-0.557,0.111-1.062,0.295-1.062,0.938
		c0,0.654,0.518,0.816,1.102,0.816c1.406,0,1.455-1.086,1.455-1.471V10.294 M84.371,8.999c0.102-1.642,1.607-2.137,3.076-2.137
		c1.305,0,2.875,0.285,2.875,1.816v3.32c0,0.581,0.062,1.16,0.229,1.419h-1.826C88.662,13.22,88.613,13.01,88.6,12.8
		c-0.568,0.581-1.402,0.79-2.205,0.79c-1.238,0-2.227-0.604-2.227-1.913c0-1.446,1.117-1.791,2.227-1.939
		c1.102-0.159,2.129-0.124,2.129-0.838c0-0.753-0.531-0.866-1.162-0.866c-0.686,0-1.127,0.274-1.193,0.965H84.371z"/>
	<path fill="#1D508E" d="M92.348,7.036h1.709v0.887h0.037c0.455-0.715,1.244-1.062,2-1.062c1.912,0,2.394,1.05,2.394,2.63v3.925
		h-1.798V9.812c0-1.048-0.316-1.568-1.152-1.568c-0.975,0-1.391,0.532-1.391,1.827v3.346h-1.799V7.036"/>
	<path fill="#1D508E" d="M102.763,7.036h1.317v1.172h-1.317v3.159c0,0.594,0.153,0.741,0.764,0.741c0.191,0,0.366-0.011,0.554-0.048
		v1.369c-0.303,0.049-0.695,0.063-1.049,0.063c-1.104,0-2.065-0.249-2.065-1.519V8.208h-1.087V7.036h1.087V5.121h1.797V7.036"/>
	<path fill="#1D508E" d="M108.827,6.245h-1.252l1.215-1.753h1.987L108.827,6.245 M109.979,9.542
		c-0.165-0.888-0.556-1.357-1.427-1.357c-1.143,0-1.474,0.862-1.496,1.357H109.979z M107.057,10.652
		c0.048,1.112,0.606,1.616,1.607,1.616c0.722,0,1.304-0.431,1.418-0.827h1.583c-0.507,1.507-1.583,2.148-3.063,2.148
		c-2.062,0-3.345-1.382-3.345-3.358c0-1.912,1.354-3.37,3.345-3.37c2.228,0,3.303,1.828,3.177,3.791H107.057z"/>
	<path fill="#1D508E" d="M77.41,23.894h-1.074v-1.17h1.074v-0.496c0-1.123,0.719-1.938,2.189-1.938c0.318,0,0.645,0.039,0.947,0.049
		v1.309c-0.215-0.023-0.428-0.036-0.656-0.036c-0.48,0-0.684,0.197-0.684,0.728v0.384h1.24v1.17h-1.24v5.209H77.41V23.894"/>
	<path fill="#1D508E" d="M85.941,25.98c-0.303,0.26-0.936,0.273-1.496,0.372c-0.555,0.11-1.062,0.295-1.062,0.938
		c0,0.655,0.52,0.815,1.104,0.815c1.404,0,1.455-1.088,1.455-1.469V25.98 M81.787,24.685c0.104-1.643,1.611-2.135,3.076-2.135
		c1.305,0,2.877,0.282,2.877,1.814v3.321c0,0.58,0.062,1.162,0.225,1.418h-1.82c-0.064-0.196-0.113-0.408-0.127-0.616
		c-0.57,0.579-1.402,0.789-2.203,0.789c-1.238,0-2.23-0.602-2.23-1.911c0-1.445,1.115-1.792,2.23-1.939
		c1.1-0.16,2.127-0.123,2.127-0.838c0-0.753-0.531-0.865-1.164-0.865c-0.684,0-1.127,0.272-1.188,0.963H81.787z"/>
	<path fill="#1D508E" d="M89.814,22.724h1.697v0.862h0.025c0.469-0.652,1.152-1.036,2-1.036c0.822,0,1.557,0.294,1.91,1.062
		c0.381-0.556,1.062-1.062,1.979-1.062c1.389,0,2.39,0.628,2.39,2.283v4.27h-1.794v-3.617c0-0.851-0.08-1.555-1.105-1.555
		c-1.01,0-1.201,0.815-1.201,1.617v3.555h-1.801v-3.579c0-0.742,0.053-1.593-1.084-1.593c-0.357,0-1.217,0.223-1.217,1.471v3.701
		h-1.799V22.724"/>
	<path fill="#1D508E" d="M101.915,22.724h1.803v6.379h-1.803V22.724 M103.718,21.735h-1.803v-1.444h1.803V21.735z"/>
	<rect x="105.814" y="20.29" fill="#1D508E" width="1.799" height="8.813"/>
	<rect x="109.713" y="20.29" fill="#1D508E" width="1.798" height="8.813"/>
	<path fill="#1D508E" d="M117.967,25.228c-0.163-0.889-0.556-1.359-1.427-1.359c-1.143,0-1.472,0.866-1.494,1.359H117.967
		 M115.046,26.339c0.05,1.109,0.604,1.619,1.605,1.619c0.722,0,1.304-0.434,1.42-0.829h1.581c-0.509,1.506-1.581,2.146-3.062,2.146
		c-2.066,0-3.346-1.381-3.346-3.356c0-1.914,1.355-3.37,3.346-3.37c2.227,0,3.304,1.826,3.176,3.79H115.046z"/>
	<path fill="#1D508E" d="M77.018,38.408h1.707v1.187h0.025c0.328-0.801,1.217-1.357,2.094-1.357c0.125,0,0.271,0.022,0.389,0.06
		v1.63c-0.166-0.038-0.434-0.061-0.645-0.061c-1.32,0-1.773,0.923-1.773,2.049v2.877h-1.797V38.408"/>
	<path fill="#1D508E" d="M86.754,40.916c-0.164-0.89-0.557-1.359-1.432-1.359c-1.139,0-1.469,0.862-1.494,1.359H86.754
		 M83.828,42.025c0.051,1.113,0.607,1.616,1.609,1.616c0.721,0,1.305-0.429,1.416-0.826h1.584c-0.506,1.508-1.584,2.146-3.064,2.146
		c-2.066,0-3.34-1.381-3.34-3.354c0-1.914,1.354-3.37,3.34-3.37c2.23,0,3.305,1.826,3.178,3.788H83.828z"/>
	<path fill="#1D508E" d="M92.525,38.408h1.318v1.174h-1.318v3.161c0,0.591,0.152,0.737,0.762,0.737c0.191,0,0.365-0.012,0.557-0.048
		v1.371c-0.307,0.049-0.695,0.062-1.051,0.062c-1.102,0-2.064-0.25-2.064-1.52v-3.765h-1.09v-1.174h1.09v-1.913h1.797V38.408"/>
	<path fill="#1D508E" d="M95.338,38.408h1.709v1.187h0.021c0.334-0.801,1.219-1.357,2.091-1.357c0.126,0,0.279,0.022,0.394,0.06
		v1.63c-0.168-0.038-0.429-0.061-0.646-0.061c-1.314,0-1.773,0.923-1.773,2.049v2.877h-1.795V38.408"/>
	<path fill="#1D508E" d="M104.97,41.67c-0.304,0.258-0.938,0.271-1.496,0.368c-0.556,0.112-1.062,0.297-1.062,0.938
		c0,0.654,0.521,0.817,1.103,0.817c1.404,0,1.456-1.088,1.456-1.472V41.67 M100.816,40.371c0.1-1.644,1.609-2.134,3.078-2.134
		c1.303,0,2.873,0.283,2.873,1.814v3.32c0,0.58,0.062,1.158,0.229,1.42h-1.826c-0.063-0.198-0.111-0.408-0.124-0.616
		c-0.572,0.578-1.407,0.786-2.205,0.786c-1.238,0-2.227-0.601-2.227-1.911c0-1.443,1.114-1.791,2.227-1.938
		c1.103-0.161,2.128-0.125,2.128-0.838c0-0.752-0.532-0.866-1.163-0.866c-0.686,0-1.13,0.273-1.189,0.963H100.816z"/>
	<path fill="#1D508E" d="M108.844,38.408h1.798v6.384h-1.798V38.408 M110.642,37.423h-1.798v-1.444h1.798V37.423z"/>
	<path fill="#1D508E" d="M114.969,38.408h1.317v1.174h-1.317v3.161c0,0.591,0.153,0.737,0.762,0.737
		c0.189,0,0.366-0.012,0.556-0.048v1.371c-0.305,0.049-0.695,0.062-1.051,0.062c-1.101,0-2.063-0.25-2.063-1.52v-3.765h-1.087
		v-1.174h1.087v-1.913h1.797V38.408"/>
	<path fill="#1D508E" d="M122.185,40.916c-0.164-0.89-0.557-1.359-1.429-1.359c-1.14,0-1.469,0.862-1.493,1.359H122.185
		 M119.263,42.025c0.051,1.113,0.606,1.616,1.607,1.616c0.72,0,1.304-0.429,1.418-0.826h1.579c-0.503,1.508-1.579,2.146-3.061,2.146
		c-2.063,0-3.344-1.381-3.344-3.354c0-1.914,1.355-3.37,3.344-3.37c2.227,0,3.302,1.826,3.178,3.788H119.263z"/>
	<path fill="#1D508E" d="M78.412,58.404c0.012,0.763,0.666,1.074,1.379,1.074c0.518,0,1.178-0.199,1.178-0.815
		c0-0.53-0.75-0.718-2.039-0.987c-1.039-0.225-2.078-0.579-2.078-1.702c0-1.633,1.445-2.054,2.852-2.054
		c1.428,0,2.744,0.471,2.887,2.04h-1.711c-0.053-0.679-0.582-0.864-1.23-0.864c-0.402,0-0.998,0.074-0.998,0.593
		c0,0.632,1.012,0.713,2.039,0.951c1.049,0.233,2.074,0.605,2.074,1.79c0,1.68-1.492,2.22-2.986,2.22
		c-1.518,0-3.002-0.555-3.078-2.245H78.412"/>
	<path fill="#1D508E" d="M88.854,56.6c-0.166-0.886-0.557-1.356-1.432-1.356c-1.139,0-1.467,0.864-1.494,1.356H88.854
		 M85.928,57.713c0.051,1.109,0.609,1.616,1.609,1.616c0.725,0,1.305-0.43,1.416-0.827h1.586c-0.506,1.507-1.586,2.147-3.066,2.147
		c-2.062,0-3.338-1.381-3.338-3.358c0-1.914,1.352-3.371,3.338-3.371c2.227,0,3.303,1.831,3.178,3.793H85.928z"/>
	<path fill="#1D508E" d="M92.348,54.095h1.709v1.187h0.025c0.326-0.805,1.215-1.361,2.088-1.361c0.127,0,0.279,0.026,0.393,0.067
		v1.627c-0.164-0.037-0.432-0.062-0.645-0.062c-1.318,0-1.771,0.924-1.771,2.05v2.878h-1.799V54.095"/>
	<polyline fill="#1D508E" points="101.524,60.48 99.524,60.48 97.283,54.095 99.172,54.095 100.551,58.451 100.575,58.451 
		101.953,54.095 103.739,54.095 101.524,60.48 	"/>
	<path fill="#1D508E" d="M105.169,54.095h1.801v6.386h-1.801V54.095 M106.97,53.109h-1.801v-1.443h1.801V53.109z"/>
	<path fill="#1D508E" d="M113.476,56.344c-0.114-0.718-0.583-1.101-1.332-1.101c-1.149,0-1.531,1.137-1.531,2.074
		c0,0.915,0.368,2.012,1.493,2.012c0.837,0,1.319-0.517,1.432-1.298h1.732c-0.224,1.693-1.428,2.618-3.15,2.618
		c-1.974,0-3.304-1.354-3.304-3.27c0-1.987,1.217-3.46,3.342-3.46c1.543,0,2.963,0.793,3.076,2.424H113.476"/>
	<path fill="#1D508E" d="M121.325,56.6c-0.168-0.886-0.559-1.356-1.432-1.356c-1.141,0-1.472,0.864-1.496,1.356H121.325
		 M118.397,57.713c0.05,1.109,0.608,1.616,1.607,1.616c0.722,0,1.306-0.43,1.422-0.827h1.579c-0.507,1.507-1.579,2.147-3.062,2.147
		c-2.063,0-3.342-1.381-3.342-3.358c0-1.914,1.354-3.371,3.342-3.371c2.227,0,3.302,1.831,3.176,3.793H118.397z"/>
	<path fill="#1D508E" d="M126.21,58.404c0.012,0.763,0.672,1.074,1.379,1.074c0.519,0,1.179-0.199,1.179-0.815
		c0-0.53-0.75-0.718-2.037-0.987c-1.041-0.225-2.078-0.579-2.078-1.702c0-1.633,1.443-2.054,2.848-2.054
		c1.432,0,2.745,0.471,2.887,2.04h-1.711c-0.048-0.679-0.582-0.864-1.226-0.864c-0.405,0-0.999,0.074-0.999,0.593
		c0,0.632,1.011,0.713,2.035,0.951c1.051,0.233,2.078,0.605,2.078,1.79c0,1.68-1.496,2.22-2.989,2.22
		c-1.518,0-2.998-0.555-3.074-2.245H126.21"/>
	<rect x="75.203" y="1.209" fill="#FBBF27" width="65.11" height="0.747"/>
	<rect x="75.203" y="16.895" fill="#FBBF27" width="65.11" height="0.748"/>
	<rect x="75.203" y="32.581" fill="#FBBF27" width="65.11" height="0.746"/>
	<rect x="75.203" y="48.267" fill="#FBBF27" width="65.11" height="0.748"/>
	<rect x="75.203" y="63.952" fill="#FBBF27" width="65.11" height="0.744"/>
	<rect x="1.416" y="1.209" fill="#1D508E" width="65.106" height="63.49"/>
	<path fill="#FFFFFF" d="M55.68,49.121v5.018L42.115,54.13c-1.492,0-2.71-1.184-2.71-2.643c0-1.461,1.218-2.571,2.71-2.571
		L53.76,48.93c0.691,0,1.298-0.087,1.924-0.255L55.68,49.121 M61.096,54.139V41.659c0-4.007-3.218-7.268-7.336-7.268H36.74
		l0.017-13.276c0-5.107,4.11-9.251,9.351-9.251c5.243,0,9.574,4.219,9.574,9.251v13.201h5.41l0.015-13.127
		c0-8.033-6.675-14.599-14.91-14.599c-5.272,0-9.282,2.136-12.202,6.181c-2.697-3.739-7.159-6.181-12.2-6.181
		c-3.601,0-7,1.275-9.576,3.348l0.012-3.334L6.811,6.59L6.82,34.316h5.412l-0.012-13.378c0.12-5.107,4.263-9.074,9.505-9.074
		c5.239,0,9.485,4.144,9.485,9.251l0.03,13.276H14.293c-4.117,0-7.451,3.261-7.451,7.268c0,4.017,3.334,7.271,7.451,7.271
		l11.714-0.014c1.499,0,2.624,1.227,2.624,2.688c0,1.46-1.155,2.526-2.653,2.526H6.82v5.313h19.455c4.574,0,7.721-3.638,7.721-8.019
		c0-4.352-3.572-7.816-8.066-7.816l-11.578,0.006c-1.125,0-2.123-0.889-2.123-1.985c0-1.091,0.998-1.981,2.123-1.981h39.314
		c1.123,0,2.034,0.891,2.034,1.981c0,1.097-0.911,1.985-2.034,1.985l-8.201-0.006h-3.397c-4.489,0-8.072,3.465-8.072,7.816
		c0,4.381,3.607,8.019,8.072,8.021h24.23C60.915,59.446,61.096,54.139,61.096,54.139z"/>
</g>
</svg>
