<svg width="272" height="273" viewBox="0 0 272 273" fill="none" xmlns="http://www.w3.org/2000/svg">
    <path fill-rule="evenodd" clip-rule="evenodd" d="M231.2 44.7004C229.326 44.7004 227.8 43.1752 227.8 41.3004C227.8 39.4255 229.326 37.9004 231.2 37.9004C233.075 37.9004 234.6 39.4255 234.6 41.3004C234.6 43.1752 233.075 44.7004 231.2 44.7004Z" fill="#ECECFE"/>
    <path fill-rule="evenodd" clip-rule="evenodd" d="M139.4 258.9C137.525 258.9 136 257.375 136 255.5C136 253.625 137.525 252.1 139.4 252.1C141.275 252.1 142.8 253.625 142.8 255.5C142.8 257.375 141.275 258.9 139.4 258.9Z" fill="#ECECFE"/>
    <path fill-rule="evenodd" clip-rule="evenodd" d="M51.0001 34.5002C49.1253 34.5002 47.6001 32.975 47.6001 31.1002C47.6001 29.2253 49.1253 27.7002 51.0001 27.7002C52.8749 27.7002 54.4001 29.2253 54.4001 31.1002C54.4001 32.975 52.8749 34.5002 51.0001 34.5002Z" fill="#ECECFE"/>
    <path d="M54.4 75.3C52.5252 75.3 51 73.7748 51 71.9C51 70.0251 52.5252 68.5 54.4 68.5C56.2748 68.5 57.8 70.0251 57.8 71.9C57.8 73.7748 56.2748 75.3 54.4 75.3Z" fill="#E1000F"/>
    <path d="M68 75.3C66.1252 75.3 64.6 73.7748 64.6 71.9C64.6 70.0251 66.1252 68.5 68 68.5C69.8748 68.5 71.4 70.0251 71.4 71.9C71.4 73.7748 69.8748 75.3 68 75.3Z" fill="#E1000F"/>
    <path d="M78.2 71.9C78.2 73.7748 79.7252 75.3 81.6 75.3C83.4748 75.3 85 73.7748 85 71.9C85 70.0251 83.4748 68.5 81.6 68.5C79.7252 68.5 78.2 70.0251 78.2 71.9Z" fill="#E1000F"/>
    <path d="M210.8 68.5C212.678 68.5 214.2 70.0222 214.2 71.9C214.2 73.6436 212.887 75.0807 211.197 75.2771L210.8 75.3H108.8C106.922 75.3 105.4 73.7778 105.4 71.9C105.4 70.1564 106.713 68.7193 108.403 68.5229L108.8 68.5H210.8Z" fill="#E1000F"/>
    <path fill-rule="evenodd" clip-rule="evenodd" d="M174.394 169.502C173.757 170.834 173.4 172.325 173.4 173.9C173.4 179.533 177.967 184.1 183.6 184.1C189.233 184.1 193.8 179.533 193.8 173.9C193.8 171.809 193.171 169.864 192.091 168.246L206.72 148.74L206.955 148.383C207.793 146.916 207.427 145.02 206.04 143.98C204.538 142.853 202.407 143.158 201.28 144.66L186.652 164.164C185.688 163.863 184.663 163.7 183.6 163.7C182.025 163.7 180.534 164.057 179.202 164.694L172.404 157.896L172.084 157.613C170.75 156.576 168.821 156.67 167.596 157.896C166.268 159.224 166.268 161.376 167.596 162.704L174.394 169.502ZM183.6 170.5C185.478 170.5 187 172.022 187 173.9C187 175.778 185.478 177.3 183.6 177.3C181.722 177.3 180.2 175.778 180.2 173.9C180.2 172.022 181.722 170.5 183.6 170.5Z" fill="#E1000F"/>
    <path d="M227.777 57.9034C227.581 56.2124 226.144 54.8999 224.4 54.8999H40.7999L40.4034 54.9228C38.7124 55.1192 37.3999 56.5563 37.3999 58.2999V214.7L37.4228 215.096C37.6192 216.787 39.0563 218.1 40.7999 218.1H122.4L122.796 218.077C124.487 217.881 125.8 216.444 125.8 214.7L125.777 214.303C125.581 212.612 124.144 211.3 122.4 211.3H44.1999V88.8999H170L170.396 88.877C172.087 88.6806 173.4 87.2435 173.4 85.4999C173.4 83.6221 171.878 82.0999 170 82.0999H44.1999V61.6999H221V112.7L221.023 113.096C221.219 114.787 222.656 116.1 224.4 116.1C226.278 116.1 227.8 114.578 227.8 112.7V58.2999L227.777 57.9034Z" fill="#000091"/>
    <path d="M241.4 173.9C241.4 141.978 215.522 116.1 183.6 116.1C151.678 116.1 125.8 141.978 125.8 173.9C125.8 203.211 147.618 227.426 175.899 231.191L174.396 232.696L174.113 233.016C173.076 234.35 173.17 236.278 174.396 237.504C175.724 238.832 177.876 238.832 179.204 237.504L186.004 230.704C186.104 230.604 186.198 230.498 186.285 230.386C186.474 230.142 186.628 229.876 186.742 229.601C186.887 229.251 186.975 228.872 186.995 228.475C186.998 228.417 187 228.359 187 228.3C187 227.842 186.909 227.405 186.745 227.006C186.579 226.602 186.332 226.224 186.004 225.896L179.204 219.096L178.884 218.813C177.55 217.776 175.621 217.87 174.396 219.096L174.113 219.416C173.076 220.75 173.17 222.678 174.396 223.904L174.6 224.108C150.726 219.857 132.6 198.995 132.6 173.9C132.6 145.733 155.433 122.9 183.6 122.9C211.766 122.9 234.6 145.733 234.6 173.9C234.6 185.796 230.518 197.058 223.161 206.089C221.975 207.544 222.193 209.686 223.649 210.872C225.105 212.058 227.247 211.84 228.433 210.384C236.77 200.151 241.4 187.376 241.4 173.9Z" fill="#000091"/>
    <path d="M219.729 219.019C221.194 217.845 221.43 215.705 220.255 214.24C219.08 212.775 216.941 212.539 215.476 213.714C213.47 215.322 211.346 216.777 209.123 218.064C207.498 219.006 206.944 221.086 207.885 222.711C208.826 224.336 210.906 224.89 212.531 223.949C215.051 222.489 217.457 220.841 219.729 219.019Z" fill="#000091"/>
    <path d="M191.156 137.264C188.687 136.757 186.159 136.5 183.6 136.5C162.944 136.5 146.2 153.244 146.2 173.9C146.2 194.555 162.944 211.3 183.6 211.3C204.255 211.3 221 194.555 221 173.9C221 168.746 219.955 163.732 217.955 159.096C217.211 157.372 215.21 156.578 213.486 157.321C211.762 158.065 210.967 160.066 211.711 161.79C213.346 165.579 214.2 169.677 214.2 173.9C214.2 190.8 200.5 204.5 183.6 204.5C166.7 204.5 153 190.8 153 173.9C153 157 166.7 143.3 183.6 143.3C185.699 143.3 187.769 143.511 189.789 143.925C191.628 144.303 193.426 143.118 193.803 141.279C194.181 139.439 192.996 137.642 191.156 137.264Z" fill="#000091"/>
    <path d="M129.2 109.3C131.078 109.3 132.6 110.822 132.6 112.7C132.6 114.444 131.287 115.881 129.596 116.077L129.2 116.1H67.9999C66.1221 116.1 64.5999 114.578 64.5999 112.7C64.5999 110.956 65.9124 109.519 67.6034 109.323L67.9999 109.3H129.2Z" fill="#000091"/>
    <path d="M119 133.1C119 131.222 117.478 129.7 115.6 129.7H67.9999L67.6034 129.723C65.9124 129.919 64.5999 131.356 64.5999 133.1C64.5999 134.978 66.1221 136.5 67.9999 136.5H115.6L115.996 136.477C117.687 136.281 119 134.844 119 133.1Z" fill="#000091"/>
    <path d="M108.8 150.1C110.678 150.1 112.2 151.622 112.2 153.5C112.2 155.244 110.887 156.681 109.196 156.877L108.8 156.9H67.9999C66.1221 156.9 64.5999 155.378 64.5999 153.5C64.5999 151.756 65.9124 150.319 67.6034 150.123L67.9999 150.1H108.8Z" fill="#000091"/>
</svg>
