<?xml version="1.0" encoding="UTF-8"?>
<svg version="1.1" xmlns="http://www.w3.org/2000/svg" width="2470" height="1360">
<path d="M0 0 C815.1 0 1630.2 0 2470 0 C2470 448.8 2470 897.6 2470 1360 C1654.9 1360 839.8 1360 0 1360 C0 911.2 0 462.4 0 0 Z " fill="#FEFEFE" transform="translate(0,0)"/>
<path d="M0 0 C0.6506543 0.25201172 1.30130859 0.50402344 1.97167969 0.76367188 C28.94107039 11.30866571 48.5007716 30.03293787 60.5 56.28125 C61.80832019 59.4897495 62.94408186 62.70025583 64 66 C64.3196875 66.97066406 64.639375 67.94132812 64.96875 68.94140625 C70.00817747 87.58262176 68.589127 108.97232251 62 127 C61.77006348 127.64598145 61.54012695 128.29196289 61.30322266 128.95751953 C56.46503973 142.21201785 48.69801525 152.89148675 39 163 C38.34128906 163.71027344 37.68257812 164.42054688 37.00390625 165.15234375 C22.7670439 180.07670046 -0.02888451 191.31345594 -20.79272461 192.10668945 C-24.09170147 192.17073487 -27.38792287 192.18561345 -30.6875 192.1875 C-31.79544922 192.19974609 -32.90339844 192.21199219 -34.04492188 192.22460938 C-56.10596745 192.26329034 -77.30141183 184.53395637 -94 170 C-94.81984375 169.31164062 -95.6396875 168.62328125 -96.484375 167.9140625 C-114.4678314 152.38289561 -127.83602342 128.21677891 -129.90625 104.25390625 C-129.9371875 103.51011719 -129.968125 102.76632812 -130 102 C-130.0515625 100.85402344 -130.103125 99.70804687 -130.15625 98.52734375 C-130.95354666 71.75146442 -121.51835162 47.04795572 -104 27 C-103.01580078 25.86304688 -103.01580078 25.86304688 -102.01171875 24.703125 C-77.80942915 -1.20939063 -33.38741378 -13.41810956 0 0 Z " fill="#FEFEFF" transform="translate(1065,323)"/>
<path d="M0 0 C2.73337583 2.19566255 5.3742419 4.45661027 7.984375 6.796875 C8.60699219 7.33699219 9.22960937 7.87710937 9.87109375 8.43359375 C24.87763393 22.32076497 34.69508254 43.29178597 36.19287109 63.62768555 C36.2874637 66.60384928 36.31333114 69.56926818 36.296875 72.546875 C36.28950317 74.13012573 36.28950317 74.13012573 36.28198242 75.74536133 C35.89422165 101.64976915 24.29735813 123.24212559 6.0390625 141.12109375 C-14.09868659 159.41673399 -39.73995763 163.95199529 -66.015625 162.796875 C-89.53510099 160.91472412 -110.27371958 146.57509384 -125.265625 129.109375 C-134.20354999 117.28032416 -139.54658398 104.10666922 -143.015625 89.796875 C-143.21800781 89.01828125 -143.42039062 88.2396875 -143.62890625 87.4375 C-147.10553632 63.69808659 -141.34676145 39.57751821 -127.72070312 19.9296875 C-118.19423623 7.18998438 -106.02851379 -1.92655263 -92.015625 -9.203125 C-91.21382812 -9.62464844 -90.41203125 -10.04617188 -89.5859375 -10.48046875 C-61.39392869 -24.16340343 -24.64993754 -18.00850359 0 0 Z " fill="#FEFFFE" transform="translate(859.015625,437.203125)"/>
<path d="M0 0 C1.09908691 0.00604248 2.19817383 0.01208496 3.33056641 0.01831055 C10.94330459 0.1113965 18.18662042 0.52265496 25.625 2.25 C26.52347656 2.45625 27.42195313 2.6625 28.34765625 2.875 C31.14000538 3.58212726 33.87666104 4.38762898 36.625 5.25 C38.24341797 5.75660156 38.24341797 5.75660156 39.89453125 6.2734375 C57.98635391 12.32435013 72.77951835 22.19303824 86.625 35.25 C87.30175781 35.86230469 87.97851562 36.47460938 88.67578125 37.10546875 C109.37925902 56.56424846 121.3166275 86.32527964 122.73291016 114.38818359 C123.73274666 149.61006643 111.87093024 179.59059059 88.35546875 205.77734375 C77.25687421 217.42810717 64.26560883 225.77280194 49.625 232.25 C47.99111328 232.97316406 47.99111328 232.97316406 46.32421875 233.7109375 C36.9210827 237.57523999 25.87173715 241.25 15.625 241.25 C15.625 285.47 15.625 329.69 15.625 375.25 C8.365 375.25 1.105 375.25 -6.375 375.25 C-6.375 331.03 -6.375 286.81 -6.375 241.25 C-14.79 240.755 -14.79 240.755 -23.375 240.25 C-28.11328125 239.234375 -28.11328125 239.234375 -31.6875 238 C-32.33936279 237.77820068 -32.99122559 237.55640137 -33.6628418 237.32788086 C-65.74302658 226.20491661 -91.91180748 205.66464799 -107.13085938 174.97167969 C-112.32109744 164.11507428 -116.52167138 153.18933807 -118.375 141.25 C-118.48714844 140.54359375 -118.59929688 139.8371875 -118.71484375 139.109375 C-122.74440927 107.53524516 -115.6326971 75.31932405 -96.47265625 49.70703125 C-94.49024284 47.17503789 -92.44965553 44.70682892 -90.375 42.25 C-89.70984375 41.43789063 -89.0446875 40.62578125 -88.359375 39.7890625 C-72.11064708 20.71185232 -47.90439304 7.03848353 -23.375 2.25 C-22.59527832 2.08226074 -21.81555664 1.91452148 -21.01220703 1.74169922 C-13.95627218 0.31173364 -7.18847088 -0.06350239 0 0 Z M-72.828125 55.84326172 C-89.87473864 75.23263913 -99.0523755 101.39196052 -97.54345703 127.24560547 C-95.41395584 152.58358347 -83.8854987 178.4929991 -64.375 195.25 C-40.85871116 215.0183803 -15.60632106 220.61172725 14.625 219.25 C19.45455938 218.8004346 24.0002685 217.70549925 28.625 216.25 C29.76453125 215.9096875 30.9040625 215.569375 32.078125 215.21875 C57.50283979 206.93051698 78.08992084 188.39399751 90.40234375 164.8515625 C92.00052742 161.36239816 93.35148785 157.87025116 94.625 154.25 C94.98682373 153.25468262 94.98682373 153.25468262 95.35595703 152.23925781 C103.93291978 127.88045776 101.44726131 100.97399054 90.4609375 77.890625 C77.86213649 52.48238472 56.51136269 35.4683695 30.0390625 26.2578125 C20.96764318 23.57997934 12.67516657 22.86190864 3.1875 22.875 C2.52403564 22.87554382 1.86057129 22.87608765 1.17700195 22.87664795 C-27.98810194 22.98644309 -53.13271752 34.24846514 -72.828125 55.84326172 Z " fill="#42BDFF" transform="translate(1032.375,295.75)"/>
<path d="M0 0 C1.87365234 -0.01160156 1.87365234 -0.01160156 3.78515625 -0.0234375 C10.56407348 -0.00912088 16.72201863 0.41137864 23.25 2.25 C24.16007813 2.46140625 25.07015625 2.6728125 26.0078125 2.890625 C55.85043712 10.5728848 79.99218627 28.93329197 96.05224609 55.20410156 C102.57927445 66.35300039 106.70544291 77.62096141 109.25 90.25 C109.47429687 91.22839844 109.69859375 92.20679688 109.9296875 93.21484375 C115.69547396 121.37241736 107.57300786 150.00677658 93.25 174.25 C91.6349931 176.46812151 90.00113207 178.58313649 88.18359375 180.63671875 C87.06347005 182.20671228 87.06347005 182.20671228 87.44448757 184.08111954 C88.50336481 186.93219679 90.05015961 188.41893225 92.2046051 190.56536865 C93.05580933 191.42069687 93.90701355 192.27602509 94.78401184 193.15727234 C95.73420636 194.0968499 96.68454382 195.03628294 97.63500977 195.97558594 C98.63086282 196.97059274 99.62605567 197.96626068 100.62063599 198.96253967 C103.32249135 201.66525646 106.03350255 204.35861802 108.74623227 207.05041409 C111.57965931 209.86509886 114.40460398 212.68827048 117.23045349 215.51055908 C122.58286719 220.85364512 127.9428829 226.18903725 133.30566114 231.52171826 C139.41062844 237.59316403 145.50708858 243.67312133 151.6028434 249.75381422 C164.14244253 262.262048 176.69270349 274.75953439 189.25 287.25 C188.63151436 287.97126068 188.63151436 287.97126068 188.00053406 288.70709229 C187.18948967 289.65307281 187.18948967 289.65307281 186.36206055 290.61816406 C185.82598679 291.24337952 185.28991302 291.86859497 184.7375946 292.51275635 C183.64151725 293.79277809 182.54843726 295.07536793 181.45703125 296.359375 C180.99683594 296.90078125 180.53664063 297.4421875 180.0625 298 C179.59457031 298.55171875 179.12664062 299.1034375 178.64453125 299.671875 C177.23745367 301.26419809 175.75825766 302.75399189 174.25 304.25 C173.72285275 303.71824378 173.19570549 303.18648756 172.65258408 302.63861752 C159.83893521 289.71465953 147.01155433 276.80448059 134.16865158 263.90959072 C127.95830735 257.67343918 121.75273769 251.43267063 115.55810547 245.1809082 C110.16032379 239.73336904 104.75387933 234.29460672 99.33674836 228.86630589 C96.46735842 225.99038424 93.6025678 223.11018968 90.74810028 220.21945 C88.06337014 217.50088144 85.36724626 214.79416872 82.6617794 212.096241 C81.66894513 211.10202673 80.68041569 210.10349279 79.69648933 209.10046196 C78.35631147 207.73554204 76.99924214 206.38726781 75.64129639 205.0400238 C74.88542614 204.27954459 74.12955589 203.51906538 73.35078049 202.73554134 C71.39238664 201.01767452 71.39238664 201.01767452 69.1584053 201.39935398 C66.19901432 202.71846274 63.60305948 204.55459064 60.9375 206.375 C36.5044942 222.53126857 6.63093793 229.42249601 -22.375 224 C-52.98670435 217.26976713 -79.66596034 199.92688276 -96.85498047 173.5546875 C-113.05538565 147.85698729 -118.20089338 117.69932233 -112.15649414 87.80444336 C-105.64926126 59.43377132 -87.87804315 33.67174375 -63.5859375 17.56640625 C-43.90053699 5.27475464 -23.11836305 -0.14494272 0 0 Z M-59.75 43.25 C-60.97976563 44.26513672 -60.97976563 44.26513672 -62.234375 45.30078125 C-79.10624441 59.69299713 -89.9864263 81.18513516 -91.75 103.25 C-92.78338805 121.03214114 -90.47795729 136.07100169 -82.75 152.25 C-82.30914063 153.17296875 -81.86828125 154.0959375 -81.4140625 155.046875 C-70.68162576 176.03738663 -51.90800553 190.53985312 -30.08203125 198.60546875 C-5.72547562 206.36929603 19.6518112 203.03625155 42.23046875 191.76171875 C50.37951225 187.34457874 56.74262304 181.74835147 63.25 175.25 C64.47396484 174.0434375 64.47396484 174.0434375 65.72265625 172.8125 C82.30833213 155.51560303 88.79076541 132.5999971 88.59912109 109.14526367 C88.00989843 83.61428566 77.18816507 63.06148312 59.25 45.25 C40.71880477 27.62049044 16.55511833 21.59333837 -8.33691406 22.15673828 C-27.35084642 22.89159483 -45.46000944 30.83887857 -59.75 43.25 Z " fill="#80FF02" transform="translate(806.75,397.75)"/>
<path d="M0 0 C13.0202626 9.82694616 23.69917511 22.07364201 27.8828125 38.17578125 C28.10453125 39.00851562 28.32625 39.84125 28.5546875 40.69921875 C32.58694173 58.84436277 29.68670428 76.96220058 20.8828125 93.17578125 C18.50278087 96.82713413 15.85369349 99.99385407 12.8828125 103.17578125 C11.77486328 104.43648437 11.77486328 104.43648437 10.64453125 105.72265625 C0.45562449 116.72867664 -14.564412 125.25329821 -29.74169922 126.36865234 C-43.12310917 126.75297482 -54.77896964 126.93872524 -67.1171875 121.17578125 C-68.08269531 120.75296875 -69.04820313 120.33015625 -70.04296875 119.89453125 C-77.96062965 116.04209087 -83.93972535 110.31774075 -90.1171875 104.17578125 C-90.7875 103.551875 -91.4578125 102.92796875 -92.1484375 102.28515625 C-103.29672035 91.03552537 -108.31007722 73.24030393 -108.5546875 57.86328125 C-108.42304812 39.05368308 -101.19187097 21.75414434 -88.1171875 8.17578125 C-63.8880267 -15.15461624 -27.89323163 -18.94028899 0 0 Z " fill="#FEFDFE" transform="translate(1284.1171875,473.82421875)"/>
<path d="M0 0 C1.49210726 1.42406328 2.97341915 2.85963816 4.4375 4.3125 C5.324375 5.158125 6.21125 6.00375 7.125 6.875 C7.888125 7.679375 8.65125 8.48375 9.4375 9.3125 C9.95570313 9.83585937 10.47390625 10.35921875 11.0078125 10.8984375 C25.71876788 26.53295061 33.06974256 48.39383032 32.875 69.5625 C32.86670166 70.73981689 32.85840332 71.91713379 32.84985352 73.13012695 C32.66645677 82.65044132 31.60460043 91.32730194 28.4375 100.3125 C28.20144043 100.9828125 27.96538086 101.653125 27.72216797 102.34375 C19.15581573 125.67339013 2.16918381 143.43156881 -20.125 154.125 C-43.08901277 163.93289941 -67.30869638 165.7639459 -90.78125 156.734375 C-98.19924547 153.71254883 -104.84528758 150.16380664 -111.328125 145.40234375 C-112.06546875 145.04269531 -112.8028125 144.68304687 -113.5625 144.3125 C-116.9181931 145.54873739 -119.06646288 147.57311043 -121.56069946 150.08364868 C-122.34582413 150.86891434 -123.13094879 151.65417999 -123.93986511 152.46324158 C-124.7919606 153.32566971 -125.64405609 154.18809784 -126.52197266 155.07666016 C-127.91023983 156.46941012 -129.29850726 157.86215982 -130.68678451 159.25489974 C-132.17559725 160.75044857 -133.66189734 162.24845411 -135.14751053 163.74718094 C-138.24295536 166.86967339 -141.34601705 169.9845204 -144.45028687 173.09823608 C-151.03528954 179.70543069 -157.6118048 186.3210442 -164.1875 192.9375 C-171.29310891 200.08712068 -178.40013849 207.23529308 -185.51693952 214.37377584 C-188.60513225 217.47195678 -191.68837784 220.574955 -194.76797891 223.6816752 C-196.22069016 225.14568376 -197.67564827 226.60741297 -199.13166809 228.06813049 C-200.91033029 229.85255844 -202.68536256 231.64061429 -204.45619202 233.43281555 C-205.62541954 234.60225456 -205.62541954 234.60225456 -206.81826782 235.7953186 C-207.8364305 236.82014312 -207.8364305 236.82014312 -208.87516212 237.86567116 C-210.5625 239.3125 -210.5625 239.3125 -212.5625 239.3125 C-213.7890625 237.80859375 -213.7890625 237.80859375 -215.1875 235.75 C-218.43828911 231.23590919 -222.26124834 227.80590236 -226.5625 224.3125 C-225.12052042 221.01222125 -223.33430823 218.83694486 -220.79135132 216.30084229 C-219.61345284 215.11881981 -219.61345284 215.11881981 -218.41175842 213.91291809 C-217.11811623 212.63006172 -217.11811623 212.63006172 -215.79833984 211.32128906 C-214.89096573 210.41362289 -213.98359161 209.50595673 -213.04872131 208.57078552 C-210.56370797 206.08519862 -208.07257876 203.60582422 -205.58030653 201.12751865 C-202.97554986 198.53526884 -200.37646002 195.93734996 -197.77676392 193.34002686 C-192.85446785 188.42394568 -187.92709597 183.51298477 -182.99788058 178.6038425 C-177.38577399 173.0140946 -171.77934885 167.41866312 -166.17339396 161.82274675 C-154.64273972 150.31299472 -143.10497086 138.81040204 -131.5625 127.3125 C-132.1819751 126.22767334 -132.8014502 125.14284668 -133.43969727 124.02514648 C-133.78815201 123.41493149 -134.13660675 122.80471649 -134.49562073 122.17601013 C-135.50193876 120.41828187 -136.5144457 118.66410099 -137.52734375 116.91015625 C-149.52419207 95.64097471 -153.77092146 70.23633987 -147.53710938 46.29467773 C-140.32852492 21.84596127 -123.74112479 1.68848075 -101.5625 -10.6875 C-69.65799754 -27.08529831 -27.40119915 -24.39721584 0 0 Z M-112.1640625 26.23046875 C-124.78852715 42.21160544 -129.3292585 60.26085534 -127.5625 80.3125 C-125.49367189 95.80499406 -117.62629465 109.53582805 -106.5625 120.3125 C-105.89992188 121.00730469 -105.23734375 121.70210937 -104.5546875 122.41796875 C-93.68153882 133.10507496 -77.64064708 139.61079398 -62.50488281 139.78100586 C-61.45139648 139.77077393 -60.39791016 139.76054199 -59.3125 139.75 C-58.2100293 139.74170166 -57.10755859 139.73340332 -55.97167969 139.72485352 C-37.5946093 139.3445916 -22.51502623 132.41639131 -9.5625 119.3125 C-8.78003906 118.55195312 -7.99757813 117.79140625 -7.19140625 117.0078125 C5.61936957 103.82978004 10.68060066 87.0356813 10.68847656 69.015625 C10.4198008 50.09433792 2.61388901 34.28027791 -10.1796875 20.59765625 C-23.56110744 7.76465516 -42.47381857 0.4541299 -60.96191406 0.79150391 C-81.15031848 1.75139548 -98.885331 11.33675639 -112.1640625 26.23046875 Z " fill="#E50280" transform="translate(1303.5625,460.6875)"/>
<path d="M0 0 C11.22 0 22.44 0 34 0 C34.68835938 4.79724609 34.68835938 4.79724609 35.390625 9.69140625 C35.84994999 12.87584849 36.3104225 16.0601229 36.77099609 19.24438477 C37.08436271 21.41511144 37.39658359 23.5860039 37.70751953 25.75708008 C39.48547061 38.16533733 41.3965976 50.53130306 43.58929443 62.87330627 C44.9694863 70.68704305 46.13770671 78.51686682 47.21002197 86.37805176 C48.79372022 97.96694951 50.53879443 109.5003353 52.62548828 121.01074219 C53.73852072 127.23968052 54.60934421 133.46962083 55.375 139.75 C56.6317893 149.9921522 58.30886528 160.14612601 60.0625 170.3125 C60.19251404 171.06825317 60.32252808 171.82400635 60.45648193 172.60266113 C61.86315754 180.75680692 63.308654 188.89908274 65 197 C67.93018369 179.75793403 67.93018369 179.75793403 70.5078125 162.4609375 C71.45900632 155.77238413 72.54882507 149.1048884 73.61328125 142.43359375 C73.98542772 140.09170235 74.35304777 137.74915552 74.71875 135.40625 C76.23579727 125.70128957 77.81597123 116.00867818 79.46655273 106.32543945 C80.48451367 100.29419243 81.41413746 94.25358204 82.30859375 88.203125 C83.60500706 79.46106115 84.99450793 70.73519559 86.41015625 62.01171875 C86.57061998 61.02215022 86.57061998 61.02215022 86.73432541 60.01259041 C87.73408332 53.84870615 88.73675994 47.68529813 89.74145508 41.5222168 C90.29785808 38.10832736 90.85214243 34.69409889 91.40524101 31.27967262 C91.71046903 29.39929876 92.01803541 27.51930492 92.32569885 25.639328 C93.70806727 17.10288215 94.85595125 8.58036559 96 0 C106.89 0 117.78 0 129 0 C129.65607975 7.21687722 130.209404 14.33169615 130.46484375 21.55859375 C130.5211068 23.05375267 130.5211068 23.05375267 130.57850647 24.57911682 C130.70120011 27.8651404 130.81945158 31.15130652 130.9375 34.4375 C131.0239506 36.78451029 131.1105423 39.13151539 131.19726562 41.47851562 C131.88557347 60.24921461 132.50776935 79.02207298 133.12472534 97.79522705 C133.7115809 115.63580794 134.32715854 133.47494167 135 151.3125 C135.04058533 152.38925995 135.08117065 153.4660199 135.12298584 154.57540894 C135.57450435 166.49435131 136.05354371 178.41182875 136.5703125 190.328125 C136.64037506 191.94759285 136.64037506 191.94759285 136.71185303 193.59977722 C136.93366682 198.71101532 137.15899103 203.82205879 137.390625 208.93286133 C137.79347382 217.96440972 138.10542062 226.95641666 138 236 C133.05 236 128.1 236 123 236 C122.24879699 232.99518794 121.85181074 230.82722557 121.74807739 227.82072449 C121.7173882 226.99243071 121.68669901 226.16413692 121.65507984 225.31074333 C121.62597869 224.40793192 121.59687754 223.50512051 121.56689453 222.57495117 C121.51529316 221.13370723 121.51529316 221.13370723 121.46264935 219.66334724 C121.3487638 216.45667968 121.24086765 213.24983764 121.1328125 210.04296875 C121.05314001 207.77514656 120.97302768 205.50733978 120.89250183 203.23954773 C120.72148933 198.40543983 120.55285291 193.57125755 120.38613892 188.73699951 C119.95115158 176.13290211 119.50110004 163.52933867 119.05078125 150.92578125 C119.00617704 149.67389008 118.96157284 148.4219989 118.91561699 147.13217163 C118.13926474 125.37553924 117.26569757 103.62452801 116.3125 81.875 C115.33780405 59.58759976 114.45255125 37.30502611 114 15 C112.02 15 110.04 15 108 15 C107.96140775 15.72815918 107.92281549 16.45631836 107.88305378 17.20654297 C107.25873311 26.97178623 105.74018751 36.48726208 104.10424805 46.125 C103.80469115 47.91540055 103.50563312 49.70588463 103.20703125 51.4964447 C102.40007751 56.32632903 101.58603543 61.15499355 100.77053046 65.9834404 C99.91304346 71.06716901 99.06176262 76.15193709 98.20967102 81.23657227 C96.7768701 89.78092736 95.33972094 98.32454175 93.8996582 106.86767578 C92.24364724 116.69206951 90.59316023 126.5173778 88.94598168 136.343256 C87.18187683 146.86649778 85.41419395 157.3891361 83.64521813 167.91156006 C83.14085419 170.91289115 82.63708319 173.91432128 82.13342857 176.91577148 C75.39671512 217.04640448 75.39671512 217.04640448 72 234 C67.05 234 62.1 234 57 234 C55.50066239 225.47048975 54.00451223 216.94043708 52.51343155 208.40948009 C51.82037132 204.44494186 51.12610594 200.48062391 50.42871094 196.5168457 C47.60036712 180.43653076 44.84198734 164.36494659 42.52154541 148.20195007 C41.20080984 139.10835606 39.6891249 130.05421226 38.125 121 C37.99834709 120.26649637 37.87169418 119.53299274 37.74120331 118.77726173 C36.83186657 113.51740778 35.91657895 108.25859605 35 103 C31.56169827 83.27377789 28.23795811 63.55499387 25.39477539 43.73187256 C24.55478768 37.91910043 23.65025554 32.11619655 22.75 26.3125 C22.57726562 25.19423828 22.40453125 24.07597656 22.2265625 22.92382812 C21.81845045 20.28243628 21.40962474 17.6411576 21 15 C19.02 15 17.04 15 15 15 C15.00833579 16.13159483 15.01667158 17.26318966 15.02525997 18.42907524 C15.08633583 30.5321243 14.76883698 42.59204826 14.28149414 54.68408203 C14.2039953 56.67537269 14.12681056 58.66667559 14.0499115 60.6579895 C13.8426219 65.99987865 13.63065477 71.34157202 13.41749883 76.68322992 C13.23958344 81.15264857 13.06400547 85.62215785 12.88840669 90.09166801 C12.47464968 100.62195767 12.05706219 111.1520905 11.63696289 121.68212891 C11.20347114 132.54942475 10.77627096 143.41695526 10.35212237 154.28461945 C9.98700578 163.63454859 9.61819723 172.98432696 9.24635214 182.33399093 C9.02457523 187.91105898 8.80418748 193.48817308 8.58729744 199.0654335 C8.38391512 204.29092419 8.17593703 209.51621151 7.96431923 214.74137497 C7.8872706 216.66307278 7.81187564 218.58483767 7.73820877 220.50666809 C7.6378692 223.117611 7.53170086 225.72825111 7.42396545 228.33889771 C7.39575071 229.10899614 7.36753596 229.87909458 7.33846623 230.67252934 C7.11414549 235.88585451 7.11414549 235.88585451 6 237 C3.64686445 237.07271741 1.29166332 237.08370868 -1.0625 237.0625 C-2.35285156 237.05347656 -3.64320313 237.04445313 -4.97265625 237.03515625 C-6.47119141 237.01775391 -6.47119141 237.01775391 -8 237 C-8.24658011 221.15248575 -8.01931224 205.37849235 -7.25033569 189.55012321 C-7.0125839 184.63387406 -6.78903425 179.7169809 -6.56591797 174.80004883 C-6.49522661 173.24361207 -6.49522661 173.24361207 -6.42310715 171.65573215 C-5.88068944 159.56340053 -5.43615663 147.4676526 -5 135.37109375 C-4.95891994 134.23438547 -4.91783989 133.09767719 -4.87551498 131.92652321 C-4.62324988 124.93418288 -4.37364274 117.94174975 -4.125 110.94927979 C-3.79362631 101.63958841 -3.45915412 92.33000752 -3.12445068 83.02043533 C-3.04189361 80.72394716 -2.95941398 78.4274562 -2.87701416 76.13096237 C-1.96570548 50.75213255 -0.98851021 25.37592463 0 0 Z " fill="#040404" transform="translate(650,827)"/>
<path d="M0 0 C0.91265625 0.43957031 1.8253125 0.87914062 2.765625 1.33203125 C28.30213075 14.28695449 46.2697485 37.81386971 55.8125 64.375 C63.48415182 89.10052646 63.02983854 114.71284806 54 139 C45.75 139 37.5 139 29 139 C30.07058318 135.78825046 31.14612398 132.57801579 32.25390625 129.37890625 C32.69017136 128.10679387 33.12636846 126.83465817 33.5625 125.5625 C33.89411133 124.61793945 33.89411133 124.61793945 34.23242188 123.65429688 C41.37497141 102.65822226 37.6951696 78.65396265 28.27099609 59.08764648 C17.37456738 37.66462228 -0.98013107 23.60224179 -23 15 C-27.3002834 13.71464057 -31.5783285 12.75817413 -36 12 C-36.70253906 11.86980469 -37.40507813 11.73960937 -38.12890625 11.60546875 C-40.09130232 11.29820423 -42.01753345 11.12505355 -44 11 C-44.87011719 10.93554688 -45.74023438 10.87109375 -46.63671875 10.8046875 C-69.10023133 9.9418125 -89.41406752 17.47610172 -107 31 C-108.10408203 31.82757812 -108.10408203 31.82757812 -109.23046875 32.671875 C-125.44516115 45.74719582 -136.60467292 68.46357803 -138.83227539 88.98632812 C-140.16173788 104.94761863 -138.21040732 119.72982801 -131.98828125 134.5234375 C-131 137 -131 137 -131 139 C-138.92 139 -146.84 139 -155 139 C-159 128 -159 128 -159 126 C-206.19 126 -253.38 126 -302 126 C-302 118.74 -302 111.48 -302 104 C-255.8 104 -209.6 104 -162 104 C-162 99.05 -162 94.1 -162 89 C-161.48614209 84.5465648 -160.8970067 80.36577829 -160 76 C-159.76667969 74.85273437 -159.53335937 73.70546875 -159.29296875 72.5234375 C-154.5588078 52.33299763 -144.10952811 35.9601025 -130 21 C-129.37609375 20.31164062 -128.7521875 19.62328125 -128.109375 18.9140625 C-95.7741675 -15.45907824 -40.79809237 -20.55436887 0 0 Z " fill="#960296" transform="translate(1404,621)"/>
<path d="M0 0 C1.17691406 -0.01611328 2.35382813 -0.03222656 3.56640625 -0.04882812 C11.79797889 -0.05335594 19.20034401 1.12673133 27.125 3.3125 C28.14634033 3.5919043 29.16768066 3.87130859 30.2199707 4.15917969 C52.56643313 10.55937034 71.64177444 27.20591524 83.27734375 46.9609375 C89.76979162 58.73793596 95.125 70.6952625 95.125 84.3125 C140.995 84.3125 186.865 84.3125 234.125 84.3125 C233.465 91.9025 232.805 99.4925 232.125 107.3125 C186.915 107.3125 141.705 107.3125 95.125 107.3125 C94.795 110.6125 94.465 113.9125 94.125 117.3125 C93.465 119.2925 92.805 121.2725 92.125 123.3125 C84.535 123.3125 76.945 123.3125 69.125 123.3125 C69.78447533 118.6961727 70.25037952 115.70029616 71.6875 111.5625 C76.60575426 93.81295865 72.48417354 75.23987167 63.89233398 59.40600586 C54.00903891 42.30312538 37.93133249 30.8362615 19.125 25.3125 C18.09503906 24.96316406 17.06507813 24.61382813 16.00390625 24.25390625 C-1.52812666 19.99890128 -21.57826526 23.42765837 -37.01171875 32.4609375 C-41.20593771 35.17316095 -45.11699354 38.02154979 -48.875 41.3125 C-49.53886719 41.88226562 -50.20273437 42.45203125 -50.88671875 43.0390625 C-64.35367158 55.4741663 -72.0207797 73.27271477 -73.19921875 91.42578125 C-73.54373795 100.43827908 -72.2546325 108.47414327 -69.75 117.1171875 C-68.875 120.3125 -68.875 120.3125 -68.875 123.3125 C-76.795 123.3125 -84.715 123.3125 -92.875 123.3125 C-99.37570439 97.58054511 -96.90447767 71.50416228 -84.14453125 48.14453125 C-70.75048405 26.4136858 -49.99576783 8.74309138 -24.875 2.3125 C-16.5600044 0.39620447 -8.51377792 -0.02316044 0 0 Z " fill="#FF8003" transform="translate(739.875,636.6875)"/>
<path d="M0 0 C10.54995267 5.61529739 19.31072171 13.29032366 22.9375 25.03125 C23.7128616 29.04356154 24.06152848 32.83243152 24.05775452 36.91586304 C24.05981651 38.64472244 24.05981651 38.64472244 24.06192017 40.4085083 C24.05652725 42.28370148 24.05652725 42.28370148 24.05102539 44.19677734 C24.05074307 45.53754677 24.05090214 46.87831635 24.0514679 48.21908569 C24.0517541 51.84672751 24.04588593 55.47433608 24.03889394 59.1019702 C24.03263098 62.89761911 24.03205427 66.69326884 24.03086853 70.48892212 C24.02776388 77.6710878 24.01956218 84.85323821 24.00951904 92.03539717 C23.99833098 100.21433868 23.99284067 108.39328093 23.98782361 116.57222819 C23.97737884 133.39191131 23.9595941 150.2115781 23.9375 167.03125 C18.9875 167.03125 14.0375 167.03125 8.9375 167.03125 C8.6075 161.42125 8.2775 155.81125 7.9375 150.03125 C6.81214844 150.81628906 5.68679688 151.60132813 4.52734375 152.41015625 C-22.7704979 171.21314177 -22.7704979 171.21314177 -40.0625 169.03125 C-46.66784777 167.81391828 -51.68772583 164.04167511 -56.0625 159.03125 C-61.89723943 149.90363782 -62.2437342 141.48292403 -62.25 130.90625 C-62.26224609 129.84148437 -62.27449219 128.77671875 -62.28710938 127.6796875 C-62.31419757 112.79924107 -59.83387845 99.04534353 -49.11669922 87.96557617 C-42.14954351 81.40498968 -34.70268974 77.72284762 -25.625 74.96875 C-24.58964111 74.64003906 -23.55428223 74.31132813 -22.48754883 73.97265625 C-20.37516265 73.30379607 -18.26049339 72.64210164 -16.14355469 71.98779297 C-13.21530396 71.07868945 -10.29802067 70.14139214 -7.3828125 69.19140625 C-5.67206601 68.63743062 -3.96113883 68.08401257 -2.25 67.53125 C-1.46246338 67.27593506 -0.67492676 67.02062012 0.13647461 66.75756836 C3.1777408 65.79476564 5.72682153 65.03125 8.9375 65.03125 C8.91792251 60.22900697 8.86573591 55.42855663 8.78491211 50.62695312 C8.76189176 48.99782103 8.74737431 47.36854349 8.74194336 45.73925781 C8.77008891 32.12078994 8.77008891 32.12078994 2.9375 20.03125 C-3.84313498 14.26049683 -11.02660902 13.5734531 -19.64453125 13.71875 C-25.95975814 14.29614217 -29.45334904 16.42209904 -33.875 20.84375 C-38.98541601 28.29035618 -39.55954071 34.07857467 -40.0625 43.03125 C-45.0125 43.03125 -49.9625 43.03125 -55.0625 43.03125 C-55.53622961 28.18772224 -52.89455524 18.40607992 -42.875 7.28125 C-32.53753654 -2.66306608 -13.22281659 -5.57837575 0 0 Z " fill="#030303" transform="translate(1874.0625,896.96875)"/>
<path d="M0 0 C10.28692632 7.5121633 16.17950089 16.04004361 18.16552734 28.63452148 C18.90812112 35.71930452 18.81891439 42.81807334 18.76831055 49.93481445 C18.74977539 52.64218331 18.74780329 55.34921423 18.74804688 58.05664062 C18.74314054 59.77604465 18.73731613 61.49544636 18.73046875 63.21484375 C18.72935593 64.0251152 18.7282431 64.83538666 18.72709656 65.67021179 C18.6786414 71.3057336 18.6786414 71.3057336 17.5625 72.421875 C15.38444281 72.51616842 13.2032872 72.53930038 11.02319336 72.53540039 C10.34029739 72.53554642 9.65740143 72.53569244 8.95381165 72.5358429 C6.68662386 72.53514376 4.41951726 72.5273514 2.15234375 72.51953125 C0.58435613 72.51766707 -0.98363207 72.51624317 -2.55162048 72.51524353 C-6.68626503 72.51141834 -10.82087466 72.50158806 -14.95550537 72.49053955 C-19.17150398 72.48032544 -23.38750822 72.47574591 -27.60351562 72.47070312 C-35.88152647 72.45996579 -44.1595089 72.44288936 -52.4375 72.421875 C-52.37606635 79.97657886 -52.29880186 87.53098362 -52.20178509 95.08531189 C-52.15721488 98.59379746 -52.11793038 102.10217049 -52.09106445 105.61083984 C-52.05988034 109.65230989 -52.00509755 113.69317037 -51.94921875 117.734375 C-51.94282883 118.9836377 -51.9364389 120.23290039 -51.92985535 121.52001953 C-51.76852424 131.14259285 -50.61953864 138.39943722 -43.4375 145.421875 C-37.60271425 149.35628985 -32.34863917 150.02168206 -25.4375 149.859375 C-24.58671875 149.86646484 -23.7359375 149.87355469 -22.859375 149.88085938 C-16.23828615 149.81485159 -10.39432191 148.88417617 -5.1953125 144.5546875 C-4.65648437 143.89210938 -4.11765625 143.22953125 -3.5625 142.546875 C-3.00820313 141.88945313 -2.45390625 141.23203125 -1.8828125 140.5546875 C1.14751649 136.08290473 1.82983512 132.16414294 1.9765625 126.80859375 C2.01523437 125.56142578 2.05390625 124.31425781 2.09375 123.02929688 C2.1246875 121.73572266 2.155625 120.44214844 2.1875 119.109375 C2.22617187 117.79646484 2.26484375 116.48355469 2.3046875 115.13085938 C2.39882859 111.89475949 2.48174784 108.65833666 2.5625 105.421875 C7.8425 105.421875 13.1225 105.421875 18.5625 105.421875 C19.41729308 140.43673239 19.41729308 140.43673239 6.5625 155.109375 C-4.87506811 165.41791278 -15.67339347 166.35228632 -30.58203125 165.9609375 C-41.63537281 165.26674465 -50.63429919 160.76459016 -58.1875 152.671875 C-66.01936414 143.1643562 -67.58109867 134.04321724 -67.61450195 122.07714844 C-67.62107315 121.04870316 -67.62764435 120.02025787 -67.63441467 118.96064758 C-67.65407594 115.56751423 -67.66579357 112.17442496 -67.67578125 108.78125 C-67.67985678 107.61874977 -67.6839323 106.45624954 -67.68813133 105.25852203 C-67.70896029 99.1067574 -67.72327642 92.95501488 -67.73266602 86.80322266 C-67.74373095 80.46382967 -67.77814144 74.12478761 -67.81783772 67.78551865 C-67.84402992 62.89716964 -67.85236014 58.00890403 -67.85594749 53.12049103 C-67.8608057 50.78421912 -67.8723977 48.44795075 -67.89098549 46.11174774 C-67.91543435 42.83561125 -67.91440117 39.56038022 -67.9074707 36.28417969 C-67.92028076 35.32902969 -67.93309082 34.3738797 -67.94628906 33.38978577 C-67.86849911 23.24691192 -63.97094011 14.16727521 -57.4375 6.421875 C-42.6764131 -7.53406171 -17.58959137 -11.38813287 0 0 Z " fill="#050505" transform="translate(448.4375,900.578125)"/>
<path d="M0 0 C8.74918238 6.25981435 14.48620411 14.21642443 17.59765625 24.4921875 C18.08897523 28.3338064 18.06861682 32.10094006 17.98828125 35.96875 C17.98425293 36.90227295 17.98022461 37.8357959 17.97607422 38.79760742 C17.95536948 42.23767147 17.89952655 45.67745222 17.84765625 49.1171875 C17.76515625 56.8309375 17.68265625 64.5446875 17.59765625 72.4921875 C-5.50234375 72.4921875 -28.60234375 72.4921875 -52.40234375 72.4921875 C-52.34046875 82.1859375 -52.27859375 91.8796875 -52.21484375 101.8671875 C-52.20815674 104.90856934 -52.20146973 107.94995117 -52.19458008 111.08349609 C-52.16811332 113.51922752 -52.13983155 115.95494019 -52.109375 118.390625 C-52.11336304 119.63497314 -52.11735107 120.87932129 -52.12145996 122.16137695 C-51.99598995 129.91280634 -51.00419618 136.08798957 -46.40234375 142.4921875 C-39.6227509 148.90979106 -34.13253185 149.6867534 -25.08984375 149.7421875 C-24.26033203 149.7628125 -23.43082031 149.7834375 -22.57617188 149.8046875 C-15.53262424 149.84916136 -11.08654125 148.33428383 -5.21484375 144.3046875 C2.28988797 136.79995578 2.23441609 129.12203416 2.34765625 118.9921875 C2.37730469 117.6928125 2.40695313 116.3934375 2.4375 115.0546875 C2.50780526 111.8675158 2.55504045 108.67984968 2.59765625 105.4921875 C7.54765625 105.4921875 12.49765625 105.4921875 17.59765625 105.4921875 C17.69041602 109.42159436 17.7697531 113.34814868 17.81738281 117.27807617 C17.84695759 119.25791658 17.89783158 121.23740251 17.94921875 123.21679688 C18.08265366 136.39349382 14.88333779 145.82220627 5.8203125 155.36328125 C-1.82768925 162.63592095 -10.27968107 166.10395031 -20.81640625 166.078125 C-21.87601563 166.04976562 -22.935625 166.02140625 -24.02734375 165.9921875 C-25.0946875 165.99476563 -26.16203125 165.99734375 -27.26171875 166 C-38.79404057 165.85832528 -47.95124723 162.63790667 -56.3828125 154.60546875 C-65.03980507 145.21013993 -67.70447526 135.37607161 -67.69287109 122.8503418 C-67.69958832 121.80224335 -67.70630554 120.7541449 -67.71322632 119.67428589 C-67.73216905 116.22161064 -67.73612865 112.76913018 -67.73828125 109.31640625 C-67.7447117 106.90655946 -67.75144025 104.49671345 -67.75845337 102.08686829 C-67.77041679 97.03909496 -67.77413514 91.99139002 -67.77294922 86.94360352 C-67.77274608 80.49099462 -67.80004819 74.03882637 -67.83449364 67.58632183 C-67.85678397 62.60960393 -67.8607861 57.63299172 -67.85972977 52.65622902 C-67.8620825 50.27809951 -67.87088742 47.89996694 -67.8863945 45.52188683 C-67.90609708 42.18835383 -67.90019897 38.85576661 -67.88818359 35.5222168 C-67.89942261 34.54993637 -67.91066162 33.57765594 -67.92224121 32.57591248 C-67.82402702 21.79593224 -63.74653725 13.28510973 -56.40234375 5.4921875 C-41.60088801 -7.82615645 -17.0859975 -10.72389437 0 0 Z " fill="#030303" transform="translate(2048.40234375,900.5078125)"/>
<path d="M0 0 C9.55712798 7.08900311 16.06618796 15.42919566 19 27 C19.40764726 30.55152076 19.43096805 34.06539525 19.41992188 37.63769531 C19.42839142 38.6617598 19.43686096 39.68582428 19.44558716 40.74092102 C19.46885508 44.10345111 19.46998156 47.46552072 19.46875 50.828125 C19.47585872 53.18308695 19.48355876 55.53804719 19.49182129 57.89300537 C19.50524348 62.82211117 19.50684542 67.75105686 19.50097656 72.68017578 C19.49508892 78.96889135 19.52564509 85.25683268 19.56609344 91.54539871 C19.59205918 96.40816319 19.59483967 101.27074357 19.59120178 106.13356781 C19.59288534 108.45060925 19.60245343 110.76765991 19.62034607 113.08463287 C19.73118187 129.21329262 19.22014399 142.07050432 8.16796875 154.84375 C-0.20108152 163.16756216 -9.52569829 166.36624504 -21.18945312 166.45898438 C-22.26130859 166.45189453 -23.33316406 166.44480469 -24.4375 166.4375 C-25.50548828 166.45748047 -26.57347656 166.47746094 -27.67382812 166.49804688 C-39.61269532 166.49075374 -48.55843629 162.44156371 -57 154 C-64.83580899 144.27888359 -67.46542205 133.81481456 -67.40405273 121.50244141 C-67.41091599 120.51709915 -67.41777924 119.5317569 -67.42485046 118.51655579 C-67.44298766 115.29474017 -67.43929941 112.07341767 -67.43359375 108.8515625 C-67.43816201 106.58914026 -67.44346949 104.32671941 -67.44947815 102.06430054 C-67.45838378 97.33545271 -67.45601538 92.60677399 -67.44604492 87.87792969 C-67.43456244 81.84718916 -67.45476937 75.81703482 -67.48396206 69.78637123 C-67.50239462 65.11748608 -67.50201748 60.44873956 -67.49632454 55.77982712 C-67.49617217 53.55769402 -67.50214611 51.33555102 -67.51461601 49.11345291 C-67.65917967 19.13187056 -67.65917967 19.13187056 -57 8 C-42.91211072 -6.19243762 -17.6671654 -11.82404673 0 0 Z M-45.8125 17.8125 C-46.35519531 18.43769531 -46.89789062 19.06289063 -47.45703125 19.70703125 C-51.77450453 26.12312446 -52.44134598 31.43649811 -52.40405273 38.99926758 C-52.41091599 39.97909103 -52.41777924 40.95891449 -52.42485046 41.96842957 C-52.44308816 45.193946 -52.43928444 48.41897451 -52.43359375 51.64453125 C-52.43815768 53.89743711 -52.44346388 56.15034157 -52.44947815 58.40324402 C-52.45840386 63.12150737 -52.45599297 67.83960142 -52.44604492 72.55786133 C-52.43456864 78.58677076 -52.45474948 84.61509331 -52.48396206 90.64392567 C-52.50236319 95.2963987 -52.50202355 99.94873221 -52.49632454 104.60123253 C-52.49617174 106.82305409 -52.50218188 109.04488536 -52.51461601 111.26667213 C-52.52959413 114.38233172 -52.51879763 117.49692133 -52.50170898 120.61254883 C-52.51137695 121.51937408 -52.52104492 122.42619934 -52.53100586 123.36050415 C-52.43686875 131.61078048 -50.31533964 138.81201248 -44.625 144.9375 C-38.57125648 150.77606306 -32.68091047 151.49990494 -24.625 151.4375 C-23.7175 151.45748047 -22.81 151.47746094 -21.875 151.49804688 C-14.58077387 151.49279167 -9.35779995 149.88235925 -3.79296875 145.10546875 C-2.99826172 144.15607422 -2.99826172 144.15607422 -2.1875 143.1875 C-1.64480469 142.56230469 -1.10210938 141.93710938 -0.54296875 141.29296875 C3.77450453 134.87687554 4.44134598 129.56350189 4.40405273 122.00073242 C4.41434761 120.53099724 4.41434761 120.53099724 4.42485046 119.03157043 C4.44308816 115.806054 4.43928444 112.58102549 4.43359375 109.35546875 C4.43815768 107.10256289 4.44346388 104.84965843 4.44947815 102.59675598 C4.45840386 97.87849263 4.45599297 93.16039858 4.44604492 88.44213867 C4.43456864 82.41322924 4.45474948 76.38490669 4.48396206 70.35607433 C4.50236319 65.7036013 4.50202355 61.05126779 4.49632454 56.39876747 C4.49617174 54.17694591 4.50218188 51.95511464 4.51461601 49.73332787 C4.52959413 46.61766828 4.51879763 43.50307867 4.50170898 40.38745117 C4.51621094 39.02721329 4.51621094 39.02721329 4.53100586 37.63949585 C4.4264485 28.47597788 1.6604855 21.0094495 -4.828125 14.47265625 C-10.98434946 10.29838175 -17.20301973 9.49808043 -24.5 9.5625 C-25.30308594 9.54251953 -26.10617187 9.52253906 -26.93359375 9.50195312 C-34.55516893 9.50812944 -40.82533212 11.85459385 -45.8125 17.8125 Z " fill="#040404" transform="translate(1669,900)"/>
<path d="M0 0 C8.8303719 6.27388661 15.1677796 14.47566565 18 25 C18.29376531 28.54563391 18.28353175 32.0797491 18.2746582 35.63598633 C18.27976913 36.69529861 18.28488007 37.7546109 18.29014587 38.84602356 C18.30402451 42.34141724 18.30308615 45.83661332 18.30078125 49.33203125 C18.30466953 51.7681231 18.30900448 54.20421427 18.31376648 56.64030457 C18.32122529 61.74533282 18.32094013 66.85029192 18.31567383 71.95532227 C18.30988418 78.48533634 18.32679996 85.01506633 18.3500185 91.54503345 C18.36477855 96.57661077 18.36562435 101.60812006 18.36250877 106.63971519 C18.36302099 109.04657236 18.3682399 111.45343344 18.37832069 113.86026955 C18.39070945 117.23230856 18.38387796 120.6037993 18.37231445 123.97583008 C18.37995819 124.96262756 18.38760193 125.94942505 18.39547729 126.96612549 C18.31070592 138.19665911 14.61724011 146.92286889 6.99609375 155.16796875 C-0.95693308 162.75108735 -9.3625876 166.61302445 -20.4140625 166.5859375 C-21.47367188 166.55757812 -22.53328125 166.52921875 -23.625 166.5 C-24.69234375 166.50257813 -25.7596875 166.50515625 -26.859375 166.5078125 C-38.40735287 166.36594545 -47.43980269 163.12548544 -55.9453125 155.18359375 C-62.33878602 148.33344355 -67.09551181 139.96326825 -67.14717102 130.44821167 C-67.15432632 129.54002182 -67.16148163 128.63183197 -67.16885376 127.69612122 C-67.17154266 126.70698227 -67.17423157 125.71784332 -67.17700195 124.69873047 C-67.18357315 123.6510701 -67.19014435 122.60340973 -67.19691467 121.52400208 C-67.21663257 118.05506314 -67.22830796 114.5861675 -67.23828125 111.1171875 C-67.24235678 109.930788 -67.2464323 108.7443885 -67.25063133 107.52203751 C-67.27148721 101.2406049 -67.28579016 94.95919411 -67.29516602 88.67773438 C-67.30621982 82.20152446 -67.34060974 75.72565912 -67.38033772 69.24957085 C-67.40653107 64.25999326 -67.41486038 59.27049737 -67.41844749 54.28085709 C-67.42330761 51.89434613 -67.43490506 49.50783868 -67.45348549 47.12139511 C-67.4779303 43.7732011 -67.47690153 40.42589334 -67.4699707 37.07763672 C-67.48278076 36.10064316 -67.49559082 35.1236496 -67.50878906 34.11705017 C-67.43209804 23.89968216 -63.58672554 14.80857015 -57 7 C-42.40828485 -6.79580341 -17.72943695 -10.73295476 0 0 Z M-46 17 C-49.49951424 21.89733721 -52.10874603 26.13288589 -52.15390015 32.27967834 C-52.16250061 33.15283691 -52.17110107 34.02599548 -52.17996216 34.9256134 C-52.18422211 35.88094467 -52.18848206 36.83627594 -52.19287109 37.82055664 C-52.20104858 38.8290567 -52.20922607 39.83755676 -52.21765137 40.87661743 C-52.2425039 44.22112434 -52.25902386 47.56558872 -52.2734375 50.91015625 C-52.27876118 52.05334257 -52.28408485 53.19652889 -52.28956985 54.37435722 C-52.31630475 60.42884526 -52.33567593 66.48331268 -52.35009766 72.5378418 C-52.36342197 77.54193461 -52.39124702 82.54561821 -52.43212891 87.54956055 C-52.48152825 93.59607693 -52.50622833 99.64222285 -52.51332474 105.68893242 C-52.52002537 107.98893716 -52.53521626 110.28893403 -52.55921555 112.58882332 C-52.59097642 115.81754302 -52.59088656 119.04484553 -52.58349609 122.27368164 C-52.59990143 123.21484329 -52.61630676 124.15600494 -52.63320923 125.12568665 C-52.56257375 132.70762756 -50.40933159 139.27461577 -45.21516991 144.95028782 C-39.09260276 150.6914324 -32.64448866 151.34409495 -24.5625 151.3125 C-23.74201172 151.32861328 -22.92152344 151.34472656 -22.07617188 151.36132812 C-14.31364899 151.36752327 -8.43552047 149.23521351 -2.69121361 143.85705662 C2.89580648 137.72216474 3.59108365 130.35653309 3.54931641 122.40649414 C3.55953827 121.38736435 3.56976013 120.36823456 3.58029175 119.31822205 C3.6079276 115.97362302 3.6061827 112.62985537 3.6015625 109.28515625 C3.6093444 106.94542641 3.61801538 104.60569938 3.62753296 102.26597595 C3.6424233 97.37131576 3.64189937 92.47694418 3.63134766 87.58227539 C3.61975599 81.3267423 3.65364016 75.07239312 3.700037 68.8170557 C3.72957614 63.98784035 3.73124657 59.15890815 3.72501755 54.32961845 C3.72604053 52.02404878 3.73645132 49.71846253 3.75664139 47.41298103 C3.78146712 44.1821828 3.76773528 40.95366529 3.74462891 37.72290039 C3.75991638 36.78181427 3.77520386 35.84072815 3.79095459 34.87112427 C3.67746761 27.64995531 1.31150735 22.75208838 -3 17 C-5.25335068 14.73424161 -5.25335068 14.73424161 -7.625 13.4375 C-8.35976562 12.98246094 -9.09453125 12.52742187 -9.8515625 12.05859375 C-20.51540172 6.80422933 -37.60364156 8.60364156 -46 17 Z " fill="#030303" transform="translate(1206,900)"/>
<path d="M0 0 C7.10861385 4.22504915 11.52103773 10.56713758 14.21484375 18.31640625 C14.88725028 23.19474809 14.85010472 28.03251425 14.7824707 32.94580078 C14.78105761 34.39553274 14.78185731 35.84526827 14.78468323 37.29499817 C14.78610863 41.20162582 14.75686293 45.10747445 14.72181344 49.01392221 C14.6904022 53.10713073 14.68760763 57.2003602 14.6816864 61.29367065 C14.66619108 69.03189736 14.6252216 76.76976779 14.57493895 84.50783813 C14.5189106 93.32284578 14.49152519 102.13787111 14.46646178 110.9530127 C14.41430142 129.07435094 14.32542798 147.19533679 14.21484375 165.31640625 C9.26484375 165.31640625 4.31484375 165.31640625 -0.78515625 165.31640625 C-0.79062469 162.6303273 -0.79062469 162.6303273 -0.79620361 159.88998413 C-0.83311967 143.02704002 -0.89061798 126.16427738 -0.96905899 109.30147362 C-1.0088593 100.6318061 -1.04124673 91.96222948 -1.05615234 83.29248047 C-1.06916375 75.73544373 -1.09611523 68.17860691 -1.13976932 60.62168276 C-1.16239579 56.62072932 -1.17806623 52.62002258 -1.1770401 48.61899948 C-1.17629417 44.85139081 -1.19421716 41.0843277 -1.22632408 37.3168602 C-1.23482749 35.93583159 -1.23656995 34.55474182 -1.23095894 33.17369843 C-0.99262409 23.37928186 -0.99262409 23.37928186 -5.78515625 15.31640625 C-9.82590521 12.84705966 -14.17398869 12.70263309 -18.78515625 13.31640625 C-30.78814373 16.23405551 -40.36534828 23.93587488 -49.7265625 31.65234375 C-51.78515625 33.31640625 -51.78515625 33.31640625 -54.78515625 35.31640625 C-55.24868725 37.70129436 -55.24868725 37.70129436 -55.18388367 40.53018188 C-55.19642181 41.63518539 -55.20895996 42.7401889 -55.22187805 43.87867737 C-55.22044296 45.09643356 -55.21900787 46.31418976 -55.2175293 47.56884766 C-55.22772095 48.84685745 -55.2379126 50.12486725 -55.24841309 51.44160461 C-55.2760663 54.9517272 -55.28527876 58.4616878 -55.29126716 61.97190523 C-55.30062933 65.63818605 -55.32683084 69.30434482 -55.35127258 72.97055054 C-55.39500093 79.915531 -55.42350886 86.86048788 -55.44659597 93.80556428 C-55.47361381 101.71121338 -55.51752732 109.61674008 -55.56288469 117.52230191 C-55.65582163 133.7869437 -55.72686144 150.051603 -55.78515625 166.31640625 C-60.73515625 166.31640625 -65.68515625 166.31640625 -70.78515625 166.31640625 C-70.78515625 111.53640625 -70.78515625 56.75640625 -70.78515625 0.31640625 C-65.83515625 0.31640625 -60.88515625 0.31640625 -55.78515625 0.31640625 C-55.45515625 5.59640625 -55.12515625 10.87640625 -54.78515625 16.31640625 C-52.64015625 14.83140625 -50.49515625 13.34640625 -48.28515625 11.81640625 C-33.98884748 2.12537336 -17.3756116 -8.08233473 0 0 Z " fill="#020202" transform="translate(1324.78515625,897.68359375)"/>
<path d="M0 0 C1.05896484 -0.01095703 2.11792969 -0.02191406 3.20898438 -0.03320312 C15.01768538 0.07593459 23.88977681 4.23303425 32.3125 12.375 C41.89772893 22.62127921 43.57326392 31.9861076 43.4375 45.5625 C38.4875 45.5625 33.5375 45.5625 28.4375 45.5625 C28.375625 43.95375 28.31375 42.345 28.25 40.6875 C27.43295473 31.99100448 24.11655182 25.30368994 17.37890625 19.71875 C11.81540113 16.40527411 6.35329043 16.19739118 0.0625 16.1875 C-0.74960937 16.16300781 -1.56171875 16.13851562 -2.3984375 16.11328125 C-9.2341533 16.08041723 -14.41650341 17.79305126 -19.5859375 22.34375 C-20.03195312 22.9109375 -20.47796875 23.478125 -20.9375 24.0625 C-21.39898437 24.6296875 -21.86046875 25.196875 -22.3359375 25.78125 C-27.27601193 32.95537083 -26.77154893 42.17963595 -25.5625 50.5625 C-23.96371624 54.53828345 -21.80137158 56.81144445 -18.5625 59.5625 C-17.77488281 60.28050781 -16.98726563 60.99851562 -16.17578125 61.73828125 C-7.87410818 68.92313732 1.48098294 74.75260365 10.7109375 80.65625 C23.45303501 88.91077075 39.85257813 100.95856473 43.4375 116.5625 C45.01808605 132.49091092 43.65410482 146.69073235 33.4375 159.5625 C25.87283115 167.25603884 17.09113552 171.5704127 6.24609375 172.09375 C4.12239602 172.10420513 1.99849526 172.09363249 -0.125 172.0625 C-1.18396484 172.07796875 -2.24292969 172.0934375 -3.33398438 172.109375 C-15.32307621 172.05027905 -23.99306444 167.86506732 -32.5625 159.5625 C-42.35636997 148.46558296 -43.14891148 134.78883211 -42.8125 120.75 C-42.79237329 119.26760267 -42.77413358 117.78517849 -42.7578125 116.30273438 C-42.71437631 112.72208446 -42.6457031 109.14247325 -42.5625 105.5625 C-40.08326199 105.53564905 -37.6043116 105.51573453 -35.125 105.5 C-34.41794922 105.49162109 -33.71089844 105.48324219 -32.98242188 105.47460938 C-31.17556441 105.46596412 -29.36862397 105.51029989 -27.5625 105.5625 C-25.65219029 107.47280971 -26.40240324 110.99287334 -26.38671875 113.59765625 C-26.3634948 115.06186293 -26.33937646 116.52605564 -26.31445312 117.99023438 C-26.27952732 120.29851257 -26.25010974 122.60628635 -26.23657227 124.91479492 C-26.25217163 138.22729274 -26.25217163 138.22729274 -19.78125 149.5859375 C-18.93046875 150.25496094 -18.93046875 150.25496094 -18.0625 150.9375 C-17.4953125 151.39898438 -16.928125 151.86046875 -16.34375 152.3359375 C-11.04180016 155.98684156 -6.60166317 155.9288013 -0.3125 155.9375 C0.60402344 155.96199219 1.52054688 155.98648437 2.46484375 156.01171875 C8.02457569 156.03551218 11.94642106 155.33737481 16.77246094 152.52197266 C18.4375 151.5625 18.4375 151.5625 21.4375 150.5625 C22.54698306 148.70866076 22.54698306 148.70866076 23.4375 146.5625 C23.79070312 145.99273438 24.14390625 145.42296875 24.5078125 144.8359375 C28.71557997 137.26195606 28.76328142 127.97540788 27.4375 119.5625 C26.02727755 115.84011072 24.21692851 113.37456368 21.4375 110.5625 C20.9432251 110.03873779 20.4489502 109.51497559 19.93969727 108.9753418 C15.79384041 104.66833233 11.41672956 101.13498803 6.5 97.75 C5.76491211 97.23501953 5.02982422 96.72003906 4.27246094 96.18945312 C-0.00155041 93.22560259 -4.34660567 90.44058488 -8.80688477 87.76708984 C-22.11377558 79.77485621 -37.8527977 67.90450249 -42.16015625 52.1953125 C-43.92255857 40.66269924 -43.29049872 29.19911565 -37.01953125 19.0703125 C-27.50953748 6.14368481 -16.15423752 -0.36512327 0 0 Z " fill="#050505" transform="translate(527.5625,894.4375)"/>
<path d="M0 0 C1.00353516 -0.020625 2.00707031 -0.04125 3.04101562 -0.0625 C14.6239944 -0.12278876 23.59915341 3.30105114 32.015625 11.359375 C41.56326624 21.61424892 44.12458186 31.36235715 43.8125 45.25 C38.5325 45.25 33.2525 45.25 27.8125 45.25 C27.750625 43.105 27.68875 40.96 27.625 38.75 C27.03112623 30.57598747 24.86665285 25.80340062 18.8125 20.375 C12.91348582 16.19653162 8.04343138 15.88536561 1 15.875 C-0.29647461 15.83826172 -0.29647461 15.83826172 -1.61914062 15.80078125 C-8.62830571 15.76904163 -13.78268218 17.38032054 -19.17578125 21.92578125 C-25.21097218 29.38520602 -26.90795546 35.15428346 -26.65234375 44.81640625 C-25.46011757 53.62285006 -18.54849217 59.6461919 -11.87207031 64.97851562 C-4.98440607 70.17720481 2.37513204 74.76764075 9.63769531 79.41894531 C23.37351913 88.21604596 38.63279909 99.70765322 43.35449219 116.13574219 C46.00674166 128.37906864 44.24560473 142.4256723 38.1171875 153.2421875 C32.25215997 162.00411122 24.21486278 168.6884129 13.8125 171.25 C9.51318414 171.6925978 5.25657037 171.71464844 0.9375 171.6875 C-0.74279297 171.7174707 -0.74279297 171.7174707 -2.45703125 171.74804688 C-13.46756243 171.74162299 -21.46596549 168.69531384 -29.859375 161.58203125 C-38.7147067 152.71184161 -42.41174779 142.41287772 -42.48046875 130.0546875 C-42.47191506 127.07746326 -42.42587104 124.10175562 -42.375 121.125 C-42.35992062 119.58074227 -42.34623799 118.03647024 -42.33398438 116.4921875 C-42.30382306 112.74414154 -42.24506499 108.99812061 -42.1875 105.25 C-37.2375 105.25 -32.2875 105.25 -27.1875 105.25 C-27.17332031 107.44398438 -27.15914062 109.63796875 -27.14453125 111.8984375 C-27.11379347 114.05662697 -27.07473615 116.21451983 -27.03491211 118.37255859 C-27.01191656 119.85617348 -26.99738027 121.33994734 -26.99194336 122.82373047 C-26.95135234 132.08472794 -26.140191 139.17471167 -21.1875 147.25 C-20.8575 148.24 -20.5275 149.23 -20.1875 150.25 C-18.43882517 151.33431094 -18.43882517 151.33431094 -16.1875 152.25 C-15.37410156 152.7553125 -14.56070313 153.260625 -13.72265625 153.78125 C-8.86242201 155.80052964 -4.52444193 155.76395433 0.6875 155.75 C1.64269531 155.77835938 2.59789063 155.80671875 3.58203125 155.8359375 C11.05550271 155.85644085 15.95886237 153.99240371 21.33496094 148.77148438 C28.17085313 141.08172261 27.54400843 132.28822941 27.3125 122.5390625 C26.97517621 117.12876374 25.85768439 113.79107246 21.8984375 109.96484375 C21.21007813 109.39894531 20.52171875 108.83304688 19.8125 108.25 C19.20664063 107.63253906 18.60078125 107.01507812 17.9765625 106.37890625 C9.66644578 98.21659793 -0.90188656 92.27317453 -10.66796875 86.01953125 C-17.43000807 81.63688998 -23.43318128 76.89757757 -29.1875 71.25 C-29.92097656 70.54101562 -30.65445313 69.83203125 -31.41015625 69.1015625 C-39.97781486 60.2296319 -42.91029156 50.95615492 -42.71142578 38.83666992 C-42.13158088 26.24174401 -36.87170504 17.46669249 -27.8125 9 C-18.98696062 1.42462134 -11.34268855 0.05717801 0 0 Z " fill="#050505" transform="translate(2127.1875,894.75)"/>
<path d="M0 0 C0.98548828 -0.01160156 1.97097656 -0.02320313 2.98632812 -0.03515625 C14.44359307 0.01039948 23.44895775 3.52160848 31.765625 11.484375 C39.08678759 19.34784593 42.74804191 26.72534756 42.625 37.5625 C42.62048828 38.31208984 42.61597656 39.06167969 42.61132812 39.83398438 C42.59956354 41.68102383 42.58162865 43.52802213 42.5625 45.375 C37.6125 45.375 32.6625 45.375 27.5625 45.375 C27.500625 43.23 27.43875 41.085 27.375 38.875 C26.78112623 30.70098747 24.61665285 25.92840062 18.5625 20.5 C12.66348582 16.32153162 7.79343138 16.01036561 0.75 16 C-0.54647461 15.96326172 -0.54647461 15.96326172 -1.86914062 15.92578125 C-8.87830571 15.89404163 -14.03268218 17.50532054 -19.42578125 22.05078125 C-25.46097218 29.51020602 -27.15795546 35.27928346 -26.90234375 44.94140625 C-25.71011757 53.74785006 -18.79849217 59.7711919 -12.12207031 65.10351562 C-5.23440607 70.30220481 2.12513204 74.89264075 9.38769531 79.54394531 C24.10785293 88.97146199 37.87507176 100.31271529 43.5625 117.375 C44.94063915 132.71511441 43.53291477 146.55574932 33.765625 159 C30.43639143 162.58896101 26.90610996 165.14699916 22.5625 167.375 C21.95704346 167.7148291 21.35158691 168.0546582 20.7277832 168.40478516 C14.0776443 171.81740631 8.00090285 171.9769123 0.625 171.875 C-0.49068359 171.89046875 -1.60636719 171.9059375 -2.75585938 171.921875 C-14.3603165 171.86748973 -22.98357102 168.30968574 -31.4375 160.375 C-39.18423766 152.07615631 -42.6175396 141.95786571 -42.53515625 130.765625 C-42.5337413 130.03881531 -42.53232635 129.31200562 -42.53086853 128.56317139 C-42.52528792 126.25040506 -42.51273904 123.93773688 -42.5 121.625 C-42.49498249 120.05338682 -42.49042002 118.48177211 -42.48632812 116.91015625 C-42.47617733 113.06503628 -42.45659832 109.22012752 -42.4375 105.375 C-37.4875 105.375 -32.5375 105.375 -27.4375 105.375 C-27.42332031 107.56898438 -27.40914062 109.76296875 -27.39453125 112.0234375 C-27.36379347 114.18162697 -27.32473615 116.33951983 -27.28491211 118.49755859 C-27.26191656 119.98117348 -27.24738027 121.46494734 -27.24194336 122.94873047 C-27.20135234 132.20972794 -26.390191 139.29971167 -21.4375 147.375 C-21.1075 148.365 -20.7775 149.355 -20.4375 150.375 C-18.68882517 151.45931094 -18.68882517 151.45931094 -16.4375 152.375 C-15.62410156 152.8803125 -14.81070313 153.385625 -13.97265625 153.90625 C-9.11242201 155.92552964 -4.77444193 155.88895433 0.4375 155.875 C1.39269531 155.90335938 2.34789062 155.93171875 3.33203125 155.9609375 C10.80550271 155.98144085 15.70886237 154.11740371 21.08496094 148.89648438 C27.92085313 141.20672261 27.29400843 132.41322941 27.0625 122.6640625 C26.72517621 117.25376374 25.60768439 113.91607246 21.6484375 110.08984375 C20.96007812 109.52394531 20.27171875 108.95804688 19.5625 108.375 C18.95664062 107.75753906 18.35078125 107.14007812 17.7265625 106.50390625 C9.41644578 98.34159793 -1.15188656 92.39817453 -10.91796875 86.14453125 C-24.78599464 77.15632818 -37.08655262 66.42784214 -42.4375 50.375 C-43.43759022 36.57375496 -42.5190207 24.93594734 -33.1875 13.9375 C-23.46691669 4.00735188 -13.79693486 -0.16178816 0 0 Z " fill="#050505" transform="translate(911.4375,894.625)"/>
<path d="M0 0 C8.20284599 5.55509191 14.09421227 11.74545341 18.46875 20.671875 C19.03722656 21.79916016 19.03722656 21.79916016 19.6171875 22.94921875 C20.76948195 26.63338953 20.68239977 30.16902516 20.59375 33.984375 C20.58472656 34.72494141 20.57570313 35.46550781 20.56640625 36.22851562 C20.54299213 38.04310967 20.50712615 39.85753571 20.46875 41.671875 C15.84875 41.671875 11.22875 41.671875 6.46875 41.671875 C6.32179688 40.6096875 6.17484375 39.5475 6.0234375 38.453125 C4.32527193 26.86350932 4.32527193 26.86350932 -2.53125 17.671875 C-3.3665625 16.88876953 -3.3665625 16.88876953 -4.21875 16.08984375 C-9.52717657 12.20484608 -15.24878571 12.18797904 -21.59375 12.109375 C-22.44469238 12.09455078 -23.29563477 12.07972656 -24.17236328 12.06445312 C-31.20901858 12.17902553 -36.41760554 13.99218796 -41.7734375 18.6015625 C-42.31226563 19.24351562 -42.85109375 19.88546875 -43.40625 20.546875 C-43.96054687 21.18367187 -44.51484375 21.82046875 -45.0859375 22.4765625 C-49.49501364 29.17359167 -49.38106358 36.9438828 -48.53125 44.671875 C-47.3812431 47.8805996 -45.78382996 50.13627859 -43.53125 52.671875 C-43.06976562 53.22746094 -42.60828125 53.78304687 -42.1328125 54.35546875 C-34.62225992 62.60945166 -24.36810209 68.52958808 -15.01538086 74.45141602 C-0.52596235 83.65864359 16.60970122 95.23567989 21.0234375 112.890625 C23.27477347 126.95160054 21.52861612 140.79052063 13.46875 152.671875 C7.83191727 159.89974923 0.62782256 165.83219862 -8.53125 167.671875 C-24.29129009 169.27242071 -38.80882023 168.90108136 -51.53125 158.671875 C-58.81803054 152.13133102 -62.98838429 143.30488472 -64.53125 133.671875 C-64.61205894 131.17687729 -64.63885161 128.67987994 -64.62890625 126.18359375 C-64.6274913 125.48039505 -64.62607635 124.77719635 -64.62461853 124.0526886 C-64.61905109 121.82153956 -64.60650475 119.59049336 -64.59375 117.359375 C-64.58873079 115.84049625 -64.58416862 114.32161591 -64.58007812 112.80273438 C-64.56994607 109.09237707 -64.55036465 105.38224024 -64.53125 101.671875 C-59.58125 101.671875 -54.63125 101.671875 -49.53125 101.671875 C-49.49257813 105.1059375 -49.49257813 105.1059375 -49.453125 108.609375 C-49.41460651 110.8502176 -49.3694784 113.09083765 -49.32373047 115.33154297 C-49.29567213 116.87733157 -49.27438294 118.42325961 -49.26025391 119.96923828 C-49.16364509 129.94570907 -48.93086668 137.43989841 -42.21875 145.421875 C-35.47129185 151.07090973 -30.750097 152.31953124 -22.09375 152.171875 C-21.19076172 152.18734375 -20.28777344 152.2028125 -19.35742188 152.21875 C-12.24705188 152.17756031 -6.93539674 150.60943019 -1.5078125 145.92578125 C-0.83878906 145.08853516 -0.83878906 145.08853516 -0.15625 144.234375 C0.30523438 143.67878906 0.76671875 143.12320312 1.2421875 142.55078125 C6.54361688 134.42980185 5.64525301 122.98047025 4.46875 113.671875 C2.93539461 109.52710549 0.86997615 107.41946415 -2.53125 104.671875 C-3.39234375 103.88425781 -4.2534375 103.09664062 -5.140625 102.28515625 C-13.6776353 94.75182148 -23.22930712 88.69999859 -32.80078125 82.58203125 C-39.63444181 78.15199456 -45.72035392 73.38477958 -51.53125 67.671875 C-52.26472656 66.95128906 -52.99820313 66.23070312 -53.75390625 65.48828125 C-62.55939082 56.25486659 -65.28016377 47.66399829 -65.12329102 35.09326172 C-64.64262862 23.92127939 -60.41227639 14.64471918 -52.53125 6.671875 C-38.93704298 -4.89334589 -16.22899584 -8.49635664 0 0 Z " fill="#040404" transform="translate(1039.53125,898.328125)"/>
<path d="M0 0 C7.3534966 5.99731895 14.03223214 13.64384185 15.75 23.25 C15.81904426 25.84606405 15.84412447 28.40623393 15.8125 31 C15.791875 33.3925 15.77125 35.785 15.75 38.25 C10.8 38.25 5.85 38.25 0.75 38.25 C0.6675 36.27 0.585 34.29 0.5 32.25 C-0.10667257 24.60426351 -1.63691312 19.92247522 -7 14.4375 C-16.29849548 8.17889727 -27.06735158 7.7246219 -37.953125 9.75390625 C-44.83251087 12.05141107 -48.61407033 17.27668697 -52.25 23.25 C-54.2826486 29.34794579 -54.50014932 37.63409725 -52.37890625 43.76953125 C-51.15487945 45.80422497 -49.84420594 47.49228576 -48.25 49.25 C-47.78851562 49.80429687 -47.32703125 50.35859375 -46.8515625 50.9296875 C-39.05060244 59.5226232 -28.2767683 65.62843354 -18.5625 71.8125 C-5.1454296 80.39624977 10.4788244 91.43647319 15.75 107.25 C16.03856588 111.41171709 16.02789889 115.57941324 16.0625 119.75 C16.10600586 121.4515625 16.10600586 121.4515625 16.15039062 123.1875 C16.24414159 135.76455277 12.58756826 145.0517688 3.97265625 154.12109375 C-3.6753455 161.39373345 -12.12733732 164.86176281 -22.6640625 164.8359375 C-23.72367188 164.80757812 -24.78328125 164.77921875 -25.875 164.75 C-26.94234375 164.75257813 -28.0096875 164.75515625 -29.109375 164.7578125 C-40.65735287 164.61594545 -49.68980269 161.37548544 -58.1953125 153.43359375 C-66.47565134 144.56180213 -69.43723982 135.43657531 -69.34765625 123.4453125 C-69.3462413 122.7213327 -69.34482635 121.99735291 -69.34336853 121.25143433 C-69.33781075 118.95924593 -69.32526633 116.66715843 -69.3125 114.375 C-69.30747953 112.81250142 -69.30291759 111.25000129 -69.29882812 109.6875 C-69.28870984 105.8749307 -69.26912664 102.0625771 -69.25 98.25 C-64.3 98.25 -59.35 98.25 -54.25 98.25 C-54.23582031 100.51617188 -54.22164062 102.78234375 -54.20703125 105.1171875 C-54.17629894 107.34487124 -54.13724007 109.57226711 -54.09741211 111.79980469 C-54.07440778 113.3319255 -54.05987816 114.86420051 -54.05444336 116.39648438 C-54.0162647 125.39490142 -53.9381985 133.75875704 -48.25 141.25 C-41.57374764 147.44567363 -36.37174761 148.44901294 -27.5 148.5 C-26.61828125 148.520625 -25.7365625 148.54125 -24.828125 148.5625 C-17.58602421 148.60560774 -13.10048728 147.20621676 -7.0625 143.0625 C-1.63004277 137.63004277 0.24318408 132.1640095 0.40942383 124.53662109 C0.64726313 113.62402676 0.64726313 113.62402676 -4.109375 104.20703125 C-4.81578125 103.56121094 -5.5221875 102.91539062 -6.25 102.25 C-7.16265625 101.38761719 -8.0753125 100.52523437 -9.015625 99.63671875 C-17.64298404 91.81250725 -27.38345068 85.45454945 -37.29296875 79.38671875 C-43.96230416 75.29481339 -49.60496701 70.66344189 -55.25 65.25 C-56.24193359 64.33541016 -56.24193359 64.33541016 -57.25390625 63.40234375 C-64.5360975 56.49763109 -69.074788 49.01292504 -69.5859375 38.76171875 C-69.75131549 29.92035702 -69.85594398 22.08010477 -65.25 14.25 C-64.63125 13.1053125 -64.63125 13.1053125 -64 11.9375 C-59.0621387 3.63291508 -51.42625753 -2.69124749 -42.25 -5.75 C-28.15712603 -8.99921436 -12.05447365 -8.32441011 0 0 Z " fill="#040404" transform="translate(1433.25,901.75)"/>
<path d="M0 0 C1.05848145 0.01168213 2.11696289 0.02336426 3.20751953 0.03540039 C15.22426163 0.37532211 23.23111982 3.71292728 31.9296875 12.08984375 C42.04237592 23.48011381 43.30005504 34.82142885 43.25 49.4375 C43.25386719 50.58992187 43.25773437 51.74234375 43.26171875 52.9296875 C43.26042969 54.0228125 43.25914063 55.1159375 43.2578125 56.2421875 C43.25668457 57.23976074 43.25555664 58.23733398 43.25439453 59.26513672 C43.125 61.5625 43.125 61.5625 42.125 62.5625 C39.79339945 62.66159302 37.45870058 62.69220504 35.125 62.6875 C33.84625 62.69007813 32.5675 62.69265625 31.25 62.6953125 C28.125 62.5625 28.125 62.5625 27.125 61.5625 C27.01514704 59.51121815 26.9690702 57.45646907 26.94921875 55.40234375 C26.91344727 53.4987207 26.91344727 53.4987207 26.87695312 51.55664062 C26.83068458 48.87921244 26.80294233 46.20334331 26.78320312 43.52539062 C26.61187342 35.62430193 26.39849628 29.13555814 20.74926758 23.09033203 C14.30990778 17.333601 8.573521 16.05697717 0.25 16.125 C-0.60980469 16.10501953 -1.46960937 16.08503906 -2.35546875 16.06445312 C-9.50661382 16.06987888 -14.6750851 17.80856627 -20.1171875 22.4921875 C-20.65601563 23.13414062 -21.19484375 23.77609375 -21.75 24.4375 C-22.30429688 25.07429687 -22.85859375 25.71109375 -23.4296875 26.3671875 C-27.23473532 32.14674662 -27.17197101 37.99266097 -27.16552734 44.66357422 C-27.17224457 45.66597137 -27.17896179 46.66836853 -27.18588257 47.70114136 C-27.20484134 51.00654084 -27.20878561 54.31173707 -27.2109375 57.6171875 C-27.2173665 59.92115359 -27.22409493 62.22511887 -27.23110962 64.52908325 C-27.2430768 69.35583387 -27.24679097 74.18251294 -27.24560547 79.00927734 C-27.24540223 85.18523231 -27.27271298 91.36072742 -27.30714989 97.53657341 C-27.32941787 102.29446509 -27.33344304 107.05224603 -27.33238602 111.81018448 C-27.33474178 114.0866975 -27.34356389 116.36321358 -27.35905075 118.63967514 C-27.37870954 121.82765421 -27.37287267 125.01464068 -27.36083984 128.20263672 C-27.37207886 129.13692505 -27.38331787 130.07121338 -27.39489746 131.03381348 C-27.32362457 138.48820472 -25.35761776 143.6101978 -20.5625 149.3125 C-13.81504185 154.96153473 -9.093847 156.21015624 -0.4375 156.0625 C0.46548828 156.07796875 1.36847656 156.0934375 2.29882812 156.109375 C9.40919812 156.06818531 14.72085326 154.50005519 20.1484375 149.81640625 C20.81746094 148.97916016 20.81746094 148.97916016 21.5 148.125 C21.96148438 147.56941406 22.42296875 147.01382812 22.8984375 146.44140625 C25.76226967 142.05445314 26.3968855 138.13867909 26.5390625 132.94921875 C26.57773438 131.70205078 26.61640625 130.45488281 26.65625 129.16992188 C26.6871875 127.87634766 26.718125 126.58277344 26.75 125.25 C26.78867188 123.93708984 26.82734375 122.62417969 26.8671875 121.27148438 C26.96132859 118.03538449 27.04424784 114.79896166 27.125 111.5625 C32.405 111.5625 37.685 111.5625 43.125 111.5625 C43.17930504 115.54185298 43.2188228 119.52045321 43.25 123.5 C43.26675781 124.61697266 43.28351563 125.73394531 43.30078125 126.88476562 C43.38068505 140.50836319 40.46290631 151.0933056 31.0625 161.375 C19.64610776 171.79784743 8.89219311 172.38310175 -5.984375 172.06640625 C-17.03436198 171.44619036 -25.97689591 166.90013651 -33.625 158.9375 C-41.19280672 149.80333329 -43.02589975 139.23301651 -43.02026367 127.7902832 C-43.02530159 126.3209861 -43.02530159 126.3209861 -43.03044128 124.82200623 C-43.03993464 121.58575163 -43.04189379 118.3495489 -43.04296875 115.11328125 C-43.04618314 112.8575183 -43.04954735 110.60175556 -43.05305481 108.34599304 C-43.05904253 103.61582964 -43.06089514 98.8856845 -43.06030273 94.15551758 C-43.06020129 88.11102933 -43.07383673 82.06665902 -43.09107494 76.02219868 C-43.10222657 71.36117522 -43.10422095 66.70017995 -43.10369301 62.03914452 C-43.104869 59.81174502 -43.10926929 57.58434469 -43.11702538 55.35695839 C-43.12688631 52.23178633 -43.12392286 49.10686607 -43.11791992 45.98168945 C-43.12353943 45.07172211 -43.12915894 44.16175476 -43.13494873 43.22421265 C-43.08262779 32.43736794 -40.9807352 24.47400385 -34.875 15.5625 C-34.276875 14.655 -33.67875 13.7475 -33.0625 12.8125 C-24.01366162 3.50512338 -12.7226397 -0.18712739 0 0 Z " fill="#050505" transform="translate(1756.875,894.4375)"/>
<path d="M0 0 C4.95 0 9.9 0 15 0 C15 73.26 15 146.52 15 222 C34.14 222 53.28 222 73 222 C73 226.62 73 231.24 73 236 C48.91 236 24.82 236 0 236 C0 158.12 0 80.24 0 0 Z " fill="#030303" transform="translate(296,827)"/>
<path d="M0 0 C4.62 0 9.24 0 14 0 C14 73.26 14 146.52 14 222 C33.47 222 52.94 222 73 222 C73 226.62 73 231.24 73 236 C48.91 236 24.82 236 0 236 C0 158.12 0 80.24 0 0 Z " fill="#000000" transform="translate(1518,827)"/>
<path d="M0 0 C4.95 0 9.9 0 15 0 C15.00054477 1.0406769 15.00108953 2.0813538 15.00165081 3.15356636 C15.01604142 28.46675705 15.05903815 53.77977568 15.13209057 79.0928669 C15.16675473 91.33406698 15.19209797 103.57515429 15.19555664 115.81640625 C15.19859454 126.48495666 15.21906165 137.15330629 15.26052457 147.82177913 C15.28187192 153.47155015 15.29444615 159.1210356 15.28615379 164.77084732 C15.27862482 170.08808029 15.29438995 175.40473409 15.32806015 180.72186089 C15.33630727 182.67374273 15.33602712 184.62568202 15.32659721 186.57755852 C15.31499437 189.24299237 15.3340634 191.90652209 15.36076355 194.57180786 C15.35009029 195.34419332 15.33941703 196.11657877 15.32842034 196.91236985 C15.43710857 202.72806742 17.02388988 205.06140653 21 209 C22.93976182 210.45375936 22.93976182 210.45375936 24.9375 211.3125 C25.56527344 211.61800781 26.19304687 211.92351562 26.83984375 212.23828125 C29.57953395 213.27437972 29.57953395 213.27437972 35 214 C35 219.28 35 224.56 35 230 C23.35372406 229.24862736 14.27702837 225.3824417 6 217 C-1.3873214 207.07260519 -0.81994527 196.58169435 -0.68115234 184.81933594 C-0.67945733 182.79788768 -0.68041491 180.77643574 -0.68380737 178.75498962 C-0.68552055 173.29893422 -0.65038039 167.84367912 -0.60836363 162.3878088 C-0.57071628 156.67437291 -0.56732024 150.96091628 -0.56021118 145.24737549 C-0.54160344 134.44218761 -0.49242146 123.63736636 -0.43211424 112.83233953 C-0.36492233 100.52521309 -0.33202821 88.21806863 -0.30194163 75.91080427 C-0.23931887 50.60700003 -0.13386309 25.30352061 0 0 Z " fill="#040404" transform="translate(1930,837)"/>
<path d="M0 0 C0.25473477 6.81273998 0.42914803 13.62424267 0.54931641 20.44067383 C0.59943349 22.75624473 0.66755016 25.07150186 0.75439453 27.38598633 C1.45488261 46.54227495 1.45488261 46.54227495 -2.00683594 52.39013672 C-4.5520419 54.72154538 -6.97448151 56.3557205 -10 58 C-11.31067321 58.95182419 -12.61381692 59.91417722 -13.90625 60.890625 C-15.09704272 61.68782871 -16.29496521 62.47449229 -17.5 63.25 C-18.14163086 63.66620605 -18.78326172 64.08241211 -19.44433594 64.51123047 C-21.2863095 65.69099929 -23.13937615 66.84992935 -25 68 C-25.92296875 68.57492187 -26.8459375 69.14984375 -27.796875 69.7421875 C-33.75979141 73.1034493 -39.19832964 74.15500063 -46 73 C-50.57135809 70.79595235 -52.78677113 68.51173378 -55 64 C-55.38818359 60.72949219 -55.38818359 60.72949219 -55.3984375 57.046875 C-55.40130768 56.38721741 -55.40417786 55.72755981 -55.40713501 55.0479126 C-55.40916889 53.65611917 -55.40368632 52.26429672 -55.39111328 50.87255859 C-55.37515059 48.76983651 -55.39092911 46.66906639 -55.41015625 44.56640625 C-55.42546314 35.59596941 -55.22890115 26.76495706 -48.875 19.8125 C-48.35679688 19.22082031 -47.83859375 18.62914062 -47.3046875 18.01953125 C-39.64524124 11.30777919 -31.50179792 8.14223903 -21.86889648 5.27490234 C-19.66979579 4.61972539 -17.47837331 3.94259929 -15.28710938 3.26171875 C-4.62955532 0 -4.62955532 0 0 0 Z " fill="#FDFDFD" transform="translate(1883,978)"/>
<path d="M0 0 C5.28 0 10.56 0 16 0 C16.00364563 1.78041183 16.00729126 3.56082367 16.01104736 5.39518738 C16.04795239 22.15543074 16.10543813 38.91549134 16.18390274 55.67559338 C16.22371509 64.29260255 16.25609639 72.9095201 16.27099609 81.52661133 C16.28400127 89.03712747 16.31093676 96.54744221 16.35461307 104.05784494 C16.3772536 108.0347337 16.39290914 112.01137382 16.39188385 115.98833275 C16.39113875 119.73213772 16.40902831 123.47539254 16.44116783 127.21905518 C16.45373926 129.24697554 16.4465911 131.27498815 16.43885803 133.30293274 C16.45277084 134.51303009 16.46668365 135.72312744 16.48101807 136.96989441 C16.48470524 138.01981662 16.48839241 139.06973883 16.49219131 140.15147686 C17.12850923 143.72086501 18.53289933 145.39353702 21 148 C22.87241928 149.36434034 22.87241928 149.36434034 24.875 150.25 C25.51179688 150.56453125 26.14859375 150.8790625 26.8046875 151.203125 C29.56900615 152.28192093 29.56900615 152.28192093 35 153 C35 157.95 35 162.9 35 168 C24.73153023 168.66248192 16.99241989 165.58907874 9.046875 159.06640625 C2.7545553 152.71404533 -0.12798279 145.90038453 -0.12025452 137.09014893 C-0.12162918 135.88142624 -0.12300385 134.67270355 -0.12442017 133.42735291 C-0.12088129 132.09121679 -0.11724649 130.75508093 -0.11352539 129.41894531 C-0.11324326 128.00950625 -0.11340175 126.60006703 -0.1139679 125.19062805 C-0.11425488 121.36659383 -0.10837413 117.54259096 -0.10139394 113.71856403 C-0.09514394 109.72137422 -0.0945553 105.72418369 -0.09336853 101.72698975 C-0.09026008 94.15872381 -0.08205322 86.59047232 -0.07201904 79.02221274 C-0.06084283 70.40559909 -0.05534365 61.78898476 -0.05032361 53.17236567 C-0.03987022 35.44823536 -0.0220788 17.72411937 0 0 Z " fill="#0A0A0A" transform="translate(1088,898)"/>
<path d="M0 0 C5.28 0 10.56 0 16 0 C16.00142502 1.78041183 16.00285004 3.56082367 16.00431824 5.39518738 C16.02097138 22.15544637 16.06339598 38.91546422 16.13209057 55.67559338 C16.16674634 64.29262817 16.19209685 72.90950289 16.19555664 81.52661133 C16.19859573 89.03715424 16.2190786 96.54741213 16.26052457 104.05784494 C16.28186155 108.03479005 16.2944518 112.01132988 16.28615379 115.98833275 C16.27861776 119.73223089 16.29441671 123.47530759 16.32806015 127.21905518 C16.34022561 129.24698296 16.32769772 131.27501182 16.31443787 133.30293274 C16.119336 140.38142247 16.119336 140.38142247 19.42817688 146.27290344 C20.27687851 146.84284531 21.12558014 147.41278717 22 148 C22.59683594 148.43828125 23.19367187 148.8765625 23.80859375 149.328125 C27.81648567 151.59638038 30.25651406 152.20941901 35 153 C35 157.95 35 162.9 35 168 C25.4057312 169.15792899 17.19040225 164.98924497 9.6875 159.22265625 C4.26003707 154.06422704 0.2213021 147.90178028 -0.12304783 140.27452469 C-0.12212604 139.22368069 -0.12120424 138.17283669 -0.12025452 137.09014893 C-0.12162918 135.88142624 -0.12300385 134.67270355 -0.12442017 133.42735291 C-0.12088129 132.09121679 -0.11724649 130.75508093 -0.11352539 129.41894531 C-0.11324326 128.00950625 -0.11340175 126.60006703 -0.1139679 125.19062805 C-0.11425488 121.36659383 -0.10837413 117.54259096 -0.10139394 113.71856403 C-0.09514394 109.72137422 -0.0945553 105.72418369 -0.09336853 101.72698975 C-0.09026008 94.15872381 -0.08205322 86.59047232 -0.07201904 79.02221274 C-0.06084283 70.40559909 -0.05534365 61.78898476 -0.05032361 53.17236567 C-0.03987022 35.44823536 -0.0220788 17.72411937 0 0 Z " fill="#0A0A0A" transform="translate(821,898)"/>
<path d="M0 0 C5.84684937 4.32380644 10.04706201 9.24094129 11.1875 16.5 C11.26750751 18.77617069 11.29518953 21.05447696 11.28515625 23.33203125 C11.28265869 24.49710205 11.28016113 25.66217285 11.27758789 26.86254883 C11.26848389 28.33103271 11.25937988 29.7995166 11.25 31.3125 C11.229375 35.994375 11.20875 40.67625 11.1875 45.5 C-6.9625 45.5 -25.1125 45.5 -43.8125 45.5 C-43.915625 40.75625 -44.01875 36.0125 -44.125 31.125 C-44.17052002 29.6498291 -44.21604004 28.1746582 -44.26293945 26.65478516 C-44.34758429 18.56710741 -43.73164386 12.13797949 -38.8125 5.5 C-29.2615582 -3.62966158 -11.87356752 -6.67095091 0 0 Z " fill="#FCFCFC" transform="translate(2039.8125,912.5)"/>
<path d="M0 0 C4.46976801 3.43180933 7.48970037 7.27559505 9.1171875 12.74609375 C9.59520496 18.09805076 9.49379379 23.37260908 9.3671875 28.74609375 C9.2846875 33.69609375 9.2021875 38.64609375 9.1171875 43.74609375 C-9.0328125 43.74609375 -27.1828125 43.74609375 -45.8828125 43.74609375 C-46.0065625 36.56859375 -46.0065625 36.56859375 -46.1328125 29.24609375 C-46.16922852 27.75271484 -46.20564453 26.25933594 -46.24316406 24.72070312 C-46.31935744 15.58241337 -45.59549649 10.044991 -39.5078125 2.99609375 C-28.94456395 -6.05811929 -11.9554038 -7.96200129 0 0 Z " fill="#FCFCFC" transform="translate(441.8828125,914.25390625)"/>
<path d="M0 0 C5.28 0 10.56 0 16 0 C16 10.56 16 21.12 16 32 C10.72 32 5.44 32 0 32 C0 21.44 0 10.88 0 0 Z " fill="#0D0D0D" transform="translate(1088,837)"/>
<path d="M0 0 C5.28 0 10.56 0 16 0 C16 10.56 16 21.12 16 32 C10.72 32 5.44 32 0 32 C0 21.44 0 10.88 0 0 Z " fill="#0D0D0D" transform="translate(821,837)"/>
</svg>
