<?xml version="1.0" encoding="UTF-8"?>
<svg version="1.1" xmlns="http://www.w3.org/2000/svg" width="1950" height="1413">
<path d="M0 0 C643.5 0 1287 0 1950 0 C1950 466.29 1950 932.58 1950 1413 C1306.5 1413 663 1413 0 1413 C0 946.71 0 480.42 0 0 Z " fill="#FEFEFE" transform="translate(0,0)"/>
<path d="M0 0 C1.08539063 -0.00773438 2.17078125 -0.01546875 3.2890625 -0.0234375 C14.08475178 0.00232787 24.05257811 1.3829796 34.0625 5.5 C34.83271484 5.8101001 35.60292969 6.1202002 36.39648438 6.43969727 C46.8040581 10.71173976 55.42585448 15.95622185 64 23.25 C64.99773437 24.02923828 64.99773437 24.02923828 66.015625 24.82421875 C83.9916432 39.32925783 95.17702345 62.70568178 98 85.25 C100.18194654 113.41102811 94.37235689 139.39922786 76 161.25 C75.30261719 162.10980469 74.60523438 162.96960938 73.88671875 163.85546875 C59.44988673 180.87878986 37.1850339 193.48387008 15 196.25 C-14.47098611 198.30941831 -40.03637258 193.76737724 -63 174.25 C-63.85722656 173.55390625 -64.71445312 172.8578125 -65.59765625 172.140625 C-82.85914373 157.52038522 -95.71234539 134.90004564 -98 112.25 C-99.36617626 82.86043275 -95.54501135 58.24614098 -76 35.25 C-75.30390625 34.39277344 -74.6078125 33.53554688 -73.890625 32.65234375 C-55.42207236 10.84731901 -28.23599199 -0.20120659 0 0 Z " fill="#FEFEFF" transform="translate(417,628.75)"/>
<path d="M0 0 C1.10666016 -0.00773438 2.21332031 -0.01546875 3.35351562 -0.0234375 C23.81334709 0.02490233 41.93503815 7.8338704 57.9375 20.25 C58.89462891 20.97316406 58.89462891 20.97316406 59.87109375 21.7109375 C75.77250425 34.41737638 86.21462297 55.57005643 89.9375 75.25 C90.35213874 79.65591194 90.41538845 84.01417012 90.375 88.4375 C90.36670166 89.61932861 90.35840332 90.80115723 90.34985352 92.01879883 C89.96507323 112.06982251 83.85501485 130.70069241 70.9375 146.25 C69.88755859 147.52617188 69.88755859 147.52617188 68.81640625 148.828125 C53.54665511 166.57478764 33.20254654 177.53737378 9.9375 180.25 C-15.87283781 182.01128522 -37.80788971 175.42627082 -58.0625 159.25 C-58.66964844 158.8065625 -59.27679688 158.363125 -59.90234375 157.90625 C-75.4480815 145.90859828 -86.71459156 123.71911094 -89.74609375 104.57421875 C-92.30198126 77.72162285 -86.81376879 53.67614628 -69.8359375 32.46875 C-67.65501234 29.97186042 -65.40248402 27.59797032 -63.0625 25.25 C-62.32773437 24.49203125 -61.59296875 23.7340625 -60.8359375 22.953125 C-44.41055885 7.02215574 -22.5171538 -0.15792276 0 0 Z " fill="#FEFFFE" transform="translate(510.0625,865.75)"/>
<path d="M0 0 C2.49938336 2.21744073 4.94426931 4.48114038 7.375 6.7734375 C8.05175781 7.38574219 8.72851562 7.99804688 9.42578125 8.62890625 C27.86617482 25.96065893 37.85265456 50.36793084 42.375 74.7734375 C42.375 75.7634375 42.375 76.7534375 42.375 77.7734375 C86.595 77.7734375 130.815 77.7734375 176.375 77.7734375 C176.375 85.3634375 176.375 92.9534375 176.375 100.7734375 C132.155 100.7734375 87.935 100.7734375 42.375 100.7734375 C42.375 104.0734375 42.375 107.3734375 42.375 110.7734375 C41.97060352 113.66540445 41.5219142 116.38097247 40.875 119.2109375 C40.70121826 119.97317627 40.52743652 120.73541504 40.34838867 121.52075195 C33.17592215 150.7807142 13.94755486 178.8547565 -11.85009766 194.70410156 C-12.43581543 195.05698242 -13.0215332 195.40986328 -13.625 195.7734375 C-14.24294434 196.14952148 -14.86088867 196.52560547 -15.49755859 196.91308594 C-43.53943174 213.65261792 -76.5778836 218.25376669 -108.23828125 210.41943359 C-114.58175747 208.70249026 -120.61613972 206.41849374 -126.625 203.7734375 C-127.79160156 203.27199219 -128.95820313 202.77054688 -130.16015625 202.25390625 C-150.71094561 192.73149991 -168.98719308 176.16237919 -180.625 156.7734375 C-180.99818359 156.15839355 -181.37136719 155.54334961 -181.75585938 154.90966797 C-198.50637829 126.8588618 -203.10702924 93.81819075 -195.26220703 62.14697266 C-186.96457552 31.23909007 -166.40097709 3.79295364 -138.625 -12.2265625 C-93.9654713 -36.83467928 -39.39557 -33.41588527 0 0 Z M-141.625 17.7734375 C-142.43710937 18.42828125 -143.24921875 19.083125 -144.0859375 19.7578125 C-160.66271504 33.66766369 -173.55596933 56.04664501 -175.625 77.7734375 C-177.2809926 108.74893451 -171.65306953 135.44306036 -151.03515625 159.20703125 C-135.60051799 176.35187873 -112.46160869 189.47523756 -89.21533203 190.99658203 C-57.21934969 192.3281826 -32.07973407 185.19826423 -8.16210938 163.24707031 C3.49471339 152.07162841 11.47709483 138.07721236 16.375 122.7734375 C16.96474609 120.95199219 16.96474609 120.95199219 17.56640625 119.09375 C25.01060393 93.66335921 20.44147248 67.09550681 8.5 43.9609375 C5.35095286 38.4192723 1.49526147 33.61697958 -2.625 28.7734375 C-3.14449219 28.10828125 -3.66398438 27.443125 -4.19921875 26.7578125 C-18.66721601 8.82770002 -42.1072294 -2.49115605 -64.625 -5.2265625 C-68.90072229 -5.50409953 -73.1536022 -5.56141938 -77.4375 -5.5390625 C-79.14643433 -5.53060303 -79.14643433 -5.53060303 -80.88989258 -5.52197266 C-103.75910388 -5.19320028 -124.24728824 2.87825599 -141.625 17.7734375 Z " fill="#42BDFF" transform="translate(494.625,634.2265625)"/>
<path d="M0 0 C3.03714613 1.44717294 5.01643993 2.84108451 7.3125 5.3125 C10.61265404 8.72694508 14.06539298 11.35016262 18 14 C13.12027342 19.89202761 7.84096732 25.2634665 2.39868164 30.63549805 C1.44026311 31.58543299 0.48211009 32.53563589 -0.47579956 33.48608398 C-2.5256022 35.51927099 -4.57678872 37.55104773 -6.62895012 39.58185387 C-9.87233937 42.79245848 -13.109632 46.00916312 -16.34559631 49.22724915 C-17.4560193 50.33141242 -18.56644239 51.43557559 -19.67686558 52.53973866 C-20.23249939 53.09225634 -20.7881332 53.64477403 -21.36060441 54.21403468 C-28.88669572 61.69717019 -36.4173522 69.17562312 -43.9621582 76.63989258 C-49.06467339 81.68803554 -54.15833322 86.74492954 -59.24191386 91.81214172 C-61.92970898 94.49054897 -64.62193726 97.16414534 -67.32511711 99.82703209 C-69.86143783 102.32564359 -72.38602306 104.83552046 -74.90192795 107.35468292 C-76.27134475 108.71969343 -77.65320126 110.07218799 -79.0353241 111.42433167 C-79.84145142 112.23588715 -80.64757874 113.04744263 -81.47813416 113.8835907 C-82.54079451 114.93738938 -82.54079451 114.93738938 -83.62492275 116.01247692 C-85.22852979 117.88276106 -85.22852979 117.88276106 -84.83608341 120.06782246 C-83.52159586 123.10558554 -81.65872072 125.76847677 -79.8125 128.5 C-64.09974652 152.45229213 -56.53768619 181.82664086 -62.2331543 210.33642578 C-63.04354465 213.92480518 -63.98762736 217.463927 -65 221 C-65.28875 222.0621875 -65.5775 223.124375 -65.875 224.21875 C-74.50505514 252.88286173 -94.6553422 276.08017002 -120.6953125 290.2890625 C-137.30640547 298.88913191 -153.57110919 303.40618929 -172.3125 303.25 C-173.5080249 303.24178223 -174.7035498 303.23356445 -175.93530273 303.22509766 C-207.29790237 302.82731767 -234.24525955 290.40140125 -256.25341797 268.23486328 C-275.87521917 247.61079312 -286.43878838 220.11409668 -286.3125 191.8125 C-286.30621582 189.89256226 -286.30621582 189.89256226 -286.29980469 187.93383789 C-286.18842422 178.59624446 -285.48177972 170.0139099 -283 161 C-282.73316406 159.99066406 -282.46632813 158.98132813 -282.19140625 157.94140625 C-273.9082869 130.22056682 -254.11234139 106.11194153 -229 92 C-212.40873173 83.06758677 -195.36314258 77.79619884 -176.4375 77.8125 C-175.46603027 77.81330566 -174.49456055 77.81411133 -173.49365234 77.81494141 C-165.831577 77.87977729 -158.53074265 78.50845402 -151 80 C-150.29617188 80.13277344 -149.59234375 80.26554688 -148.8671875 80.40234375 C-133.49938534 83.77811619 -118.47300775 90.68156208 -106.3046875 100.59375 C-104.17718667 102.20879046 -104.17718667 102.20879046 -102.10653496 101.81550026 C-99.43483255 100.78120743 -98.01474914 99.38659604 -95.99075317 97.35824585 C-95.202995 96.57605682 -94.41523682 95.7938678 -93.60360718 94.98797607 C-92.32086411 93.69141083 -92.32086411 93.69141083 -91.01220703 92.36865234 C-89.65053406 91.01004593 -89.65053406 91.01004593 -88.26135254 89.62399292 C-85.77093215 87.13870861 -83.28995591 84.64418686 -80.81067896 82.14779234 C-78.21072736 79.53279156 -75.60265908 76.92591001 -72.99557495 74.31802368 C-68.61424567 69.93300044 -64.23859211 65.54237971 -59.86669922 61.14794922 C-54.26950376 55.52195698 -48.66315174 49.90518456 -43.05377388 44.29134178 C-38.21906626 39.45263885 -33.38862018 34.60968789 -28.55884314 29.76606417 C-27.01314937 28.21628846 -25.46688208 26.66708673 -23.92053604 25.11796188 C-21.02608174 22.21765826 -18.13608044 19.31295592 -15.24658203 16.40771484 C-14.39546844 15.5554834 -13.54435486 14.70325195 -12.66744995 13.82519531 C-8.23929734 9.36517296 -4.01944072 4.83247512 0 0 Z M-240 129 C-240.68835938 129.68964844 -241.37671875 130.37929688 -242.0859375 131.08984375 C-259.07745112 149.27306987 -264.95897863 173.11259836 -264.28125 197.34375 C-263.9837437 203.49221357 -262.8931023 209.14209855 -261 215 C-260.70198486 215.93489258 -260.70198486 215.93489258 -260.39794922 216.88867188 C-252.63980509 240.71518195 -237.38749044 259.98487329 -215 271.375 C-208.22162475 274.684275 -201.30961528 277.11665525 -194 279 C-192.77796875 279.35835937 -191.5559375 279.71671875 -190.296875 280.0859375 C-185.29805834 281.32140002 -180.37513505 281.30122485 -175.25 281.25 C-174.27498535 281.24323242 -173.2999707 281.23646484 -172.29541016 281.22949219 C-165.36972291 281.13017434 -158.733721 280.73095651 -152 279 C-151.08089844 278.76667969 -150.16179687 278.53335938 -149.21484375 278.29296875 C-135.32725849 274.19958898 -122.61133779 266.77407958 -112 257 C-111.38253906 256.46246094 -110.76507812 255.92492187 -110.12890625 255.37109375 C-99.72308452 245.78235733 -92.65417854 233.21596092 -88 220 C-87.77554199 219.36320312 -87.55108398 218.72640625 -87.31982422 218.0703125 C-79.82854108 195.53322124 -82.71546944 171.14153833 -92.79052734 150.07421875 C-95.89821198 143.88459191 -99.62817179 138.37504773 -104 133 C-104.47824219 132.3709375 -104.95648437 131.741875 -105.44921875 131.09375 C-117.95348252 115.32906216 -138.95208655 103.85021562 -158.82006836 101.19848633 C-190.5320385 98.31105977 -217.57231408 106.17385266 -240 129 Z " fill="#80FF02" transform="translate(684,765)"/>
<path d="M0 0 C6.30351426 4.91431001 11.35800247 10.37930265 15.9609375 16.8984375 C16.77691406 18.03345703 16.77691406 18.03345703 17.609375 19.19140625 C27.51860629 34.20615518 29.30232054 51.97253247 26.26171875 69.4375 C22.51006212 87.35952001 12.0984228 103.31860862 -3.1640625 113.5234375 C-20.24156742 123.87415823 -38.64628372 128.07456559 -58.2265625 123.3359375 C-77.78818038 118.08501093 -92.62895411 106.26570599 -102.8203125 88.85546875 C-111.56859692 72.28090047 -113.59998132 53.81124055 -108.36328125 35.82421875 C-101.77098687 15.29740513 -87.60444785 0.98046451 -68.7890625 -8.7890625 C-45.15689867 -17.06031984 -20.78127778 -14.37060083 0 0 Z " fill="#FEFDFE" transform="translate(573.0390625,460.1015625)"/>
<path d="M0 0 C1.25039063 -0.00773437 2.50078125 -0.01546875 3.7890625 -0.0234375 C28.79842518 0.02888334 49.20653541 10.34435065 67.1875 27.375 C73.08082697 33.38502651 77.41969129 39.98628495 81.625 47.25 C82.38103516 48.54744141 82.38103516 48.54744141 83.15234375 49.87109375 C86.8063292 56.63485406 88.78732029 63.81459546 90.625 71.25 C90.85316406 72.15492188 91.08132813 73.05984375 91.31640625 73.9921875 C96.04522414 95.75136353 91.1911358 119.81982257 79.3125 138.5 C78.63574219 139.51578125 77.95898438 140.5315625 77.26171875 141.578125 C75.31185785 144.7275995 75.31185785 144.7275995 74.625 148.25 C75.98517969 150.35535487 75.98517969 150.35535487 78.11131287 152.33758545 C78.90928284 153.14242874 79.70725281 153.94727203 80.52940369 154.77650452 C81.42131912 155.65044357 82.31323456 156.52438263 83.23217773 157.42480469 C84.15862091 158.351978 85.08506409 159.27915131 86.0395813 160.23442078 C88.5842673 162.78054468 91.14410443 165.31093153 93.70686984 167.83883953 C96.38102836 170.48179676 99.04108654 173.13886691 101.70265198 175.79449463 C106.74659592 180.8228818 111.80315289 185.83838544 116.86432749 190.84942269 C122.62492136 196.55418015 128.37136799 202.27309758 134.11665046 207.99326849 C145.93705973 219.76137807 157.77517196 231.51151245 169.625 243.25 C164.29166667 248.58333333 158.95833333 253.91666667 153.625 259.25 C148.00523756 254.57250899 142.81728664 249.57878515 137.66040039 244.39892578 C136.79131042 243.52998184 135.92222046 242.6610379 135.02679443 241.76576233 C132.66389655 239.40229056 130.30322739 237.03663472 127.94355321 234.66994715 C125.46966319 232.18977074 122.99290718 229.71245962 120.51646423 227.23483276 C115.83623591 222.55150662 111.15856074 217.86563911 106.48181576 213.1788348 C101.15363564 207.83944522 95.82258763 202.50292295 90.49130642 197.16663003 C79.53269491 186.19758925 68.57765924 175.22498437 57.625 164.25 C56.20230885 165.04036035 54.77962062 165.83072597 53.35693359 166.62109375 C52.56467377 167.06122803 51.77241394 167.5013623 50.95614624 167.95483398 C49.49921436 168.76429357 48.04256755 169.57426672 46.58634949 170.38500977 C24.24105389 182.77824347 -0.55489528 186.22575575 -25.375 179.25 C-50.02416153 171.30477399 -69.25422109 154.67394032 -81.1640625 131.81640625 C-88.58634481 116.29542673 -90.89152491 101.28085656 -90.42822266 84.21777344 C-90.38576945 82.64817318 -90.36665204 81.07794694 -90.35546875 79.5078125 C-89.3573785 58.14128799 -75.85741025 36.97040264 -60.6875 22.7265625 C-42.7635375 7.45993165 -23.36871776 -0.14366015 0 0 Z M-51 44.875 C-64.2118158 60.14458535 -69.48227795 78.23990563 -68.375 98.25 C-65.54428543 116.98266993 -56.63137957 134.32691971 -41.5625 146.0625 C-25.16154292 157.64451256 -6.99705893 162.79519159 12.94140625 159.7421875 C32.41489438 155.32447311 48.99326214 144.80953962 60 128 C69.5720952 111.5485756 73.14284449 90.29724984 68.29223633 71.70288086 C62.4156075 52.72542669 48.92992318 38.20377471 31.80078125 28.6796875 C3.16459157 14.71693224 -29.38584455 22.37713121 -51 44.875 Z " fill="#E50280" transform="translate(530.375,424.75)"/>
<path d="M0 0 C10.89 0 21.78 0 33 0 C36.3895723 18.15842306 39.3883216 36.34723408 41.9296875 54.64453125 C43.85726613 68.51085564 46.04543365 82.30091451 48.46133423 96.08868408 C50.17197791 105.87348671 51.69048567 115.65123608 52.89135742 125.51318359 C54.00189804 134.45027724 55.50378699 143.31195243 57.01269531 152.18920898 C58.69026013 162.07305149 60.27431157 171.96861564 61.8125 181.875 C61.92350037 182.58929169 62.03450073 183.30358337 62.14886475 184.03952026 C62.76803592 188.02601941 63.3850407 192.01284907 64 196 C65.25991112 192.39269616 66.30615338 188.91788058 66.9296875 185.1484375 C67.08300537 184.22973877 67.23632324 183.31104004 67.39428711 182.36450195 C67.55292236 181.37796631 67.71155762 180.39143066 67.875 179.375 C68.04717041 178.32594482 68.21934082 177.27688965 68.39672852 176.19604492 C69.87125978 167.08533264 71.1531957 157.95037476 72.42480469 148.80957031 C73.82760046 138.87515112 75.49000992 128.99540351 77.24975586 119.1184082 C78.48493236 112.15682316 79.57565895 105.19045707 80.55322266 98.18798828 C81.11774652 94.15981742 81.73548296 90.14183579 82.375 86.125 C82.4994751 85.33730225 82.6239502 84.54960449 82.75219727 83.73803711 C83.45834665 79.29907608 84.18818335 74.86481248 84.94140625 70.43359375 C86.97286306 58.47235994 88.8123166 46.50159254 90.4909668 34.4855957 C92.11634895 22.95189678 94.03975004 11.48146407 96 0 C106.89 0 117.78 0 129 0 C131.30518221 52.05101425 133.43461864 104.10087112 135.1232605 156.17617798 C135.7570595 175.66932339 136.5092888 195.15465186 137.390625 214.63818359 C137.43162323 215.55548248 137.47262146 216.47278137 137.51486206 217.4178772 C137.59026057 219.09843478 137.66719663 220.77892454 137.74612427 222.45932007 C137.77979095 223.20847687 137.81345764 223.95763367 137.84814453 224.72949219 C137.87764191 225.36570496 137.90713928 226.00191772 137.93753052 226.65740967 C138.02943426 230.10377749 138 233.552407 138 237 C132.72 237 127.44 237 122 237 C121.91959473 234.69217529 121.83918945 232.38435059 121.75634766 230.0065918 C119.95555338 177.81296312 119.95555338 177.81296312 118 125.625 C117.96297974 124.68220184 117.92595947 123.73940369 117.88781738 122.76803589 C117.39187065 110.20881205 116.85840215 97.65126825 116.31581879 85.09399033 C116.21100862 82.66571012 116.10656943 80.23741424 116.0022583 77.80911255 C115.93249785 76.18572986 115.86273466 74.56234729 115.79296875 72.93896484 C115.74109972 71.7315309 115.74109972 71.7315309 115.68818283 70.49970436 C115.48364943 65.7469206 115.27581007 60.99429613 115.06529808 56.24177361 C114.93411772 53.26648477 114.80560116 50.29108455 114.6776619 47.31565475 C114.58947539 45.28460701 114.49797762 43.25370387 114.40634155 41.22280884 C114.03287455 32.4727802 113.93433363 23.75609937 114 15 C112.02 15 110.04 15 108 15 C107.95358462 15.63339672 107.90716925 16.26679344 107.85934734 16.919384 C107.23224025 24.64085728 106.07417779 32.21401317 104.77856445 39.84863281 C104.55134367 41.20561837 104.324492 42.56266579 104.09797668 43.91976929 C103.61200141 46.8266481 103.12349202 49.73308511 102.63295937 52.6391983 C101.84982694 57.27915601 101.07276008 61.92011789 100.2964325 66.56121826 C98.77968633 75.62369239 97.25678555 84.68512705 95.73332977 93.74647522 C93.55002551 106.73499615 91.37082887 119.72420639 89.19647193 132.71422815 C88.93263051 134.29044395 88.66872989 135.86664984 88.40477014 137.44284582 C84.61765952 160.05961886 80.93884167 182.68737148 77.55131531 205.36795044 C73.42088371 232.57911629 73.42088371 232.57911629 72 234 C69.46950598 234.07313567 66.96695163 234.09247527 64.4375 234.0625 C63.37112305 234.05573242 63.37112305 234.05573242 62.28320312 234.04882812 C60.52209987 234.03700864 58.76103964 234.01907263 57 234 C55.36055689 228.74987344 54.44253492 223.67014141 53.74609375 218.22265625 C52.44711323 208.65140011 50.87329532 199.13648115 49.22265625 189.62109375 C49.09619091 188.89029224 48.96972557 188.15949074 48.83942795 187.40654373 C47.65400358 180.55856581 46.45984523 173.71211679 45.26391602 166.8659668 C44.47518503 162.34755652 43.69056137 157.82844952 42.91015625 153.30859375 C42.78184984 152.56569721 42.65354343 151.82280067 42.52134895 151.05739212 C40.85519822 141.37660411 39.33785938 131.68963078 38 121.95703125 C36.57511888 111.60148135 34.90455961 101.30843358 33.08984375 91.015625 C32.89802615 89.92665767 32.89802615 89.92665767 32.70233345 88.81569099 C31.65450295 82.87629502 30.59688492 76.93865029 29.5355835 71.00164795 C28.60937946 65.81999547 27.68843552 60.63745761 26.77734375 55.453125 C26.65251995 54.74303787 26.52769615 54.03295074 26.39908981 53.30134583 C24.17554943 40.58480498 22.40099447 27.83397307 21 15 C19.02 15 17.04 15 15 15 C15.00892776 15.89600418 15.01785553 16.79200836 15.02705383 17.71516418 C15.09134964 29.60019066 14.69007521 41.44935103 14.23046875 53.32421875 C14.14871912 55.49075518 14.06719179 57.6573 13.98587036 59.82385254 C13.76858216 65.58863902 13.54723886 71.35326285 13.32486343 77.11785507 C13.18700004 80.70049248 13.05037128 84.28317489 12.91415405 87.86587524 C11.69372233 119.95432089 10.41427411 152.03952257 8.9519043 184.11791992 C8.15254245 201.74205329 7.53090244 219.36607915 7 237 C1.72 237 -3.56 237 -9 237 C-8.53499174 218.65664775 -7.91343932 200.32957277 -7.0625 182 C-6.29871891 165.48217304 -5.66916259 148.96395229 -5.125 132.4375 C-4.17872806 103.74457104 -3.03000966 75.06017944 -1.875 46.375 C-1.82874733 45.22586498 -1.78249466 44.07672997 -1.73484039 42.89277267 C-1.15920734 28.5950741 -0.58069042 14.29749402 0 0 Z " fill="#050505" transform="translate(855,593)"/>
<path d="M0 0 C0 8.25 0 16.5 0 25 C-9.5 21.5625 -9.5 21.5625 -12.44335938 20.48266602 C-32.40423127 13.383076 -57.03608969 14.90245389 -76.18261719 23.68505859 C-97.73928734 34.13754887 -115.29580355 52.13362694 -123.3527832 74.91040039 C-126.34452212 84.56950767 -127.52488778 93.71746363 -127.4375 103.8125 C-127.43065186 105.03646484 -127.42380371 106.26042969 -127.41674805 107.52148438 C-127.25014758 116.9409622 -126.17002447 125.11765422 -123 134 C-122.66097656 135.02222656 -122.32195313 136.04445313 -121.97265625 137.09765625 C-114.38054538 157.60446106 -98.37765371 174.25894839 -79 184 C-73.78941809 186.36715062 -68.46215895 188.30168167 -63 190 C-61.8140625 190.37382812 -60.628125 190.74765625 -59.40625 191.1328125 C-53.37282822 192.57838064 -47.16892462 192.38253953 -41 192.375 C-39.71013184 192.37411377 -38.42026367 192.37322754 -37.09130859 192.37231445 C-26.02931944 192.23520536 -16.43796521 190.87760544 -6.2734375 186.36328125 C-3 185 -3 185 0 185 C0 192.92 0 200.84 0 209 C-9 212 -9 212 -13 212 C-13 259.52 -13 307.04 -13 356 C-20.26 356 -27.52 356 -35 356 C-35 309.8 -35 263.6 -35 216 C-39.29 216 -43.58 216 -48 216 C-51.40387204 215.66394083 -54.69731613 215.28969289 -58.0625 214.75 C-58.92391602 214.61360107 -59.78533203 214.47720215 -60.67285156 214.33666992 C-88.60522239 209.66464212 -114.23783834 192.26241033 -130.82421875 169.49609375 C-148.15360677 143.36571316 -155.48283431 112.99236793 -149.40844727 81.93408203 C-143.36357992 54.16327002 -126.65837174 27.90381282 -102.71875 12.1015625 C-94.50333416 6.8743626 -86.23537234 2.18810114 -77 -1 C-75.95585938 -1.36609375 -74.91171875 -1.7321875 -73.8359375 -2.109375 C-49.3047995 -10.18884289 -24.13774901 -8.18959341 0 0 Z " fill="#960296" transform="translate(760,303)"/>
<path d="M0 0 C2.64 0.33 5.28 0.66 8 1 C12.95 1 17.9 1 23 1 C23 46.54 23 92.08 23 139 C26.96 139.33 30.92 139.66 35 140 C36.32 140.33 37.64 140.66 39 141 C39 148.92 39 156.84 39 165 C29 163 29 163 24.9375 161.875 C12.01063054 159.05293695 -0.58883005 161.11134741 -13 165 C-13.91265625 165.27714844 -14.8253125 165.55429687 -15.765625 165.83984375 C-32.76131256 171.7883344 -45.58736191 185.58008331 -54 201 C-54.42152344 201.77085937 -54.84304688 202.54171875 -55.27734375 203.3359375 C-62.63557472 218.27453471 -63.92257732 238.78611735 -58.875 254.625 C-54.99009911 265.74303713 -49.82581859 275.1921179 -42 284 C-41.44570313 284.63679688 -40.89140625 285.27359375 -40.3203125 285.9296875 C-30.00072785 297.0392882 -15.54413948 302.91614234 -1 306 C-0.20335937 306.185625 0.59328125 306.37125 1.4140625 306.5625 C10.74967679 308.14193928 19.93066467 307.19837554 29 304.75390625 C32.28216256 303.92909196 35.64979829 303.47860024 39 303 C39 310.59 39 318.18 39 326 C30.09558268 329.56176693 21.28073017 330.36850582 11.75 330.3125 C10.74855957 330.30758545 9.74711914 330.3026709 8.71533203 330.29760742 C-16.64300881 329.8999175 -39.27707261 318.82383899 -57.6875 301.75 C-78.68241731 279.45589227 -84.97169127 253.35652678 -84.17041016 223.41308594 C-83.25811964 205.14113545 -75.60100634 188.00959623 -64 174 C-63.31292969 173.16210938 -62.62585938 172.32421875 -61.91796875 171.4609375 C-49.03046476 156.46034727 -33.78708813 146.79327187 -15 141 C-13.80697266 140.63068359 -13.80697266 140.63068359 -12.58984375 140.25390625 C-8.11218794 139.00292341 -4.84094872 139 0 139 C0 93.13 0 47.26 0 0 Z " fill="#FF8003" transform="translate(721,787)"/>
<path d="M0 0 C1.23877155 1.04839192 2.44797208 2.13273288 3.625 3.25 C4.23988281 3.82492187 4.85476563 4.39984375 5.48828125 4.9921875 C14.44842407 14.24012934 16.3709396 24.90741658 16.19262695 37.37207031 C16.19121273 38.74328052 16.19201575 40.11449449 16.19483948 41.48570251 C16.1962605 45.16909992 16.16708772 48.85166526 16.13196969 52.5348711 C16.10048371 56.39850842 16.09775809 60.2621697 16.09184265 64.12591553 C16.07636895 71.42492858 16.03542945 78.72356235 15.9850952 86.0224092 C15.9289987 94.33928318 15.90166447 102.6561763 15.87661803 110.97319269 C15.82450678 128.06568655 15.73567225 145.15778849 15.625 162.25 C10.675 162.25 5.725 162.25 0.625 162.25 C0.295 156.64 -0.035 151.03 -0.375 145.25 C-2.004375 146.549375 -3.63375 147.84875 -5.3125 149.1875 C-10.33474272 153.04307445 -15.59798688 156.22172331 -21.1875 159.1875 C-21.89189209 159.56447021 -22.59628418 159.94144043 -23.32202148 160.32983398 C-32.17475426 164.91106323 -41.69843504 167.2824203 -51.5 164.25 C-59.11513829 160.92817013 -64.9402574 154.69194229 -68.375 147.25 C-69.71552334 143.32002204 -69.57305943 139.25883501 -69.61328125 135.15234375 C-69.621353 134.36283829 -69.62942474 133.57333282 -69.63774109 132.75990295 C-69.65155333 131.08808568 -69.66228825 129.41624054 -69.67016602 127.74438477 C-69.68163762 126.05224209 -69.70201238 124.3601342 -69.73168945 122.66821289 C-69.99783097 107.47733069 -67.96918837 95.31999119 -57.1171875 83.8671875 C-47.08923463 74.34220405 -35.44434203 70.73970684 -22.49511719 66.74584961 C-19.85064702 65.9299867 -17.21028238 65.10178174 -14.5703125 64.27148438 C-12.89084656 63.74668626 -11.2111667 63.22257216 -9.53125 62.69921875 C-8.7417395 62.45241867 -7.952229 62.20561859 -7.13879395 61.95133972 C-1.60943029 60.25 -1.60943029 60.25 0.625 60.25 C0.58059414 55.41129207 0.51050083 50.57385785 0.41748047 45.73583984 C0.38940669 44.09303981 0.36812505 42.45010811 0.35400391 40.80712891 C0.33238379 38.43324027 0.2856424 36.06091208 0.234375 33.6875 C0.23314636 32.96320801 0.23191772 32.23891602 0.23065186 31.49267578 C0.03592282 24.57870113 -2.2914927 19.38085974 -7.125 14.4375 C-14.90969701 9.19780009 -22.29098109 8.0798157 -31.57421875 9.61328125 C-37.80027325 11.41137557 -41.66269205 16.13979056 -45.375 21.25 C-46.5624822 24.81244661 -46.72567208 28.22318643 -46.9375 31.9375 C-47.081875 34.350625 -47.22625 36.76375 -47.375 39.25 C-52.655 39.25 -57.935 39.25 -63.375 39.25 C-63.84271862 25.9979725 -61.83953731 15.79786336 -53.375 5.25 C-39.296555 -8.59722966 -16.57602896 -11.68945395 0 0 Z " fill="#040404" transform="translate(1208.375,950.75)"/>
<path d="M0 0 C0.80824219 -0.020625 1.61648438 -0.04125 2.44921875 -0.0625 C13.41233452 -0.13266394 23.19105714 4.12671097 31.2421875 11.546875 C38.53248275 19.24351458 42.89382269 27.19294513 42.86352539 37.94848633 C42.86340454 38.86150513 42.86328369 39.77452393 42.86315918 40.71520996 C42.85804321 41.66126099 42.85292725 42.60731201 42.84765625 43.58203125 C42.84664917 44.46161499 42.84564209 45.34119873 42.84460449 46.24743652 C42.83939006 49.5191377 42.82542883 52.79082022 42.8125 56.0625 C42.791875 63.384375 42.77125 70.70625 42.75 78.25 C19.65 78.25 -3.45 78.25 -27.25 78.25 C-27.188125 88.10875 -27.12625 97.9675 -27.0625 108.125 C-27.05581299 111.21858887 -27.04912598 114.31217773 -27.04223633 117.49951172 C-27.01577029 119.97625842 -26.98748868 122.45298667 -26.95703125 124.9296875 C-26.96101929 126.19562744 -26.96500732 127.46156738 -26.96911621 128.76586914 C-26.84347733 136.65722413 -25.75100216 142.64978894 -21.25 149.25 C-19.0533169 151.53560125 -19.0533169 151.53560125 -16.625 152.8125 C-15.86960937 153.26753906 -15.11421875 153.72257813 -14.3359375 154.19140625 C-7.00085203 157.91389345 4.12605598 157.54559784 11.984375 155.34375 C19.20174183 151.93190386 23.3522352 147.3464283 26.11010742 139.7668457 C27.4410361 134.53199498 27.3341573 129.12382059 27.4375 123.75 C27.47166016 122.54601562 27.50582031 121.34203125 27.54101562 120.1015625 C27.62296577 117.15135741 27.68817185 114.20069537 27.75 111.25 C32.7 111.25 37.65 111.25 42.75 111.25 C42.84275977 115.17940686 42.92209685 119.10596118 42.96972656 123.03588867 C42.99930134 125.01572908 43.05017533 126.99521501 43.1015625 128.97460938 C43.22160747 140.82904971 40.89350461 150.39346964 32.75 159.25 C27.98162277 164.07773462 23.06250469 167.71779755 16.75 170.25 C15.89019531 170.60707031 15.03039062 170.96414063 14.14453125 171.33203125 C1.62763574 174.71692244 -12.48142227 173.11831436 -23.69140625 166.89453125 C-33.7295796 160.72609853 -39.67161071 151.63576348 -42.82543182 140.32630539 C-43.63730707 136.35591608 -43.52684965 132.36448182 -43.50878906 128.32666016 C-43.5122937 127.35498398 -43.51579834 126.3833078 -43.51940918 125.38218689 C-43.52817917 122.18440511 -43.52239308 118.98684636 -43.515625 115.7890625 C-43.51697323 113.55618243 -43.51891507 111.32330265 -43.52142334 109.09042358 C-43.52436838 104.41507161 -43.52009764 99.73979618 -43.51074219 95.06445312 C-43.49936134 89.08717041 -43.50590248 83.1100676 -43.51788712 77.13279152 C-43.5251337 72.52241678 -43.52280471 67.91208427 -43.51763153 63.30170822 C-43.51630209 61.09860589 -43.51791791 58.89549966 -43.52259064 56.69240189 C-43.52770043 53.60554179 -43.51988265 50.51896784 -43.50878906 47.43212891 C-43.51283752 46.53105911 -43.51688599 45.62998932 -43.52105713 44.70161438 C-43.43587244 31.83119691 -40.07862778 20.78633341 -31.25 11.25 C-22.07891977 2.82605462 -12.1666067 0.07616029 0 0 Z " fill="#060606" transform="translate(971.25,370.75)"/>
<path d="M0 0 C0.78246094 0.4125 1.56492187 0.825 2.37109375 1.25 C11.8527987 6.87826331 17.85511926 15.55310686 21 26 C21.49031439 29.84172477 21.47096045 33.60875837 21.390625 37.4765625 C21.38659668 38.41008545 21.38256836 39.3436084 21.37841797 40.30541992 C21.35771323 43.74548397 21.3018703 47.18526472 21.25 50.625 C21.1675 58.33875 21.085 66.0525 21 74 C-2.1 74 -25.2 74 -49 74 C-48.938125 83.69375 -48.87625 93.3875 -48.8125 103.375 C-48.80581299 106.41638184 -48.79912598 109.45776367 -48.79223633 112.59130859 C-48.76576957 115.02704002 -48.7374878 117.46275269 -48.70703125 119.8984375 C-48.71101929 121.14278564 -48.71500732 122.38713379 -48.71911621 123.66918945 C-48.58282031 132.08943342 -47.28202734 139.10369356 -41.59309387 145.60873413 C-34.06686308 152.4206954 -25.96601895 152.70696306 -16.40234375 152.40234375 C-10.79264788 152.02027026 -6.32871604 150.69939386 -2 147 C2.95531215 141.16601395 5.07409097 136.23227078 5.31640625 128.58203125 C5.35830078 127.32841797 5.40019531 126.07480469 5.44335938 124.78320312 C5.48267578 123.47287109 5.52199219 122.16253906 5.5625 120.8125 C5.60570992 119.47720022 5.649325 118.14191348 5.69335938 116.80664062 C5.79956434 113.53788766 5.90029785 110.26895777 6 107 C10.95 107 15.9 107 21 107 C21.09257866 111.2329022 21.17197032 115.46219877 21.21972656 119.6953125 C21.23966189 121.13065587 21.26682074 122.56591997 21.30175781 124.00097656 C21.61751553 137.31852248 19.34921542 147.03897498 10 157 C-1.16114816 167.41861855 -14.12707263 168.56902206 -28.65136719 168.13183594 C-39.35262146 167.53114183 -48.17445014 161.58427607 -55.43359375 153.98828125 C-58.30410825 150.34466059 -60.23724163 146.27155305 -62 142 C-62.34584641 141.17123352 -62.69169281 140.34246704 -63.04801941 139.48858643 C-64.32038434 134.82593357 -64.28703375 130.46702328 -64.2746582 125.65527344 C-64.27976913 124.62682816 -64.28488007 123.59838287 -64.29014587 122.53877258 C-64.3040228 119.14558051 -64.30308613 115.75259205 -64.30078125 112.359375 C-64.30466995 109.9929395 -64.30900498 107.6265047 -64.31376648 105.2600708 C-64.32122516 100.30047341 -64.32094046 95.3409472 -64.31567383 90.38134766 C-64.30988762 84.0419992 -64.32679166 77.7029437 -64.3500185 71.36364365 C-64.36479065 66.47528392 -64.36562265 61.58699412 -64.36250877 56.69861603 C-64.36302049 54.36236238 -64.36823005 52.02610466 -64.37832069 49.68987274 C-64.39073149 46.4138265 -64.38386466 43.13834271 -64.37231445 39.86230469 C-64.37995819 38.90715469 -64.38760193 37.9520047 -64.39547729 36.96791077 C-64.30648511 25.48101993 -60.85840369 16.21753955 -52.9609375 7.8359375 C-39.28205137 -5.06958404 -16.99801104 -9.3299546 0 0 Z " fill="#030303" transform="translate(1371,948)"/>
<path d="M0 0 C6.60123078 4.03345426 10.95880861 9.51694649 13.25 16.9375 C13.67300391 20.30468265 13.67060212 23.63810574 13.65405273 27.02856445 C13.66091599 28.01814148 13.66777924 29.00771851 13.67485046 30.02728271 C13.69308982 33.28526325 13.6892842 36.5427608 13.68359375 39.80078125 C13.68815759 42.07610734 13.69346377 44.35143205 13.69947815 46.62675476 C13.70840418 51.39209599 13.7059926 56.1572696 13.69604492 60.92260742 C13.68456844 67.01204881 13.70474964 73.10090916 13.73396206 79.19027424 C13.75236203 83.88907005 13.75202378 88.5877277 13.74632454 93.28655052 C13.74617172 95.5307007 13.75218297 97.77486047 13.76461601 100.01897621 C13.77959195 103.16576529 13.76879915 106.31149468 13.75170898 109.45825195 C13.76137695 110.37442795 13.77104492 111.29060394 13.78100586 112.23454285 C13.6974713 119.62707329 11.95353192 126.37717424 7.42578125 132.33984375 C-2.04902292 140.14612894 -11.79815849 141.0680796 -23.75 139.9375 C-26.84207488 139.0429086 -29.16234901 137.82542904 -31.75 135.9375 C-32.636875 135.40125 -33.52375 134.865 -34.4375 134.3125 C-40.88561738 127.69010918 -42.49350777 120.09074188 -42.4128418 111.13867188 C-42.42320969 110.10964249 -42.43357758 109.0806131 -42.44425964 108.020401 C-42.47116953 104.64860135 -42.4617021 101.27811698 -42.44921875 97.90625 C-42.45513371 95.54552857 -42.46238296 93.18481015 -42.47090149 90.82409668 C-42.48275367 85.88826815 -42.4761196 80.95289137 -42.45678711 76.01708984 C-42.4338962 69.7088651 -42.46069884 63.401987 -42.50184917 57.09389496 C-42.52748795 52.22262509 -42.5248307 47.35167489 -42.51395607 42.48036194 C-42.5124747 40.15526608 -42.52009741 37.83014508 -42.53720665 35.50511169 C-42.55728794 32.24803189 -42.5386915 28.99330173 -42.51049805 25.73632812 C-42.52421448 24.78746231 -42.53793091 23.8385965 -42.55206299 22.86097717 C-42.42754782 15.62195799 -40.08377443 10.70080767 -35.75 4.9375 C-33.30078125 2.68359375 -33.30078125 2.68359375 -31.0625 1.375 C-30.31613281 0.91996094 -29.56976562 0.46492187 -28.80078125 -0.00390625 C-21.02548146 -4.01744195 -7.91356151 -3.69622705 0 0 Z " fill="#FEFEFE" transform="translate(985.75,961.0625)"/>
<path d="M0 0 C1.1897644 0.00966797 1.1897644 0.00966797 2.40356445 0.01953125 C10.11500316 0.2594532 15.56027308 2.12456932 21.26953125 7.4375 C27.5272614 14.16679027 28.48658291 19.59880761 28.47802734 28.56347656 C28.48474457 29.57387497 28.49146179 30.58427338 28.49838257 31.62528992 C28.51737134 34.96378507 28.52128746 38.30207921 28.5234375 41.640625 C28.52986559 43.96604494 28.53659396 46.29146408 28.54360962 48.61688232 C28.55558515 53.49249139 28.55929023 58.3680296 28.55810547 63.24365234 C28.55790245 69.47894928 28.58518652 75.71378959 28.61964989 81.94897842 C28.6419338 86.75323557 28.64594252 91.55738317 28.64488602 96.36168671 C28.64724041 98.65970175 28.65605476 100.95771989 28.67155075 103.2556839 C28.691237 106.47709201 28.68536134 109.69752002 28.67333984 112.91894531 C28.68457886 113.86056015 28.69581787 114.80217499 28.70739746 115.77232361 C28.6388088 123.03782215 26.94359253 129.08383489 22.328125 134.8046875 C14.02479735 141.70125303 6.85166137 143.32715197 -3.89453125 142.90625 C-12.50525273 142.01341348 -17.91742469 138.1223598 -23.4375 131.66015625 C-27.1406989 125.84234662 -27.10474336 120.05941246 -27.0871582 113.39892578 C-27.09226913 112.39652863 -27.09738007 111.39413147 -27.10264587 110.36135864 C-27.11651742 107.05594877 -27.11558683 103.75074798 -27.11328125 100.4453125 C-27.11716965 98.14134646 -27.12150462 95.83738114 -27.12626648 93.53341675 C-27.13372356 88.70666174 -27.13344119 83.87997988 -27.12817383 79.05322266 C-27.12238146 72.87734073 -27.13930732 66.70175892 -27.1625185 60.52592659 C-27.17727299 55.76803852 -27.17812516 51.01022242 -27.17500877 46.25231552 C-27.17552117 43.97581259 -27.18074354 41.69930554 -27.19082069 39.42282486 C-27.20320006 36.23497447 -27.19638392 33.04770485 -27.18481445 29.85986328 C-27.19245819 28.92557495 -27.20010193 27.99128662 -27.20797729 27.02868652 C-27.15384566 20.25752997 -26.1516518 14.65785493 -22.015625 9.07421875 C-21.37109375 8.45160156 -20.7265625 7.82898438 -20.0625 7.1875 C-19.42828125 6.55199219 -18.7940625 5.91648437 -18.140625 5.26171875 C-12.35901553 0.8867089 -7.06478521 -0.05989009 0 0 Z " fill="#FEFEFE" transform="translate(1385.8125,675.5)"/>
<path d="M0 0 C0.79470703 -0.01611328 1.58941406 -0.03222656 2.40820312 -0.04882812 C13.45037253 -0.0578128 23.63823848 4.44178888 31.75 11.875 C38.10108997 18.54364446 42.65864036 27.52387843 42.70967102 36.81959534 C42.71682632 37.71792587 42.72398163 38.61625641 42.73135376 39.54180908 C42.73404266 40.52002625 42.73673157 41.49824341 42.73950195 42.50610352 C42.74607315 43.54240402 42.75264435 44.57870453 42.75941467 45.64640808 C42.77913343 49.0780749 42.79080883 52.50969792 42.80078125 55.94140625 C42.80485678 57.11552504 42.8089323 58.28964382 42.81313133 59.49934196 C42.83398868 65.71708881 42.84829037 71.93481363 42.85766602 78.15258789 C42.86871347 84.559199 42.9030956 90.96546117 42.94283772 97.3719492 C42.96904996 102.31095503 42.9773621 107.24987841 42.98094749 112.18894768 C42.9858036 114.5495126 42.99738953 116.91007408 43.01598549 119.27057076 C43.04046817 122.58503536 43.03939457 125.89860645 43.0324707 129.21313477 C43.04528076 130.17718231 43.05809082 131.14122986 43.07128906 132.13449097 C42.98361565 143.72613634 38.76277501 153.03504314 30.6796875 161.21875 C26.38643042 165.19211734 21.99462123 168.13345517 16.5625 170.3125 C15.70269531 170.66957031 14.84289062 171.02664063 13.95703125 171.39453125 C1.44013574 174.77942244 -12.66892227 173.18081436 -23.87890625 166.95703125 C-31.91329447 162.01991954 -36.67933291 155.86369179 -40.4375 147.3125 C-40.829375 146.466875 -41.22125 145.62125 -41.625 144.75 C-43.68887674 138.55836979 -43.58610233 132.13025932 -43.58276367 125.68041992 C-43.58612228 124.73961075 -43.5894809 123.79880157 -43.59294128 122.82948303 C-43.60240317 119.73396466 -43.604392 116.63850066 -43.60546875 113.54296875 C-43.60868465 111.37974526 -43.61204898 109.21652199 -43.61555481 107.05329895 C-43.62153418 102.52340186 -43.62339594 97.99352381 -43.62280273 93.46362305 C-43.62270118 87.67702091 -43.63635142 81.89054166 -43.65357494 76.10396862 C-43.66472763 71.63681992 -43.66672094 67.16970063 -43.66619301 62.70253944 C-43.66736827 60.57003671 -43.67176441 58.43753311 -43.67952538 56.30504417 C-43.68939129 53.31419798 -43.68642127 50.32361466 -43.68041992 47.33276367 C-43.68603943 46.46334137 -43.69165894 45.59391907 -43.69744873 44.69815063 C-43.63310217 31.99267937 -40.38010847 20.66543335 -31.5859375 11.19921875 C-22.23867778 2.99062521 -12.15582444 -0.04905498 0 0 Z M-23.73433495 25.95939064 C-27.67920773 31.58506525 -28.15603123 36.12476873 -28.08447266 42.88427734 C-28.09323425 43.91301468 -28.10199585 44.94175201 -28.11102295 46.00166321 C-28.13293312 49.38435721 -28.11849077 52.76573142 -28.1015625 56.1484375 C-28.10493353 58.51201629 -28.10978854 60.87559338 -28.11605835 63.23916626 C-28.12341883 68.18695622 -28.11275201 73.13429398 -28.08935547 78.08203125 C-28.06090033 84.40588165 -28.07725749 90.72866944 -28.10721779 97.0524807 C-28.12533929 101.93232131 -28.1195098 106.81191264 -28.10657883 111.69176102 C-28.10325663 114.0224279 -28.10728984 116.35311783 -28.11897659 118.68375778 C-28.13176118 121.95042034 -28.1121988 125.21539577 -28.08447266 128.48193359 C-28.09459381 129.4339415 -28.10471497 130.3859494 -28.11514282 131.36680603 C-28.00807908 138.22007098 -26.3149426 143.61282155 -22.4375 149.3125 C-15.53689947 155.88167893 -9.0527853 157.73379021 0.32592773 157.67382812 C7.55270693 157.48315227 13.99004437 156.28625681 19.68359375 151.546875 C26.52914752 144.31705937 28.01312672 136.73293036 27.98242188 127.10791016 C27.99512619 125.62332558 27.99512619 125.62332558 28.00808716 124.10874939 C28.03137296 120.85622091 28.03248129 117.60416783 28.03125 114.3515625 C28.03835666 112.07766534 28.04605639 109.80376996 28.05432129 107.52987671 C28.06774682 102.7705181 28.06934348 98.01132533 28.06347656 93.25195312 C28.05758259 87.17028885 28.08816954 81.08942344 28.12859344 75.00791359 C28.15451498 70.31340287 28.15734377 65.61908337 28.15370178 60.92451096 C28.15538886 58.68313973 28.16499136 56.44175927 28.18284607 54.20045853 C28.20512328 51.05839685 28.19528858 47.91793779 28.17773438 44.77587891 C28.19099762 43.86127396 28.20426086 42.94666901 28.21792603 42.00434875 C28.1215681 34.53522465 25.91462318 27.98277876 20.80709076 22.39048195 C14.50247382 16.49113169 8.02990912 14.79697975 -0.375 14.875 C-1.13490234 14.85501953 -1.89480469 14.83503906 -2.67773438 14.81445312 C-11.84944345 14.8222855 -18.12007819 18.82967306 -23.73433495 25.95939064 Z " fill="#060606" transform="translate(971.4375,943.6875)"/>
<path d="M0 0 C8.69485347 6.3165099 15.25033722 14.64142397 18.125 25.125 C18.53561034 28.68452451 18.53570435 32.20833399 18.51318359 35.78857422 C18.51844055 36.82706512 18.52369751 37.86555603 18.52911377 38.93551636 C18.54226005 42.3503955 18.53359315 45.76480404 18.5234375 49.1796875 C18.52546008 51.5656849 18.52837305 53.95168171 18.53213501 56.337677 C18.53655137 61.33243713 18.53015044 66.327036 18.51611328 71.32177734 C18.49904065 77.70592562 18.50885511 84.08969495 18.52683067 90.47382927 C18.53770285 95.39994123 18.53420607 100.32596428 18.5264473 105.25207901 C18.52445382 107.60507376 18.52687442 109.95807672 18.53388596 112.31106186 C18.5415548 115.60846896 18.52981907 118.90527412 18.51318359 122.20263672 C18.51925629 123.16399536 18.52532898 124.125354 18.53158569 125.11584473 C18.41653947 137.50399483 14.18025003 146.80582367 5.875 155.875 C-2.35944594 163.72687213 -13.09008967 166.51494952 -24.1875 166.4375 C-25.44989502 166.42904053 -25.44989502 166.42904053 -26.73779297 166.42041016 C-38.56677594 166.189277 -46.61864669 162.50837378 -55.5625 154.8125 C-63.72063834 145.33142031 -67.33605836 136.7398732 -67.27905273 124.27783203 C-67.28591599 123.21983398 -67.29277924 122.16183594 -67.29985046 121.07177734 C-67.31807572 117.5919839 -67.31428661 114.1126432 -67.30859375 110.6328125 C-67.31315783 108.20197402 -67.31846408 105.77113684 -67.32447815 103.34030151 C-67.33340109 98.2513911 -67.33099559 93.16263768 -67.32104492 88.07373047 C-67.30956117 81.56843996 -67.32976253 75.06369275 -67.35896206 68.55847359 C-67.3773531 63.53970932 -67.37702567 58.52107453 -67.37132454 53.502285 C-67.37117166 51.10462558 -67.37718851 48.7069572 -67.38961601 46.30932999 C-67.40457714 42.94953084 -67.39381001 39.59072614 -67.37670898 36.23095703 C-67.38637695 35.25089691 -67.39604492 34.27083679 -67.40600586 33.26107788 C-67.29735319 23.01089733 -63.4313771 13.98097078 -56.875 6.125 C-42.38273698 -7.95001936 -17.18576065 -10.91337992 0 0 Z M-45.6875 16.375 C-46.50154297 17.15617188 -46.50154297 17.15617188 -47.33203125 17.953125 C-51.89539984 24.37649952 -52.3126937 30.86463613 -52.26318359 38.46899414 C-52.26844055 39.47328964 -52.27369751 40.47758514 -52.27911377 41.51231384 C-52.29225168 44.81175571 -52.28359817 48.11071 -52.2734375 51.41015625 C-52.27545985 53.71365959 -52.27837264 56.0171623 -52.28213501 58.32066345 C-52.28654983 63.1397005 -52.2801537 67.95857033 -52.26611328 72.77758789 C-52.24901248 78.94680352 -52.25887388 85.11562782 -52.27683067 91.28482914 C-52.28768294 96.03839555 -52.28421566 100.79186953 -52.2764473 105.54543877 C-52.27444979 107.81997156 -52.27688872 110.09451281 -52.28388596 112.36903572 C-52.29152506 115.54971612 -52.27986164 118.72976676 -52.26318359 121.91040039 C-52.26925629 122.84514191 -52.27532898 123.77988342 -52.28158569 124.74295044 C-52.19910912 133.25566238 -49.73509243 139.06338489 -43.86328125 145.32421875 C-37.14816502 151.40608237 -29.48211084 151.89773292 -20.75390625 151.49609375 C-11.57557328 150.6180055 -6.44936687 147.47559764 -0.46875 140.5390625 C3.44027461 134.61803992 3.4220781 128.78149072 3.41552734 121.93212891 C3.42224457 120.91997818 3.42896179 119.90782745 3.43588257 118.86500549 C3.45484277 115.5271409 3.45878569 112.18947756 3.4609375 108.8515625 C3.4673664 106.52517617 3.47409483 104.19879065 3.48110962 101.87240601 C3.49307716 96.99857712 3.49679093 92.1248191 3.49560547 87.25097656 C3.49540222 81.01448928 3.52271307 74.77845739 3.55714989 68.54207802 C3.57941681 63.7378634 3.58344308 58.93375846 3.58238602 54.12949753 C3.58474194 51.83065597 3.59356492 49.53181139 3.60905075 47.23302078 C3.62870736 44.01391177 3.62287348 40.79578594 3.61083984 37.57666016 C3.62207886 36.63302109 3.63331787 35.68938202 3.64489746 34.71714783 C3.57759536 27.61055452 1.89283768 22.34938823 -2.76953125 16.91796875 C-3.40246094 16.38816406 -4.03539062 15.85835937 -4.6875 15.3125 C-5.31269531 14.76980469 -5.93789062 14.22710938 -6.58203125 13.66796875 C-12.63532581 9.59462744 -17.6613548 8.62111806 -24.8125 8.6875 C-25.57240234 8.66751953 -26.33230469 8.64753906 -27.11523438 8.62695312 C-34.41486339 8.6331868 -40.49126131 11.16611839 -45.6875 16.375 Z " fill="#030303" transform="translate(1410.875,666.875)"/>
<path d="M0 0 C6.35696072 4.73271525 10.28973229 12.55026811 11.50193405 20.26200104 C11.6941003 24.07492854 11.70545427 27.861945 11.64208984 31.67675781 C11.64039312 33.12678456 11.64135573 34.57681643 11.64474487 36.02684021 C11.64645149 39.92522905 11.61142211 43.82248788 11.56930113 47.72061634 C11.53154118 51.80845572 11.52824903 55.89632709 11.52114868 59.98431396 C11.50257343 67.70838398 11.45343694 75.43193845 11.39305174 83.15578246 C11.32575712 91.95630384 11.2929402 100.75685113 11.26287913 109.55756617 C11.20033025 127.64544763 11.09371681 145.73281952 10.9609375 163.8203125 C6.0109375 163.8203125 1.0609375 163.8203125 -4.0390625 163.8203125 C-4.04048752 162.01706512 -4.04191254 160.21381775 -4.04338074 158.35592651 C-4.06003864 141.37523851 -4.10247825 124.39478837 -4.17115307 107.41422844 C-4.2057988 98.68400151 -4.23115804 89.9539324 -4.23461914 81.22363281 C-4.23765963 73.61383263 -4.25816129 66.00431357 -4.29958707 58.39462197 C-4.32091134 54.36566764 -4.33352079 50.33711291 -4.32521629 46.30810165 C-4.31767226 42.51413784 -4.3335119 38.72098341 -4.36712265 34.92716789 C-4.37535187 33.53646289 -4.37511047 32.14567733 -4.36565971 30.75498009 C-4.04099894 22.36551609 -4.04099894 22.36551609 -7.45039368 15.02932739 C-11.53835177 11.54090885 -14.64607206 10.11273804 -20.16796875 10.2578125 C-32.53895074 12.68151509 -46.54599157 22.23768197 -55.3046875 31.1171875 C-57.0390625 32.8203125 -57.0390625 32.8203125 -59.0390625 32.8203125 C-59.0390625 76.0503125 -59.0390625 119.2803125 -59.0390625 163.8203125 C-64.3190625 163.8203125 -69.5990625 163.8203125 -75.0390625 163.8203125 C-75.0390625 109.0403125 -75.0390625 54.2603125 -75.0390625 -2.1796875 C-69.7590625 -2.1796875 -64.4790625 -2.1796875 -59.0390625 -2.1796875 C-59.0390625 3.4303125 -59.0390625 9.0403125 -59.0390625 14.8203125 C-57.90210938 14.03527344 -56.76515625 13.25023437 -55.59375 12.44140625 C-20.23874561 -11.70900608 -20.23874561 -11.70900608 0 0 Z " fill="#070707" transform="translate(1533.0390625,666.1796875)"/>
<path d="M0 0 C7.7211609 5.50528406 14.20083105 13.7590003 16.1875 23.1875 C16.25676968 25.94720408 16.2816736 28.67946042 16.25 31.4375 C16.24548828 32.18257812 16.24097656 32.92765625 16.23632812 33.6953125 C16.22459246 35.5260764 16.2066585 37.35679873 16.1875 39.1875 C13.87506208 39.21435412 11.5625373 39.23382841 9.25 39.25 C7.31833984 39.26740234 7.31833984 39.26740234 5.34765625 39.28515625 C2.1875 39.1875 2.1875 39.1875 1.1875 38.1875 C1.10692706 36.20898668 1.04850728 34.22955904 1 32.25 C0.51122886 25.30028531 -1.38532438 20.55596763 -5.8125 15.1875 C-12.91862462 9.13973436 -21.09418507 8.72799026 -30.078125 8.87890625 C-36.97992216 9.44924304 -42.45261925 11.32419417 -47.25 16.4375 C-52.9307957 24.06553728 -53.83926018 31.78962451 -52.8125 41.1875 C-51.61554834 44.39750672 -50.9356369 45.72083166 -48.8125 48.1875 C-48.23371094 48.89648438 -47.65492187 49.60546875 -47.05859375 50.3359375 C-39.43595594 58.76311132 -29.75364595 64.47393004 -20.27978516 70.59228516 C-5.26796658 80.2981255 8.70355282 90.40746288 16.1875 107.1875 C18.13696399 120.26260767 18.28729418 135.18830148 11.10546875 146.61328125 C10.47253906 147.46277344 9.83960938 148.31226563 9.1875 149.1875 C8.70925781 149.90292969 8.23101563 150.61835937 7.73828125 151.35546875 C2.12533981 158.8983614 -7.64393754 163.81618225 -16.8125 165.1875 C-30.48404678 166.29942435 -42.93620086 165.92143856 -53.97265625 156.87109375 C-61.42125207 150.05507507 -65.62069621 142.76291137 -68.8125 133.1875 C-68.89731773 130.60119776 -68.92848229 128.04271944 -68.91015625 125.45703125 C-68.9087413 124.70661057 -68.90732635 123.95618988 -68.90586853 123.18302917 C-68.9002756 120.7886454 -68.88772444 118.39435547 -68.875 116 C-68.86998408 114.37565239 -68.86542134 112.75130332 -68.86132812 111.12695312 C-68.8511598 107.14707025 -68.83158312 103.16739007 -68.8125 99.1875 C-63.8625 99.1875 -58.9125 99.1875 -53.8125 99.1875 C-53.79832031 101.38148438 -53.78414062 103.57546875 -53.76953125 105.8359375 C-53.73879347 107.99412697 -53.69973615 110.15201983 -53.65991211 112.31005859 C-53.63691656 113.79367348 -53.62238027 115.27744734 -53.61694336 116.76123047 C-53.57796857 125.6534793 -53.37142285 133.76130859 -47.8125 141.1875 C-41.17743043 147.43255058 -35.05745607 149.5962206 -26.0625 149.625 C-24.85968384 149.62971313 -24.85968384 149.62971313 -23.63256836 149.63452148 C-17.19908933 149.5044003 -13.01732726 147.99438805 -7.8125 144.1875 C-6.8225 143.8575 -5.8325 143.5275 -4.8125 143.1875 C-3.72818906 141.43882517 -3.72818906 141.43882517 -2.8125 139.1875 C-2.30589844 138.37667969 -1.79929687 137.56585937 -1.27734375 136.73046875 C0.74869177 131.83016417 0.66329485 127.43737574 0.625 122.1875 C0.64498047 121.21554687 0.66496094 120.24359375 0.68554688 119.2421875 C0.6815259 113.33940059 0.16655921 109.83090126 -3.8125 105.1875 C-4.43125 104.4346875 -5.05 103.681875 -5.6875 102.90625 C-15.9872757 92.15207243 -28.87831388 84.23374416 -41.4375 76.375 C-52.65616314 69.22507736 -64.67722481 59.20608035 -68.41796875 45.8359375 C-70.35768048 32.81490236 -68.93037487 20.44002277 -61.8125 9.1875 C-46.91392193 -9.7715512 -19.89420328 -12.22493875 0 0 Z " fill="#040404" transform="translate(1142.8125,667.8125)"/>
<path d="M0 0 C5.26224831 4.08526636 8.90810597 8.60102419 12.1875 14.375 C12.72697266 15.29152344 12.72697266 15.29152344 13.27734375 16.2265625 C16.4939282 22.95619081 15.42550579 31.11141603 15.1875 38.375 C10.2375 38.375 5.2875 38.375 0.1875 38.375 C0.105 36.395 0.0225 34.415 -0.0625 32.375 C-0.68972739 24.56856182 -2.31590381 19.41470098 -8.125 14.0625 C-13.8511959 9.22365649 -19.84033167 7.80993626 -27.125 7.875 C-27.87048096 7.88072021 -28.61596191 7.88644043 -29.3840332 7.89233398 C-36.72877631 8.12915829 -42.20919839 10.05875387 -47.67578125 15.08984375 C-52.70590126 20.57615602 -54.10242855 25.34134873 -54.125 32.8125 C-54.14175781 34.08996094 -54.15851563 35.36742187 -54.17578125 36.68359375 C-53.44815301 44.07723557 -49.36229153 49.15882606 -43.88671875 53.91796875 C-42.76381275 54.80710993 -41.63456273 55.68828187 -40.5 56.5625 C-39.58891479 57.27152466 -39.58891479 57.27152466 -38.65942383 57.99487305 C-31.14782992 63.76230962 -23.22133279 68.90674081 -15.25390625 74.015625 C-2.31416794 82.41146233 9.76953629 92.46914984 15.1875 107.375 C15.83769251 111.52683585 15.85702673 115.55525303 15.75 119.75 C15.73195313 120.85545166 15.71390625 121.96090332 15.6953125 123.09985352 C15.31548212 135.94476724 12.44739871 145.14805467 3.1875 154.375 C0.35300789 156.78379916 -2.52640342 158.63976748 -5.8125 160.375 C-6.92238281 160.99375 -6.92238281 160.99375 -8.0546875 161.625 C-18.24719812 166.31420616 -31.75247048 165.90946828 -42.55078125 163.5625 C-53.79561971 159.36209342 -62.41271108 150.343952 -67.63061523 139.70727539 C-70.89349 131.78561796 -70.13833975 123.21294231 -70 114.8125 C-69.98492639 113.21550741 -69.97124272 111.61850106 -69.95898438 110.02148438 C-69.92876032 106.13870022 -69.870008 102.25785518 -69.8125 98.375 C-64.8625 98.375 -59.9125 98.375 -54.8125 98.375 C-54.79832031 100.56898438 -54.78414062 102.76296875 -54.76953125 105.0234375 C-54.73879347 107.18162697 -54.69973615 109.33951983 -54.65991211 111.49755859 C-54.63691656 112.98117348 -54.62238027 114.46494734 -54.61694336 115.94873047 C-54.57353685 125.85209165 -54.06234865 134.60871292 -47.05786133 142.30224609 C-40.59559253 148.57464862 -32.62760197 148.78754511 -24.09814453 148.73632812 C-17.20581254 148.5622566 -12.89624822 147.32923079 -7.859375 142.50390625 C-1.51213715 135.67933547 -0.41448429 130.19646839 -0.3125 121.0625 C-0.27125 120.15048828 -0.23 119.23847656 -0.1875 118.29882812 C-0.10591836 111.18592916 -1.96800359 107.48342258 -6.8125 102.375 C-7.36558838 101.7665625 -7.91867676 101.158125 -8.48852539 100.53125 C-12.51699231 96.28966418 -16.94287797 92.87202726 -21.75 89.5625 C-22.48508789 89.04751953 -23.22017578 88.53253906 -23.97753906 88.00195312 C-28.25164322 85.03803823 -32.59685086 82.25305419 -37.05712891 79.5793457 C-51.05992516 71.16982611 -65.33388619 59.82219696 -69.8125 43.375 C-70.2300737 40.25743272 -70.29008793 37.20494857 -70.25 34.0625 C-70.24242676 33.22871826 -70.23485352 32.39493652 -70.22705078 31.53588867 C-69.9166385 19.87730191 -65.79596663 11.52781003 -57.7421875 3.24609375 C-42.14972138 -11.50427054 -17.49820803 -11.69704298 0 0 Z " fill="#030303" transform="translate(1102.8125,378.625)"/>
<path d="M0 0 C1.46421387 0.01244751 1.46421387 0.01244751 2.95800781 0.02514648 C10.00891372 0.19075201 15.9657625 0.90026853 22.1875 4.4375 C23.04214844 4.911875 23.89679688 5.38625 24.77734375 5.875 C32.82370529 10.90851339 39.78641377 18.9077736 42.80078125 28.046875 C43.72894475 33.78461302 43.3424061 39.65433876 43.1875 45.4375 C38.2375 45.4375 33.2875 45.4375 28.1875 45.4375 C27.4375 38.3125 27.4375 38.3125 27.23144531 36.10498047 C26.64987004 31.25369531 25.03233829 28.33469718 22.1875 24.4375 C22.1875 23.7775 22.1875 23.1175 22.1875 22.4375 C21.60347412 22.15076416 21.01944824 21.86402832 20.41772461 21.56860352 C19.04894004 20.87439674 17.69367748 20.15158185 16.36547852 19.38256836 C11.18455242 16.48057028 7.01014835 15.84525903 1.125 16 C0.36123047 15.99291016 -0.40253906 15.98582031 -1.18945312 15.97851562 C-8.83433454 16.06353141 -14.59895327 18.50510979 -20.234375 23.734375 C-26.13739726 30.10496338 -26.25484805 36.35988973 -26.24609375 44.8515625 C-25.1510098 53.90820276 -18.5725091 59.92152035 -11.8125 65.4375 C-5.8044623 69.82665006 0.47162385 73.82614314 6.72753906 77.84960938 C38.75644711 98.52408515 38.75644711 98.52408515 43.1875 115.4375 C43.63239756 119.52857531 43.65189186 123.57549013 43.625 127.6875 C43.64498047 128.75613281 43.66496094 129.82476563 43.68554688 130.92578125 C43.67949437 140.88821056 41.28341111 149.43661667 35.1875 157.4375 C34.29417969 158.6440625 34.29417969 158.6440625 33.3828125 159.875 C27.08930307 167.22116047 17.56651549 171.78757775 8.00878906 172.62939453 C-5.75085547 173.50831456 -17.32838706 172.42637554 -28.25 163.1875 C-36.67355895 154.92803636 -41.84848347 146.33986707 -42.09443665 134.36349487 C-42.11328263 130.53283351 -42.06307395 126.70505668 -42 122.875 C-41.98492639 121.27800741 -41.97124272 119.68100106 -41.95898438 118.08398438 C-41.92876032 114.20120022 -41.870008 110.32035518 -41.8125 106.4375 C-36.8625 106.4375 -31.9125 106.4375 -26.8125 106.4375 C-26.79832031 108.63148438 -26.78414062 110.82546875 -26.76953125 113.0859375 C-26.73879347 115.24412697 -26.69973615 117.40201983 -26.65991211 119.56005859 C-26.63691656 121.04367348 -26.62238027 122.52744734 -26.61694336 124.01123047 C-26.57449177 133.69672328 -26.12704198 142.39602535 -19.40600586 150.03637695 C-13.55373481 155.37104065 -7.14581324 157.00578934 0.5 156.9375 C1.24548096 156.93177979 1.99096191 156.92605957 2.7590332 156.92016602 C10.10377631 156.68334171 15.58419839 154.75374613 21.05078125 149.72265625 C26.87064949 143.3749718 27.59395758 137.50289313 27.6875 129.125 C27.72875 128.21298828 27.77 127.30097656 27.8125 126.36132812 C27.89408549 119.24809345 26.03173791 115.54639871 21.1875 110.4375 C20.63586182 109.8297876 20.08422363 109.2220752 19.51586914 108.59594727 C15.45494065 104.3156668 10.97806421 100.89260562 6.125 97.5625 C5.01680908 96.78942505 5.01680908 96.78942505 3.88623047 96.00073242 C-0.73402605 92.79930656 -5.42971365 89.74167369 -10.1875 86.75 C-23.18485174 78.53436273 -37.34141327 67.85055534 -41.8125 52.4375 C-43.58359664 39.55965954 -42.68386057 27.37576119 -34.79296875 16.70703125 C-25.3040456 5.45659172 -14.69828322 -0.16020271 0 0 Z " fill="#040404" transform="translate(1221.8125,660.5625)"/>
<path d="M0 0 C0.7940625 0.43570313 1.588125 0.87140625 2.40625 1.3203125 C11.75024439 7.02014908 18.79842832 15.68599017 21.62890625 26.375 C22.36086401 31.55263802 22.05270375 36.78232884 22 42 C17.05 42 12.1 42 7 42 C6.938125 40.22625 6.87625 38.4525 6.8125 36.625 C6.18148942 29.3939598 4.37507156 23.28643332 -0.93359375 18.1171875 C-7.3608909 13.08712886 -12.76937616 11.63828344 -20.8125 11.625 C-21.58142578 11.60050781 -22.35035156 11.57601562 -23.14257812 11.55078125 C-30.26885196 11.51469885 -35.32519782 13.75073453 -40.75 18.3125 C-45.88465994 24.44556604 -47.73934533 29.03690027 -47.625 36.9375 C-47.6151709 37.73728271 -47.6053418 38.53706543 -47.59521484 39.36108398 C-47.38257106 44.67881423 -46.76384153 48.3694482 -42.9296875 52.30078125 C-42.29289062 52.86152344 -41.65609375 53.42226563 -41 54 C-40.34257813 54.67417969 -39.68515625 55.34835937 -39.0078125 56.04296875 C-30.36004432 64.49623695 -19.76969905 70.72544443 -9.59375 77.15625 C3.57846969 85.61420159 17.96592863 97.16196651 22 113 C22.42749818 116.61468413 22.47652415 120.17544882 22.4375 123.8125 C22.42722778 125.27453857 22.42722778 125.27453857 22.41674805 126.76611328 C22.25936716 133.80993934 21.43059551 139.74420819 18 146 C17.43925781 147.07894531 17.43925781 147.07894531 16.8671875 148.1796875 C11.31251168 157.92795964 2.94119457 164.3549159 -7.88574219 167.55786133 C-18.66271668 169.81156812 -32.31372317 169.34072113 -42 164 C-42.7940625 163.56429688 -43.588125 163.12859375 -44.40625 162.6796875 C-53.6569804 157.03674196 -59.15728984 149.57574492 -62.53930664 139.37304688 C-63.21174698 135.90928423 -63.12199979 132.46667028 -63.09765625 128.953125 C-63.0962413 128.18192322 -63.09482635 127.41072144 -63.09336853 126.6161499 C-63.08778534 124.16072662 -63.07523595 121.70539558 -63.0625 119.25 C-63.05748283 117.58203257 -63.0529203 115.91406371 -63.04882812 114.24609375 C-63.03782141 110.16402713 -63.02056836 106.08202919 -63 102 C-58.05 102 -53.1 102 -48 102 C-47.98582031 104.26617188 -47.97164062 106.53234375 -47.95703125 108.8671875 C-47.92629894 111.09487124 -47.88724007 113.32226711 -47.84741211 115.54980469 C-47.82440778 117.0819255 -47.80987816 118.61420051 -47.80444336 120.14648438 C-47.7659918 129.20922205 -47.63293951 137.41338782 -42 145 C-39.8033169 147.28560125 -39.8033169 147.28560125 -37.375 148.5625 C-36.61960937 149.01753906 -35.86421875 149.47257812 -35.0859375 149.94140625 C-27.75085203 153.66389345 -16.62394402 153.29559784 -8.765625 151.09375 C-1.74253108 147.77374196 2.36437181 143.2498453 5.3605957 136.02929688 C7.65699508 128.7411443 7.53658654 118.8965154 4.74609375 111.8203125 C-1.4435067 102.60053643 -11.06433109 96.00024897 -20.25 90.0625 C-22.10836361 88.83768052 -23.9664373 87.61242106 -25.82421875 86.38671875 C-28.22499775 84.81271535 -30.62708918 83.2411901 -33.03759766 81.68212891 C-45.43299068 73.65126339 -58.15853021 63.52440937 -63 49 C-63.2570436 45.46292428 -63.2314132 41.92043121 -63.25 38.375 C-63.2809375 36.93447266 -63.2809375 36.93447266 -63.3125 35.46484375 C-63.37367395 24.1935442 -59.93718045 15.23219563 -52.11328125 7.01953125 C-47.83842514 3.08061668 -43.39578999 0.16447089 -38 -2 C-37.14019531 -2.35707031 -36.28039063 -2.71414063 -35.39453125 -3.08203125 C-24.41078599 -6.05231909 -10.01166919 -5.52013267 0 0 Z " fill="#040404" transform="translate(1475,948)"/>
<path d="M0 0 C0.97686768 0.00902344 1.95373535 0.01804687 2.96020508 0.02734375 C15.22547661 0.32242338 24.01074391 4.18428326 33.1875 12.4375 C35.63441608 15.25500711 37.46610272 18.13308143 39.1875 21.4375 C39.59871094 22.19675781 40.00992187 22.95601562 40.43359375 23.73828125 C43.84015294 30.9403839 43.49642844 37.55982479 43.1875 45.4375 C38.2375 45.4375 33.2875 45.4375 28.1875 45.4375 C28.105 43.6225 28.0225 41.8075 27.9375 39.9375 C27.25531843 31.99428998 24.83001236 26.08581581 18.84765625 20.69140625 C13.13384168 16.37579571 7.50184275 16.15550013 0.625 16.0625 C-0.09534424 16.04848145 -0.81568848 16.03446289 -1.55786133 16.02001953 C-9.54842642 16.09133937 -15.31980203 19.17690733 -21.078125 24.578125 C-26.69696361 30.60192495 -26.16242769 36.91739191 -26.2109375 44.81640625 C-25.14953105 54.46271781 -18.22964824 60.2311167 -11.07421875 65.97265625 C-4.3231701 71.16753098 2.88044659 75.83520429 10.16796875 80.23828125 C23.45997714 88.27486352 37.78974648 100.48050325 43.1875 115.4375 C43.83733142 119.61087698 43.84493718 123.65927593 43.75 127.875 C43.76095703 128.93009766 43.77191406 129.98519531 43.78320312 131.07226562 C43.66946945 143.39341357 39.64084697 152.80151114 31.1171875 161.56640625 C20.47475571 171.63407256 9.94282155 172.84503772 -4.12890625 172.6484375 C-15.99285906 172.26777591 -25.14624134 166.86877071 -33.24609375 158.35546875 C-39.54625752 150.64130314 -42.15250522 142.23463367 -42.0078125 132.31640625 C-42.0049826 131.57164536 -42.00215271 130.82688446 -41.99923706 130.05955505 C-41.98813917 127.70619899 -41.9630551 125.35323891 -41.9375 123 C-41.92745672 121.39388575 -41.91833324 119.78776546 -41.91015625 118.18164062 C-41.88994466 114.26665583 -41.85077826 110.35251545 -41.8125 106.4375 C-36.8625 106.4375 -31.9125 106.4375 -26.8125 106.4375 C-26.77382812 109.74587891 -26.77382812 109.74587891 -26.734375 113.12109375 C-26.6958292 115.28584905 -26.65071009 117.45037614 -26.60498047 119.61499023 C-26.57696516 121.10543703 -26.55565506 122.59602703 -26.54150391 124.08666992 C-26.54754674 137.68130027 -26.54754674 137.68130027 -20.12207031 149.27124023 C-14.1002164 154.99308909 -7.6286806 157.01010212 0.5 156.9375 C1.24548096 156.93177979 1.99096191 156.92605957 2.7590332 156.92016602 C10.10377631 156.68334171 15.58419839 154.75374613 21.05078125 149.72265625 C26.87064949 143.3749718 27.59395758 137.50289313 27.6875 129.125 C27.72875 128.21298828 27.77 127.30097656 27.8125 126.36132812 C27.8940814 119.24844969 26.031995 115.54588432 21.1875 110.4375 C20.63368652 109.8283374 20.07987305 109.2191748 19.50927734 108.59155273 C15.49955589 104.36991675 11.100868 100.97553144 6.3125 97.6875 C5.58071533 97.17582275 4.84893066 96.66414551 4.0949707 96.13696289 C-0.35454449 93.05009688 -4.87834742 90.10979253 -9.46582031 87.2331543 C-22.77431893 78.86192207 -37.14978874 68.2764663 -41.8125 52.4375 C-42.22292595 49.13436376 -42.2326335 45.88733419 -42.1875 42.5625 C-42.19910156 41.71558594 -42.21070313 40.86867188 -42.22265625 39.99609375 C-42.18805896 32.46541622 -40.58274051 25.53360044 -36.375 19.1875 C-35.98441406 18.58421875 -35.59382813 17.9809375 -35.19140625 17.359375 C-32.02775887 12.94998545 -29.19979035 9.71411882 -24.5625 6.8125 C-23.67046875 6.24273438 -22.7784375 5.67296875 -21.859375 5.0859375 C-14.48961025 1.0987058 -8.38856191 -0.09214245 0 0 Z " fill="#030303" transform="translate(1610.8125,660.5625)"/>
<path d="M0 0 C0.84425537 0.00563965 1.68851074 0.0112793 2.55834961 0.01708984 C14.31615821 0.24508997 24.16650522 3.33110469 33.0390625 11.31640625 C41.08769282 19.7418451 44.96304304 29.34357491 44.91015625 40.92578125 C44.90532227 42.7965332 44.90532227 42.7965332 44.90039062 44.70507812 C44.88782227 46.64543945 44.88782227 46.64543945 44.875 48.625 C44.87048828 49.93791016 44.86597656 51.25082031 44.86132812 52.60351562 C44.84955959 55.83986328 44.83162463 59.07618745 44.8125 62.3125 C39.8625 62.3125 34.9125 62.3125 29.8125 62.3125 C29.79832031 60.40726563 29.78414062 58.50203125 29.76953125 56.5390625 C29.72260759 54.00518481 29.67436035 51.47133139 29.625 48.9375 C29.61919922 47.68582031 29.61339844 46.43414063 29.60742188 45.14453125 C29.40187683 36.420286 28.35222144 28.66496548 21.79418945 22.37744141 C15.72888612 17.43168459 9.70907918 15.93656979 1.9375 16 C0.87523193 16.00737183 0.87523193 16.00737183 -0.20849609 16.01489258 C-8.59113297 16.2031688 -14.14476127 18.26976127 -20.1875 24.3125 C-23.62745862 29.20317599 -25.29681469 33.69250835 -25.34140015 39.63650513 C-25.35430084 40.92306252 -25.35430084 40.92306252 -25.36746216 42.23561096 C-25.37172211 43.16864548 -25.37598206 44.10167999 -25.38037109 45.06298828 C-25.38854858 46.05212723 -25.39672607 47.04126617 -25.40515137 48.06037903 C-25.42996637 51.33451742 -25.44651306 54.60861251 -25.4609375 57.8828125 C-25.46626118 59.00301662 -25.47158485 60.12322075 -25.47706985 61.27737045 C-25.50378674 67.20866969 -25.52316485 73.139948 -25.53759766 79.07128906 C-25.55092704 83.97154446 -25.57876408 88.87138248 -25.61962891 93.77148438 C-25.66903307 99.69596153 -25.69372857 105.62006061 -25.70082474 111.54473495 C-25.70752347 113.79729209 -25.7227094 116.04984125 -25.74671555 118.30228043 C-25.77848393 121.4638444 -25.7783857 124.62396156 -25.77099609 127.78564453 C-25.78740143 128.70653366 -25.80380676 129.62742279 -25.82070923 130.57621765 C-25.75624284 137.35435909 -24.00836454 142.67668187 -20.1875 148.3125 C-12.79448828 155.35387033 -5.96546699 156.76801078 3.92871094 156.74414062 C11.52495016 156.55338857 17.28148557 154.99187638 22.671875 149.375 C27.04787641 143.87374109 29.02539441 138.99237988 29.2265625 131.91796875 C29.26523438 130.71591797 29.30390625 129.51386719 29.34375 128.27539062 C29.3746875 127.02951172 29.405625 125.78363281 29.4375 124.5 C29.47617188 123.23478516 29.51484375 121.96957031 29.5546875 120.66601562 C29.6488038 117.54841325 29.73173441 114.4304768 29.8125 111.3125 C34.7625 111.3125 39.7125 111.3125 44.8125 111.3125 C44.92149248 115.56320653 45.00030541 119.8110556 45.0625 124.0625 C45.09601563 125.24972656 45.12953125 126.43695312 45.1640625 127.66015625 C45.30592646 140.64070879 41.89569392 151.60660771 33.03515625 161.24609375 C22.33433696 171.42171946 10.35037878 172.77997051 -3.69921875 172.5859375 C-15.77076252 172.17480079 -24.2863387 166.71144215 -32.4375 158.0625 C-39.70794965 149.11113859 -41.33290973 139.40211157 -41.36450195 128.28076172 C-41.37107315 127.2735759 -41.37764435 126.26639008 -41.38441467 125.22868347 C-41.40410282 121.89985066 -41.4158012 118.5710629 -41.42578125 115.2421875 C-41.42985678 114.10208347 -41.4339323 112.96197945 -41.43813133 111.78732681 C-41.45897435 105.75112338 -41.47328296 99.71494255 -41.48266602 93.67871094 C-41.49371825 87.46157347 -41.52811003 81.24479509 -41.56783772 75.02778435 C-41.59405307 70.23203898 -41.60236231 65.43637849 -41.60594749 60.64056778 C-41.61080177 58.34977929 -41.62238245 56.05899431 -41.64098549 53.76827621 C-41.66547797 50.55210112 -41.66439303 47.33684634 -41.6574707 44.12060547 C-41.67028076 43.18618118 -41.68309082 42.2517569 -41.69628906 41.28901672 C-41.60767232 29.91323648 -37.15463626 19.56437512 -29.3046875 11.33984375 C-25.0321377 7.39401834 -20.58567257 4.47792664 -15.1875 2.3125 C-14.30707031 1.95414063 -13.42664062 1.59578125 -12.51953125 1.2265625 C-8.27813642 0.06303801 -4.37812918 -0.03038258 0 0 Z " fill="#040404" transform="translate(1081.1875,943.6875)"/>
<path d="M0 0 C4.62 0 9.24 0 14 0 C14 73.26 14 146.52 14 222 C33.47 222 52.94 222 73 222 C73 226.95 73 231.9 73 237 C48.91 237 24.82 237 0 237 C0 158.79 0 80.58 0 0 Z " fill="#000000" transform="translate(844,876)"/>
<path d="M0 0 C4.62 0 9.24 0 14 0 C14 73.26 14 146.52 14 222 C33.47 222 52.94 222 73 222 C73 226.95 73 231.9 73 237 C48.91 237 24.82 237 0 237 C0 158.79 0 80.58 0 0 Z " fill="#000000" transform="translate(844,303)"/>
<path d="M0 0 C5.28 0 10.56 0 16 0 C15.99547569 3.8136058 15.99547569 3.8136058 15.99085999 7.70425415 C15.96579851 31.63093568 15.97929955 55.55737242 16.02846622 79.48401833 C16.05281475 91.78580937 16.06409137 104.08735392 16.04467773 116.38916016 C16.02779135 127.11048557 16.03534685 137.83146628 16.07234758 148.55274618 C16.09108652 154.23057639 16.09752142 159.9078235 16.07469368 165.5856514 C16.05359548 170.92930833 16.06516384 176.27189634 16.10184479 181.61545944 C16.10954166 183.57702418 16.10527862 185.53867774 16.08818626 187.50018311 C16.06662774 190.17934488 16.0880861 192.85486613 16.12025452 195.53384399 C16.10375557 196.3101204 16.08725663 197.0863968 16.07025772 197.88619673 C16.15014033 201.19948398 16.34028508 203.21096251 18.50836074 205.80404162 C22.04034067 208.91732402 25.41721774 210.9240452 29.9375 212.375 C31.608125 212.91125 33.27875 213.4475 35 214 C35 218.95 35 223.9 35 229 C24.8829964 229 16.77129845 225.49379471 8.9765625 219.03125 C1.90276869 211.76173857 -0.15711055 204.65898277 -0.12025452 194.81231689 C-0.12110894 193.97993807 -0.12196337 193.14755924 -0.12284368 192.28995681 C-0.12449259 189.49699368 -0.11898671 186.70409042 -0.11352539 183.91113281 C-0.11324337 181.91056825 -0.11340155 179.91000359 -0.1139679 177.90943909 C-0.11425527 172.47388985 -0.10836812 167.03836261 -0.10139394 161.60281849 C-0.09515053 155.92399519 -0.09455582 150.24517141 -0.09336853 144.56634521 C-0.09025814 133.81064429 -0.08204866 123.0549535 -0.07201904 112.29925704 C-0.06084887 100.05514225 -0.05534517 87.81102698 -0.05032361 75.56690836 C-0.03986582 50.37793309 -0.022071 25.18896754 0 0 Z " fill="#0E0E0E" transform="translate(1256,887)"/>
<path d="M0 0 C0.30592529 6.93650332 0.51506062 13.87125311 0.65917969 20.81298828 C0.71928693 23.17042015 0.80100433 25.52740905 0.90527344 27.88330078 C1.79523705 48.51824142 1.79523705 48.51824142 -2.46972656 53.66162109 C-5.32156138 56.33844438 -8.5445839 58.17978475 -12 60 C-13.32797072 60.92026041 -14.64791499 61.85242058 -15.953125 62.8046875 C-17.58507813 63.82949219 -17.58507813 63.82949219 -19.25 64.875 C-20.12857666 65.42704102 -20.12857666 65.42704102 -21.02490234 65.99023438 C-28.78270139 70.80852971 -35.62714273 74.80800494 -45 74 C-49.85019938 71.52734933 -52.33950619 68.70164119 -55 64 C-55.50170898 60.70776367 -55.50170898 60.70776367 -55.49609375 57.16796875 C-55.49673828 55.87439453 -55.49738281 54.58082031 -55.49804688 53.24804688 C-55.48765381 52.58023193 -55.47726074 51.91241699 -55.46655273 51.22436523 C-55.43771778 49.20276835 -55.44593471 47.18382182 -55.45898438 45.16210938 C-55.38691392 34.00227683 -53.90914558 25.20926941 -46 17 C-38.10286052 10.81842204 -29.53331284 7.85359067 -20 5.125 C-18.67791829 4.73334425 -17.35629961 4.34012195 -16.03515625 3.9453125 C-13.63510563 3.23198476 -11.23298108 2.52556857 -8.828125 1.82861328 C-2.58691809 0 -2.58691809 0 0 0 Z " fill="#FDFDFD" transform="translate(1209,1027)"/>
<path d="M0 0 C5.28 0 10.56 0 16 0 C16.00142502 1.77819122 16.00285004 3.55638245 16.00431824 5.38845825 C16.02097658 22.13368959 16.06341754 38.87867974 16.13209057 55.6237812 C16.16673539 64.23294021 16.19209542 72.84193919 16.19555664 81.45117188 C16.19859725 88.95549844 16.2191006 96.45953997 16.26052457 103.96375644 C16.28184772 107.93682101 16.29445889 111.90948041 16.28615379 115.88260269 C16.27860902 119.62404128 16.29445231 123.36465925 16.32806015 127.10594749 C16.34020542 129.13010451 16.32770923 131.15436263 16.31443787 133.17851257 C16.23186491 140.46809627 16.23186491 140.46809627 19.3964386 146.77389526 C21.7784874 148.81060164 23.66411347 150.1682674 26.5625 151.3125 C27.30628906 151.61800781 28.05007813 151.92351562 28.81640625 152.23828125 C30.84003391 152.94419787 32.92077227 153.48019307 35 154 C35 158.95 35 163.9 35 169 C24.8829964 169 16.77129845 165.49379471 8.9765625 159.03125 C2.75383713 152.63635437 -0.12797487 145.89135517 -0.12025452 137.09014893 C-0.12162918 135.88142624 -0.12300385 134.67270355 -0.12442017 133.42735291 C-0.12088129 132.09121679 -0.11724649 130.75508093 -0.11352539 129.41894531 C-0.11324326 128.00950625 -0.11340175 126.60006703 -0.1139679 125.19062805 C-0.11425488 121.36659383 -0.10837413 117.54259096 -0.10139394 113.71856403 C-0.09514394 109.72137422 -0.0945553 105.72418369 -0.09336853 101.72698975 C-0.09026008 94.15872381 -0.08205322 86.59047232 -0.07201904 79.02221274 C-0.06084283 70.40559909 -0.05534365 61.78898476 -0.05032361 53.17236567 C-0.03987022 35.44823536 -0.0220788 17.72411937 0 0 Z " fill="#0D0D0D" transform="translate(1026,664)"/>
<path d="M0 0 C4.95 0 9.9 0 15 0 C14.99920441 1.76344254 14.99840881 3.52688507 14.99758911 5.34376526 C14.99398803 21.95625824 15.02139171 38.56842676 15.0802784 55.1808176 C15.10975849 63.72160281 15.12810413 72.26213939 15.12011719 80.80297852 C15.11318302 88.24837913 15.12726306 95.69339488 15.16643608 103.1387009 C15.18644293 107.08001374 15.19602196 111.02072245 15.18042374 114.96206856 C15.16606225 118.67489301 15.17988094 122.38656492 15.21495247 126.09924126 C15.226672 128.10532839 15.20883764 130.11152062 15.1900177 132.11755371 C15.24682838 139.77690329 15.24682838 139.77690329 18.89743042 146.26914978 C21.24543722 148.55114323 23.54600478 150.18909725 26.625 151.375 C27.72714844 151.81972656 27.72714844 151.81972656 28.8515625 152.2734375 C30.86812251 152.95540143 32.9348063 153.48370157 35 154 C35 158.95 35 163.9 35 169 C24.65066978 169 15.55216317 165.19815552 8 158 C2.48315298 151.85511905 -0.25517595 146.21582137 -0.24050903 137.81167603 C-0.24325836 136.59178986 -0.24600769 135.37190369 -0.24884033 134.11505127 C-0.24176355 132.7767324 -0.23449396 131.43841454 -0.22705078 130.10009766 C-0.22648619 128.68051156 -0.22680416 127.26092487 -0.22793579 125.84133911 C-0.22850844 121.99879025 -0.21676833 118.15636684 -0.20278788 114.31384706 C-0.19026593 110.2939852 -0.18910886 106.2741203 -0.18673706 102.25424194 C-0.18052659 94.64706432 -0.16412164 87.03994434 -0.14403808 79.43279207 C-0.12166559 70.77018982 -0.11068226 62.10758479 -0.10064721 53.44496083 C-0.07975503 35.62994033 -0.04418352 17.81497692 0 0 Z " fill="#040404" transform="translate(1293,664)"/>
<path d="M0 0 C6.39030323 3.90457426 11.40784024 9.55668644 13.25 16.9375 C13.61090907 21.92420254 13.53159128 26.87872524 13.4375 31.875 C13.375625 36.515625 13.31375 41.15625 13.25 45.9375 C-4.9 45.9375 -23.05 45.9375 -41.75 45.9375 C-41.8325 40.966875 -41.915 35.99625 -42 30.875 C-42.03641602 29.32031006 -42.07283203 27.76562012 -42.11035156 26.16381836 C-42.18527249 16.8548937 -41.55462302 12.24273131 -35.375 5.25 C-25.99255376 -3.01548836 -11.67189084 -5.45164886 0 0 Z " fill="#FDFDFD" transform="translate(985.75,388.0625)"/>
<path d="M0 0 C1.13985352 -0.0299707 1.13985352 -0.0299707 2.30273438 -0.06054688 C9.31592049 -0.05455782 14.40220634 2.2102774 19.75 6.6875 C20.513125 7.595 21.27625 8.5025 22.0625 9.4375 C22.49433594 9.91799805 22.92617187 10.39849609 23.37109375 10.89355469 C28.58141731 17.68475536 27.61508045 25.28581253 27.375 33.4375 C27.271875 38.3875 27.16875 43.3375 27.0625 48.4375 C8.9125 48.4375 -9.2375 48.4375 -27.9375 48.4375 C-28.040625 43.85875 -28.14375 39.28 -28.25 34.5625 C-28.29552002 33.13953613 -28.34104004 31.71657227 -28.38793945 30.25048828 C-28.48441903 21.34573473 -27.38000726 14.2523258 -21.1809082 7.53369141 C-14.91622438 1.59693718 -8.38962451 -0.07787837 0 0 Z " fill="#FDFDFD" transform="translate(1349.9375,958.5625)"/>
<path d="M0 0 C4.95 0 9.9 0 15 0 C15 10.56 15 21.12 15 32 C10.05 32 5.1 32 0 32 C0 21.44 0 10.88 0 0 Z " fill="#080808" transform="translate(1293,603)"/>
<path d="M0 0 C4.62 0 9.24 0 14 0 C14 10.23 14 20.46 14 31 C9.38 31 4.76 31 0 31 C0 20.77 0 10.54 0 0 Z " fill="#000000" transform="translate(1027,604)"/>
</svg>
