<svg xmlns="http://www.w3.org/2000/svg" width="500" height="500">
    <ellipse cx="248.63" cy="349.09" rx="227.34" ry="136.12" style="fill:#f5f5f5"/>
    <ellipse cx="385.6" cy="314.11" rx="69" ry="39.84" style="fill:#e0e0e0"/>
    <ellipse cx="364.99" cy="438.04" rx="21.08" ry="12.17" style="fill:#e0e0e0"/>
    <ellipse cx="102.78" cy="331.87" rx="69" ry="39.84" style="fill:#e0e0e0"/>
    <ellipse cx="158.51" cy="361.11" rx="47.19" ry="27.25" style="fill:#e0e0e0"/>
    <path d="m124 418.7-12.56 7a7.65 7.65 0 0 1-6.94 0L49.61 394c-1.91-1.11-1.91-2.9 0-4l12.56-7a7.65 7.65 0 0 1 6.94 0L124 414.69c1.92 1.11 1.92 2.9 0 4.01ZM340 432.66l85.3-49.17a1.24 1.24 0 0 0 0-2.34l-169.87-98.54a4.48 4.48 0 0 0-4.05 0l-85.3 49.18a1.23 1.23 0 0 0 0 2.33L336 432.66a4.45 4.45 0 0 0 4 0Z"
          style="fill:#e0e0e0"/>
    <path d="M433.81 325a5.32 5.32 0 0 1-.12 1.11 2.56 2.56 0 0 1-1 1.56 2.91 2.91 0 0 1-3.09-.24 9.37 9.37 0 0 1-4.3-7.43 3 3 0 0 1 1.2-2.69l.2-.12a2.64 2.64 0 0 1 1.81-.08 5.25 5.25 0 0 1 1.05.46 9.4 9.4 0 0 1 4.25 7.43Z"
          style="fill:#455a64"/>
    <path d="M432.65 315.81a3.92 3.92 0 0 0-1.9-.57 2.26 2.26 0 0 0-1.19.33l-.11.06-2.75 1.59a2.64 2.64 0 0 1 1.81-.08 5.25 5.25 0 0 1 1.05.46 9.4 9.4 0 0 1 4.25 7.36 5.32 5.32 0 0 1-.12 1.11 2.56 2.56 0 0 1-1 1.56l2.81-1.63h.05l.24-.15a.15.15 0 0 0 .07-.05 3.1 3.1 0 0 0 1-2.61 9.39 9.39 0 0 0-4.21-7.38Z"
          style="fill:#263238"/>
    <path d="M387.79 300.21a5.32 5.32 0 0 1-.12 1.11 2.56 2.56 0 0 1-1 1.56 3 3 0 0 1-3.09-.24 9.39 9.39 0 0 1-4.25-7.37 3 3 0 0 1 1.2-2.7l.21-.12a2.58 2.58 0 0 1 1.81-.07 4.61 4.61 0 0 1 1 .45 9.4 9.4 0 0 1 4.24 7.38Z"
          style="fill:#455a64"/>
    <path d="M386.62 291.07a3.8 3.8 0 0 0-1.89-.58 2.24 2.24 0 0 0-1.2.34l-.11.06-2.74 1.58a2.58 2.58 0 0 1 1.81-.07 4.61 4.61 0 0 1 1 .45 9.4 9.4 0 0 1 4.26 7.36 5.32 5.32 0 0 1-.12 1.11 2.56 2.56 0 0 1-1 1.56l2.82-1.63.24-.14h.08a3.16 3.16 0 0 0 1-2.62 9.38 9.38 0 0 0-4.15-7.42Z"
          style="fill:#263238"/>
    <path d="M396 334.62a4.87 4.87 0 0 0 .12 1.12 2.55 2.55 0 0 0 1 1.55 3 3 0 0 0 3.09-.24 9.41 9.41 0 0 0 4.26-7.37 3 3 0 0 0-1.2-2.7l-.21-.12a2.63 2.63 0 0 0-1.81-.07 4.81 4.81 0 0 0-1 .45 9.39 9.39 0 0 0-4.25 7.38Z"
          style="fill:#455a64"/>
    <path d="M397.16 325.48a3.83 3.83 0 0 1 1.89-.58 2.21 2.21 0 0 1 1.2.34l.11.06 2.74 1.58a2.63 2.63 0 0 0-1.81-.07 4.81 4.81 0 0 0-1 .45 9.39 9.39 0 0 0-4.25 7.36 4.87 4.87 0 0 0 .12 1.12 2.55 2.55 0 0 0 1 1.55l-2.81-1.63h-.05l-.24-.14-.07-.05a3.13 3.13 0 0 1-1.05-2.61 9.39 9.39 0 0 1 4.22-7.38Z"
          style="fill:#263238"/>
    <path d="M366.12 320a5.32 5.32 0 0 0 .12 1.11 2.56 2.56 0 0 0 1 1.56 2.93 2.93 0 0 0 3.1-.24 9.41 9.41 0 0 0 4.25-7.37 3 3 0 0 0-1.2-2.69l-.2-.12a2.64 2.64 0 0 0-1.81-.08 4.94 4.94 0 0 0-1 .46 9.39 9.39 0 0 0-4.26 7.37Z"
          style="fill:#455a64"/>
    <path d="M367.28 310.84a3.92 3.92 0 0 1 1.9-.57 2.32 2.32 0 0 1 1.2.33l.1.06 2.75 1.59a2.64 2.64 0 0 0-1.81-.08 4.94 4.94 0 0 0-1 .46 9.39 9.39 0 0 0-4.26 7.36 5.32 5.32 0 0 0 .12 1.11 2.56 2.56 0 0 0 1 1.56l-2.85-1.66h-.05l-.24-.15-.07-.05a3.12 3.12 0 0 1-1-2.61 9.39 9.39 0 0 1 4.21-7.35Z"
          style="fill:#263238"/>
    <path d="M423.87 302a5.32 5.32 0 0 0 .12 1.11 2.56 2.56 0 0 0 1 1.56 3 3 0 0 0 3.09-.24 9.41 9.41 0 0 0 4.26-7.37 3 3 0 0 0-1.2-2.7l-.2-.12a2.58 2.58 0 0 0-1.81-.07 4.68 4.68 0 0 0-1.05.45 9.42 9.42 0 0 0-4.21 7.38Z"
          style="fill:#455a64"/>
    <path d="M425 292.9a3.84 3.84 0 0 1 1.9-.58 2.18 2.18 0 0 1 1.19.34l.11.06 2.8 1.58a2.58 2.58 0 0 0-1.81-.07 4.68 4.68 0 0 0-1.05.45 9.42 9.42 0 0 0-4.25 7.36 5.32 5.32 0 0 0 .12 1.11 2.56 2.56 0 0 0 1 1.56l-2.82-1.63h-.05l-.24-.15h-.07a3.13 3.13 0 0 1-1-2.62 9.37 9.37 0 0 1 4.17-7.41Z"
          style="fill:#263238"/>
    <path style="fill:#f0f0f0" d="m398.47 293.05-15.19-4.36v3.25l15.19 8.76v-7.65z"/>
    <path style="fill:#fafafa" d="m398.47 293.05 1.5-.92-15.23-4.16-1.46.72 15.19 4.36z"/>
    <path style="fill:#f0f0f0" d="m405.04 302.73 21.54-8.07v-3.28l-21.54 1.92v9.43z"/>
    <path style="fill:#fafafa" d="m426.58 291.38-1.58-.42-21.24 1.37 1.28.97 21.54-1.92z"/>
    <path d="M405.62 301.69c0 2.44-7.49 2.44-7.49 0V280.4h7.49Z" style="fill:#fafafa"/>
    <path d="m400 296.15-4.12 26.74h2.81l3.86-26.74a4.68 4.68 0 0 1-2.55 0Z" style="fill:#fafafa"/>
    <path style="fill:#f0f0f0" d="M402.56 296.15v7.34l-3.86 23.93v-4.53l3.86-26.74z"/>
    <path style="fill:#e0e0e0" d="M395.89 322.89h2.82v4.53h-2.82z"/>
    <path style="fill:#f0f0f0" d="m403.84 303.27 27.77 14.56v-4.48l-27.77-17.18v7.1z"/>
    <path d="M403.84 296.17a3.07 3.07 0 0 0 1.78-.81l27.72 16.82-1.73 1.17Z" style="fill:#fafafa"/>
    <path style="fill:#e0e0e0" d="M431.61 317.83v-4.48l1.73-1.17v4.34l-1.73 1.31z"/>
    <path style="fill:#f0f0f0" d="m368.83 312.69 29.67-10.16v-6.66l-29.67 12.34v4.48z"/>
    <path d="M398.5 295.87c-.25-.07-.35-.5-.37-1.15L368 307.85l.88.36Z" style="fill:#fafafa"/>
    <path style="fill:#e0e0e0" d="M367.95 307.85v4.33l.88.51v-4.48l-.88-.36z"/>
    <path style="fill:#f0f0f0;opacity:.1"
          d="M395.89 322.89h2.82v4.53h-2.82zM431.61 317.83v-4.48l1.73-1.17v4.34l-1.73 1.31z"/>
    <path style="opacity:.1" d="M367.95 307.85v4.33l.88.51v-4.48l-.88-.36z"/>
    <path d="M395.53 243.3h12.69v43.92c0 3.64-12.69 3.64-12.69 0Z" style="fill:#f0f0f0"/>
    <path d="m446.86 237.21-48.61-25.38s-3.41-16.63 8.1-34.75c0 0-3.42-32.29 2.33-43 4.2-8.2 9.25-7.08 9.25-7.08l55.19 24.93Z"
          style="fill:#ba68c8"/>
    <path d="m446.86 237.21-48.61-25.38s-3.41-16.63 8.1-34.75c0 0-3.42-32.29 2.33-43 4.2-8.2 9.25-7.08 9.25-7.08l55.19 24.93Z"
          style="opacity:.1"/>
    <path d="m417.93 127 55.19 24.93-1.81 5.89-60.37-27.26c3.56-4.34 6.99-3.56 6.99-3.56ZM342.71 232.53v2.68a9.69 9.69 0 0 0 4.73 7.83l54.18 28.44a10.82 10.82 0 0 0 9.36-.19l31.25-18a10.26 10.26 0 0 0 4.63-8v-2.67a9.68 9.68 0 0 0-4.74-7.82L390.84 208a11.78 11.78 0 0 0-9.52-.08l-33.84 16.88a9.45 9.45 0 0 0-4.77 7.73Z"
          style="fill:#ba68c8"/>
    <path d="M342.71 232.53v2.68a9.69 9.69 0 0 0 4.73 7.83l54.18 28.44a10.82 10.82 0 0 0 9.36-.19l31.25-18a10.26 10.26 0 0 0 4.63-8v-2.67a9.68 9.68 0 0 0-4.74-7.82L390.84 208a11.78 11.78 0 0 0-9.52-.08l-33.84 16.88a9.45 9.45 0 0 0-4.77 7.73Z"
          style="opacity:.1"/>
    <path d="m401.62 258.12-54.18-28.45c-2.62-1.37-2.6-3.55 0-4.87l33.84-16.93a11.78 11.78 0 0 1 9.52.08l51.28 26.79c2.62 1.37 2.66 3.67.11 5.14L411 257.93a10.82 10.82 0 0 1-9.38.19Z"
          style="fill:#ba68c8"/>
    <path d="M405.1 272.41a10.57 10.57 0 0 0 5.88-1.12l31.25-18a10.24 10.24 0 0 0 4.62-8v-2.69a9.77 9.77 0 0 0-4.06-7.4c1.93 1.39 1.75 3.4-.56 4.73l-31.23 18a10 10 0 0 1-4.78 1.15Z"
          style="opacity:.2"/>
    <path d="M417.93 127s-8-5.41-16.42-.54-5.64 21.22-4.74 31.76 1.2 28.91-6.18 35.6-31.55-2.2-42.1-2.2l9.3 34.29c10.26-5.59 26.66-11.32 40.46-14 0 0-.45-21.38 9.35-33.6 0 0-3.61-8.55-1.25-25.68 2.19-15.94 5.15-21.95 11.58-25.63Z"
          style="fill:#ba68c8"/>
    <path d="M417.93 127s-8-5.41-16.42-.54-5.64 21.22-4.74 31.76 1.2 28.91-6.18 35.6-31.55-2.2-42.1-2.2l9.3 34.29c10.26-5.59 26.66-11.32 40.46-14 0 0-.45-21.38 9.35-33.6 0 0-3.61-8.55-1.25-25.68 2.19-15.94 5.15-21.95 11.58-25.63Z"
          style="opacity:.2"/>
    <path d="M357.79 225.88c.48-3.07 2.42-20.71-.87-28.4-2.86-6.68-10.37-7.07-12.74-4.21s-.25 6.34 3.51 11.24c3.17 4.14 4.32 8 4.32 18Z"
          style="fill:#ba68c8"/>
    <path d="M357.79 225.88c.48-3.07 2.42-20.71-.87-28.4-2.86-6.68-10.37-7.07-12.74-4.21s-.25 6.34 3.51 11.24c3.17 4.14 4.32 8 4.32 18Z"
          style="opacity:.1"/>
    <g>
        <path d="M387.74 145.46c-4 4-24.64 25.89-24.64 25.89l-14.6-14.64c-3.46-3.47-4-7.5-6.08-10.49s-4.55-4-6.92-6.57-3.19-4.43-4.35-2.63 1.36 5.54 1.77 6.42 3.19 3.19-.82 2.51-11.13-6.31-12.9-7.4-2.1 1.22-1.42 2.85-.28 5.81.4 8.66 2.3 4.74 5.77 7.06c3.22 2.15 11.49 4.3 14 6.38 5.2 6.9 15 19.81 17.62 22.3 3.57 3.42 6.52 5.64 13.27.63s27.61-24.55 27.61-24.55l6.37-21.14c-5.91-1.03-10.27-.15-15.08 4.72Z"
              style="fill:#ffa8a7"/>
        <path d="M402.5 140.69c-6.46-1.94-9.08-1.46-12 .5s-4.34 5.59-14.33 15.83c-7.62 7.81-13 13.35-13 13.35l-9.94-8.88a22.16 22.16 0 0 1-10.06 8.95s5.36 7.77 9.61 13 7.32 7.05 8.56 7.25 4.12-.91 12.87-8 30.48-27.16 30.48-27.16Z"
              style="fill:#ba68c8"/>
        <path d="M402.5 140.69c-6.46-1.94-9.08-1.46-12 .5s-4.34 5.59-14.33 15.83c-7.62 7.81-13 13.35-13 13.35l-9.94-8.88a22.16 22.16 0 0 1-10.06 8.95s5.36 7.77 9.61 13 7.32 7.05 8.56 7.25 4.12-.91 12.87-8 30.48-27.16 30.48-27.16Z"
              style="fill:#fff;opacity:.85"/>
        <path d="m404.89 89.39.12.08c5.57 3.59 11.92 4.7 16.91 9.38s7.37 10.53 6.61 16.54c-1.35 10.65-7 15-10.48 20.11-.14.2-5.71 3.66-5.94 3.67l-3.63.16c-.88 0-2 .51-2.83.24-1.11-.35-1.93-1.82-2.59-2.69a35 35 0 0 0-8.83-8c-1.45-1-2.46-3-3.14-4.61a17 17 0 0 1-1.35-5.47 2.2 2.2 0 0 0-2.47-2.7 11.37 11.37 0 0 1-5.42-1.88 7.69 7.69 0 0 1-3.2-4.68 6 6 0 0 1 2.31-6 6.58 6.58 0 0 1 6.82-10.3c-1.08-2.42.24-5.46 2.5-6.86a9.47 9.47 0 0 1 7.7-.61 28.5 28.5 0 0 1 6.91 3.62ZM380.28 269.78c4.24-.72 8 2.56 8.4 3.64.52 1.46.47 4.45-1.14 8.2a25.51 25.51 0 0 0-1.48 11.66c.43 3.36 2.33 11.72-.92 16.06s-10.68 8.3-13.57 2.6c-.94-1.86.6-8.48 1.22-13.3 1.23-9.59 2.11-19.11 2.11-19.11Z"
              style="fill:#263238"/>
        <path d="M381.88 277.35a92.78 92.78 0 0 0-.59 14c.26 5.12-.7 8.52-2.39 10.86-1.86 2.59-6.69 4.17-6.29-1.12.27-3.68 2.29-21.59 2.29-21.59Z"
              style="fill:#ffa8a7"/>
        <path d="M387.2 271.79c.31 3.14-1.09 11.57-5.11 18.73s-9.79 15.32-10.78 20.26c-.19-2.25.61-6.41 1.18-10.1v-.25c0-.09.06-.42.1-.63s0-.2 0-.3c0-.27.07-.54.11-.81v-.05c.38-3 .73-6 1-8.68.25-2.16.45-4.13.62-5.76.08-.81.16-1.54.22-2.17 0-.32.06-.6.09-.86.1-1.05.15-1.64.15-1.64l5.38-9.75a7.9 7.9 0 0 1 .82-.09 9.42 9.42 0 0 1 6.22 2.1Z"
              style="opacity:.15"/>
        <path d="M360.79 218.55C374.27 210 391 205 391 205l14.65 10.72-14.08 13.43-18.07 13.1s-3.54-.17-1.2 5.27c.74 1.73 1.89 5.2 3.11 9.12l-7.82 23.9s-4.88-8.07-12.07-22.79c-6.68-13.68-8.47-22.82-7.94-25.91.63-4.03 2.3-6.36 13.21-13.29Z"
              style="fill:#37474f"/>
        <path d="m393.38 222.46 1.74-1.31c-4.92-2.35-6.6-8.11-6.6-8.11a14.68 14.68 0 0 0 3.67 8.76c-1.24.78-19.14 12.06-22.42 16s-5.5 5.37-5.62 14.58c-.1 7.78-.74 21.39-.74 21.39l23.71-31.4 10.07-17.53ZM372.39 310.69c1-.1 1.16 1.67 1.87 3.9a11.54 11.54 0 0 1 .55 6.74c-.76 2.87-5.24 3.6-7.32 7.45s-5 10.74-12.92 13.27-14.29.49-16-1.75-.64-4.66 4.22-8.12c5.15-3.68 6.6-4.76 6.6-4.76Z"
              style="fill:#263238"/>
        <path d="M361.18 297.64a122.77 122.77 0 0 1-3.58 14.18c-1.86 5.18-5.12 10.24-8.82 15-.81 1-2.67 3-3.33 3.84a1.56 1.56 0 0 0 .3 2.39c1.85 1.58 9.32 1.57 13.33-1.79s7.44-10.24 9.8-12.89c.88-1 1.71-2 2.49-3.09a5.22 5.22 0 0 0 1.09-3.4 15.25 15.25 0 0 1 .05-4.83 55.5 55.5 0 0 1 1.63-6.3Z"
              style="fill:#ffa8a7"/>
        <path d="M429.52 196.52c6 9.39 7 21.31 4.92 27.35-2.77 8.24-6 12-17 19.24-9.08 6-21.84 9.85-24.57 11.25s-3.56 4.52-4.68 10.07c-1.06 5.27-2.33 13.78-7.67 25.07-5.64 11.93-7.16 15.45-7.16 15.45s-7.46 3.24-13.51-2.06c0 0 6.34-49.63 8.34-56.75s30.5-27.61 30.5-27.61-4.25-11.38-6.78-19.33Z"
              style="fill:#37474f"/>
        <path d="M432.65 198.69a26.93 26.93 0 0 1-2-5.32c-1.67-7 1.26-14.15 2.68-21.21a51 51 0 0 0 .92-13c-.19-3.34 0-9-3.15-10.9a20.08 20.08 0 0 0-3.55-1.52l-9.61-3.58s-9.57-1.67-14.66-2.34c-2.8-.38-4.51.54-7.76 3.78s-9.48 10.68-11.77 16.88a13.76 13.76 0 0 0 6.07 16.27c.65 4.27 1.12 12.36 1.35 15.79s-2.13 9.24-2.86 11.83c2.4 6 9.68 11.77 23.63 13a55.65 55.65 0 0 0 10.95-.1c4.18-.48 12.57-3.76 13.35-5.74a24.26 24.26 0 0 0-.78-5.56 38.63 38.63 0 0 0-2.81-8.28Z"
              style="fill:#ba68c8"/>
        <path d="M432.65 198.69a26.93 26.93 0 0 1-2-5.32c-1.67-7 1.26-14.15 2.68-21.21a51 51 0 0 0 .92-13c-.19-3.34 0-9-3.15-10.9a20.08 20.08 0 0 0-3.55-1.52l-9.61-3.58s-9.57-1.67-14.66-2.34c-2.8-.38-4.51.54-7.76 3.78s-9.48 10.68-11.77 16.88a13.76 13.76 0 0 0 6.07 16.27c.65 4.27 1.12 12.36 1.35 15.79s-2.13 9.24-2.86 11.83c2.4 6 9.68 11.77 23.63 13a55.65 55.65 0 0 0 10.95-.1c4.18-.48 12.57-3.76 13.35-5.74a24.26 24.26 0 0 0-.78-5.56 38.63 38.63 0 0 0-2.81-8.28Z"
              style="fill:#fff;opacity:.75"/>
        <path d="M400 179.43s3.75 4.84 11.42 4.15c7.92-.71 9.6-7.23 9.6-7.23s.15 8.59-9.31 9.44a11.38 11.38 0 0 1-11.71-6.36Z"
              style="fill:#ba68c8"/>
        <path d="M400 179.43s3.75 4.84 11.42 4.15c7.92-.71 9.6-7.23 9.6-7.23s.15 8.59-9.31 9.44a11.38 11.38 0 0 1-11.71-6.36Z"
              style="opacity:.05"/>
        <path d="M391.67 100.58c-2.56 1.51-5.74 7.94-5.45 21.44.24 11.44 3.95 14.27 5.81 15.09s6.71.11 10.21-.47l.57 8.14c-3.8 9.86-3.22 14.88-4 21.45 0 0 5.32-9 10.81-14.06a102.22 102.22 0 0 1 9-7.59l-1.1-17.19s1.77 1.08 4.17-.77c3.24-2.48 3.74-7 1.15-9.32-1.67-1.53-6.2-2-7.59 2 0 0-4.69-.42-12.09-4.51a23.93 23.93 0 0 1-11.49-14.21Z"
              style="fill:#ffa8a7"/>
        <path d="M415.25 123.35v-6h-3.84v2.18a3.83 3.83 0 0 0 3.84 3.82ZM400.28 119.17a1.44 1.44 0 1 0 2.87.14 1.45 1.45 0 0 0-1.35-1.56 1.47 1.47 0 0 0-1.52 1.42Z"
              style="fill:#263238"/>
        <path d="M399.35 128.64 395 130a2.26 2.26 0 0 0 2.86 1.58 2.41 2.41 0 0 0 1.49-2.94Z" style="fill:#f28f8f"/>
        <path d="m387.53 114.73 2.92-2a1.7 1.7 0 0 0-2.42-.5 1.86 1.86 0 0 0-.5 2.5ZM388.2 118.11a1.44 1.44 0 1 0 1.51-1.42 1.46 1.46 0 0 0-1.51 1.42Z"
              style="fill:#263238"/>
        <path style="fill:#f28f8f"
              d="m396.19 117.3-.25 8.66-4.56-1.42 4.81-7.24zM402.24 136.64c4.28-.91 9.72-3.44 10.91-6.43a7.42 7.42 0 0 1-2.4 4.84c-2.27 1.94-8.37 3.7-8.37 3.7Z"/>
        <path d="M346.48 175.06c1.32-.2 6.67-3.39 8.32-6.93 0 0-.6 5.16-7.13 8.56Z" style="fill:#ba68c8"/>
        <path d="M346.48 175.06c1.32-.2 6.67-3.39 8.32-6.93 0 0-.6 5.16-7.13 8.56Z" style="opacity:.05"/>
    </g>
    <path d="m448.87 252.24-37.53 18.84.8-13.82-5.79-3.34c.42-10.72 3.36-21.72 10.94-24.15 9.49-3 21.8-4 29.18-10.66s7.09-25.05 6.19-35.59-3.68-26.9 4.74-31.76 16.41.54 16.41.54c3.6 2.34 7.78 4 7.43 6.86a3.05 3.05 0 0 1-2.56 2.89l-20.94 79.26a17.2 17.2 0 0 1-8.87 10.93Z"
          style="fill:#ba68c8"/>
    <g style="opacity:.30000000000000004">
        <path d="m448.87 252.24-37.53 18.84.8-13.82-5.79-3.34c.42-10.72 3.36-21.72 10.94-24.15 9.49-3 21.8-4 29.18-10.66s7.09-25.05 6.19-35.59-3.68-26.9 4.74-31.76 16.41.54 16.41.54c3.6 2.34 7.78 4 7.43 6.86a3.05 3.05 0 0 1-2.56 2.89l-20.94 79.26a17.2 17.2 0 0 1-8.87 10.93Z"/>
    </g>
    <path d="M462.91 161.53c-3.37 4-5.1 10.44-4.48 26.18s.37 28.43-5.79 36.14c-7.3 9.15-32.34 16.44-32.34 16.44l-9.78-4.48a12.29 12.29 0 0 1 6.77-6c9.49-3 21.8-4 29.18-10.66s7.09-25.05 6.19-35.59-3.69-26.9 4.74-31.76 16.41.54 16.41.54c3.6 2.34 7.78 4 7.43 6.86a3.05 3.05 0 0 1-2.56 2.89c-4.68-1.58-12.4-4.59-15.77-.56Z"
          style="fill:#ba68c8"/>
    <g style="opacity:.2">
        <path d="M462.91 161.53c-3.37 4-5.1 10.44-4.48 26.18s.37 28.43-5.79 36.14c-7.3 9.15-32.34 16.44-32.34 16.44l-9.78-4.48a12.29 12.29 0 0 1 6.77-6c9.49-3 21.8-4 29.18-10.66s7.09-25.05 6.19-35.59-3.69-26.9 4.74-31.76 16.41.54 16.41.54c3.6 2.34 7.78 4 7.43 6.86a3.05 3.05 0 0 1-2.56 2.89c-4.68-1.58-12.4-4.59-15.77-.56Z"/>
    </g>
    <path d="m412.14 257.26-5.79-3.34c0-6.42 1.66-20.36 9.77-23.73 6.45-2.67 9.56 1.26 9.49 3.68-.08 2.74-2.05 4.54-5.31 6.42-4.3 2.48-8.16 6.95-8.16 16.97Z"
          style="fill:#ba68c8"/>
    <path d="m412.14 257.26-5.79-3.34c0-6.42 1.66-20.36 9.77-23.73 6.45-2.67 9.56 1.26 9.49 3.68-.08 2.74-2.05 4.54-5.31 6.42-4.3 2.48-8.16 6.95-8.16 16.97Z"
          style="opacity:.1"/>
    <g>
        <path d="M451.33 196.49c-1.67-6.72-5.69-25-9.27-38.7-1.19-4.55-6-7.12-10.25-9.27-9.56 7.43-3.41 23.64-3.41 23.64l7.09 28.43-21.6 19.26a59.13 59.13 0 0 0-5.11 4.4 25.05 25.05 0 0 0-3.9 5c-2.09 3.38-2.66 7.13-3 10.94a10.75 10.75 0 0 0 .33 5.08 8 8 0 0 0 3 3.42c1.09.78 2.69 2.09 4.12 1.77 2.58-.58 2.52-3.25 3.4-6.55s2.56-5.55 5.23-8.57 1.42-7.34 5.63-10c0 0 15.76-9.2 23.31-14.35 8-5.46 5.56-9.99 4.43-14.5Z"
              style="fill:#ffa8a7"/>
        <path d="M430.59 147.83c2.29 1.24 7.78.47 10.31 4.18s3.12 11.45 4.71 16.49 5.44 25.87 6.36 28.88 3 9.15-3.94 13.38c-6.22 3.8-16.63 10-16.63 10a8.5 8.5 0 0 0-2-5.42c-2.16-2.51-6.5-3.46-6.5-3.46l12.1-11.45-6.71-26.43s-4.83-7.85-2.22-16.57 4.52-9.6 4.52-9.6Z"
              style="fill:#ba68c8"/>
        <path d="M430.59 147.83c2.29 1.24 7.78.47 10.31 4.18s3.12 11.45 4.71 16.49 5.44 25.87 6.36 28.88 3 9.15-3.94 13.38c-6.22 3.8-16.63 10-16.63 10a8.5 8.5 0 0 0-2-5.42c-2.16-2.51-6.5-3.46-6.5-3.46l12.1-11.45-6.71-26.43s-4.83-7.85-2.22-16.57 4.52-9.6 4.52-9.6Z"
              style="fill:#fff;opacity:.85"/>
        <path d="M435 200.43c2.55-2 7.67-1.7 10.38-.71 0 0-2.74-3.87-11.32-1.55Z" style="fill:#ba68c8"/>
        <path d="M435 200.43c2.55-2 7.67-1.7 10.38-.71 0 0-2.74-3.87-11.32-1.55Z" style="opacity:.05"/>
    </g>
    <g>
        <path style="fill:#ba68c8" d="m338.4 324.75 78.39-45.15-164.48-94.96-78.4 45.15 164.49 94.96z"/>
        <path style="opacity:.30000000000000004" d="m338.4 324.75 78.39-45.15-164.48-94.96-78.4 45.15 164.49 94.96z"/>
        <path style="fill:#ba68c8"
              d="M416.79 279.6v103.85l-4.73 2.73v-76.64l-68.93 39.69v76.64l-4.73 2.73V324.75l78.39-45.15z"/>
        <path style="opacity:.5"
              d="M416.79 279.6v103.85l-4.73 2.73v-76.64l-68.93 39.69v76.64l-4.73 2.73V324.75l78.39-45.15z"/>
        <path style="fill:#ba68c8" d="m412.06 386.18-4.73-2.73v-71.18l4.73-2.73v76.64z"/>
        <path style="opacity:.6000000000000001" d="m412.06 386.18-4.73-2.73v-71.18l4.73-2.73v76.64z"/>
        <path style="fill:#ba68c8"
              d="m338.4 428.6-4.74-2.73v-76.64l-155.02-89.5v76.64l-4.73-2.73V229.79l164.49 94.96V428.6z"/>
        <path style="opacity:.4"
              d="m338.4 428.6-4.74-2.73v-76.64l-155.02-89.5v76.64l-4.73-2.73V229.79l164.49 94.96V428.6z"/>
        <path style="fill:#ba68c8" d="m178.64 336.37 4.73-2.73.01-71.18-4.74-2.73v76.64z"/>
        <path d="m178.64 336.37 4.73-2.73.01-71.18-4.74-2.73v76.64z" style="opacity:.6000000000000001"/>
        <g>
            <path d="m369.11 273-34.83 20.11a2.18 2.18 0 0 1-2 0l-25.63-14.8a.59.59 0 0 1 0-1.13L341.52 257a2.18 2.18 0 0 1 2 0l25.63 14.8a.6.6 0 0 1-.04 1.2Z"
                  style="opacity:.2"/>
            <path d="m369.11 271.15-34.83 20.11a2.18 2.18 0 0 1-2 0l-25.63-14.8c-.54-.32-.54-.82 0-1.13l34.83-20.11a2.12 2.12 0 0 1 2 0L369.11 270a.6.6 0 0 1 0 1.15Z"
                  style="fill:#ebebeb"/>
            <path d="m343.48 255.22 24.34 14-33.54 19.36a2.18 2.18 0 0 1-2 0l-24.28-14 33.54-19.36a2.12 2.12 0 0 1 1.94 0Z"
                  style="fill:#e0e0e0"/>
            <path d="m369.11 267.61-34.83 20.11a2.18 2.18 0 0 1-2 0l-25.63-14.8c-.55-.32-.55-.82 0-1.14l34.83-20.11a2.18 2.18 0 0 1 2 0l25.63 14.8a.6.6 0 0 1 0 1.14Z"
                  style="fill:#fafafa"/>
        </g>
        <g>
            <path d="m391.24 276.47-25.81 14.91-4.41.9a.14.14 0 0 1-.15-.2l1.38-2.53 25.82-14.92c.87-.5 3.86 1.44 3.17 1.84Z"
                  style="opacity:.2"/>
            <path d="M388.18 272.8a2.59 2.59 0 0 0 1.19 2.05 1 1 0 0 0 .68.15l-.13.1.28-.16h.05a.51.51 0 0 0 .09-.18v-.11a1.23 1.23 0 0 0 0-.29 2.63 2.63 0 0 0-1.18-2.05 1.1 1.1 0 0 0-.53-.16h-.27l-.25.14h.13a.92.92 0 0 0-.06.51Zm1.95 2.17Z"
                  style="fill:#ba68c8"/>
            <path d="m363.62 286.42 1.66 2.9.29-.16 24.35-14.06.13-.1a1 1 0 0 0 .21-.67 2.63 2.63 0 0 0-1.18-2.05 1.07 1.07 0 0 0-.53-.16h-.28Z"
                  style="fill:#f0f0f0"/>
            <path d="M364.45 286.5c-.65-.38-1.18-.07-1.18.68a2.6 2.6 0 0 0 1.18 2.05c.66.38 1.19.07 1.19-.68a2.62 2.62 0 0 0-1.19-2.05Z"
                  style="fill:#ba68c8"/>
            <path d="m361.91 288.26 1.51-1.66a.77.77 0 0 1 .94 0 2.62 2.62 0 0 1 1.19 2.05.76.76 0 0 1-.46.81h-.08l-2.19.48a.56.56 0 0 1-.38-.08 1.51 1.51 0 0 1-.68-1.17.53.53 0 0 1 .15-.43Z"
                  style="fill:#e0e0e0"/>
            <path d="M381.24 277.49a.31.31 0 0 1 .27 0 .91.91 0 0 1 .43.73.29.29 0 0 1-.1.25h-.06l-18 10.38-1.18-.68Z"
                  style="fill:#455a64"/>
            <path d="m365.53 287.93-1.67 1-1.18-.68 2.26-1.31a2.94 2.94 0 0 1 .59.99Z" style="fill:#37474f"/>
            <path d="m361.31 289.05 1.37-1.51a.53.53 0 0 1 .67 0 1.81 1.81 0 0 1 .84 1.44.55.55 0 0 1-.32.58h-.07l-2 .44a.31.31 0 0 1-.22-.05.83.83 0 0 1-.38-.65.32.32 0 0 1 .11-.25Z"
                  style="fill:#ba68c8"/>
            <path d="m361.31 289.05 1.37-1.51a.53.53 0 0 1 .67 0 1.81 1.81 0 0 1 .84 1.44.55.55 0 0 1-.32.58h-.07l-2 .44a.31.31 0 0 1-.22-.05.83.83 0 0 1-.38-.65.32.32 0 0 1 .11-.25Z"
                  style="opacity:.1"/>
            <path d="M361.24 289.27a.83.83 0 0 0 .38.65.3.3 0 0 0 .21.05l1-.22c.16 0 .26-.18.26-.43a1.35 1.35 0 0 0-.6-1.05.39.39 0 0 0-.49 0l-.68.75a.32.32 0 0 0-.08.25Z"
                  style="fill:#ba68c8"/>
            <path d="M361.62 289.05c-.21-.13-.38 0-.38.22a.83.83 0 0 0 .38.65c.21.13.38 0 .38-.22a.83.83 0 0 0-.38-.65Z"
                  style="opacity:.1"/>
            <path d="M385.72 274.9a.33.33 0 0 1 .3 0 .91.91 0 0 1 .41.73.28.28 0 0 1-.12.27l-4.42 2.55a.29.29 0 0 0 .1-.25.91.91 0 0 0-.43-.73.31.31 0 0 0-.27 0Z"
                  style="fill:#fafafa"/>
            <path d="M385.6 275.17a.9.9 0 0 0 .42.73.31.31 0 0 0 .29 0 .28.28 0 0 0 .12-.27.91.91 0 0 0-.41-.73.33.33 0 0 0-.3 0 .29.29 0 0 0-.12.27Z"
                  style="fill:#f5f5f5"/>
            <path d="m386.53 273.38 1.75-1a.78.78 0 0 1 .72.09 2.35 2.35 0 0 1 1.07 1.84.76.76 0 0 1-.32.69l-1.77 1a.71.71 0 0 1-.73-.08 2.35 2.35 0 0 1-1.07-1.84.77.77 0 0 1 .35-.7Z"
                  style="fill:#ba68c8"/>
            <path d="m386.53 273.38 1.75-1a.78.78 0 0 1 .72.09 2.35 2.35 0 0 1 1.07 1.84.76.76 0 0 1-.32.69l-1.77 1a.71.71 0 0 1-.73-.08 2.35 2.35 0 0 1-1.07-1.84.77.77 0 0 1 .35-.7Z"
                  style="opacity:.05"/>
            <path d="M387.31 273.44c-.59-.34-1.07-.06-1.07.62a2.35 2.35 0 0 0 1.07 1.84c.58.34 1.06.07 1.06-.61a2.38 2.38 0 0 0-1.06-1.85Z"
                  style="opacity:.1"/>
            <path d="m360.76 289.68.72-.43a.14.14 0 0 1 .14 0 .41.41 0 0 1 .19.34.14.14 0 0 1-.05.12l-.72.44a.32.32 0 0 1-.14 0 .27.27 0 0 1-.27-.27.28.28 0 0 1 .13-.2Z"
                  style="fill:#455a64"/>
            <path d="M360.71 289.71a.19.19 0 0 1 .12 0 .45.45 0 0 1 .2.34.12.12 0 0 1-.06.12h-.12a.27.27 0 0 1-.27-.27.3.3 0 0 1 .13-.19Z"
                  style="fill:#263238"/>
        </g>
        <g style="opacity:.2">
            <path d="M191.36 224.29c-4.06 2.35-4.06 6.15 0 8.5a16.25 16.25 0 0 0 14.72 0c4.07-2.35 4.07-6.15 0-8.5a16.25 16.25 0 0 0-14.72 0Z"/>
        </g>
        <g>
            <path d="M192.54 229c-3.28-3.35-5.21-11.71-2-14.37h16.3c3.2 2.66 1.27 11-2 14.37l-.09.09-.11.11-.3.27-.08.06-.24.18c-.14.1-.29.2-.43.28a10.87 10.87 0 0 1-9.78 0c-.14-.08-.29-.18-.43-.28l-.23-.17-.09-.08a3.74 3.74 0 0 1-.29-.25 1.59 1.59 0 0 1-.13-.13Z"
                  style="fill:#ebebeb"/>
            <path d="M205.41 213.55c3.72 2.14 3.72 5.63 0 7.77a14.85 14.85 0 0 1-13.46 0c-3.72-2.14-3.72-5.62 0-7.77a14.85 14.85 0 0 1 13.46 0Z"
                  style="fill:#fafafa"/>
            <path d="M202.78 215.07c2.26 1.31 2.26 3.42 0 4.73a9 9 0 0 1-8.19 0c-2.27-1.31-2.27-3.42 0-4.73a9 9 0 0 1 8.19 0Z"
                  style="fill:#ebebeb"/>
            <path d="M194.59 217.32a9.06 9.06 0 0 1 8.19 0 3.83 3.83 0 0 1 1.35 1.25 3.81 3.81 0 0 1-1.35 1.24 9 9 0 0 1-8.19 0 3.77 3.77 0 0 1-1.36-1.24 3.68 3.68 0 0 1 1.36-1.25Z"
                  style="fill:#e0e0e0"/>
            <path d="M197.2 219.07a12.14 12.14 0 0 1-5-6.34c-1.5-4.39-.61-9.7.73-11.9 1.82-3 6.25-2.63 4.93 2.33s-2.11 10.35 0 14Z"
                  style="fill:#ba68c8"/>
            <path d="M197.2 219.07a12.14 12.14 0 0 1-5-6.34c-1.5-4.39-.61-9.7.73-11.9 1.82-3 6.25-2.63 4.93 2.33s-2.11 10.35 0 14Z"
                  style="opacity:.35000000000000003"/>
            <path d="M197.05 218.17a.19.19 0 0 0 .13 0 .19.19 0 0 0 0-.28 14.5 14.5 0 0 1-3.69-10.89c.23-3.59 1.57-6.19 2.06-6.62a.19.19 0 0 0 0-.28.19.19 0 0 0-.28 0c-.67.58-2 3.38-2.2 6.9a14.9 14.9 0 0 0 3.81 11.09.19.19 0 0 0 .17.08Z"
                  style="fill:#fafafa"/>
            <path d="M201 219.07a1.94 1.94 0 0 1 .81-1.06 7.57 7.57 0 0 1 1.46-.63c.88-.32 2-.78 2.11-1.84a2.87 2.87 0 0 0-.13-1.12 2.43 2.43 0 0 1-.15-1.54c.19-.47.69-.72 1.12-1a3.58 3.58 0 0 0 1.18-1.11 2.34 2.34 0 0 0 .34-1.36c-.08-1-1-1.63-1.05-2.61 0-1.42 3.29-3.35 1.51-4.7-2.27-1.72-5.83.28-6.85 1.74s-1 2.11-2.88 3.35c-1.54 1-3.36 1.24-3.36 3.26s2.6 2.12.55 4.42c-1.23 1.37.8 2.57 1.54 4.2a3.37 3.37 0 0 0 3.8 0Z"
                  style="fill:#ba68c8"/>
            <path d="M199 219.66a.21.21 0 0 0 .2-.21c-.45-11.76 5.54-15.9 6.73-16.22a.2.2 0 0 0 .07-.23.2.2 0 0 0-.24-.14c-2 .55-7.46 5.52-7 16.63a.2.2 0 0 0 .24.17Z"
                  style="fill:#fafafa"/>
            <path d="M200.11 210.89a.19.19 0 0 0 .13 0c1.74-1.53 5.13-1.49 5.17-1.49a.2.2 0 0 0 .2-.2.19.19 0 0 0-.19-.2c-.15 0-3.59 0-5.44 1.59a.2.2 0 0 0 0 .28.19.19 0 0 0 .13.02Z"
                  style="fill:#fafafa"/>
        </g>
        <g>
            <path d="M332.56 277.14a1.64 1.64 0 0 0 .78-.19l29.91-17.28a.84.84 0 0 0 .47-.73.85.85 0 0 0-.47-.73l-21.7-12.53-32 18.45L331.78 277a1.64 1.64 0 0 0 .78.14Z"
                  style="opacity:.2"/>
            <path d="m340.55 244.67 22.7 12 .47.74v.59a.85.85 0 0 1-.47.73L333.34 276a1.62 1.62 0 0 1-1.56 0l-22.19-12.81v-.59Z"
                  style="fill:#263238"/>
            <path d="M332.56 275.55a1.53 1.53 0 0 0 .78-.19l29.91-17.27a.81.81 0 0 0 0-1.47l-21.7-12.53-32 18.46 22.19 12.81a1.53 1.53 0 0 0 .82.19Z"
                  style="fill:#455a64"/>
            <path d="M341.55 242.36 363 254.75l.22.3v2.31a.37.37 0 0 1-.22.3l-29.92 17.28a1.17 1.17 0 0 1-1.06 0l-21.46-12.39v-2.3Z"
                  style="fill:#ebebeb"/>
            <path d="m310.57 260.25.27.15 3.49 2 .65.37 17 9.84a1.17 1.17 0 0 0 1.06 0L363 255.36a.33.33 0 0 0 0-.62l-.29-.16-21.17-12.22-30.71 17.73h-.07Z"
                  style="fill:#f0f0f0"/>
            <path d="M332.56 272.76v2.3a1.12 1.12 0 0 0 .53-.12L363 257.66a.37.37 0 0 0 .22-.31v-2.3a.4.4 0 0 1-.22.31l-29.92 17.27a1 1 0 0 1-.52.13Z"
                  style="fill:#e0e0e0"/>
            <path d="m310.57 259.94 3.86 2.23.61.35 17 9.81a1.17 1.17 0 0 0 1.06 0l26.79-15.47.68-.39a6.52 6.52 0 0 0 2.16-1.89.35.35 0 0 0 0-.08.33.33 0 0 0 .07-.16.48.48 0 0 0-.37-.54 9.49 9.49 0 0 1-2-.84l-18.87-10.89Z"
                  style="fill:#fff"/>
            <path d="M314.57 259.67a.31.31 0 0 1 0 .58 1.08 1.08 0 0 1-1 0 .31.31 0 0 1 0-.58 1.08 1.08 0 0 1 1 0Z"
                  style="opacity:.1"/>
            <path d="M310.68 259.36a4 4 0 0 0 0 .49l.35-.2a2.83 2.83 0 0 1 0-.29 1.39 1.39 0 0 1 .51-1.24.74.74 0 0 1 .36-.09 1.22 1.22 0 0 1 .61.19 3.74 3.74 0 0 1 1.5 2.14.87.87 0 0 0 .36 0 4.13 4.13 0 0 0-1.68-2.42 1.33 1.33 0 0 0-1.34-.1 1.74 1.74 0 0 0-.67 1.52ZM310.76 260.05v.08h.07Z"
                  style="fill:#263238"/>
            <path d="M317.57 257.94a.31.31 0 0 1 0 .58 1.13 1.13 0 0 1-1 0 .31.31 0 0 1 0-.58 1.1 1.1 0 0 1 1 0Z"
                  style="opacity:.1"/>
            <path d="M313.68 257.63a2.7 2.7 0 0 0 0 .49l.35-.2v-.29a1.39 1.39 0 0 1 .51-1.24.68.68 0 0 1 .35-.09 1.17 1.17 0 0 1 .61.19 3.76 3.76 0 0 1 1.51 2.14 1.08 1.08 0 0 0 .36 0 4.13 4.13 0 0 0-1.68-2.42 1.31 1.31 0 0 0-1.34-.1 1.72 1.72 0 0 0-.67 1.52Z"
                  style="fill:#263238"/>
            <path d="M320.57 256.21a.3.3 0 0 1 0 .57 1.1 1.1 0 0 1-1 0 .3.3 0 0 1 0-.57 1.1 1.1 0 0 1 1 0Z"
                  style="opacity:.1"/>
            <path d="M316.68 255.89a2.81 2.81 0 0 0 0 .5l.35-.2a1.51 1.51 0 0 1 0-.3 1.38 1.38 0 0 1 .5-1.23.74.74 0 0 1 .36-.09 1.17 1.17 0 0 1 .61.19 3.7 3.7 0 0 1 1.5 2.14 1.11 1.11 0 0 0 .37 0 4.13 4.13 0 0 0-1.68-2.42 1.31 1.31 0 0 0-1.34-.1 1.71 1.71 0 0 0-.67 1.51Z"
                  style="fill:#263238"/>
            <path d="M323.56 254.48c.28.16.28.41 0 .57a1.08 1.08 0 0 1-1 0c-.28-.16-.28-.41 0-.57a1.08 1.08 0 0 1 1 0Z"
                  style="opacity:.1"/>
            <path d="M319.68 254.16a2.81 2.81 0 0 0 0 .5l.35-.2a1.51 1.51 0 0 1 0-.3 1.38 1.38 0 0 1 .5-1.23.74.74 0 0 1 .36-.09 1.25 1.25 0 0 1 .61.18 3.72 3.72 0 0 1 1.5 2.15 1.11 1.11 0 0 0 .37 0 4.18 4.18 0 0 0-1.68-2.43 1.33 1.33 0 0 0-1.34-.09 1.7 1.7 0 0 0-.67 1.51Z"
                  style="fill:#263238"/>
            <path d="M326.56 252.75c.28.15.28.41 0 .57a1.08 1.08 0 0 1-1 0c-.28-.16-.28-.42 0-.57a1.08 1.08 0 0 1 1 0Z"
                  style="opacity:.1"/>
            <path d="M322.68 252.43a4.19 4.19 0 0 0 0 .5l.35-.2v-.3a1.36 1.36 0 0 1 .5-1.23.74.74 0 0 1 .36-.09 1.28 1.28 0 0 1 .61.18 3.77 3.77 0 0 1 1.5 2.15.92.92 0 0 0 .37-.05 4.25 4.25 0 0 0-1.67-2.39 1.31 1.31 0 0 0-1.33-.09 1.7 1.7 0 0 0-.69 1.52Z"
                  style="fill:#263238"/>
            <path d="M329.56 251a.31.31 0 0 1 0 .58 1.08 1.08 0 0 1-1 0 .31.31 0 0 1 0-.58 1.15 1.15 0 0 1 1 0Z"
                  style="opacity:.1"/>
            <path d="M325.68 250.7a4.32 4.32 0 0 0 0 .5l.35-.2v-.3a1.36 1.36 0 0 1 .51-1.23.74.74 0 0 1 .36-.09 1.28 1.28 0 0 1 .61.18 3.77 3.77 0 0 1 1.5 2.15 1 1 0 0 0 .37-.05 4.25 4.25 0 0 0-1.69-2.42 1.31 1.31 0 0 0-1.34-.09 1.72 1.72 0 0 0-.67 1.55Z"
                  style="fill:#263238"/>
            <path d="M332.56 249.28a.31.31 0 0 1 0 .58 1.1 1.1 0 0 1-1 0 .31.31 0 0 1 0-.58 1.1 1.1 0 0 1 1 0Z"
                  style="opacity:.1"/>
            <path d="M328.67 249a4.38 4.38 0 0 0 0 .5l.35-.2v-.3a1.36 1.36 0 0 1 .51-1.23.75.75 0 0 1 .36-.1 1.33 1.33 0 0 1 .61.19A3.77 3.77 0 0 1 332 250a1.08 1.08 0 0 0 .36 0 4.19 4.19 0 0 0-1.68-2.42 1.31 1.31 0 0 0-1.34-.09 1.7 1.7 0 0 0-.67 1.51Z"
                  style="fill:#263238"/>
            <path d="M335.56 247.55a.31.31 0 0 1 0 .58 1.1 1.1 0 0 1-1 0 .31.31 0 0 1 0-.58 1.1 1.1 0 0 1 1 0Z"
                  style="opacity:.1"/>
            <path d="M331.67 247.24a2.89 2.89 0 0 0 0 .5l.35-.21a2.64 2.64 0 0 1 0-.29 1.36 1.36 0 0 1 .51-1.23.69.69 0 0 1 .36-.1 1.33 1.33 0 0 1 .61.19 3.77 3.77 0 0 1 1.5 2.15 1.08 1.08 0 0 0 .36-.05 4.19 4.19 0 0 0-1.68-2.42 1.31 1.31 0 0 0-1.34-.09 1.7 1.7 0 0 0-.67 1.55Z"
                  style="fill:#263238"/>
            <path d="M338.56 245.82a.31.31 0 0 1 0 .58 1.1 1.1 0 0 1-1 0 .31.31 0 0 1 0-.58 1.1 1.1 0 0 1 1 0Z"
                  style="opacity:.1"/>
            <path d="M334.67 245.51a2.89 2.89 0 0 0 0 .5l.35-.21a1.42 1.42 0 0 1 0-.29 1.35 1.35 0 0 1 .5-1.23.65.65 0 0 1 .36-.1 1.27 1.27 0 0 1 .61.19 3.73 3.73 0 0 1 1.5 2.14.9.9 0 0 0 .37 0 4.13 4.13 0 0 0-1.68-2.42 1.31 1.31 0 0 0-1.34-.09 1.69 1.69 0 0 0-.67 1.51Z"
                  style="fill:#263238"/>
            <path d="M341.55 244.09a.31.31 0 0 1 0 .58 1.08 1.08 0 0 1-1 0 .31.31 0 0 1 0-.58 1.08 1.08 0 0 1 1 0Z"
                  style="opacity:.1"/>
            <path d="M337.67 243.78a2.7 2.7 0 0 0 0 .49l.35-.2a1.42 1.42 0 0 1 0-.29 1.38 1.38 0 0 1 .5-1.24.74.74 0 0 1 .36-.09 1.27 1.27 0 0 1 .61.19 3.7 3.7 0 0 1 1.5 2.14.9.9 0 0 0 .37 0 4.13 4.13 0 0 0-1.68-2.42 1.34 1.34 0 0 0-1.34-.1 1.72 1.72 0 0 0-.67 1.52Z"
                  style="fill:#263238"/>
            <path d="M335.56 269.53a.62.62 0 0 1-.32-.09l-16.5-9.52a.63.63 0 0 1 .63-1.09l16.5 9.53a.63.63 0 0 1-.31 1.17ZM337.55 268.37a.6.6 0 0 1-.31-.08l-16.5-9.53a.62.62 0 0 1-.23-.86.61.61 0 0 1 .85-.22l16.51 9.52a.63.63 0 0 1-.32 1.17ZM339.55 267.22a.71.71 0 0 1-.31-.08l-16.5-9.53a.63.63 0 0 1 .62-1.09l16.51 9.53a.63.63 0 0 1-.32 1.17ZM341.55 266.07a.61.61 0 0 1-.31-.09l-16.5-9.53a.62.62 0 1 1 .62-1.08l16.51 9.53a.62.62 0 0 1 .23.85.65.65 0 0 1-.55.32ZM343.55 264.91a.71.71 0 0 1-.31-.08l-16.51-9.53a.63.63 0 0 1 .63-1.09l16.51 9.53a.63.63 0 0 1-.32 1.17ZM345.55 263.76a.61.61 0 0 1-.31-.09l-16.51-9.53a.62.62 0 0 1-.23-.85.64.64 0 0 1 .86-.23l16.51 9.53a.61.61 0 0 1 .22.85.6.6 0 0 1-.54.32ZM347.55 262.6a.58.58 0 0 1-.31-.08L330.73 253a.63.63 0 0 1 .63-1.09l16.5 9.53a.63.63 0 0 1 .23.86.61.61 0 0 1-.54.3ZM349.55 261.45a.65.65 0 0 1-.31-.08l-16.51-9.53a.63.63 0 0 1 .63-1.09l16.5 9.53a.62.62 0 0 1 .23.86.61.61 0 0 1-.54.31ZM351.55 260.3a.56.56 0 0 1-.31-.09l-16.51-9.53a.63.63 0 1 1 .63-1.08l16.5 9.53a.62.62 0 0 1 .23.85.63.63 0 0 1-.54.32ZM353.55 259.14a.72.72 0 0 1-.32-.08l-16.5-9.53a.63.63 0 0 1 .63-1.09l16.5 9.53a.63.63 0 0 1-.31 1.17ZM355.55 258a.62.62 0 0 1-.32-.09l-16.5-9.53a.63.63 0 1 1 .63-1.08l16.5 9.53a.63.63 0 0 1-.31 1.17ZM357.54 256.83a.6.6 0 0 1-.31-.08l-16.5-9.53a.63.63 0 0 1-.23-.86.62.62 0 0 1 .85-.23l16.51 9.53a.63.63 0 0 1-.32 1.17ZM359.54 255.68a.61.61 0 0 1-.31-.09l-16.5-9.52a.63.63 0 0 1 .62-1.09l16.51 9.53a.63.63 0 0 1-.32 1.17Z"
                  style="fill:#ebebeb"/>
            <path d="M333.53 270.68a.61.61 0 0 1-.32-.08l-17.45-10.1a.62.62 0 0 1-.23-.86.61.61 0 0 1 .85-.22l17.46 10.09a.63.63 0 0 1-.31 1.17Z"
                  style="fill:#ba68c8"/>
            <path d="M325.2 258.16a2.51 2.51 0 0 0 .84-.87.74.74 0 0 1 .38-.08c.48.06.07.25 0 .43a.08.08 0 0 0 .09.11c.34-.06 1.15-.26.93.29a.08.08 0 0 0 .05.1c.1 0 .56.09.51.21a.08.08 0 0 0 .07.1 9.38 9.38 0 0 1 1.06 0 3.37 3.37 0 0 1 .49 0c.11.13-.07.41-.12.5a.09.09 0 0 0 0 .12c.18.08.32.19.2.38s0 .11 0 .12c.46.13 1.28-.25 1.41.3.08.33 0 .41.44.38.08 0 .13-.15 0-.16-.44 0-.12-.5-.37-.67s-.85.16-1.13 0 .05-.19-.11-.38-.15 0-.18-.08-.07-.07-.08-.07a.27.27 0 0 0 0-.13c0-.09.06-.08.07-.13.11-.51-.71-.39-1-.42a4 4 0 0 1-.6 0s0-.12 0-.14-.48-.18-.48-.2.1-.19.05-.3-.7-.12-.91-.11h-.16a.16.16 0 0 0 .14-.14c0-.07.05-.11 0-.2s-.17-.16-.31-.17a.84.84 0 0 0-.43.08.79.79 0 0 0 .07-.46c-.12-.5-.69-.14-1 0-.07 0-.09.16 0 .13a2 2 0 0 1 .64-.18c.27.05.06.44-.09.69l-.32.16a1.49 1.49 0 0 0-.68.44c-.11.41.21.52.53.35Zm.18-.52.25-.14a1.14 1.14 0 0 1-.42.45s-.36.13-.26 0a1 1 0 0 1 .43-.31ZM332.31 262.15a.08.08 0 0 0 .05.07c.4.12.76-.34.89-.79.15 0 .45-.07.51.16l-.09.23c0 .05 0 .07.08.08.21 0 .89-.25.78.12a.07.07 0 0 0 0 .08c.18.12.57-.08.62.19 0 .12-.24.25-.09.43s.3 0 .43 0 .16-.12.24-.09 0 .09 0 .13.06.1.1.13.13 0 .2 0 .09-.08.14-.08a.83.83 0 0 1 .27.07s.38.17.34.11c.06.1-.17.28-.06.44s.69 0 .85 0 .14-.17 0-.16l-.4.05c-.34-.15-.25-.26-.19-.43s0-.1-.06-.1c-.23 0-.39-.21-.57-.21s-.24.11-.28.11c-.27 0-.14-.09-.14-.27a.07.07 0 0 0-.1-.06c-.16.05-.56.37-.57 0 0-.06.17-.16.18-.24s-.05-.22-.21-.26a1 1 0 0 0-.34.05c-.43.07-.07 0-.22-.11a.41.41 0 0 0-.4-.13.86.86 0 0 1-.27 0c-.24-.06-.08 0-.09-.15s.09-.19.05-.3-.19-.2-.38-.16a1.27 1.27 0 0 0-.37.13c0-.32-.06-.57-.36-.57-.08 0-.15.15-.05.17s.22.29.16.52c-.27.23-.62.54-.65.84Zm.38-.29a.89.89 0 0 1 .28-.27l-.05.11c-.04.06-.31.39-.23.16ZM327.46 264.08a2.6 2.6 0 0 0 .84-.87.86.86 0 0 1 .37-.09c.49.07.08.25 0 .44s0 .11.09.1c.34-.05 1.15-.25.93.29a.07.07 0 0 0 0 .1c.1 0 .57.1.52.21s0 .11.06.1h1.07a3.46 3.46 0 0 1 .49.06c.11.13-.07.4-.12.49a.08.08 0 0 0 0 .12c.18.08.32.19.2.39a.08.08 0 0 0 0 .12c.46.12 1.28-.25 1.41.29.07.34 0 .42.44.38.07 0 .13-.15 0-.15-.44 0-.11-.5-.36-.68s-.85.16-1.13 0 0-.19-.11-.39-.16 0-.19-.08-.06-.07-.07-.07 0-.05 0-.12.06-.08.07-.14c.1-.51-.71-.38-1-.41a3.86 3.86 0 0 1-.6 0s0-.12 0-.14-.48-.18-.49-.2.11-.19.05-.29c-.13-.26-.7-.12-.9-.12h-.16a.18.18 0 0 0 .14-.15v-.19c0-.09-.17-.17-.31-.18a.94.94 0 0 0-.43.08.69.69 0 0 0 .06-.46c-.12-.5-.68-.14-1 0-.07 0-.09.17 0 .14s.49-.22.65-.19.06.45-.09.69l-.33.17a1.44 1.44 0 0 0-.67.43c-.08.37.25.49.57.32Zm.18-.53.25-.13a1.24 1.24 0 0 1-.43.45s-.35.13-.25 0a1 1 0 0 1 .43-.32ZM321.24 260.39a.08.08 0 0 0 .05.07c.39.12.76-.34.89-.79.14 0 .45-.06.51.16 0 0-.08.2-.09.24a.08.08 0 0 0 .08.07c.21 0 .89-.25.78.12a.1.1 0 0 0 0 .09c.18.12.56-.09.62.18s-.24.25-.1.43.31 0 .44 0 .16-.11.24-.08 0 .09 0 .13.06.1.1.12.13 0 .2 0 .09-.08.14-.08a2.13 2.13 0 0 1 .27.07s.37.18.34.11c.05.1-.18.28-.06.44s.69 0 .85 0 .14-.17 0-.17l-.4.05c-.34-.15-.25-.25-.19-.42s0-.11-.06-.11c-.23 0-.39-.21-.57-.21s-.24.11-.28.11c-.27 0-.14-.08-.15-.27a.06.06 0 0 0-.09-.06c-.16.06-.56.38-.57 0 0-.05.17-.16.18-.24s-.06-.22-.21-.25a1 1 0 0 0-.34 0c-.43.07-.07 0-.22-.11s-.16-.13-.4-.12a1.27 1.27 0 0 1-.27 0c-.24-.06-.08 0-.09-.15s.09-.18.05-.3-.19-.19-.39-.16a2.08 2.08 0 0 0-.37.13c0-.31-.05-.57-.35-.56-.08 0-.15.14-.05.16s.22.29.16.53c-.27.26-.62.57-.65.87Zm.38-.28a.89.89 0 0 1 .28-.28.36.36 0 0 1-.06.11c-.03.06-.3.39-.22.17ZM337.39 251.43a2.76 2.76 0 0 0 .85-.88.69.69 0 0 1 .37-.08c.48.06.07.25 0 .43a.08.08 0 0 0 .09.11c.34-.06 1.15-.26.93.29a.08.08 0 0 0 .05.1c.1 0 .56.09.51.21a.08.08 0 0 0 .07.1 9.55 9.55 0 0 1 1.07 0 2.33 2.33 0 0 1 .48.06c.11.12-.06.4-.11.49a.08.08 0 0 0 0 .12c.18.08.32.19.2.38v.12c.45.13 1.27-.25 1.4.3.08.34 0 .41.45.38.07 0 .13-.15 0-.15-.44 0-.12-.51-.37-.68s-.85.16-1.12 0 0-.19-.12-.38-.15 0-.18-.08-.07-.07-.08-.07a.4.4 0 0 0 0-.13c0-.08.05-.08.06-.13.11-.51-.71-.39-1-.41a3.86 3.86 0 0 1-.6 0s0-.12 0-.14-.47-.18-.48-.2.1-.19.05-.3-.7-.12-.91-.11h-.16a.16.16 0 0 0 .14-.14c0-.07.05-.11 0-.19s-.17-.17-.31-.18a.86.86 0 0 0-.43.08.79.79 0 0 0 .07-.46c-.12-.5-.68-.14-1 0-.07 0-.09.16 0 .14a1.79 1.79 0 0 1 .64-.19c.27.05.07.45-.09.69l-.32.17a1.44 1.44 0 0 0-.68.43c-.11.35.21.46.53.3Zm.18-.53.25-.14a1.17 1.17 0 0 1-.42.46s-.36.12-.26 0a1 1 0 0 1 .43-.32ZM344.51 255.41v.07c.4.12.76-.34.9-.79.14 0 .45-.07.5.16a2 2 0 0 0-.08.23s0 .07.07.08c.21 0 .89-.25.78.12a.08.08 0 0 0 0 .09c.17.12.56-.09.61.18 0 .12-.24.25-.09.43s.3 0 .43 0 .16-.11.24-.08 0 .08.05.12.05.11.09.13.14 0 .2 0 .09-.08.14-.08a1.19 1.19 0 0 1 .27.07s.38.17.34.11c.06.1-.17.28-.06.44s.69 0 .85 0 .14-.17 0-.16l-.39.05c-.35-.15-.26-.25-.19-.43a.07.07 0 0 0-.07-.1c-.23 0-.39-.21-.56-.21a2.74 2.74 0 0 0-.28.11c-.28 0-.14-.09-.15-.27a.07.07 0 0 0-.1-.06c-.15.05-.56.38-.57 0 0 0 .17-.16.18-.24s-.05-.22-.21-.25a.78.78 0 0 0-.34 0c-.43.07-.07 0-.21-.11a.43.43 0 0 0-.41-.13.83.83 0 0 1-.27 0c-.23-.06-.08 0-.09-.15s.09-.18.05-.3-.19-.19-.38-.16a1.65 1.65 0 0 0-.37.13c0-.31-.06-.57-.36-.56-.08 0-.15.14 0 .16s.21.29.15.53c-.3.26-.65.57-.67.87Zm.37-.29a1 1 0 0 1 .28-.27l-.05.11c-.04.04-.3.39-.23.16ZM339.65 257.34a2.51 2.51 0 0 0 .84-.87.89.89 0 0 1 .37-.09c.49.07.08.25 0 .44a.08.08 0 0 0 .09.1c.34-.05 1.15-.25.93.3a.07.07 0 0 0 0 .09c.11 0 .57.1.52.21a.07.07 0 0 0 .07.1h1.06a3.28 3.28 0 0 1 .49.06c.11.13-.07.4-.12.49a.08.08 0 0 0 0 .12c.18.08.32.19.2.39a.08.08 0 0 0 0 .12c.46.12 1.28-.25 1.41.29.08.34 0 .42.44.38.08 0 .13-.15 0-.15-.44 0-.12-.5-.37-.68s-.85.16-1.13 0 .05-.19-.11-.39-.16 0-.18-.08-.07-.07-.08-.07a.22.22 0 0 0 0-.12c0-.09.06-.08.07-.14.11-.51-.71-.38-1-.41a6 6 0 0 1-.6 0s0-.13 0-.15-.48-.18-.49-.2.11-.18.06-.29-.7-.12-.91-.11h-.16s.13 0 .14-.14a.43.43 0 0 0 0-.2c0-.16-.17-.17-.31-.18a1 1 0 0 0-.43.08.77.77 0 0 0 .07-.46c-.12-.5-.69-.13-1 0-.07 0-.09.17 0 .14s.48-.22.64-.19.06.45-.09.69l-.32.17a1.47 1.47 0 0 0-.68.43c-.07.38.26.49.58.32Zm.18-.53.25-.13a1.21 1.21 0 0 1-.42.45s-.36.13-.26 0a1 1 0 0 1 .43-.32ZM333.43 253.65a.08.08 0 0 0 .05.07c.4.12.76-.33.89-.79.15 0 .46-.06.51.16 0 0-.08.2-.09.24a.08.08 0 0 0 .08.07c.21 0 .89-.25.78.13a.08.08 0 0 0 0 .08c.18.12.57-.09.62.18s-.24.25-.09.43.3 0 .43 0 .16-.11.24-.08 0 .09 0 .13.06.1.1.13.14 0 .2 0 .09-.08.14-.08a1.2 1.2 0 0 1 .27.08s.38.17.34.1c.06.1-.17.28-.06.44s.69 0 .85 0 .14-.17 0-.17l-.39.05c-.35-.15-.26-.25-.19-.42s0-.11-.07-.1c-.23 0-.39-.22-.56-.21a2.91 2.91 0 0 0-.28.1c-.28 0-.15-.08-.15-.27a.07.07 0 0 0-.1-.06c-.16.06-.56.38-.57 0 0-.05.17-.16.18-.23s-.05-.23-.21-.26a.78.78 0 0 0-.34.05c-.43.06-.07 0-.22-.12s-.16-.13-.4-.12a1.27 1.27 0 0 1-.27 0c-.23-.06-.08 0-.09-.15s.09-.18.05-.3-.19-.19-.38-.16a1.65 1.65 0 0 0-.37.13c0-.31-.06-.57-.36-.56-.08 0-.15.15-.05.16s.22.29.16.53c-.27.17-.62.52-.65.82Zm.38-.28a.9.9 0 0 1 .28-.27v.1c-.09.07-.35.39-.28.17ZM338.4 261.41a2.51 2.51 0 0 0 .84-.87.86.86 0 0 1 .37-.09c.48.07.08.25 0 .44a.08.08 0 0 0 .1.1c.34-.05 1.15-.25.93.3a.06.06 0 0 0 0 .09c.1 0 .57.1.51.21a.07.07 0 0 0 .07.1h1.07a3.46 3.46 0 0 1 .49.06c.1.13-.07.4-.12.49a.08.08 0 0 0 0 .12c.19.08.33.19.21.39a.08.08 0 0 0 0 .12c.46.12 1.28-.25 1.4.29.08.34 0 .42.45.38.07 0 .13-.15 0-.15-.44 0-.11-.5-.36-.68s-.86.16-1.13 0 0-.19-.11-.39-.16 0-.19-.08-.06-.07-.07-.07v-.12c0-.09.05-.08.07-.14.1-.51-.71-.38-1.05-.41a6 6 0 0 1-.6 0s0-.13 0-.15-.48-.18-.49-.2.11-.18.05-.29-.7-.12-.91-.11h-.15s.13 0 .14-.14 0-.11 0-.2-.16-.17-.3-.18a.94.94 0 0 0-.43.08.69.69 0 0 0 .06-.46c-.12-.5-.68-.14-1 0-.07 0-.09.17 0 .14s.49-.22.64-.19.07.45-.08.69c-.12.06-.23.13-.33.17a1.44 1.44 0 0 0-.67.43c-.06.38.27.49.59.32Zm.18-.53.25-.13c-.12.16-.24.37-.43.45 0 0-.35.13-.25 0a.9.9 0 0 1 .43-.32ZM333.24 258.09a.06.06 0 0 0 0 .07c.4.13.76-.33.9-.79.14 0 .45-.06.5.16a2.23 2.23 0 0 0-.08.24s0 .07.07.08c.21 0 .89-.26.78.12a.07.07 0 0 0 0 .08c.17.12.56-.08.61.19s-.24.24-.09.42.3 0 .43 0 .16-.11.24-.08 0 .09.05.13 0 .1.09.13a.45.45 0 0 0 .2 0c.05 0 .09-.07.14-.08a1.2 1.2 0 0 1 .27.08s.38.17.34.1c.06.1-.17.29-.06.44s.7 0 .85 0 .14-.17.05-.17l-.4.05c-.35-.15-.26-.25-.19-.42a.07.07 0 0 0-.07-.1c-.23 0-.39-.22-.56-.21a2.91 2.91 0 0 0-.28.1c-.28 0-.14-.08-.15-.27s-.06-.07-.1-.06-.56.38-.57 0c0 0 .17-.15.18-.23s0-.22-.21-.26a.78.78 0 0 0-.34 0c-.43.07-.07 0-.21-.12s-.17-.13-.41-.12a2.48 2.48 0 0 1-.27 0c-.23-.06-.08 0-.09-.16s.09-.18.05-.3-.19-.19-.38-.15a1.58 1.58 0 0 0-.37.12c0-.31-.06-.57-.36-.56-.08 0-.15.15 0 .16s.21.29.15.53c-.34.27-.69.58-.71.88Zm.37-.28a.9.9 0 0 1 .28-.27l-.05.1c-.04.07-.3.36-.23.17ZM329.4 254.28a1.1 1.1 0 0 1 0 .48c0 .05 0 .07.08.08.21 0 .89-.25.78.12a.1.1 0 0 0 0 .09c.18.12.57-.09.62.18s-.24.25-.1.43.31 0 .44 0 .16-.11.24-.08 0 .08 0 .12.06.11.1.13.13 0 .2 0 .09-.08.14-.08a1.19 1.19 0 0 1 .27.07s.37.17.34.11c0 .1-.17.28-.06.44s.69 0 .85 0 .14-.17.05-.16l-.41.05c-.34-.15-.25-.25-.19-.43s0-.1-.06-.1c-.23 0-.39-.21-.57-.21s-.24.11-.28.11c-.27 0-.14-.09-.14-.27a.07.07 0 0 0-.1-.06c-.16.05-.56.38-.57 0 0-.05.17-.16.18-.24s-.06-.22-.21-.25a.78.78 0 0 0-.34 0c-.43.07-.07 0-.22-.11a.41.41 0 0 0-.4-.13.86.86 0 0 1-.27 0c-.24-.06-.08 0-.09-.15s.09-.19.05-.3-.32-.32-.38-.09a.14.14 0 0 0 0 .09.36.36 0 0 0 .05.16Z"
                  style="fill:#455a64"/>
        </g>
        <g>
            <path d="M321.85 275.68q-.48 1.31-2.79 1.62l-22-12.9-2.87-2.9a.22.22 0 0 1 .23-.36l5.27 1.74Z"
                  style="opacity:.2"/>
            <path d="m299.47 260.92-4.69-.92a.15.15 0 0 0-.14.24l3.18 3.6Z" style="fill:#ffa8a7"/>
            <path d="M294.64 260.24a.15.15 0 0 1 .14-.24l.91.18a.8.8 0 0 0-.37.75v.07Z" style="fill:#263238"/>
            <path d="m315.32 273.88-.39-.23-.46-.26-16.65-9.55a2.14 2.14 0 0 1 .14-1.55 2.18 2.18 0 0 1 1.51-1.37l16.63 9.54.89.51c-.59-.3-2.26 2.6-1.67 2.91Z"
                  style="fill:#455a64"/>
            <path d="m313.85 273-.85-.49c-.26-.14-.11-.76.19-1.4.39-.85 1.16-1.68 1.49-1.5l.63.36.23.13c-.34-.17-1.11.65-1.5 1.51-.28.61-.43 1.21-.21 1.37Z"
                  style="fill:#ebebeb"/>
            <path d="M313.64 272.92c-.59-.31 1.1-3.21 1.68-2.9l.86.49c-.58-.31-2.27 2.59-1.68 2.9Z"
                  style="fill:#ba68c8"/>
            <path d="m315.32 273.88-.85-.49c-.58-.3 1-3.11 1.63-2.93l.85.49c-.55-.28-2.22 2.62-1.63 2.93Z"
                  style="fill:#ebebeb"/>
            <path d="m294.62 260.08.16-.08 3.4 1.86 17.6 10.1h.09c-.5.78-.88 1.76-.55 1.94l-.39-.23-.46-.26-16.65-9.55-3.18-3.6a.16.16 0 0 1-.02-.18Z"
                  style="opacity:.15"/>
            <path d="m318.91 275.93-3.59-2.05c-.25-.14-.12-.75.18-1.39.38-.86 1.15-1.69 1.49-1.52l3.61 2.03c.72.41.06 2-.74 2.66a.86.86 0 0 1-.95.27Z"
                  style="fill:#f28f8f"/>
            <path d="M318.7 274.82a2.6 2.6 0 0 1 1.47-1.78.59.59 0 0 1 .53.07c.54.51-.08 1.93-.84 2.59a.87.87 0 0 1-.93.24c-.27-.16-.37-.57-.23-1.12Z"
                  style="opacity:.1"/>
        </g>
        <g>
            <path d="m224.75 227.47 33.64-19.42a1.92 1.92 0 0 1 1.94 0l58.36 33.7a.42.42 0 0 1 0 .74l-34 19.61Z"
                  style="opacity:.2"/>
            <path d="M227.26 223.38v.75a3.1 3.1 0 0 0 1.55 2.69l54.37 31.39a3.15 3.15 0 0 0 3.11 0l29.64-17.06a3.11 3.11 0 0 0 1.55-2.69v-1a.38.38 0 0 1-.2.34l-32.54 18.79Z"
                  style="fill:#37474f"/>
            <path d="m227.26 223.37 32.23-18.61a1.87 1.87 0 0 1 1.86 0l55.92 32.3a.41.41 0 0 1 0 .71l-32.54 18.79Z"
                  style="fill:#455a64"/>
            <path style="fill:#37474f" d="m285.03 253.82 17.39-10.03-50.84-29.35-17.48 9.98 50.93 29.4z"/>
            <path style="fill:#ba68c8" d="m234.1 224.42.66.38 16.82-9.59 50.17 28.97.66-.39-50.83-29.35-17.48 9.98z"/>
            <path style="fill:#263238"
                  d="m234.1 224.42.66.38 16.82-9.59 50.17 28.97.66-.39-50.83-29.35-17.48 9.98zM293.57 225.93l-.32.18-8.52 4.92-15.15-8.75-.32-.18 8.84-5.1 15.47 8.93z"/>
            <path style="fill:#37474f" d="m293.25 226.11-8.52 4.92-15.15-8.75 8.52-4.92 15.15 8.75z"/>
            <path d="M284.73 256.56v2.06a3.08 3.08 0 0 1-1.55-.41l-54.37-31.39a3.1 3.1 0 0 1-1.55-2.69v-.76Z"
                  style="fill:#ba68c8"/>
            <path d="M284.73 256.56v2.06a3.08 3.08 0 0 1-1.55-.41l-54.37-31.39a3.1 3.1 0 0 1-1.55-2.69v-.76Z"
                  style="fill:#263238"/>
            <path d="M283.86 257a3.71 3.71 0 0 1-3.18-.25l-54.12-31.25a3.64 3.64 0 0 1-1.79-2.57l-5.93-35.34a4.07 4.07 0 0 1-.05-.61 3.66 3.66 0 0 1 1.09-2.61l56.25 32.48a2.71 2.71 0 0 1 1.32 1.9Z"
                  style="fill:#37474f"/>
            <path d="m284.73 256.56-.37.21-.5.25-6.41-38.25a2.71 2.71 0 0 0-1.32-1.9l-56.25-32.48a3.53 3.53 0 0 1 .75-.57L277 216.36a2.71 2.71 0 0 1 1.33 1.9Z"
                  style="fill:#455a64"/>
            <path d="m276.93 217.59.87-.51a2.85 2.85 0 0 1 .52 1.18l6.41 38.3-.37.21-.5.25-6.41-38.25a2.63 2.63 0 0 0-.52-1.18Z"
                  style="fill:#263238"/>
            <path d="M253.37 224.39c-.4-2.36-2.84-5.5-5.45-7s-4.42-.81-4 1.55 2.84 5.51 5.45 7 4.4.82 4-1.55Z"
                  style="fill:#ba68c8"/>
        </g>
        <g>
            <path d="M345.67 306.83c3.79 2.1 3.79 5.5 0 7.6a15.75 15.75 0 0 1-13.73 0c-3.79-2.1-3.79-5.5 0-7.6a15.75 15.75 0 0 1 13.73 0Z"
                  style="opacity:.1"/>
            <path d="M332.92 294.41a20 20 0 0 1 12.08.31c3.25 1.33 3.2 3.36-.12 4.52a19.88 19.88 0 0 1-12.08-.31c-3.36-1.33-3.31-3.36.12-4.52Z"
                  style="fill:#263238"/>
            <path d="m330.32 290.23 17.41.46-1.85 20.48c-.1.74-.82 1.46-2.16 2a15.46 15.46 0 0 1-10.45-.27c-1.36-.61-2.06-1.36-2.12-2.11Z"
                  style="fill:#fafafa"/>
            <path d="m347.73 290.69-.38 4.16a7.45 7.45 0 0 1-1.47.74 21.1 21.1 0 0 1-13.87-.35l-.46-.23a9.16 9.16 0 0 1-1.07-.64l-.16-4.14Z"
                  style="fill:#ebebeb"/>
            <path d="m329.2 290.8.08-3.13 2 .05c.28-.14.58-.26.9-.39a21.25 21.25 0 0 1 13.87.36c.31.14.58.29.84.43l2 .05-.08 3.14c0 1-1 2-2.89 2.75a21.16 21.16 0 0 1-13.87-.36c-1.93-.83-2.87-1.88-2.85-2.9Z"
                  style="fill:#37474f"/>
            <path d="M332.28 284.92a21.09 21.09 0 0 1 13.86.36c3.73 1.66 3.66 4.18-.14 5.64a21.1 21.1 0 0 1-13.87-.35c-3.85-1.66-3.79-4.19.15-5.65Z"
                  style="fill:#455a64"/>
            <path d="m331.11 287 .69-2.57 5 .13a20.47 20.47 0 0 1 5 .13l4.84.12.56 2.6c.29.95-.48 1.92-2.32 2.59a18.19 18.19 0 0 1-11.43-.29c-1.95-.81-2.69-1.82-2.34-2.71Z"
                  style="fill:#37474f"/>
            <path d="M334 282.8a17.45 17.45 0 0 1 10.49.27c2.82 1.14 2.78 2.88-.1 3.88a17.52 17.52 0 0 1-10.5-.27c-2.89-1.15-2.89-2.89.11-3.88Z"
                  style="fill:#455a64"/>
            <path d="M332.77 284.71s.07.18.31.37a5.07 5.07 0 0 0 1.2.65 15.4 15.4 0 0 0 4.91.87 14.72 14.72 0 0 0 4.88-.61 4.17 4.17 0 0 0 1.18-.59c.25-.19.32-.33.32-.37s-.24-.53-1.45-1a14.46 14.46 0 0 0-4.84-.86 15.11 15.11 0 0 0-4.95.61c-1.24.4-1.56.84-1.56.93Z"
                  style="fill:#263238"/>
            <path d="M333.08 285.08a5.07 5.07 0 0 0 1.2.65 15.4 15.4 0 0 0 4.91.87 14.72 14.72 0 0 0 4.88-.61 4.17 4.17 0 0 0 1.18-.59 4.33 4.33 0 0 0-1.15-.65 14.46 14.46 0 0 0-4.84-.86 15.11 15.11 0 0 0-4.95.61 5.09 5.09 0 0 0-1.23.58Z"
                  style="fill:#37474f"/>
            <path d="M336 285.23a1.47 1.47 0 0 0-1.17-.25c-.21.11-.05.41.38.67a1.45 1.45 0 0 0 1.16.25c.25-.12.09-.42-.37-.67Z"
                  style="opacity:.5"/>
            <path d="M346.71 304.56c0 .77-.81 1.52-2.37 2.07a18.76 18.76 0 0 1-11.38-.29c-1.58-.63-2.36-1.42-2.35-2.19l-.3-7.55c0 .82.81 1.66 2.49 2.33a19.88 19.88 0 0 0 12.08.31c1.66-.58 2.5-1.38 2.52-2.19Z"
                  style="fill:#455a64"/>
            <path d="M341.39 304.87a10.42 10.42 0 0 0 .71-1.26 3.82 3.82 0 0 1 2-1.69.25.25 0 0 1 .31.12 3 3 0 0 1-3.77 3.62s-.06-.12 0-.14a2.58 2.58 0 0 0 .75-.65ZM343.65 301.67a4.16 4.16 0 0 0-1.26.73 3.67 3.67 0 0 0-.93 1.21 3.7 3.7 0 0 1-1.17 1.47.25.25 0 0 1-.29-.08 2.6 2.6 0 0 1 .69-3.16 2.67 2.67 0 0 1 3.05-.62.24.24 0 0 1-.09.45Z"
                  style="fill:#ba68c8"/>
        </g>
    </g>
    <g>
        <path d="M352.38 439.66c-7.06-7.29-11.21-37-4.32-42.74h35.06c6.89 5.78 2.74 35.44-4.32 42.73l-.19.2a2.83 2.83 0 0 1-.25.24c-.19.2-.41.39-.63.58l-.17.13c-.18.14-.35.28-.54.41a8.28 8.28 0 0 1-.91.59c-5.81 3.39-15.23 3.39-21 0a10.2 10.2 0 0 1-.92-.59l-.5-.38-.21-.17c-.22-.18-.42-.37-.61-.55l-.28-.28Z"
              style="fill:#ba68c8"/>
        <g style="opacity:.65">
            <path d="M352.38 439.66c-7.06-7.29-11.21-37-4.32-42.74h35.06c6.89 5.78 2.74 35.44-4.32 42.73l-.19.2a2.83 2.83 0 0 1-.25.24c-.19.2-.41.39-.63.58l-.17.13c-.18.14-.35.28-.54.41a8.28 8.28 0 0 1-.91.59c-5.81 3.39-15.23 3.39-21 0a10.2 10.2 0 0 1-.92-.59l-.5-.38-.21-.17c-.22-.18-.42-.37-.61-.55l-.28-.28Z"
                  style="fill:#fff"/>
        </g>
        <path d="M380.07 394.6c8 4.67 8 12.24 0 16.91s-21 4.67-29 0-8-12.24 0-16.91 21-4.67 29 0Z"
              style="fill:#ba68c8"/>
        <g style="opacity:.8">
            <path d="M380.07 394.6c8 4.67 8 12.24 0 16.91s-21 4.67-29 0-8-12.24 0-16.91 21-4.67 29 0Z"
                  style="fill:#fff"/>
        </g>
        <path d="M376.23 396.84c5.87 3.43 5.87 9 0 12.42s-15.4 3.43-21.28 0-5.87-9 0-12.42 15.4-3.43 21.28 0Z"
              style="fill:#ba68c8"/>
        <path d="M376.23 396.84c5.87 3.43 5.87 9 0 12.42s-15.4 3.43-21.28 0-5.87-9 0-12.42 15.4-3.43 21.28 0Z"
              style="opacity:.30000000000000004"/>
        <path d="M355 402.74c5.88-3.43 15.4-3.43 21.28 0a9.71 9.71 0 0 1 3.51 3.26 9.71 9.71 0 0 1-3.51 3.26c-5.88 3.43-15.4 3.43-21.28 0a9.83 9.83 0 0 1-3.52-3.26 9.83 9.83 0 0 1 3.52-3.26Z"
              style="fill:#455a64"/>
        <path d="M362.72 387.77a10.22 10.22 0 0 1-.9-2.56 6 6 0 0 1 1.87-5.9c.69-.52 1.58-.91 1.88-1.72a2.73 2.73 0 0 0 0-1.42c-.32-1.82-.93-3.7-.43-5.48a6.16 6.16 0 0 1 3.4-3.64 18.7 18.7 0 0 1 5-1.3 7.67 7.67 0 0 0 2.62-.75c1-.54 1.28-1.51 1.89-2.36a16.28 16.28 0 0 1 2.41-2.57 9.38 9.38 0 0 1 6.49-2.8c5.16.23 5 4.67 3.52 8s-1.88 4.46 1.34 8 3.23 7.83-.61 10.25-6.35 2.73-4.83 7.39c1.36 4.16 2.2 7.71-1.64 12.15a12.56 12.56 0 0 1-10.13 4.75 16.82 16.82 0 0 1-5-1.16c-1.17-.58-.38-1.49-.78-2.64l-2.55-7.44a52.57 52.57 0 0 0-2-5.86c-.5-1.03-1.07-1.97-1.55-2.94Z"
              style="fill:#ba68c8"/>
        <path d="M362.72 387.77a10.22 10.22 0 0 1-.9-2.56 6 6 0 0 1 1.87-5.9c.69-.52 1.58-.91 1.88-1.72a2.73 2.73 0 0 0 0-1.42c-.32-1.82-.93-3.7-.43-5.48a6.16 6.16 0 0 1 3.4-3.64 18.7 18.7 0 0 1 5-1.3 7.67 7.67 0 0 0 2.62-.75c1-.54 1.28-1.51 1.89-2.36a16.28 16.28 0 0 1 2.41-2.57 9.38 9.38 0 0 1 6.49-2.8c5.16.23 5 4.67 3.52 8s-1.88 4.46 1.34 8 3.23 7.83-.61 10.25-6.35 2.73-4.83 7.39c1.36 4.16 2.2 7.71-1.64 12.15a12.56 12.56 0 0 1-10.13 4.75 16.82 16.82 0 0 1-5-1.16c-1.17-.58-.38-1.49-.78-2.64l-2.55-7.44a52.57 52.57 0 0 0-2-5.86c-.5-1.03-1.07-1.97-1.55-2.94Z"
              style="opacity:.15"/>
        <path d="M369.73 406.62a.38.38 0 0 0 .25-.37c-.21-25.47 13.82-40.67 14-40.82a.4.4 0 0 0 0-.55.37.37 0 0 0-.53 0c-.15.15-14.4 15.56-14.18 41.36a.4.4 0 0 0 .39.38Z"
              style="fill:#fff"/>
        <path d="M373.81 382.93a.2.2 0 0 0 .08 0c4.57-2.87 12.72-5 12.8-5a.38.38 0 0 0-.19-.74c-.34.08-8.34 2.19-13 5.13a.38.38 0 0 0 .32.69ZM375.23 379.44a.39.39 0 0 0 .2-.5 29.81 29.81 0 0 0-4.21-7.09.38.38 0 0 0-.58.5 29 29 0 0 1 4.09 6.88.39.39 0 0 0 .5.21Z"
              style="fill:#fff"/>
        <path d="m367.14 408.5-.33.11c-1.85.53-3.89.22-5.78.21a21.82 21.82 0 0 1-6.43-1.29 11.64 11.64 0 0 1-5.56-3.76 7 7 0 0 1-1.21-6.42 7 7 0 0 0 .76-2.54 3.13 3.13 0 0 0-1.4-2.26 16 16 0 0 0-2.44-1.25 8.44 8.44 0 0 1-3.28-2.53 4.67 4.67 0 0 1-.9-3.62c.26-1.15 1.21-2 1.48-3.17.42-1.88-.91-3-1.39-4.68-.39-1.34-.93-3.15-.57-4.52.51-1.93 2.64-3 4.61-3.22a11.57 11.57 0 0 1 7.59 2c2.19 1.59 3.92 3.6 6.82 3.84 1.34.11 2.72-.21 4 .09a5.78 5.78 0 0 1 3.9 3.8 13.42 13.42 0 0 1 .48 5.61 6.24 6.24 0 0 0 .4 3.69c.7 1.19 2.13 1.71 3.28 2.48 2.57 1.71 3.56 4.77 3.43 7.74-.13 3.13-2.84 6.3-5.17 8.12a10.92 10.92 0 0 1-2.29 1.57Z"
              style="fill:#ba68c8"/>
        <path d="M367 408.81a.36.36 0 0 1-.23-.32c-1-12.15-14.57-31.14-20.59-34.95a.37.37 0 0 1 .39-.63c6.11 3.88 19.94 23.18 20.92 35.53a.35.35 0 0 1-.33.39.29.29 0 0 1-.16-.02Z"
              style="fill:#fff"/>
        <path d="M358.56 388a.33.33 0 0 1-.19-.06c-3.36-2-8.7-1.91-11.28-1.36a.37.37 0 0 1-.45-.28.39.39 0 0 1 .29-.45c2.69-.58 8.29-.7 11.82 1.45a.38.38 0 0 1-.19.7ZM360.94 391.78a.37.37 0 0 1-.37-.3 20.76 20.76 0 0 1 1.88-10.18.37.37 0 1 1 .65.36 20.22 20.22 0 0 0-1.8 9.67.38.38 0 0 1-.29.44Z"
              style="fill:#fff"/>
    </g>
    <g>
        <path d="M99.35 370.56a1.33 1.33 0 0 1-1.3-1.36v-87.35a1.31 1.31 0 1 1 2.61 0v87.35a1.33 1.33 0 0 1-1.31 1.36ZM151.21 338.76a1.29 1.29 0 0 1-1.21-.86l-25.7-67.79a1.38 1.38 0 0 1 .73-1.77 1.28 1.28 0 0 1 1.69.77l25.7 67.8a1.37 1.37 0 0 1-.73 1.76 1.36 1.36 0 0 1-.48.09Z"
              style="fill:#455a64"/>
        <path d="M148.12 330.62a1.24 1.24 0 0 1-.94-.43l-47.83-52.74L51.62 330a1.27 1.27 0 0 1-1.85 0 1.41 1.41 0 0 1-.05-1.92l48.69-53.56a1.27 1.27 0 0 1 .94-.42 1.27 1.27 0 0 1 .94.42l48.77 53.79a1.4 1.4 0 0 1 0 1.92 1.26 1.26 0 0 1-.94.39Z"
              style="fill:#455a64"/>
        <path d="M47.5 338.76a1.36 1.36 0 0 1-.48-.09 1.37 1.37 0 0 1-.73-1.76L72 269.11a1.28 1.28 0 0 1 1.69-.77 1.38 1.38 0 0 1 .73 1.77L48.71 337.9a1.29 1.29 0 0 1-1.21.86Z"
              style="fill:#455a64"/>
        <path d="m149.44 328.53 3.4 9.34a1 1 0 0 1 0 .24v.17a1.08 1.08 0 0 1-.51.59 2.23 2.23 0 0 1-2.07 0 .91.91 0 0 1-.4-.44v-.12l-3.16-8.77ZM49.27 328.53l-3.4 9.34a1 1 0 0 0 0 .24v.17a1.08 1.08 0 0 0 .51.59 2.23 2.23 0 0 0 2.07 0 .91.91 0 0 0 .4-.44v-.12l3.15-8.79ZM100.86 362.44v7.73a.79.79 0 0 1-.44.64 2.29 2.29 0 0 1-2.13 0 .79.79 0 0 1-.44-.64v-7.73a3 3 0 0 1 3.01 0Z"
              style="fill:#263238"/>
        <path d="M159.73 269.19c0-2.44-2-5-6.37-7.95-8-5.41-31.25-18.94-42.43-25.39a.12.12 0 0 0-.09-.1c-8.61-5.44-11.22-28.67-17.18-48.36-2-6.71-4.51-10.51-7.46-12.3-.7-.42-3.28-1.9-3.85-2.26-5.84-3.65-13.51.74-23.07 6.18-8.79 5-15.67 11.45-17.05 28.5-.84 10.38 0 30.22 2 45.25 2.92 25.11 6.52 25.16 11.74 29.36 9 7.23 29.21 17.4 37.74 20.9 15.47 6.34 28.1-3.44 37.52-8.29a218.51 218.51 0 0 0 25-15.41c2.35-1.78 3.57-3.59 3.55-5.49-.06-.77-.05-3.83-.05-4.64Z"
              style="fill:#ba68c8"/>
        <path d="M159.73 269.19c0-2.44-2-5-6.37-7.95-8-5.41-31.25-18.94-42.43-25.39a.12.12 0 0 0-.09-.1c-8.61-5.44-11.22-28.67-17.18-48.36-2-6.71-4.51-10.51-7.46-12.3-.7-.42-3.28-1.9-3.85-2.26-5.84-3.65-13.51.74-23.07 6.18-8.79 5-15.67 11.45-17.05 28.5-.84 10.38 0 30.22 2 45.25 2.92 25.11 6.52 25.16 11.74 29.36 9 7.23 29.21 17.4 37.74 20.9 15.47 6.34 28.1-3.44 37.52-8.29a218.51 218.51 0 0 0 25-15.41c2.35-1.78 3.57-3.59 3.55-5.49-.06-.77-.05-3.83-.05-4.64Z"
              style="opacity:.2"/>
        <path d="M131.21 290.05a218.51 218.51 0 0 0 25-15.41c5.36-4.06 4.86-8.21-2.82-13.4-10.67-7.22-48.57-28.93-48.57-28.93s-55 33.83-52.63 40.07 30.81 21.56 41.5 25.95c15.47 6.34 28.1-3.43 37.52-8.28Z"
              style="fill:#ba68c8"/>
        <path d="M131.21 290.05a218.51 218.51 0 0 0 25-15.41c5.36-4.06 4.86-8.21-2.82-13.4-10.67-7.22-48.57-28.93-48.57-28.93s-55 33.83-52.63 40.07 30.81 21.56 41.5 25.95c15.47 6.34 28.1-3.43 37.52-8.28Z"
              style="opacity:.05"/>
        <path d="M85.86 174.89c-5.79-3.17-13.31 1.14-22.62 6.45-6 3.41-11 7.44-14.13 15L45.19 194c3.08-7.52 8.15-11.56 14.09-15 9.56-5.45 17.22-9.82 23.07-6.18.51.32 2.54 1.5 3.51 2.07Z"
              style="fill:#ba68c8"/>
        <path d="M85.86 174.89c-5.79-3.17-13.31 1.14-22.62 6.45-6 3.41-11 7.44-14.13 15L45.19 194c3.08-7.52 8.15-11.56 14.09-15 9.56-5.45 17.22-9.82 23.07-6.18.51.32 2.54 1.5 3.51 2.07Z"
              style="fill:#fff;opacity:.6000000000000001"/>
        <path d="M63.24 181.34c14.29-8.15 24.38-14 30.42 6 6 19.69 8.57 42.92 17.18 48.36 0 0 2.62.23-18.78 17.08-6.81 5.41-15.06 9.81-20.5 13.22-10.63 6.6-17.08 9.25-18.1 8.37-5.62-4.86-8.66-47.44-7.28-64.49s8.26-23.52 17.06-28.54Z"
              style="fill:#ba68c8"/>
        <g>
            <path d="M169.81 328.36s2.39 9.48 4.93 14.06a70.7 70.7 0 0 0 9 13.05c.8.89 2.61 2.54 3.27 3.27a1.42 1.42 0 0 1-.11 2.18c-1.58 1.56-8.36 2.05-12.21-.74s-7.69-8.14-10-10.39a168.3 168.3 0 0 1-3-3 3 3 0 0 1-.82-2.91c.07-.3.15-.65.24-1.06.49-2.2-2.57-11.14-2.57-11.14Z"
                  style="fill:#b16668"/>
            <path d="M88.12 224.92c-1.42 8-1.86 12.5.95 20.56s9.18 21.38 20.45 27.69c9.32 5.22 22 12 24.66 13.53 3 1.72 4.18 3.31 5.18 7.41 1.25 5.13 2.75 11 8.46 21.85 7 13.34 10 19.86 10 19.86 3.85.25 11.41-2 13.58-3.88 0 0-13.72-52.88-16.18-59.72s-20.29-16.9-27.94-21.31-11.92-7.16-20.65-13.07Z"
                  style="fill:#37474f"/>
            <path d="M107.71 247.3a63.28 63.28 0 0 1-5.53 9.45l1.61 1.35s3.92-5.4 3.92-10.8Z" style="fill:#263238"/>
            <path d="M143.51 340.87s2.89 13 5.16 16.11c2.93 4 5.32 8.95 9 13 .8.89 2.62 2.55 3.27 3.27a1.41 1.41 0 0 1-.11 2.18c-1.57 1.56-8.35 2-12.21-.73s-7.68-8.15-10-10.4a140.22 140.22 0 0 1-3-3 3.09 3.09 0 0 1-.81-2.92l.24-1.05c.48-2.2-2.57-11.15-2.57-11.15Z"
                  style="fill:#b16668"/>
            <path d="M134 364.61c0 1.68.17 2.56.44 2.82a23.26 23.26 0 0 0 4.92 2.31c.85.08 1-.5 1.73.5s2.08 3.42 3.92 5.61a11.66 11.66 0 0 0 6.67 3.76 21.38 21.38 0 0 0 10.72-.52c3.89-1.23 4.71-2.81 4.59-4.27S134 364.61 134 364.61Z"
                  style="fill:#263238"/>
            <path d="M134.29 352.38c-.29.11-.44.4-.48.84s.1 1 .13 1.82a19.19 19.19 0 0 1-.38 4.66 8.7 8.7 0 0 0 .42 4.91c1.45 1.09 3 1.47 4.66 2.3 4.8 2.43 5.12 6.22 8.28 8.78a12.07 12.07 0 0 0 6.87 2.8 28.06 28.06 0 0 0 8-.55c1.76-.45 6.47-2.34 5.35-4.95a3.51 3.51 0 0 0-1.46-1.42A78.69 78.69 0 0 1 159 367a56.77 56.77 0 0 1-7.14-7.07 25.37 25.37 0 0 1-4.38-6.91 1.4 1.4 0 0 0-.39-.61 1.28 1.28 0 0 0-1-.09 33.29 33.29 0 0 0-4.41 1.17 2.77 2.77 0 0 0-1.2.66 2.82 2.82 0 0 0-.45 2.21c0 .43 0 1-.4 1.15s-.78-.2-1-.56c-.37-.68-.46-1.54-1.06-2a4 4 0 0 0-1.42-.71 7.45 7.45 0 0 0-1.47-.31c-.11-.38-.37-1.49-.39-1.55Z"
                  style="fill:#455a64"/>
            <path d="M160.05 350.19c0 1.68.17 2.56.44 2.83a23.77 23.77 0 0 0 4.92 2.31c.85.07 1-.5 1.73.5s2.07 3.41 3.92 5.6a11.67 11.67 0 0 0 6.67 3.77 21.4 21.4 0 0 0 10.72-.53c3.88-1.23 4.71-2.8 4.59-4.27s-32.99-10.21-32.99-10.21Z"
                  style="fill:#263238"/>
            <path d="M160.41 338a.82.82 0 0 0-.53.77c0 .46.1 1.05.13 1.82a19.19 19.19 0 0 1-.39 4.66 8.62 8.62 0 0 0 .43 4.91c1.44 1.09 3 1.47 4.66 2.3 4.79 2.43 5.12 6.23 8.27 8.78a12.18 12.18 0 0 0 6.88 2.81 28.33 28.33 0 0 0 7.95-.56c1.76-.45 6.48-2.34 5.35-4.94a3.53 3.53 0 0 0-1.46-1.43 76.3 76.3 0 0 1-6.68-4.62 55.46 55.46 0 0 1-7.14-7.07 25.75 25.75 0 0 1-4.39-6.9 1.34 1.34 0 0 0-.39-.62 1.26 1.26 0 0 0-1-.09 33.84 33.84 0 0 0-4.42 1.17 2.83 2.83 0 0 0-1.2.66 2.9 2.9 0 0 0-.45 2.21c0 .44 0 1-.39 1.15s-.78-.2-1-.56c-.36-.68-.46-1.54-1.05-2a4.28 4.28 0 0 0-1.42-.77 4.4 4.4 0 0 0-1.44-.25c-.1-.43-.32-1.43-.32-1.43ZM58.11 240.32c.33 12.13-.23 20.06 3.82 26 4.77 7.07 9.78 9.88 21 16.19 9.33 5.22 25.67 12.38 28.45 13.55s3.16 4.31 3.81 9a76 76 0 0 0 6.7 23.67c5.56 11.71 9.7 20.34 9.7 20.34a35.81 35.81 0 0 0 13.44-3.5s-10.31-53.22-12.77-60.06-30.12-28.78-30.12-28.78 7.38-7.77 6.39-17.62Z"
                  style="fill:#455a64"/>
            <path d="M170.9 166.44a9.63 9.63 0 0 0-7.07-6.69 2 2 0 0 0-1.46.16 2.32 2.32 0 0 0-.72 1.34q-1.1 4-2.55 7.95a39.23 39.23 0 0 1-1.53 3.89c-.16.31-1.34 1.66-1.34 1.8a17.77 17.77 0 0 0-.13-4.21 2.42 2.42 0 0 0-2.63-2.11c-.55.1-.24 1.42-.85 3.59-.79 2.76-1.71 4.55-1.81 7.63a4.89 4.89 0 0 1-1.25 3.14c-3.76 4.11-14.12 12.39-21.37 17.26-4.14-3.8-9-10.88-14.72-18-7.09-8.8-9.68-12.08-21.46-11.56l2.5 17.12c6.54 8.06 12.38 13.44 25.16 26.58 3 3 5.19 4.27 7.18 4.45 2.71.24 5.24-1.94 7.72-4 5.55-4.68 11-9.53 16.22-14.61 7.07-6.93 16.28-15.49 19.38-23.68a15.48 15.48 0 0 0 .73-10.05Z"
                  style="fill:#b16668"/>
            <path d="M92.93 170.37c5.33-.22 9.13-.51 12.92 2.63s22.36 26.6 22.36 26.6l13.9-9.9s2.58 7.33 8.68 10.43c0 0-12.29 12.58-17.94 16.69s-7.76 2.59-11.81-.4-25.69-26-25.69-26Z"
                  style="fill:#ebebeb"/>
            <path d="M128.21 199.6c-3.28 2-5.24 7.68-5.24 7.68a13.36 13.36 0 0 1 4.09-9.13ZM142.11 189.7l5.32-4.64a16.12 16.12 0 0 0 3.79 6.95 20.66 20.66 0 0 0 4.32 3.46l-4.75 4.66s-2.3-.54-5.56-4.33-3.12-6.1-3.12-6.1Z"
                  style="fill:#e0e0e0"/>
            <path d="M74.7 171s-10.86 1.09-15 2l-6.9 27.32 4.84 20.88-.4 27c7.4 8 47.08 3.38 51.34-9.1 0 0-1.08-41.46-1.56-49.67-.52-8.83-5.19-18.16-14.08-19.09Z"
                  style="fill:#fafafa"/>
            <path d="m86 179.93.72-2.07 3.23.42a4.47 4.47 0 0 1-3.69 4.55c-4 1-5.51-1.94-5.51-1.94l3.35-2.77Z"
                  style="fill:#e0e0e0"/>
            <path d="M64.8 134.55a5.18 5.18 0 0 1 2.75-1.48L64 131.14a2.89 2.89 0 0 1 4-1.31 3.12 3.12 0 0 1 1.34 4l1.26 13.93 1.17-.11.49 8.1.15 6.75c-3.26-.09-5.68-3.28-7.54-14.17-1.57-8.27-1.96-11.85-.07-13.78ZM105 129.92c1.31-1.61 2.47.13 2.18 2.14a8.35 8.35 0 0 1-4.73 6.63c-.14-.22-3.19-3.67-3.19-3.67l2.58-3.11a9.25 9.25 0 0 0 3.16-1.99Z"
                  style="fill:#263238"/>
            <path d="M71.46 149.22a6.25 6.25 0 0 0-2.08-3.4c-1.07-1.12-4.62-2-6.36 1.71s.88 8.47 3.48 9.72a4.8 4.8 0 0 0 5.14-.55l-.07 16.05c6.82 6 13.05 4 14.44 7.18.76-3.38 3.23-2.83 2-7.57v-5.21a39.88 39.88 0 0 0 6.1.65c3.28-.1 5.69-1.11 7.39-7.38 1.5-5.52 2.34-10.95 1.33-23.48-1.05-13.12-17.56-12.59-25.77-7.42s-5.6 19.7-5.6 19.7Z"
                  style="fill:#b16668"/>
            <path d="M85.46 187c0 3.25 1.86 24.54 1.09 45.9-.14 3.74 5.09 8.81 6.38 8.66s4.55-6.13 4.93-10.28c-.35-19.5-6.64-39.45-9.22-44.8Z"
                  style="fill:#ba68c8"/>
            <path d="M88.89 187c-.09-.2-.17-.38-.25-.54l-3.18.52v1.28a5.12 5.12 0 0 0 3.43-1.26Z" style="opacity:.15"/>
            <path d="M83.51 180a12.57 12.57 0 0 0 4.79-.63A4.7 4.7 0 0 1 90 182a7.3 7.3 0 0 1-1.31 4.48 3.86 3.86 0 0 1-3.18.52 13.36 13.36 0 0 1-3.31-2.61 19 19 0 0 1 1.31-4.39Z"
                  style="fill:#ba68c8"/>
            <path d="M71.6 165.74c-1 .08-1.65 1-2.5 2.69-1 1.95-1.81 3.72-1.81 3.72a12.05 12.05 0 0 0 3.55 7.55 25 25 0 0 0 11 6.25s.73-3.22 1.23-4.7c1.09-3.24 3-1.32 3-1.32a3.8 3.8 0 0 0-.89-1.92c-.7-.62-5.15-1-8.71-3.24a12.68 12.68 0 0 1-4.83-6.17Z"
                  style="fill:#ebebeb"/>
            <path d="M86 179.93a3.69 3.69 0 0 1 .94-2.86 7 7 0 0 0 1-4.33v-4.87a3 3 0 0 1 2.85 2.25c.76 1.88 2.14 5.71 1.51 9.46a17.05 17.05 0 0 1-1.26 4.86 34.8 34.8 0 0 0-1.81-3.87c-1.06-1.77-2.41-2.16-3.23-.64Z"
                  style="fill:#ebebeb"/>
            <path d="M72.09 150.2a4.2 4.2 0 0 1-.63-1c-1-2.06-2.67-4.33-3-6.65a15.59 15.59 0 0 1 0-3.8q.12-1.22.27-2.43a4.3 4.3 0 0 0-.19-2.25c-.74-2.31.25-4.87 1.64-6.73a10.93 10.93 0 0 1 5.25-3.69c3.68-1.23 7.5-.54 11.27-.32a49.65 49.65 0 0 0 7.71-.34 14.56 14.56 0 0 0 6.86-2.44 2.41 2.41 0 0 1 1.81-.62c1 .27 1.28 1.64 1.49 2.5a13.55 13.55 0 0 1 .34 3.36 11.85 11.85 0 0 1-2 6.34 10.55 10.55 0 0 1-6.43 4.31 17.41 17.41 0 0 1-7.46-.37c-1.86-.43-3.69-1-5.54-1.45-.93-.23-2.54-.83-3.49-.36 1.78 3.84-1.32 7-4.21 7.66a25 25 0 0 1-1.14 6.85 3.72 3.72 0 0 1-.54 1.23 1.39 1.39 0 0 1-1.19.59 1.32 1.32 0 0 1-.82-.39Z"
                  style="fill:#263238"/>
            <path d="M88 167.15s-6.86-1.25-9.58-2.69c-1.82-1-3.56-3.7-4-4.77a10.6 10.6 0 0 0 1.93 4.77c2 2.54 11.65 4.76 11.65 4.76Z"
                  style="fill:#9a4a4d"/>
            <path d="M87.42 147.08a1.56 1.56 0 1 1-1.56-1.62 1.59 1.59 0 0 1 1.56 1.62ZM85.35 141.83 82 143.67a2 2 0 0 1 .77-2.65 1.85 1.85 0 0 1 2.58.81Z"
                  style="fill:#263238"/>
            <path d="m86.68 157.25 4.81 1.8a2.52 2.52 0 0 1-3.27 1.59 2.69 2.69 0 0 1-1.54-3.39Z" style="fill:#9a4a4d"/>
            <path d="m100.85 143-3-2.35a1.85 1.85 0 0 1 2.65-.4 2 2 0 0 1 .35 2.75ZM100.19 146.6a1.56 1.56 0 1 1-1.56-1.6 1.59 1.59 0 0 1 1.56 1.6Z"
                  style="fill:#263238"/>
            <path style="fill:#9a4a4d" d="m92.64 146.26.52 9.38 4.89-1.67-5.41-7.71z"/>
            <path d="M79.34 268.63a24.82 24.82 0 0 1-6.64-4.81 21.53 21.53 0 0 0 4.78.47c2.26-.19 3-1.66 3-2.4 0-.58-1.55-.45-3.84-1.4-2.93-1.21-5.93-3.16-9.38-3.7a5.16 5.16 0 0 1-3.23-1.74c-4.39-5.3-15.63-25.88-16.29-27.59 0 0 8.4-18.62 11.25-25.62 7.09-12.42 5-25.69.65-28.84-9.52.82-13.68 6.23-16.69 15.77-2.63 8.36-9.86 25.53-11.72 35.8-1 5.17-.62 7.48 6.57 17.41 3.84 5.32 8.47 10.58 14.25 18.55a120.8 120.8 0 0 0 7.71 9.47c7.74 8.5 12.84 9.79 17.82 7.91 7.94-3.02 7.42-6.39 1.76-9.28Z"
                  style="fill:#b16668"/>
            <path d="M61.4 172.68c-3.73-.13-10.93-.25-15.55 7.76s-10.17 26.23-12.68 34.42S27.58 228 32.39 235a206.59 206.59 0 0 0 12.8 16.47 15.46 15.46 0 0 1 10.27-9.93l-7.19-14 14.18-31.15a39.35 39.35 0 0 0 1.9-14.23c-.42-8.02-2.95-9.48-2.95-9.48Z"
                  style="fill:#ebebeb"/>
            <path d="M48.27 227.48c-1.22-2-5.75-2.85-7.66-2.56 0 0 3.73-2.35 8.69.3ZM45.19 251.45l4.09 5.27s3.41-7.15 10.25-8.37l-4.07-6.83s-3.29-.29-6.8 3.61-3.47 6.32-3.47 6.32Z"
                  style="fill:#e0e0e0"/>
        </g>
        <g>
            <path d="M129.58 252.68c-3.7-2.13-6.61-3.88-9.62-5.78l-35.55 20.52a.16.16 0 0 0-.09.09c-.06.1 0 .22.12.31l29.93 17.28a.77.77 0 0 0 .37.08.67.67 0 0 0 .38-.08l34.37-19.84c-6.49-4.94-15.16-9.85-19.91-12.58Z"
                  style="opacity:.2"/>
            <path d="M155.47 258.89v.72a.78.78 0 0 1-.36.61L115 283.37a.8.8 0 0 1-.71 0l-28.7-16.58a.78.78 0 0 1-.36-.62v-.72a.79.79 0 0 1 .36-.62l40.09-23.14a.76.76 0 0 1 .72 0l28.71 16.58a.78.78 0 0 1 .36.62Z"
                  style="fill:#ba68c8"/>
            <path d="M155.47 258.89v.72a.78.78 0 0 1-.36.61L115 283.37a.8.8 0 0 1-.71 0l-28.7-16.58a.78.78 0 0 1-.36-.62v-.72a.79.79 0 0 1 .36-.62l40.09-23.14a.76.76 0 0 1 .72 0l28.71 16.58a.78.78 0 0 1 .36.62Z"
                  style="opacity:.25"/>
            <path d="M85.54 264.87c-.14.11-.13.27 0 .37l28.72 16.59a.83.83 0 0 0 .36.08v1.55a.71.71 0 0 1-.36-.09l-28.67-16.58a.74.74 0 0 1-.35-.62v-.72a.79.79 0 0 1 .3-.58Z"
                  style="opacity:.2"/>
            <path d="m155.17 258.31.05.05a.82.82 0 0 1 .18.39.28.28 0 0 1 0 .09v.72a.78.78 0 0 1-.36.61L115 283.37a.65.65 0 0 1-.35.09v-1.55a.75.75 0 0 0 .35-.08l40.09-23.15a.31.31 0 0 0 .14-.14.21.21 0 0 0 0-.2Z"
                  style="opacity:.15"/>
            <path d="M144.62 248.09c0-.27-.17-.53-.6-.78a2.7 2.7 0 0 0-1.27-.35h-.11a22.49 22.49 0 0 0-3.27.67h-.05a7.7 7.7 0 0 1-2.8-.31h-.8a8.81 8.81 0 0 1-1.81 0c-.48-.05-.84-.07-1.1-.08h-.11a1.46 1.46 0 0 0-.81.16l-1.61.93v.53l12 7 1.61-.93a.47.47 0 0 0 .27-.49v-.52a2.36 2.36 0 0 0-.14-.69q-.06-.22-.09-.39a3.07 3.07 0 0 0 .05-.38v-.55a.57.57 0 0 0 0-.18c-.08-.28-.45-.56-.58-1a1.47 1.47 0 0 1 .06-.14c.24-.58 1.15-1.25 1.14-1.9.01-.15.02-.5.02-.6Zm-2.48 1.54a3.14 3.14 0 0 1-.87.33 2.37 2.37 0 0 1-1.63-.12.78.78 0 0 1-.29-.28 1.52 1.52 0 0 1 .65-.63 3.07 3.07 0 0 1 2.2-.34 2.08 2.08 0 0 1 .3.13.71.71 0 0 1 .29.28 1.52 1.52 0 0 1-.65.63Z"
                  style="fill:#263238"/>
            <path d="m131.89 247.36-1.61.93 12 7 1.61-.93c.2-.12.41-.28.13-1.17s.06-1.1-.07-1.5-.88-.83-.52-1.65 2-1.84.55-2.68a2.7 2.7 0 0 0-1.27-.35h-.11a22.49 22.49 0 0 0-3.27.67h-.05a7.7 7.7 0 0 1-2.8-.31h-.8a8.81 8.81 0 0 1-1.81 0c-.48-.05-.84-.07-1.1-.08h-.11a1.46 1.46 0 0 0-.77.07Zm9.93 6.23a.75.75 0 0 1 .66-.06c.16.09.11.26-.1.38a.72.72 0 0 1-.66.06c-.16-.09-.11-.26.1-.38Zm-1.82-5.2a3.06 3.06 0 0 1 2.2-.33 1.34 1.34 0 0 1 .3.12c.59.35.43 1-.36 1.45a3.14 3.14 0 0 1-.87.33 2.37 2.37 0 0 1-1.63-.12c-.64-.35-.43-.99.36-1.45Zm-7.47-.16a.75.75 0 0 1 .66-.06c.16.09.12.26-.09.38a.75.75 0 0 1-.66.06c-.16-.09-.12-.26.09-.38Z"
                  style="fill:#37474f"/>
            <path d="m115.78 279.31-25-14.43a.48.48 0 0 1-.21-.37v-.28a.46.46 0 0 1 .21-.37l33-19.06a.45.45 0 0 1 .42 0l25 14.42a.51.51 0 0 1 .21.38v.27a.47.47 0 0 1-.21.37l-33 19.07a.47.47 0 0 1-.42 0Z"
                  style="fill:#f5f5f5"/>
            <path d="M90.74 263.9c-.07.07 0 .15.05.21l25 14.42a.39.39 0 0 0 .21.06v.77a.5.5 0 0 1-.21-.05l-25-14.43a.45.45 0 0 1-.21-.37v-.28a.49.49 0 0 1 .16-.33Z"
                  style="fill:#fafafa"/>
            <path d="m149.27 259.26.06.06a.24.24 0 0 1 .06.11V259.84a.47.47 0 0 1-.21.37l-33 19.07a.51.51 0 0 1-.22.05v-.77a.4.4 0 0 0 .22-.06l33-19.06c.15-.03.16-.11.09-.18ZM121.92 249.05l-.29.17a.17.17 0 0 0 0 .33l20.06 11.58a.64.64 0 0 0 .57 0l.3-.17c.15-.09.15-.23 0-.33l-20.07-11.58a.64.64 0 0 0-.57 0ZM120.17 250.06l-.29.17a.17.17 0 0 0 0 .33l20.06 11.58a.58.58 0 0 0 .57 0l.29-.16a.17.17 0 0 0 0-.33l-20.06-11.59a.64.64 0 0 0-.57 0ZM118.43 251.07l-.29.17a.17.17 0 0 0 0 .33l20.06 11.58a.64.64 0 0 0 .57 0l.29-.17a.17.17 0 0 0 0-.33L119 251.07a.64.64 0 0 0-.57 0ZM114.56 253.3l-.29.17a.18.18 0 0 0 0 .33l20.07 11.58a.64.64 0 0 0 .57 0l.29-.17a.18.18 0 0 0 0-.33l-20.07-11.58a.64.64 0 0 0-.57 0ZM112.81 254.31l-.29.17a.17.17 0 0 0 0 .33l20.06 11.58a.64.64 0 0 0 .57 0l.29-.17c.16-.09.16-.23 0-.32l-20.06-11.59a.64.64 0 0 0-.57 0ZM111.07 255.32l-.29.17c-.16.09-.16.23 0 .33l20.06 11.58a.64.64 0 0 0 .57 0l.29-.17a.17.17 0 0 0 0-.33l-20.06-11.58a.64.64 0 0 0-.57 0ZM107.21 257.55l-.29.17c-.16.09-.16.23 0 .33L127 269.63a.64.64 0 0 0 .57 0l.29-.17a.17.17 0 0 0 0-.33l-20.06-11.58a.64.64 0 0 0-.59 0ZM105.45 258.56l-.29.17a.18.18 0 0 0 0 .33l20.06 11.58a.64.64 0 0 0 .57 0l.3-.17a.18.18 0 0 0 0-.33L106 258.56a.64.64 0 0 0-.55 0ZM103.71 259.57l-.29.16c-.16.1-.16.24 0 .33l20.06 11.59a.64.64 0 0 0 .57 0l.29-.17a.17.17 0 0 0 0-.33l-20.06-11.58a.64.64 0 0 0-.57 0ZM99.85 261.8l-.29.16c-.16.1-.16.24 0 .33l20.06 11.59a.64.64 0 0 0 .57 0l.29-.17a.17.17 0 0 0 0-.33l-20.06-11.58a.64.64 0 0 0-.57 0ZM98.09 262.81l-.29.17c-.15.09-.15.23 0 .33l20.07 11.58a.64.64 0 0 0 .57 0l.29-.17a.17.17 0 0 0 0-.33l-20.06-11.58a.66.66 0 0 0-.58 0ZM96.35 263.82l-.29.16a.17.17 0 0 0 0 .33l20.06 11.59a.64.64 0 0 0 .57 0l.29-.17a.17.17 0 0 0 0-.33l-20.06-11.58a.58.58 0 0 0-.57 0Z"
                  style="fill:#e0e0e0"/>
            <path d="m140.15 254.71-1.78-1.39a1.07 1.07 0 0 1-.1-.15l.44-.4 1.38-1.27a.37.37 0 0 0 .14-.27v-.53a.56.56 0 0 0-.16-.36 1.37 1.37 0 0 1-.29-.68 1.05 1.05 0 0 1 .33-.63 2 2 0 0 0-.38-3 3 3 0 0 0-1.36-.33h-.06a3.08 3.08 0 0 0-2 .73 2.73 2.73 0 0 1-1.33.51 3.84 3.84 0 0 1-1.22 0h-.28a.74.74 0 0 0-.57.18l-1.19 1.11-.44.4a1.09 1.09 0 0 1-1 .15c-.66-.28-1-.43-2-.92a2.49 2.49 0 0 0-1-.2 3.19 3.19 0 0 0-1.43.36v.54l14.62 8.44a1.19 1.19 0 0 0 .28-.73v-.54a1.45 1.45 0 0 0-.6-1.02Zm-3-7.43a2 2 0 0 1 1.92-.34l.21.09a1.05 1.05 0 0 1 .52.55.94.94 0 0 1-.29.41 1.68 1.68 0 0 1-.58.34 2 2 0 0 1-1.55-.09 1 1 0 0 1-.52-.55 1.07 1.07 0 0 1 .25-.41Z"
                  style="fill:#37474f"/>
            <path d="m125.75 248 14.72 8.5c.4-.55.45-1.11-.32-1.8l-1.78-1.39s-.39-.43-.06-.73l.44-.41 1.38-1.26s.32-.22 0-.63a1.45 1.45 0 0 1 0-1.85 1.4 1.4 0 0 0-.38-2.42 3 3 0 0 0-1.36-.33h-.06a3.08 3.08 0 0 0-2 .73 2.73 2.73 0 0 1-1.33.51 3.84 3.84 0 0 1-1.22 0h-.28a.74.74 0 0 0-.57.18l-1.19 1.11-.44.4a1.09 1.09 0 0 1-1 .15c-.66-.28-1-.43-2-.92a2.49 2.49 0 0 0-1-.2 3.19 3.19 0 0 0-1.55.36Zm13.28-1.6.21.09a.86.86 0 0 1 .23 1.49 1.68 1.68 0 0 1-.58.34 2 2 0 0 1-1.55-.09.86.86 0 0 1-.23-1.49 2 2 0 0 1 1.89-.33Z"
                  style="fill:#455a64"/>
        </g>
    </g>
    <g>
        <path d="M119.73 370.4v43.05c0 2.09-1.48 3.29-3.28 4.35l-4.53 2.62a4.34 4.34 0 0 1-3.54.7 9.92 9.92 0 0 1-2.41-1l-.1-.05-.24-.14-46.28-26.71a10.92 10.92 0 0 1-5.46-9.46v-39.21a3.11 3.11 0 0 1 1.41-2.43l7.7-4.46a3.07 3.07 0 0 1 2.8 0L118.32 368a3 3 0 0 1 1.41 2.43Z"
              style="fill:#37474f"/>
        <path d="M119.73 370.4v43.05c0 2.09-1.48 3.29-3.28 4.35l-4.53 2.62a4.34 4.34 0 0 1-3.54.7 9.92 9.92 0 0 1-2.41-1c1.8.84 3.22-.1 3.22-2.23v-40.57a4.31 4.31 0 0 0-.62-2.1l10.75-6.22a3 3 0 0 1 .41 1.4Z"
              style="fill:#263238"/>
        <path d="M109.19 377.32a4.7 4.7 0 0 0-2.12-3.68L57.46 345c-2-1.13-3.57-.2-3.57 2.06v36.7a10.93 10.93 0 0 0 5.46 9.47l46.28 26.72c2 1.13 3.56.2 3.56-2.06Z"
              style="fill:#455a64"/>
        <path d="m60.52 339.11 52.59 30.66a5 5 0 0 1 2.44 4.25v44.31l-.8.46V374a4.15 4.15 0 0 0-2-3.56l-53-30.89Z"
              style="fill:#ba68c8"/>
        <path d="M114.89 371.57a4.94 4.94 0 0 1 .66 2.45v44.31l-.8.46V374a4.14 4.14 0 0 0-.55-2Z" style="opacity:.4"/>
        <path d="M114.2 372a4.18 4.18 0 0 0-1.5-1.51l-53-30.89.8-.46 52.59 30.66a5 5 0 0 1 1.78 1.8"
              style="opacity:.30000000000000004"/>
        <path d="M83 342.29V349l-2.61 1.51v-8.85c0-.46.32-.64.71-.42Z" style="fill:#ba68c8"/>
        <path d="M83 342.29V349l-2.61 1.51v-8.85c0-.46.32-.64.71-.42Z" style="opacity:.4"/>
        <path d="M101.29 348.87v10.8l-2.49 1.44-1.67-1v-8.86a1.58 1.58 0 0 0-.72-1.23l-12.7-7.33-2.64-1.53c-.39-.22-.71 0-.71.42v8.85l-1.68-1V338.56a1.61 1.61 0 0 1 .71-1.1l1.06-.61a1.57 1.57 0 0 1 1.43 0l18.69 10.79a1.59 1.59 0 0 1 .72 1.23Z"
              style="fill:#ba68c8"/>
        <path d="M101.29 348.87v10.8l-2.49 1.44-1.67-1v-8.86a1.58 1.58 0 0 0-.72-1.23l-12.7-7.33-2.64-1.53c-.39-.22-.71 0-.71.42v8.85l-1.68-1V338.56a1.61 1.61 0 0 1 .71-1.1l1.06-.61a1.57 1.57 0 0 1 1.43 0l18.69 10.79a1.59 1.59 0 0 1 .72 1.23Z"
              style="opacity:.15"/>
        <path d="M98.8 350.32v10.79l-1.67-1v-8.86a1.58 1.58 0 0 0-.72-1.23l-12.7-7.33-2.64-1.53c-.39-.22-.71 0-.71.42v8.85l-1.68-1V338.56c.07-.35.36-.47.71-.27l18.69 10.79a1.59 1.59 0 0 1 .72 1.24Z"
              style="opacity:.15"/>
    </g>
    <g>
        <path d="m139.38 142.51-3.94-2.27a.35.35 0 0 1-.18-.16l-.72-1.27 2.33-1.34-.07.2Z" style="fill:#ba68c8"/>
        <path d="m139.38 142.51-3.94-2.27a.35.35 0 0 1-.18-.16l-.72-1.27 2.33-1.34-.07.2Z" style="opacity:.2"/>
        <path d="m136.52 137.66 2.72 4.71a.4.4 0 0 0 .73-.07l2.88-8.3Z" style="fill:#ba68c8"/>
        <path d="M168.8 103a4.22 4.22 0 0 0-1.9-3.3l-1.55-.89a4.19 4.19 0 0 0-3.81 0L125 119.89a4.21 4.21 0 0 0-1.9 3.29v13.87a4.19 4.19 0 0 0 1.9 3.29l1.55.9a4.17 4.17 0 0 0 3.8 0L167.07 120a3 3 0 0 0 1.73-3.16Z"
              style="fill:#ba68c8"/>
        <path d="M123.08 137.05a4.19 4.19 0 0 0 1.9 3.29l1.55.9a4.26 4.26 0 0 0 3.48.16c-.9.34-1.58-.17-1.58-1.26v-13.87a3.85 3.85 0 0 1 .56-1.87l-5.35-3.09a3.85 3.85 0 0 0-.56 1.87Z"
              style="opacity:.2"/>
        <path d="M168.74 102.42c-.23-.81-1-1.07-1.84-.56L130.33 123a3.83 3.83 0 0 0-1.33 1.4l-5.35-3.09a4 4 0 0 1 1.34-1.42l36.56-21.12a4.26 4.26 0 0 1 3.81 0l1.55.9a4.19 4.19 0 0 1 1.83 2.75Z"
              style="fill:#fff;opacity:.4"/>
        <path d="M133.52 127c0 .72.55 1 1.21.61l17.69-10.23a2.6 2.6 0 0 0 1.21-2c0-.72-.54-1-1.21-.61L134.73 125a2.57 2.57 0 0 0-1.21 2ZM133.52 133.83c0 .72.55 1 1.21.61l27.27-15.8a2.57 2.57 0 0 0 1.21-2c0-.72-.54-1-1.21-.61l-27.27 15.8a2.57 2.57 0 0 0-1.21 2Z"
              style="fill:#fafafa"/>
        <path d="m157.74 86.48-3.93-2.27a.37.37 0 0 1-.19-.16l-.72-1.27 2.33-1.34-.07.2Z" style="fill:#ba68c8"/>
        <path d="m157.74 86.48-3.93-2.27a.37.37 0 0 1-.19-.16l-.72-1.27 2.33-1.34-.07.2Z" style="opacity:.2"/>
        <path d="m154.88 81.63 2.72 4.71a.41.41 0 0 0 .74-.07l2.87-8.3Z" style="fill:#ba68c8"/>
        <path d="M187.16 46.93a4.19 4.19 0 0 0-1.9-3.29l-1.55-.9a4.17 4.17 0 0 0-3.8 0l-36.57 21.12a4.21 4.21 0 0 0-1.9 3.29V81a4.22 4.22 0 0 0 1.9 3.3l1.55.89a4.19 4.19 0 0 0 3.81 0L185.44 64a2.94 2.94 0 0 0 1.72-3.16Z"
              style="fill:#ba68c8"/>
        <path d="M141.44 81a4.22 4.22 0 0 0 1.9 3.3l1.55.89a4.26 4.26 0 0 0 3.48.16c-.89.34-1.58-.17-1.58-1.26V70.25a4 4 0 0 1 .56-1.88L142 65.28a3.85 3.85 0 0 0-.56 1.87Z"
              style="opacity:.2"/>
        <path d="M187.1 46.39c-.22-.81-1-1.07-1.84-.56L148.7 67a3.68 3.68 0 0 0-1.34 1.42L142 65.28a4 4 0 0 1 1.34-1.42l36.56-21.12a4.26 4.26 0 0 1 3.81 0l1.55.9a4.19 4.19 0 0 1 1.84 2.75Z"
              style="fill:#fff;opacity:.4"/>
        <path d="M151.89 71c0 .72.54 1 1.21.61l17.68-10.23a2.6 2.6 0 0 0 1.21-2c0-.72-.54-1-1.21-.61L153.1 69a2.57 2.57 0 0 0-1.21 2ZM151.89 77.8c0 .72.54 1 1.21.61l27.26-15.8a2.57 2.57 0 0 0 1.21-2c0-.72-.54-1-1.21-.61L153.1 75.79a2.57 2.57 0 0 0-1.21 2.01Z"
              style="fill:#fafafa"/>
        <g>
            <path d="m328.93 72 4-2.33a.37.37 0 0 0 .18-.17l.73-1.3-2.35-1.39.07.21Z" style="fill:#ba68c8"/>
            <path d="m328.93 72 4-2.33a.37.37 0 0 0 .18-.17l.73-1.3-2.35-1.39.07.21Z" style="fill:#263238"/>
            <path d="m331.81 67-2.74 4.85a.41.41 0 0 1-.74-.07l-2.89-8.55Z" style="fill:#37474f"/>
            <path d="M299.34 31.37a4.32 4.32 0 0 1 1.91-3.37l1.56-.92a4.16 4.16 0 0 1 3.82 0l36.78 21.73a4.34 4.34 0 0 1 1.92 3.39v14.15a4.34 4.34 0 0 1-1.92 3.39l-1.56.92a4.1 4.1 0 0 1-3.82 0l-37-21.86a3 3 0 0 1-1.74-3.25Z"
                  style="fill:#37474f"/>
            <path d="M345.33 66.35a4.34 4.34 0 0 1-1.92 3.39l-1.56.92a4.19 4.19 0 0 1-3.5.17c.91.35 1.59-.18 1.59-1.3V55.35a4 4 0 0 0-.56-1.92l5.39-3.18a4.11 4.11 0 0 1 .56 1.93Z"
                  style="fill:#263238"/>
            <path d="M299.4 30.81c.22-.83 1-1.09 1.85-.57L338 52a3.83 3.83 0 0 1 1.35 1.46l5.38-3.18a3.91 3.91 0 0 0-1.35-1.46l-36.74-21.76a4.18 4.18 0 0 0-3.83 0l-1.56.92a4.31 4.31 0 0 0-1.85 2.83Z"
                  style="fill:#455a64"/>
            <path d="M327.21 51.08c0 .64-.47.88-1 .54l-20.63-12.2a2.31 2.31 0 0 1-1-1.78c0-.64.47-.89 1-.54l20.63 12.2a2.31 2.31 0 0 1 1 1.78ZM335.5 63.23c0 .64-.47.88-1 .54l-28.97-17.13a2.31 2.31 0 0 1-1-1.78c0-.64.47-.88 1-.54l28.93 17.13a2.32 2.32 0 0 1 1.04 1.78Z"
                  style="fill:#f0f0f0"/>
            <path d="m347.29 128.05 4-2.34a.44.44 0 0 0 .19-.17l.72-1.3-2.35-1.38.08.21Z" style="fill:#ba68c8"/>
            <path d="m347.29 128.05 4-2.34a.44.44 0 0 0 .19-.17l.72-1.3-2.35-1.38.08.21Z" style="fill:#263238"/>
            <path d="m350.17 123.05-2.74 4.85a.4.4 0 0 1-.74-.07l-2.89-8.54Z" style="fill:#37474f"/>
            <path d="M317.7 87.44a4.36 4.36 0 0 1 1.91-3.39l1.56-.91a4.12 4.12 0 0 1 3.83 0l36.78 21.72a4.35 4.35 0 0 1 1.91 3.39v14.18a4.37 4.37 0 0 1-1.91 3.39l-1.56.92a4.18 4.18 0 0 1-3.83 0l-37-21.86a3 3 0 0 1-1.73-3.26Z"
                  style="fill:#37474f"/>
            <path d="M363.69 122.43a4.37 4.37 0 0 1-1.91 3.39l-1.56.92a4.19 4.19 0 0 1-3.5.16c.9.35 1.58-.18 1.58-1.29v-14.18a4 4 0 0 0-.56-1.93l5.39-3.18a4.15 4.15 0 0 1 .56 1.93Z"
                  style="fill:#263238"/>
            <path d="M317.76 86.89c.22-.83 1-1.1 1.85-.58L356.39 108a3.83 3.83 0 0 1 1.35 1.46l5.38-3.17a3.91 3.91 0 0 0-1.35-1.46L325 83.14a4.18 4.18 0 0 0-3.83 0l-1.56.92a4.32 4.32 0 0 0-1.85 2.83Z"
                  style="fill:#455a64"/>
            <path d="M345.57 107.15c0 .64-.47.88-1.05.54l-20.63-12.2a2.31 2.31 0 0 1-1.05-1.78c0-.64.47-.88 1.05-.54l20.63 12.2a2.31 2.31 0 0 1 1.05 1.78ZM353.87 119.3c0 .64-.47.89-1.05.55l-28.93-17.13a2.32 2.32 0 0 1-1.05-1.78c0-.64.47-.89 1.05-.54l28.93 17.12a2.32 2.32 0 0 1 1.05 1.78Z"
                  style="fill:#f0f0f0"/>
        </g>
    </g>
</svg>