<svg width="417" height="300" viewBox="0 0 417 300" fill="none" xmlns="http://www.w3.org/2000/svg">
<mask id="mask0" maskUnits="userSpaceOnUse" x="13" y="13" width="393" height="280">
<path d="M188.391 19.8229C325.08 -5.06618 394.9 53.2052 404.323 123.35C413.746 193.494 351.339 247.4 266.348 262.593C160.34 281.543 37.1969 336.106 17.3483 220.864C-0.014208 120.057 46.0898 45.734 188.391 19.8229Z" fill="#F5F8FD"/>
</mask>
<g mask="url(#mask0)">
<path d="M188.535 19.6447C325.336 -5.26232 395.213 53.0444 404.642 123.232C414.071 193.42 351.612 247.362 266.551 262.565C160.456 281.529 37.2105 336.129 17.3476 220.815C-0.0274329 119.945 46.1158 45.5745 188.535 19.6447Z" fill="white"/>
<path d="M208.726 323.634L203.334 410.406C203.352 411.335 203.362 412.345 203.371 413.384C203.38 414.027 203.38 414.688 203.38 415.341C203.371 416.83 203.352 418.3 203.325 419.614H165.104C165.177 418.098 165.6 416.655 166.334 415.341C166.674 414.734 167.069 414.165 167.538 413.641C168.052 413.044 168.64 412.511 169.301 412.033C174.409 408.33 182.336 402.568 182.363 402.467L174.849 318.81L169.972 264.549L210.729 291.822L208.726 323.634Z" fill="#FDC5B6"/>
<path d="M272.724 410.085L232.868 418.759C232.601 417.17 232.712 415.552 233.18 414.027C233.391 413.329 233.685 412.649 234.044 411.996C234.439 411.261 234.935 410.563 235.513 409.91C239.996 404.893 246.968 397.082 246.968 396.981L225.519 323.46L215.369 288.688L252.369 268.996L259.681 321.567L270.648 400.491C270.887 401.456 271.126 402.504 271.365 403.588C271.512 404.259 271.668 404.939 271.815 405.628C272.145 407.172 272.449 408.716 272.724 410.085Z" fill="#FDC5B6"/>
<path d="M169.961 264.558L210.718 291.831L208.743 323.643C196.618 323.469 184.208 322.394 174.848 318.819L169.961 264.558Z" fill="#35324C"/>
<path d="M259.688 321.558C252.937 322.679 245.974 323 239.122 323.083C235.181 323.129 230.552 323.303 225.527 323.441L215.377 288.67L252.377 268.978L259.688 321.558Z" fill="#35324C"/>
<path d="M197.44 159.702C187.115 162.091 176.34 162.927 165.676 162.201C162.635 161.99 159.613 161.659 156.61 161.199C155.829 161.08 155.461 159.628 155.397 157.248C155.131 145.688 158.208 133.43 160.918 122.311C164.133 109.134 167.651 96.4718 183.046 95.3507C184.681 95.2313 185.287 97.501 186.683 98.4107C188.585 99.6512 189.384 102.095 190.008 104.365C195.005 122.541 194.941 141.02 197.44 159.702Z" fill="#2BB673"/>
<path d="M178.164 101.002C178.155 101.029 178.146 101.057 178.137 101.075C178.118 101.176 178.081 101.323 178.036 101.553C177.723 102.959 177.429 104.365 177.19 105.789C176.777 108.234 175.932 107.158 174.297 108.178C174.26 111.147 173.81 117.018 173.571 119.729C172.864 127.788 172.423 136.159 174.618 143.795C176.814 151.441 182.298 158.194 188.875 158.47C187.102 139.228 183.841 119.306 178.164 101.002Z" fill="#083D23"/>
<path d="M203.258 154.933L190.839 172.557C182.645 180.818 172.614 183.419 162.519 182.95C137.966 181.838 113.027 162.596 113.027 162.596L122.957 159.527H193.319L203.258 154.933Z" fill="#FDC5B6"/>
<path d="M169.73 313.471C169.996 315.107 211.221 316.311 214.28 316.522C234.011 317.873 253.925 320.372 273.417 318.461C274.602 306.818 272.738 294.33 271.957 282.66C270.276 257.409 267.309 231.909 260.704 207.439C256.81 193.012 251.115 174.9 240.083 163.23C238.742 161.815 237.318 160.492 235.811 159.279C233.552 157.469 231.108 155.907 228.444 154.666L221.215 154.758L220.315 154.767L211.543 154.868L189.81 155.135C189.81 155.135 183.407 157.607 176.849 168.716C176.004 170.15 175.149 171.73 174.304 173.467C164.761 193.232 156.613 233.37 169.73 313.471Z" fill="#BCCBFF"/>
<path d="M244.796 171.5C239.643 172.355 233.387 174.303 211.7 171.675C207.135 171.124 195.377 167.246 179.018 161.264C180.359 159.849 181.782 158.525 183.289 157.312C185.549 155.502 187.992 153.94 190.656 152.699L197.885 152.791C198.206 152.874 198.5 152.874 198.785 152.801L207.557 152.902L229.29 153.168C229.29 153.168 235.693 155.64 242.251 166.75C243.106 168.183 243.951 169.764 244.796 171.5Z" fill="#35324C"/>
<path d="M248.587 106.083C247.908 100.965 244.252 96.2328 239.319 94.5971C234.69 93.0626 229.647 94.0826 224.879 95.1117C218.817 96.4258 213.691 96.6831 207.592 97.0047C205.24 96.9036 202.926 96.7382 200.629 96.4901C199.077 96.3247 197.534 96.1133 196.018 95.8652C190.938 95.0198 185.794 93.7885 180.706 94.5512C175.617 95.3047 170.473 98.6587 169.499 103.713C168.645 108.206 171.18 112.543 172.916 116.78C175.157 122.256 176.765 128.918 177.316 134.79C177.886 140.864 174.79 148.096 178.988 153.425C180.044 154.767 181.477 155.769 182.947 156.632C194.31 163.359 208.437 162.798 221.628 162.357C229.72 162.082 237.73 161.999 240.284 153.122C242.819 144.347 243.306 134.882 244.39 125.877C245.198 119.077 249.919 112.075 248.587 106.083Z" fill="#2BB673"/>
<path d="M226.822 81.852C226.702 80.6758 226.28 79.5823 225.407 78.7737C224.948 78.351 224.36 78.0845 223.781 77.818C219.583 75.9159 216.212 73.3889 212.437 70.7884C206.962 67.0117 199.669 68.8127 196.73 75.0705C195.462 77.7721 195.104 80.8044 194.911 83.7817C194.645 87.8984 195.398 92.7502 199.697 94.588C202.967 95.9848 209.544 97.0415 212.85 95.6723C214.899 94.8269 216.69 93.4578 218.748 92.6308C220.153 92.0702 221.678 91.7486 222.918 90.894C224.296 89.9384 225.168 88.4222 225.866 86.906C226.519 85.5092 226.996 83.5979 226.822 81.852Z" fill="#35324C"/>
<path d="M218.827 104.65L208.108 102.711L198.013 105.771C197.37 105.964 196.8 105.302 197.085 104.696L201.182 95.9387C203.212 96.1592 205.269 96.2971 207.355 96.3889C210.064 96.2419 212.719 95.9571 215.3 95.4517L219.654 103.51C219.957 104.089 219.47 104.769 218.827 104.65Z" fill="white"/>
<path d="M210.523 84.3513L210.229 84.4156C210.137 85.1783 209.972 85.9134 209.742 86.6118C208.723 89.8188 206.316 92.4468 203.248 93.7792V96.1133C203.248 97.4641 203.799 98.6678 204.672 99.5592C205.554 100.441 206.766 100.993 208.116 100.993C210.808 100.993 212.985 98.8057 212.985 96.1225V83.8643L210.523 84.3513Z" fill="#FDC5B6"/>
<path d="M209.751 86.6118C209.98 85.9135 210.146 85.1692 210.238 84.4156L209.484 84.5627L203.266 85.8032V93.7701C206.324 92.4469 208.722 89.828 209.751 86.6118Z" fill="#35324C"/>
<path d="M205.482 75.5297L206.612 80.0967C206.961 81.521 208.413 82.3939 209.836 82.0448L212.418 81.4015L212.234 74.7487L207.834 74.9508L205.482 75.5297Z" fill="#35324C"/>
<path d="M208.824 82.9362L209.871 86.474C210.22 87.6594 211.782 88.3853 213.61 88.2934L212.544 81.8243L208.824 82.9362Z" fill="#35324C"/>
<path d="M209.777 86.1065C210.907 86.8416 212.413 86.52 213.148 85.3897C213.883 84.2595 213.562 82.7525 212.432 82.0174C211.302 81.2822 209.795 81.6039 209.061 82.7341C208.326 83.8644 208.647 85.3714 209.777 86.1065Z" fill="#35324C"/>
<path d="M202.448 81.1538C202.218 81.1446 202.044 80.9424 202.053 80.7219C202.062 80.4922 202.264 80.3176 202.485 80.3268C202.715 80.336 202.889 80.5381 202.88 80.7586C202.871 80.9884 202.669 81.163 202.448 81.1538Z" fill="#35324C"/>
<path d="M201.549 86.2444V85.9044C202.017 85.9044 202.477 85.7022 202.789 85.353L203.037 85.5828C202.67 85.9963 202.109 86.2444 201.549 86.2444Z" fill="#35324C"/>
<path d="M216.658 82.1827C216.254 81.1168 215.216 80.3633 214.114 80.1611C213.223 80.0049 211.946 80.7584 211.183 80.3633C210.403 79.959 210.035 78.7184 209.521 78.0476C208.841 77.1471 207.987 76.3752 207.05 75.7596C205.406 74.6753 202.981 73.738 200.969 74.0872C198.884 74.4455 198.81 77.5331 198.489 79.3984C198.222 80.933 198.076 82.5043 198.305 84.0389C198.535 85.5827 199.159 87.0989 200.28 88.174C201.557 89.4053 203.302 89.9107 205.001 90.2048C205.479 90.2875 210.017 90.9123 210.017 90.6642L210.008 93.715L213.011 93.7242L213.03 86.4648C213.912 86.4097 214.775 86.2259 215.473 85.7389C216.63 84.9578 217.127 83.4416 216.658 82.1827Z" fill="#FDC5B6"/>
<path d="M204.021 86.2902C203.755 86.1708 203.516 85.9594 203.332 85.6745L203.801 85.3805C204.049 85.7664 204.37 85.8767 204.591 85.8491C204.784 85.8308 204.931 85.7021 205.004 85.5091L205.519 85.7021C205.372 86.0972 205.05 86.3545 204.646 86.4005C204.435 86.4189 204.223 86.3821 204.021 86.2902Z" fill="#35324C"/>
<path d="M204.561 84.1032H203.238V79.4811H203.789V83.5518H204.561V84.1032Z" fill="#35324C"/>
<path d="M274.924 155.667C275.255 155.741 275.531 155.805 275.714 155.87C278.277 156.632 281.318 157.321 283.421 155.704C286.397 153.416 284.992 148.794 283.283 145.486C275.081 129.626 267.778 112.424 253.761 100.735C250.812 98.2818 247.763 95.8559 244.217 94.3764C240.68 92.897 236.538 92.4559 233.029 93.9905C223.779 98.0429 227.71 112.543 232.377 118.764C237.493 125.573 246.265 128.982 251.079 136.012C254.303 140.717 255.607 147.397 260.466 150.852C264.379 153.609 270.277 154.611 274.924 155.667Z" fill="#2BB673"/>
<path d="M280.39 159.472C282.595 158.305 284.349 156.393 284.882 153.986C285.553 150.917 284.111 147.682 281.842 145.514C279.573 143.345 276.597 142.086 273.602 141.14C265.344 138.512 256.572 138.08 248.305 135.534C240.635 133.182 233.176 129.157 225.479 126.391C221.217 124.866 217.046 122.431 212.509 121.723C211.425 121.558 210.313 121.429 209.183 121.356C205.39 121.107 201.431 121.402 197.876 122.339C197.371 122.477 196.204 122.844 195.827 123.258C195.827 123.258 195.809 123.285 195.8 123.294C195.616 123.515 195.837 123.827 196.121 123.772C199.649 123.138 203.295 123.065 206.859 123.57C207.052 123.598 207.181 123.763 207.153 123.947C207.126 124.121 206.951 124.25 206.758 124.223C203.038 123.69 199.226 123.809 195.57 124.553C195.423 124.581 195.322 124.7 195.322 124.847C195.322 124.958 195.322 125.068 195.331 125.178C195.341 125.362 195.515 125.491 195.708 125.463C198.96 124.967 202.597 125.013 206.722 125.601C206.915 125.628 207.043 125.794 207.016 125.978C206.988 126.152 206.813 126.281 206.621 126.253C202.57 125.674 199.015 125.628 195.846 126.106C195.653 126.134 195.534 126.318 195.598 126.492C195.662 126.694 195.745 126.887 195.837 127.062C195.892 127.181 196.02 127.246 196.158 127.227C199.392 126.915 203.277 126.832 206.446 127.613C206.63 127.659 206.749 127.843 206.703 128.018C206.657 128.192 206.464 128.293 206.281 128.247C203.47 127.549 200.044 127.567 197.058 127.806C196.764 127.834 196.654 128.183 196.893 128.348C197.793 128.927 199.272 128.615 200.282 128.725C201.826 128.9 203.387 129.111 204.875 129.571C204.93 129.589 204.986 129.607 205.041 129.626C209.542 131.16 213.795 133.577 218.36 134.863C226.893 137.271 234.196 143.033 241.443 147.747C247.745 151.845 254.698 155.061 261.992 157.266C266.658 158.682 271.664 161.236 276.624 160.666C277.91 160.501 279.215 160.087 280.39 159.472Z" fill="#FDC5B6"/>
<path d="M183.123 158.654C176.041 158.663 163.824 158.672 163.824 158.672L153.168 108.087C153.113 107.82 152.875 107.636 152.608 107.645C152.02 107.664 150.9 107.71 149.338 107.765C148.465 107.802 147.455 107.829 146.325 107.875C128.937 108.482 82.4575 109.152 74.071 109.272C73.4097 109.281 72.932 109.906 73.1066 110.549C75.2927 118.59 87.2157 162.431 87.6566 163.901C87.6658 163.928 87.6841 163.938 87.7117 163.938H186.999C186.99 163.892 187.017 163.846 187.073 163.791V162.605C187.082 160.418 185.309 158.654 183.123 158.654Z" fill="#030F8F"/>
<path d="M114.164 136.609C113.025 136.609 112.098 135.681 112.098 134.542C112.098 133.402 113.025 132.474 114.164 132.474C115.303 132.474 116.231 133.402 116.231 134.542C116.231 135.681 115.294 136.609 114.164 136.609Z" fill="#6D7AFF"/>
<path d="M125.021 169.139C121.998 172.897 111.711 163.212 110.498 161.695C109.91 160.951 109.341 160.17 108.808 159.352C107.026 156.586 105.639 153.444 104.95 150.292C104.849 149.842 104.674 148.785 104.876 148.298C104.876 148.298 104.886 148.27 104.895 148.261C105.005 148.022 105.354 148.031 105.428 148.279C106.355 151.266 107.807 154.069 109.708 156.531C109.809 156.66 110.002 156.687 110.149 156.577C110.287 156.467 110.314 156.274 110.213 156.145C108.229 153.572 106.75 150.623 105.859 147.48C105.823 147.351 105.887 147.223 105.997 147.149C106.089 147.094 106.181 147.048 106.273 146.993C106.429 146.91 106.613 146.984 106.668 147.14C107.595 149.842 109.139 152.589 111.352 155.447C111.453 155.576 111.646 155.603 111.793 155.493C111.931 155.383 111.959 155.19 111.858 155.061C109.699 152.258 108.174 149.584 107.274 146.947C107.219 146.791 107.329 146.607 107.494 146.57C107.687 146.524 107.88 146.497 108.073 146.478C108.192 146.469 108.303 146.534 108.349 146.644C109.423 149.254 110.966 152.24 112.932 154.271C113.052 154.39 113.245 154.39 113.373 154.271C113.502 154.151 113.511 153.958 113.391 153.839C111.637 152.038 110.241 149.428 109.203 147.039C109.102 146.809 109.359 146.552 109.589 146.662C110.443 147.067 110.801 148.344 111.306 149.061C112.087 150.154 112.914 151.238 113.915 152.148C113.952 152.185 113.989 152.212 114.025 152.249C118.297 155.879 126.885 160.087 125.746 167.282C125.627 168.091 125.37 168.707 125.021 169.139Z" fill="#FDC5B6"/>
<path d="M201.051 83.497C199.554 83.497 198.332 82.2748 198.332 80.777C198.332 79.27 199.554 78.0479 201.051 78.0479C202.548 78.0479 203.77 79.27 203.77 80.777C203.779 82.2748 202.557 83.497 201.051 83.497ZM201.051 78.6543C199.884 78.6543 198.929 79.61 198.929 80.777C198.929 81.944 199.884 82.8997 201.051 82.8997C202.218 82.8997 203.173 81.944 203.173 80.777C203.173 79.6008 202.227 78.6543 201.051 78.6543Z" fill="#35324C"/>
<path d="M207.27 83.322C205.772 83.322 204.551 82.0999 204.551 80.5929C204.551 79.0951 205.772 77.8729 207.27 77.8729C208.767 77.8729 209.989 79.0951 209.989 80.5929C209.989 82.0999 208.767 83.322 207.27 83.322ZM207.27 78.4702C206.103 78.4702 205.148 79.4259 205.148 80.5929C205.148 81.7599 206.103 82.7156 207.27 82.7156C208.436 82.7156 209.392 81.7599 209.392 80.5929C209.392 79.4259 208.436 78.4702 207.27 78.4702Z" fill="#35324C"/>
</g>
<path d="M270.431 52.3947L267.512 52.0234C267.271 51.2825 266.974 50.568 266.628 49.8892L268.431 47.567C269.161 46.6273 269.075 45.3008 268.241 44.493L265.796 42.0466C264.981 41.2047 263.654 41.1208 262.713 41.8493L260.395 43.6527C259.717 43.3063 259.002 43.0096 258.26 42.7689L257.889 39.8533C257.749 38.6837 256.757 37.803 255.582 37.803H252.103C250.928 37.803 249.936 38.6837 249.796 39.8487L249.425 42.7689C248.683 43.0096 247.968 43.3048 247.29 43.6527L244.97 41.8493C244.032 41.1208 242.706 41.2047 241.897 42.0388L239.451 44.4837C238.61 45.3008 238.524 46.6273 239.254 47.5686L241.057 49.8892C240.709 50.568 240.414 51.2825 240.173 52.0234L237.259 52.3947C236.089 52.5345 235.209 53.527 235.209 54.7029V58.1823C235.209 59.3581 236.089 60.3507 237.254 60.4905L240.173 60.8617C240.414 61.6026 240.711 62.3172 241.057 62.996L239.254 65.3181C238.524 66.2579 238.61 67.5844 239.443 68.3921L241.889 70.8386C242.706 71.6789 244.03 71.7628 244.971 71.0343L247.291 69.2309C247.97 69.5788 248.684 69.8755 249.425 70.1147L249.796 73.0287C249.936 74.2015 250.928 75.0822 252.103 75.0822H255.582C256.757 75.0822 257.749 74.2015 257.889 73.0365L258.26 70.1163C259.001 69.8755 259.715 69.5788 260.394 69.2325L262.715 71.0358C263.654 71.7659 264.981 71.6805 265.788 70.8463L268.234 68.3999C269.075 67.5828 269.161 66.2579 268.431 65.3166L266.628 62.996C266.976 62.3172 267.272 61.6026 267.512 60.8617L270.425 60.4905C271.594 60.3507 272.474 59.3581 272.474 58.1823V54.7029C272.476 53.527 271.595 52.5345 270.431 52.3947ZM253.842 64.2091C249.561 64.2091 246.078 60.725 246.078 56.4426C246.078 52.1601 249.561 48.6761 253.842 48.6761C258.123 48.6761 261.606 52.1601 261.606 56.4426C261.606 60.725 258.123 64.2091 253.842 64.2091Z" fill="#E6E7F3"/>
</svg>
