<svg xmlns="http://www.w3.org/2000/svg" viewBox="0 0 500 500" height="500" width="500">
    <path d="M474.7 232.51c-5 42-24.13 90.8-62.42 113.22-57.84 33.89-53 86-165.91 108.68a232 232 0 0 1-50.06 4.72 192.54 192.54 0 0 1-24.57-2C100 446.65 51.69 396.77 34 336.56c-23.32-79.19 23.24-131 54.1-162.27S141.52 45.73 252.35 22.58a225.06 225.06 0 0 1 51.45-4.89c39.43 1 82.44 13.91 112.2 40.94q3.35 3 6.52 6.3c41.36 42.46 58.94 110.35 52.18 167.58Z"
          style="fill:#566bb1"/>
    <path d="M474.7 232.51c-5 42-24.13 90.8-62.42 113.22-57.84 33.89-53 86-165.91 108.68a232 232 0 0 1-50.06 4.72 192.54 192.54 0 0 1-24.57-2C100 446.65 51.69 396.77 34 336.56c-23.32-79.19 23.24-131 54.1-162.27S141.52 45.73 252.35 22.58a225.06 225.06 0 0 1 51.45-4.89c39.43 1 82.44 13.91 112.2 40.94q3.35 3 6.52 6.3c41.36 42.46 58.94 110.35 52.18 167.58Z"
          style="fill:#fff;opacity:.7000000000000001"/>
    <path d="M152.45 186.71H50.52l.11-.59c.42-2.29 2.23-9.93 7.89-11.7 5.39-1.69 10.4 2.14 12.28 3.84.36-3.11 2.08-12.08 9.93-15.15a13.77 13.77 0 0 1 15 2.78c1.13-2.72 5.86-11.71 18.78-11.71a20.84 20.84 0 0 1 15.4 6.43 25.9 25.9 0 0 1 6.95 17.68c1.87-.43 7.27-1.33 11.1 1.46a11.13 11.13 0 0 1 4.39 6.34Zm-100.72-1h99.42a10.32 10.32 0 0 0-3.83-5.16c-4.19-3-10.82-1.15-10.89-1.13l-.66.19v-.69a24.81 24.81 0 0 0-6.65-17.62 19.91 19.91 0 0 0-14.68-6.12c-14.39 0-18 11.29-18.12 11.77l-.27.89-.59-.71A12.59 12.59 0 0 0 81.09 164c-8.88 3.47-9.38 15.2-9.39 15.32v1.2l-.82-.88c-.06-.06-5.93-6.21-12-4.31-4.79 1.52-6.59 7.73-7.15 10.38ZM154.53 109.74H86.64l.11-.59c.36-2 1.61-6.71 5.34-7.88 3.43-1.07 6.62 1.14 8 2.36.3-2.33 1.55-7.85 6.65-9.84a9.26 9.26 0 0 1 9.89 1.71c.92-2 4.17-7.63 12.5-7.63a14 14 0 0 1 10.31 4.3 17.35 17.35 0 0 1 4.65 11.61c1.41-.29 4.82-.74 7.27 1a7.48 7.48 0 0 1 3 4.3Zm-66.67-1h65.35a6.61 6.61 0 0 0-2.39-3.11c-2.71-2-7-.74-7.06-.73l-.67.2v-.7a16.26 16.26 0 0 0-4.36-11.53 13 13 0 0 0-9.59-4c-9.4 0-11.74 7.36-11.83 7.67l-.27.89-.6-.72a8.17 8.17 0 0 0-9.33-2c-5.77 2.26-6.1 9.91-6.1 10l-.05 1.2-.82-.88s-3.85-4-7.78-2.81c-2.9.92-4.09 4.7-4.5 6.52ZM477.29 315.55H311l.1-.59c.68-3.72 3.61-16.09 12.72-18.94s17.7 4.22 20.28 6.65c.42-4.3 2.86-20 16.14-25.19a22.26 22.26 0 0 1 24.5 4.83c1.47-3.75 8.9-19.44 30.68-19.44a33.88 33.88 0 0 1 25 10.43 42.13 42.13 0 0 1 11.3 29.17c2.56-.63 11.86-2.46 18.33 2.24a18 18 0 0 1 7.08 10.22Zm-165.08-1H476a17 17 0 0 0-6.53-9c-7-5.1-18-1.95-18.12-1.91l-.67.19v-.69a41 41 0 0 0-11-29.11 32.87 32.87 0 0 0-24.28-10.13c-23.87 0-29.95 19.33-30 19.52l-.26.9-.6-.72a21.29 21.29 0 0 0-23.95-5.16c-14.75 5.77-15.58 25.2-15.58 25.4v1.2l-.82-.88c-.1-.1-9.85-10.33-20-7.15-8.19 2.52-11.19 13.4-11.98 17.54ZM389.25 220.05h-67.89l.11-.59c.36-2 1.61-6.71 5.34-7.88 3.43-1.07 6.62 1.14 8 2.36.3-2.33 1.55-7.85 6.65-9.84a9.28 9.28 0 0 1 9.89 1.71c.92-2.05 4.17-7.63 12.5-7.63a14 14 0 0 1 10.31 4.3 17.36 17.36 0 0 1 4.65 11.62c1.41-.3 4.82-.75 7.27 1a7.51 7.51 0 0 1 3 4.3Zm-66.67-1h65.35a6.59 6.59 0 0 0-2.39-3.11c-2.71-2-7-.74-7.06-.73l-.67.2v-.7a16.26 16.26 0 0 0-4.36-11.53 13 13 0 0 0-9.59-4c-9.4 0-11.74 7.36-11.83 7.67l-.27.89-.6-.71a8.15 8.15 0 0 0-9.33-2c-5.77 2.26-6.1 9.91-6.1 10l-.05 1.2-.82-.88s-3.86-4-7.78-2.8c-2.9.9-4.08 4.68-4.5 6.5ZM327.23 73.37H217.8l.11-.59c.45-2.46 2.39-10.65 8.46-12.55 5.82-1.82 11.24 2.38 13.2 4.17.37-3.26 2.18-13 10.65-16.32a14.78 14.78 0 0 1 16.07 3c1.17-2.85 6.22-12.61 20.17-12.61A22.37 22.37 0 0 1 303 45.39a27.81 27.81 0 0 1 7.46 19c2-.46 7.81-1.46 11.94 1.54a12 12 0 0 1 4.7 6.8Zm-108.23-1h106.92a11 11 0 0 0-4.14-5.61c-4.53-3.29-11.66-1.25-11.73-1.23l-.67.2v-.69a26.75 26.75 0 0 0-7.16-19 21.39 21.39 0 0 0-15.79-6.59C270.94 39.49 267 52 267 52.17l-.26.89-.6-.72A13.57 13.57 0 0 0 250.59 49c-9.56 3.75-10.11 16.37-10.11 16.5v1.2l-.82-.88c-.07-.07-6.39-6.69-13-4.64-5.12 1.61-7.06 8.36-7.66 11.19Z"
          style="opacity:.30000000000000004"/>
    <g>
        <path d="M424.55 310.2a46.61 46.61 0 0 1 2.33-7.08c1.09-2.12 6-2.12 8.91.92s4.65 8.58 4.65 8.58a15.61 15.61 0 0 1 4.71 8.19c.83 4.82 1.08 7.72-.33 7.54s-5.55-6.44-9-8.51-4.87-2.06-4.87-2.06Z"
              style="fill:#fff"/>
        <path d="M444.94 328.86h-.19c-.81-.1-1.84-1.23-3.75-3.39-1.63-1.84-3.66-4.14-5.42-5.2-3.2-1.93-4.59-2-4.61-2a.52.52 0 0 1-.38-.17l-6.42-7.58a.5.5 0 0 1-.11-.45 46.81 46.81 0 0 1 2.37-7.19 3.53 3.53 0 0 1 2.81-1.69 8.23 8.23 0 0 1 6.91 2.49c2.73 2.86 4.44 7.76 4.73 8.65a16 16 0 0 1 4.77 8.38c.86 5 .89 7 .13 7.78a1.12 1.12 0 0 1-.84.37Zm-13.72-11.56a13.75 13.75 0 0 1 4.88 2.11c1.88 1.14 3.88 3.4 5.65 5.39 1.18 1.34 2.65 3 3.13 3.06.13 0 .16 0 .18-.05.67-.69-.08-5.06-.4-6.92a15.31 15.31 0 0 0-4.54-7.89.51.51 0 0 1-.15-.23s-1.76-5.48-4.54-8.39a7.36 7.36 0 0 0-6.05-2.2 2.68 2.68 0 0 0-2.06 1.16 43.52 43.52 0 0 0-2.22 6.74Z"
              style="fill:#263238"/>
        <path d="M430.25 301.64a7.88 7.88 0 0 1 5.54 2.4c2.9 3 4.65 8.58 4.65 8.58a15.61 15.61 0 0 1 4.71 8.19c.83 4.82 1.08 7.72-.33 7.54a.8.8 0 0 1-.2-.07 51.88 51.88 0 0 0-.53-5.56c-.67-4.39-5.19-7.63-8.31-13.76a23.31 23.31 0 0 0-5.53-7.32Z"
              style="fill:#fff"/>
        <path d="M444.94 328.86h-.19a1.43 1.43 0 0 1-.29-.09.55.55 0 0 1-.34-.46 52.5 52.5 0 0 0-.52-5.5c-.37-2.37-2-4.45-3.8-6.87a42.92 42.92 0 0 1-4.46-6.75 22.91 22.91 0 0 0-5.41-7.16.5.5 0 0 1-.14-.56.57.57 0 0 1 .47-.32 8.41 8.41 0 0 1 5.89 2.55c2.73 2.86 4.44 7.76 4.73 8.65a16 16 0 0 1 4.77 8.38c.86 5 .89 7 .13 7.78a1.12 1.12 0 0 1-.84.35Zm-13.23-26.55a25.45 25.45 0 0 1 4.52 6.42 42.66 42.66 0 0 0 4.36 6.6c1.93 2.52 3.59 4.7 4 7.32.24 1.59.41 3.31.5 5.12.61-.8-.12-5-.43-6.88a15.31 15.31 0 0 0-4.54-7.89.51.51 0 0 1-.15-.23s-1.76-5.48-4.54-8.39a7.45 7.45 0 0 0-3.72-2.07ZM367.92 261.46s-.4 3.39 2.1 4.73a51.88 51.88 0 0 0 7.64 2.81l-.56-13.4s-7.33 2.24-9.18 5.86Z"
              style="fill:#263238"/>
        <path d="M377.66 269.5h-.14a53.63 53.63 0 0 1-7.74-2.86c-2.76-1.48-2.38-5.08-2.36-5.23a.48.48 0 0 1 .05-.17c1.93-3.76 9.17-6 9.48-6.11a.53.53 0 0 1 .44.07.55.55 0 0 1 .21.39l.56 13.4a.52.52 0 0 1-.19.42.5.5 0 0 1-.31.09Zm-9.26-7.9c0 .51-.1 3.1 1.85 4.15a47.34 47.34 0 0 0 6.88 2.58l-.5-12c-1.76.57-6.73 2.52-8.23 5.27Z"
              style="fill:#263238"/>
        <path d="m374.32 254.84.89 12.42s-7.36 17.73-9.41 37.16-1.17 25.49-.67 28 5.14 6.39 8.78 6.85 5.9.33 17.39-2.93 19.42-7.6 27.35-11.93 12.35-6.63 12.35-6.63-3.85-6.84-6.42-7.58S419 312 419 312s-.53-.68-2.5.3a16.86 16.86 0 0 1-3.86 1.36l-24.44 3.44s24.19-48.63 26.85-55.06-.6-9.92-.6-9.92Z"
              style="fill:#566bb1"/>
        <path d="M376.58 340a21.17 21.17 0 0 1-2.74-.2c-3.64-.46-8.63-4.39-9.2-7.25-.37-1.87-1.5-7.57.66-28.16 1.95-18.48 8.78-35.65 9.41-37.19l-.89-12.3a.55.55 0 0 1 .12-.37.51.51 0 0 1 .35-.17l40.13-2.72a.46.46 0 0 1 .4.16c.14.15 3.44 3.8.69 10.45-2.44 5.9-23.2 47.71-26.44 54.24l23.49-3.34a17.38 17.38 0 0 0 3.71-1.31 3.34 3.34 0 0 1 2.69-.47c.85-.63 3.39-2.3 5.73-1.63 2.69.77 6.32 7.1 6.72 7.82a.48.48 0 0 1 0 .39.5.5 0 0 1-.24.3s-4.49 2.36-12.32 6.64-15.91 8.69-27.45 12c-8.58 2.4-12.07 3.11-14.82 3.11Zm-1.72-84.67.85 11.91a.45.45 0 0 1 0 .23c-.08.18-7.37 17.89-9.38 37-2.15 20.44-1 26-.68 27.86.46 2.29 4.85 6 8.35 6.45s5.82.32 17.19-2.91 19.48-7.64 27.25-11.89c6.41-3.5 10.55-5.7 11.87-6.41-1.23-2.09-4.06-6.38-5.87-6.9-2.29-.65-5.07 1.64-5.1 1.67a.5.5 0 0 1-.37.11.46.46 0 0 1-.34-.19c-.08-.06-.66-.17-1.88.44a17.33 17.33 0 0 1-4 1.4l-24.46 3.48a.5.5 0 0 1-.48-.2.51.51 0 0 1 0-.52c.24-.48 24.21-48.68 26.83-55 2.2-5.32.23-8.46-.35-9.22Z"
              style="fill:#263238"/>
        <path d="M386.54 272.27a.47.47 0 0 1-.28-.09l-4.72-3.26a.5.5 0 0 1 .57-.83l4.71 3.27a.49.49 0 0 1 .13.69.5.5 0 0 1-.41.22Z"
              style="fill:#263238"/>
        <path d="M422.13 363.43s12.61 4.05 12.66 5.29-2.89 11.53-4.13 16.5-6.53 11.07-8 11.09-2.34-.91-2.49-3 1.09-5.4.64-8.32-4.32-12.86-4.32-12.86 5.51-6.25 5.64-8.7Z"
              style="fill:#fff"/>
        <path d="M422.64 396.81c-1 0-2.73-.46-2.94-3.44a14.3 14.3 0 0 1 .33-3.27 17 17 0 0 0 .32-5c-.44-2.84-4.26-12.65-4.3-12.75a.5.5 0 0 1 .09-.51c1.5-1.71 5.41-6.55 5.49-8.41a.53.53 0 0 1 .21-.39.49.49 0 0 1 .44-.07c8.59 2.76 13 4.7 13 5.75 0 .85-1 4.75-2.56 10.6-.6 2.25-1.18 4.43-1.59 6-1.25 5-6.64 11.45-8.44 11.47Zm-5.55-24.56c.65 1.68 3.83 10 4.24 12.68a16.91 16.91 0 0 1-.32 5.33 14.45 14.45 0 0 0-.31 3c.18 2.54 1.54 2.53 2 2.51 1 0 6.21-5.61 7.48-10.71.41-1.62 1-3.8 1.6-6.06 1.11-4.14 2.48-9.26 2.52-10.23-.62-.78-6.33-3-11.77-4.73-.69 2.59-4.43 7.04-5.44 8.21Z"
              style="fill:#263238"/>
        <path d="M434.79 368.72c0 1.24-2.89 11.53-4.13 16.5s-6.53 11.07-8 11.09a2 2 0 0 1-.25 0 57.3 57.3 0 0 0 7.29-15.09 70 70 0 0 0 2.44-14.12c1.55.66 2.64 1.26 2.65 1.62Z"
              style="fill:#fff"/>
        <path d="M422.69 396.81h-.22a.57.57 0 0 1-.44-.29.5.5 0 0 1 0-.5 56.54 56.54 0 0 0 7.22-14.95 69 69 0 0 0 2.42-14 .5.5 0 0 1 .24-.39.53.53 0 0 1 .46 0c2.42 1.06 2.9 1.56 2.92 2.07 0 .85-1 4.75-2.56 10.6-.6 2.25-1.18 4.43-1.59 6-1.25 5-6.64 11.45-8.44 11.47Zm9.92-29a68.47 68.47 0 0 1-2.4 13.51 57 57 0 0 1-6.39 13.75c1.91-1.67 5.35-6 6.35-10 .41-1.62 1-3.8 1.6-6.06 1.1-4.13 2.48-9.25 2.52-10.23a5.92 5.92 0 0 0-1.68-.94Zm1.71 1Z"
              style="fill:#263238"/>
        <path d="M396.29 262.75c-10 3-12.11 16.31-14.29 22.19s-8.45 36.05-8.53 38.3 4 10.15 5.52 11.56 23 22.6 25.07 25.53 10.51 11 10.51 11l1.95.86c4.92-1.63 5.43-7.31 5.61-8.72s-2.9-3-4.23-5.46-8.76-18.33-11.63-23.21-11.14-9.2-12.3-11.4a9.06 9.06 0 0 0-1.54-2.45s9.71-15.18 17.77-22.16 14.06-20.37 14.88-30.16-3.21-15.12-3.21-15.12l-21.63.75"
              style="fill:#566bb1"/>
        <path d="M416.52 372.65a.52.52 0 0 1-.21 0l-1.94-.86a.45.45 0 0 1-.14-.1c-.35-.32-8.48-8.1-10.57-11s-23.51-24-25-25.46-5.75-9.57-5.67-11.94 6.3-32.33 8.57-38.46c.37-1 .75-2.27 1.16-3.61 1.95-6.49 4.91-16.29 13.45-18.88a.5.5 0 1 1 .29 1c-8 2.44-10.78 11.56-12.79 18.21-.4 1.36-.79 2.64-1.18 3.68-2.25 6.07-8.43 36.31-8.5 38.14-.07 2.08 3.94 9.82 5.36 11.19.23.22 22.91 22.46 25.14 25.6 1.95 2.72 9.61 10.09 10.39 10.83l1.68.75c4.28-1.55 4.88-6.45 5.07-8.08v-.17c.07-.52-.79-1.35-1.62-2.15a13.37 13.37 0 0 1-2.55-3c-.49-.88-1.73-3.45-3.31-6.7-2.73-5.65-6.48-13.39-8.31-16.49-1.64-2.79-5.17-5.44-8-7.57-2.12-1.59-3.79-2.85-4.31-3.85a11.38 11.38 0 0 0-1.41-2.3.46.46 0 0 1-.11-.66c.1-.15 9.84-15.32 17.87-22.26 8.24-7.14 13.95-20.78 14.7-29.83.7-8.41-2.27-13.51-3-14.58l-21.36.75a.52.52 0 0 1-.52-.48.5.5 0 0 1 .48-.52l21.63-.75a.5.5 0 0 1 .42.2c.17.22 4.13 5.59 3.31 15.46-.76 9.13-6.3 22.92-15.05 30.5-7.27 6.3-16 19.52-17.47 21.74a16.45 16.45 0 0 1 1.35 2.26c.42.81 2.18 2.12 4 3.52 2.9 2.18 6.52 4.9 8.26 7.86 1.85 3.14 5.61 10.9 8.35 16.56 1.57 3.24 2.81 5.8 3.29 6.66a12.29 12.29 0 0 0 2.36 2.77c1.1 1.06 2.06 2 1.93 3v.17c-.59 4.84-2.59 7.86-5.94 9ZM399.58 83.76h-.07a.48.48 0 0 1-.38-.29l-.84-1.9a3.29 3.29 0 0 1 .5-3.89c.13-.14.45-.51 4.23-1.89l.54-.19a.51.51 0 0 1 .5.1.52.52 0 0 1 .15.49l-.75 3.13a.53.53 0 0 1-.11.21L400 83.58a.53.53 0 0 1-.42.18Zm3.42-6.91a18.7 18.7 0 0 0-3.48 1.49 2.27 2.27 0 0 0-.33 2.81l.51 1.17 2.81-3.32Z"
              style="fill:#263238"/>
        <path d="M418.77 205.59s-10.6 17.15-10.77 18.21 15.42 30 16.23 32c0 0-35.41 1.81-44.2 1.78s-12.15 3.85-12.15 3.85 4.81-12.5 4.78-23.63-5.6-28.17-4.11-35.7 6.72-20.52 6.72-20.52-.12-11.86 2.48-21.05 5.35-18.17 6.08-24 5.8-23.14 8.21-28 7.45-20.6 7.45-20.6-.9-2.81.05-4.66A18.87 18.87 0 0 1 403 79.2s.87-4 2.3-5.46 2.17-.08 1.86 1l-.31 1s2.62 4.82 3.08 6.86-6.36 7.4-6.36 7.4-2.44 26.44-3.22 32.63S396 137 396 137l-.42 4.79-4.72 27.41s13.82 4.26 17.62 6.89 13.92 10.56 15.08 17-4.79 12.5-4.79 12.5Z"
              style="fill:#fff"/>
        <path d="M367.92 262a.5.5 0 0 1-.26-.08.49.49 0 0 1-.21-.6c.05-.13 4.77-12.54 4.75-23.45 0-5-1.18-11.31-2.3-17.37-1.35-7.33-2.63-14.24-1.8-18.43 1.42-7.16 6.24-19.33 6.71-20.51 0-1.18 0-12.39 2.5-21.09.41-1.47.83-2.93 1.25-4.38 2.16-7.55 4.2-14.69 4.82-19.55.74-5.89 5.84-23.29 8.26-28.2 2.24-4.56 6.85-18.78 7.37-20.39-.18-.65-.78-3.11.13-4.88a18.13 18.13 0 0 1 3.38-4.09c.18-.79 1-4.18 2.4-5.55 1-1 1.74-.81 2.09-.6a1.82 1.82 0 0 1 .6 2l-.25.84a41.24 41.24 0 0 1 3 6.8c.48 2.13-4.86 6.63-6.34 7.82-.23 2.52-2.47 26.6-3.2 32.43s-4 13.53-4.34 14.41l-.42 4.72-4.64 27c2.38.75 13.85 4.41 17.33 6.83 1.43 1 14 9.87 15.3 17.31 1.15 6.4-4.33 12.29-4.91 12.89-3.94 6.37-10.2 16.71-10.63 17.94.34 1.32 6.4 12.89 10.43 20.58 3 5.82 5.45 10.41 5.77 11.23a.51.51 0 0 1-.44.68c-.35 0-34.87 1.78-44 1.78H380c-8.34 0-11.64 3.64-11.67 3.68a.5.5 0 0 1-.41.23ZM406.4 73.62a1.35 1.35 0 0 0-.77.48c-1.32 1.31-2.16 5.16-2.17 5.2a.5.5 0 0 1-.16.27 18.63 18.63 0 0 0-3.3 3.92c-.85 1.65 0 4.25 0 4.28a.51.51 0 0 1 0 .3c-.21.64-5.07 15.79-7.48 20.67s-7.42 22-8.16 27.88c-.62 4.94-2.68 12.11-4.85 19.7-.42 1.45-.83 2.91-1.25 4.38-2.55 9-2.46 20.79-2.46 20.91a.43.43 0 0 1 0 .19c0 .13-5.23 13-6.69 20.42-.79 4 .47 10.83 1.81 18.06 1.12 6.11 2.29 12.42 2.31 17.55 0 8.68-2.91 18.26-4.21 22.09 1.76-1.18 5.22-2.81 11-2.81h.37c8.34 0 38.11-1.48 43.19-1.74-.8-1.65-3-5.79-5.43-10.48-8.45-16.16-10.62-20.51-10.54-21.15.14-1.08 8.31-14.36 10.81-18.41l.07-.09c.05-.06 5.77-6 4.67-12.05-1-5.72-9.84-13.17-14.88-16.67-3.69-2.56-17.34-6.78-17.48-6.82a.52.52 0 0 1-.35-.57l4.72-27.4.42-4.76a.83.83 0 0 1 0-.15c0-.08 3.53-8.18 4.29-14.22s3.2-32.34 3.23-32.6a.52.52 0 0 1 .18-.35c2.72-2.17 6.42-5.76 6.15-7-.44-2-3-6.68-3-6.73a.46.46 0 0 1 0-.38l.31-1a.88.88 0 0 0-.16-.91Z"
              style="fill:#263238"/>
        <path d="M406.21 81a.5.5 0 0 1-.49-.51 37.39 37.39 0 0 1 .62-4.85.49.49 0 0 1 .58-.4.51.51 0 0 1 .4.59 38.3 38.3 0 0 0-.6 4.69.49.49 0 0 1-.51.48Z"
              style="fill:#263238"/>
        <path d="M368.59 202.13c1.49-7.53 6.72-20.52 6.72-20.52s-.12-11.86 2.48-21.05c.26-.9.51-1.8.77-2.7l15.47-7-3.15 18.32s13.82 4.26 17.62 6.89 13.92 10.56 15.08 17-4.81 12.49-4.81 12.49-10.6 17.18-10.77 18.24 15.42 30 16.23 32c0 0-35.41 1.81-44.2 1.78s-12.15 3.85-12.15 3.85 4.81-12.5 4.78-23.63-5.56-28.14-4.07-35.67Z"
              style="fill:#adadad"/>
        <path d="M367.92 262a.5.5 0 0 1-.26-.08.49.49 0 0 1-.21-.6c.05-.13 4.77-12.54 4.75-23.45 0-5-1.18-11.31-2.3-17.37-1.35-7.32-2.63-14.24-1.8-18.43 1.41-7.16 6.24-19.33 6.71-20.51 0-1.18 0-12.39 2.5-21.09l.77-2.71a.51.51 0 0 1 .27-.32l15.48-7a.48.48 0 0 1 .51.06.49.49 0 0 1 .18.48l-3.07 17.88c2.38.75 13.85 4.41 17.33 6.83 1.43 1 14 9.87 15.3 17.31 1.15 6.4-4.33 12.3-4.91 12.89-3.94 6.37-10.2 16.71-10.63 17.94.34 1.32 6.4 12.89 10.43 20.58 3 5.82 5.45 10.41 5.77 11.23a.51.51 0 0 1-.44.68c-.35 0-34.87 1.78-44 1.78h-.3c-8.34 0-11.64 3.64-11.67 3.68a.5.5 0 0 1-.41.22ZM379 158.22l-.71 2.48c-2.55 9-2.46 20.79-2.46 20.91a.43.43 0 0 1 0 .19c0 .13-5.23 13-6.69 20.42-.79 4 .47 10.83 1.81 18.06 1.12 6.11 2.29 12.42 2.31 17.55 0 8.68-2.91 18.26-4.21 22.09 1.76-1.18 5.22-2.81 11-2.81h.37c8.34 0 38.11-1.48 43.19-1.74-.8-1.65-3-5.79-5.43-10.48-8.45-16.16-10.62-20.51-10.54-21.15.14-1.08 8.31-14.36 10.81-18.41l.07-.09c.05-.06 5.77-6 4.67-12.05-1-5.72-9.84-13.17-14.88-16.67-3.69-2.56-17.34-6.78-17.48-6.82a.52.52 0 0 1-.35-.57l3-17.39Zm-10.39 43.91Z"
              style="fill:#263238"/>
        <path d="M397.44 221.53a.48.48 0 0 1-.26-.07c-.17-.1-17.06-10.07-20.05-11.68a.5.5 0 1 1 .48-.88c3 1.62 19.91 11.6 20.08 11.7a.49.49 0 0 1 .18.68.51.51 0 0 1-.43.25ZM382.42 216.76a.49.49 0 0 1-.3-.1c-3.42-2.57-11-9.43-11-9.5a.5.5 0 0 1 0-.71.51.51 0 0 1 .71 0c.07.07 7.59 6.89 11 9.44a.5.5 0 0 1 .1.7.51.51 0 0 1-.51.17ZM387.63 240.93a.51.51 0 0 1-.49-.36.51.51 0 0 1 .35-.62c8.52-2.42 18.77-13.14 18.88-13.24a.48.48 0 0 1 .7 0 .49.49 0 0 1 0 .7c-.43.45-10.55 11-19.33 13.52a.3.3 0 0 1-.11 0ZM400.79 239a.49.49 0 0 1-.39-.2.5.5 0 0 1 .09-.7 78.57 78.57 0 0 0 6-6.52.5.5 0 0 1 .7-.07.52.52 0 0 1 .07.71c-.19.22-4.5 5.42-6.12 6.67a.51.51 0 0 1-.35.11ZM401.71 135.1c-.1.78.72-2.56 5.9-2.7s10.9 1.77 13.84 4.66 12.91 11 12.38 24.6-6.92 11.84-7.76 15.3 2.77 4.33 2.77 4.33-1.88 4.39-11.8 3.27-7.35-12.05-6.35-13.64-.54-15.69-2.86-19.3a9.59 9.59 0 0 0-6-4.19s-9.27 10.48-10 17.4 1.23 8.1 1.08 11.39-4.6 6-8.45 5-4.16-2.64-4.16-2.64 4.85-1.77 3.93-3.87-6.38-8.22-5.13-16 4-14.18 11-18.2 10.18-4.14 10.18-4.14Z"
              style="fill:#263238"/>
        <path d="M420.11 185.24a27.52 27.52 0 0 1-3.13-.18c-3.35-.38-5.67-1.86-6.9-4.41-1.85-3.82-.5-8.91.18-10 .89-1.43-.61-15.28-2.85-18.75a9.23 9.23 0 0 0-5.36-3.92c-1.32 1.54-9 10.76-9.69 16.9a18.37 18.37 0 0 0 .56 7.88 10.56 10.56 0 0 1 .52 3.48 5.62 5.62 0 0 1-2.48 4.13 8 8 0 0 1-6.59 1.36c-4-1.07-4.49-2.84-4.53-3a.49.49 0 0 1 .32-.57c.84-.31 3.15-1.36 3.63-2.5a.82.82 0 0 0 0-.7 15.28 15.28 0 0 0-1-1.7c-1.81-2.87-5.19-8.2-4.16-14.59 1.47-9.2 4.95-14.92 11.28-18.55 6.14-3.53 9.41-4.1 10.22-4.19l1.23-1.17a.44.44 0 0 1 .16-.1c1.29-1.74 3.33-2.66 6.07-2.73 5.35-.15 11.17 1.83 14.2 4.8.24.24.52.51.85.81 3.64 3.43 12.17 11.48 11.68 24.17-.36 9.5-3.66 11.79-5.85 13.3-1 .69-1.7 1.18-1.92 2.1-.71 2.93 2.27 3.69 2.39 3.72a.46.46 0 0 1 .33.26.48.48 0 0 1 0 .42c-.05.14-1.68 3.73-9.16 3.73Zm-18.24-38.31h.13a10 10 0 0 1 6.3 4.41c2.3 3.56 4.05 17.92 2.86 19.83-.59.95-1.79 5.61-.13 9 1.07 2.21 3.13 3.51 6.11 3.84 7.4.84 10.14-1.48 11-2.51a4.56 4.56 0 0 1-2.11-1.71 3.8 3.8 0 0 1-.37-3c.31-1.29 1.24-1.94 2.32-2.69 2.14-1.49 5.08-3.52 5.42-12.52.47-12.23-7.83-20.06-11.37-23.4-.33-.31-.62-.58-.86-.82-2.85-2.8-8.39-4.67-13.48-4.52-2.48.07-4.29.89-5.38 2.46a.72.72 0 0 1-.45.35l-1.09 1a.45.45 0 0 1-.33.14s-3.2.2-9.95 4.08c-6 3.46-9.37 9-10.79 17.84-1 6 2.15 10.95 4 13.89a19.17 19.17 0 0 1 1.07 1.83 1.85 1.85 0 0 1 0 1.51c-.58 1.37-2.67 2.4-3.69 2.83.36.46 1.29 1.29 3.6 1.9a7 7 0 0 0 5.75-1.19 4.66 4.66 0 0 0 2.07-3.37 9.66 9.66 0 0 0-.5-3.11 19.49 19.49 0 0 1-.59-8.25c.75-7 9.74-17.25 10.13-17.68a.48.48 0 0 1 .33-.14Z"
              style="fill:#263238"/>
        <path d="M394.06 174.64s-.57 5.62-1.29 7.12-3.53 3.79-2.66 4.3 9.9-1.93 14.55-4.12 3.74-6.55 4-7.44-8.51 3.29-14.6.14Z"
              style="fill:#fff"/>
        <path d="M390.55 186.61a1.51 1.51 0 0 1-.7-.12.82.82 0 0 1-.39-.57c-.11-.63.45-1.32 1.45-2.49a10.93 10.93 0 0 0 1.41-1.89c.56-1.16 1.09-5.41 1.25-6.95a.49.49 0 0 1 .26-.39.47.47 0 0 1 .46 0c4.12 2.13 9.5.77 12.38 0 1.53-.38 2-.5 2.32-.17a.73.73 0 0 1 .14.57 3.55 3.55 0 0 0 0 .67c0 1.68-.13 5.16-4.21 7.09-3.64 1.73-11.75 4.25-14.37 4.25Zm-.07-1c1.37.1 9.33-2 14-4.15 3.52-1.67 3.6-4.63 3.64-6.21v-.36l-1.18.28c-2.67.68-8.08 2.05-12.44.19-.18 1.58-.66 5.34-1.26 6.59a11 11 0 0 1-1.55 2.1 10.45 10.45 0 0 0-1.21 1.59Z"
              style="fill:#263238"/>
        <path d="M403.69 142.5s6 8.3 8.4 12.05a113.55 113.55 0 0 1 5.48 10.09s-.44 3.52-1.86 4.26a7.48 7.48 0 0 1-3.39.63s-1.23 4.48-7.18 7.57c-5.06 2.62-8.77 2.33-12.2-.88s-5.3-12.58-3.61-18.59 9.06-12 10.22-12.75 4.14-2.38 4.14-2.38Z"
              style="fill:#fff"/>
        <path d="M399 179.37a9.17 9.17 0 0 1-6.43-2.78c-3.57-3.35-5.47-13-3.75-19.1s9-12.09 10.42-13c1.16-.78 4.06-2.35 4.18-2.41a.5.5 0 0 1 .64.14c.06.09 6 8.36 8.42 12.07s5.52 10.07 5.52 10.13a.54.54 0 0 1 .05.28c-.05.39-.53 3.8-2.13 4.65a7.56 7.56 0 0 1-3.27.69c-.44 1.18-2.16 4.84-7.3 7.5a13.89 13.89 0 0 1-6.35 1.83Zm4.51-36.22c-.84.46-2.84 1.56-3.72 2.15-1.24.84-8.4 6.72-10 12.46s.12 15 3.47 18.09 6.77 3.33 11.63.81c5.69-3 6.91-7.22 6.93-7.26a.51.51 0 0 1 .51-.37 6.89 6.89 0 0 0 3.12-.57c.83-.44 1.4-2.47 1.58-3.74a109.19 109.19 0 0 0-5.38-9.9c-2.09-3.26-6.94-10.04-8.11-11.67Z"
              style="fill:#263238"/>
        <path d="M400 166.24a1.8 1.8 0 0 1-1.24-.4 11.49 11.49 0 0 1-1.57-1.87.5.5 0 1 1 .83-.55 11.41 11.41 0 0 0 1.42 1.69c.38.35 1.88 0 2.81-.46a.5.5 0 0 1 .66.25.49.49 0 0 1-.25.66 7.33 7.33 0 0 1-2.66.68ZM400.46 170.11a6.93 6.93 0 0 1-1.48-.17 5.74 5.74 0 0 1-4.05-3.72.5.5 0 0 1 1-.29 4.68 4.68 0 0 0 3.31 3c2.51.56 3.57-.63 3.59-.65a.49.49 0 0 1 .7-.05.51.51 0 0 1 .05.71 4.08 4.08 0 0 1-3.12 1.17ZM409.87 162.18a.48.48 0 0 1-.37-.17 4.09 4.09 0 0 0-4.23-1 .5.5 0 1 1-.31-1 5 5 0 0 1 5.28 1.28.48.48 0 0 1 0 .7.46.46 0 0 1-.37.19ZM397.56 159a.49.49 0 0 1-.44-.26 3.67 3.67 0 0 0-4.33-1.7.5.5 0 1 1-.3-1 4.64 4.64 0 0 1 5.51 2.26.49.49 0 0 1-.21.67.46.46 0 0 1-.23.03ZM411.89 158.73a.49.49 0 0 1-.39-.2 6.74 6.74 0 0 0-6-2.34.5.5 0 0 1-.56-.43.5.5 0 0 1 .42-.56 7.78 7.78 0 0 1 6.9 2.72.5.5 0 0 1-.09.7.51.51 0 0 1-.28.11ZM399.58 154.52a.5.5 0 0 1-.32-.11c-.12-.1-3.06-2.5-5.38-.5a.5.5 0 0 1-.65-.76c2.37-2.05 5.4-.57 6.67.49a.5.5 0 0 1 .07.7.51.51 0 0 1-.39.18ZM414.51 164.52h-.13a.78.78 0 0 1-.62-.71 35.75 35.75 0 0 1 0-5.3.51.51 0 0 1 .4-.46.52.52 0 0 1 .55.27l1.9 3.82a.51.51 0 0 1 0 .49c-.86 1.25-1.55 1.89-2.1 1.89Zm.15-4a23.49 23.49 0 0 0 0 2.87 6.45 6.45 0 0 0 .86-1Z"
              style="fill:#263238"/>
        <path style="fill:#fff" d="m436.1 284.43-30.21 4.62-4.33-29.62 31.63-1.75 2.91 26.75z"/>
        <path d="M405.9 289.55a.51.51 0 0 1-.3-.09.5.5 0 0 1-.2-.33l-4.33-29.63a.54.54 0 0 1 .1-.39.47.47 0 0 1 .36-.18l31.64-1.75a.49.49 0 0 1 .52.44l2.9 26.76a.5.5 0 0 1-.42.55L406 289.55Zm-3.77-29.66 4.19 28.59 29.23-4.48-2.8-25.81Z"
              style="fill:#263238"/>
        <path style="fill:#fff" d="M405.89 289.05 399 259.82l2.56-.39 4.33 29.62z"/>
        <path d="M405.9 289.55a.49.49 0 0 1-.49-.38l-6.9-29.23a.56.56 0 0 1 .07-.4.48.48 0 0 1 .34-.21l2.56-.4a.56.56 0 0 1 .38.09.54.54 0 0 1 .2.33l4.33 29.65a.49.49 0 0 1-.4.56Zm-6.29-29.32 4.12 17.46-2.59-17.69Z"
              style="fill:#263238"/>
        <path d="m411.58 195.71 10.68 32s.3 6.15.22 11 2.28 13.21 2.61 19.17c.18 3.42.53 7.29 0 10.69-.4 2.53-2.81 4.43-4.46 6.51-1.78 2.24-1.61 5.17-3.3 7.32-.64.82.05 1.08 1.08 1.39s2.08-.81 2.08-.81a14.6 14.6 0 0 0-.86 2.58 14.32 14.32 0 0 1-1.09 2.92 10.81 10.81 0 0 0 2.76.88c1.24.16 2.34-1.5 2.34-1.5l1.77.23a3.48 3.48 0 0 0 1.5-.53 3.09 3.09 0 0 0 2.59-.57c1-.95 1.55-2.32 1.82-4.44s3.59-24.14 4.79-33.68-.66-18.93-1.23-22.95-1.79-11.36-3.67-26.32-5.64-17.94-5.64-17.94-3.61-4.05-8.5-3.77-8 6.35-8 6.35"
              style="fill:#adadad"/>
        <path d="M421.46 289.89h-.23a12 12 0 0 1-2.92-.93.5.5 0 0 1-.25-.3.48.48 0 0 1 0-.39 13.65 13.65 0 0 0 1-2.8c.11-.45.23-.86.34-1.21a2 2 0 0 1-1.21 0c-.68-.2-1.45-.43-1.64-1a1.23 1.23 0 0 1 .31-1.14 10.07 10.07 0 0 0 1.51-3.4 11.17 11.17 0 0 1 1.79-3.92c.44-.56.94-1.1 1.42-1.63 1.31-1.44 2.66-2.92 2.94-4.65a44.58 44.58 0 0 0 .08-9.18l-.08-1.4a80 80 0 0 0-1.34-9.35 59.41 59.41 0 0 1-1.27-9.85c.07-4.5-.19-10.2-.22-10.88l-10.65-32a.5.5 0 0 1 .95-.32l10.67 32v.13c0 .06.3 6.21.22 11a57.84 57.84 0 0 0 1.26 9.66 85.33 85.33 0 0 1 1.35 9.48l.08 1.39a44.76 44.76 0 0 1-.1 9.4c-.32 2-1.77 3.62-3.18 5.16-.47.52-1 1.05-1.38 1.58a10.24 10.24 0 0 0-1.51 3.66 10.88 10.88 0 0 1-1.68 3.73c-.14.17-.14.24-.14.24a4.13 4.13 0 0 0 1 .36c.6.19 1.35-.44 1.57-.67a.5.5 0 0 1 .64-.08.49.49 0 0 1 .17.63 14.77 14.77 0 0 0-.83 2.49 14.54 14.54 0 0 1-.89 2.55 9.34 9.34 0 0 0 2.14.64c.77.1 1.61-.89 1.87-1.28a.49.49 0 0 1 .48-.22l1.76.22a3.35 3.35 0 0 0 1.18-.46.56.56 0 0 1 .38-.06 2.58 2.58 0 0 0 2.13-.45c.9-.84 1.4-2.08 1.66-4.13.09-.68.48-3.35 1-7 1.18-8 2.95-20.14 3.77-26.64 1-8.24-.25-16.54-1-21-.1-.69-.2-1.3-.27-1.82-.14-1-.31-2.12-.53-3.53-.68-4.55-1.72-11.42-3.15-22.79-1.82-14.45-5.41-17.59-5.45-17.62s-3.6-3.92-8.16-3.66-7.53 6-7.56 6.08a.51.51 0 0 1-.68.22.5.5 0 0 1-.21-.67c.13-.26 3.29-6.33 8.4-6.63s8.74 3.76 8.9 3.94 3.87 3.22 5.75 18.21c1.43 11.36 2.47 18.23 3.15 22.77.21 1.41.39 2.57.53 3.54.07.51.17 1.12.27 1.81.71 4.5 2 12.89 1 21.27-.83 6.51-2.6 18.64-3.78 26.66-.54 3.69-.93 6.35-1 7-.29 2.31-.88 3.73-2 4.75a3.51 3.51 0 0 1-2.83.73 3.31 3.31 0 0 1-1.66.49l-1.48-.18a3.43 3.43 0 0 1-2.39 1.45Z"
              style="fill:#263238"/>
        <path d="M422.48 238.73c.08-4.83-.22-11-.22-11l-5.44-16.33 15.59-2.4c1.21 8.87 2 13.89 2.46 17 .57 4 2.44 13.41 1.23 22.95s-4.53 31.56-4.79 33.68-.8 3.49-1.82 4.44a3.09 3.09 0 0 1-2.59.57 3.48 3.48 0 0 1-1.5.53l-1.77-.23s-1.1 1.66-2.34 1.5a10.81 10.81 0 0 1-2.76-.88 14.32 14.32 0 0 0 1.09-2.92 14.6 14.6 0 0 1 .86-2.58s-1 1.12-2.08.81-1.72-.57-1.08-1.39c1.69-2.15 1.52-5.08 3.3-7.32 1.65-2.08 4.06-4 4.46-6.51.54-3.4.19-7.27 0-10.69-.32-6.02-2.67-14.39-2.6-19.23Z"
              style="fill:#fff"/>
        <path d="M421.46 289.89h-.23a12 12 0 0 1-2.92-.93.5.5 0 0 1-.25-.3.48.48 0 0 1 0-.39 13.65 13.65 0 0 0 1-2.8c.11-.45.23-.86.34-1.21a2 2 0 0 1-1.21 0c-.68-.2-1.45-.43-1.64-1a1.23 1.23 0 0 1 .31-1.14 10.07 10.07 0 0 0 1.51-3.4 11.17 11.17 0 0 1 1.79-3.92c.44-.56.94-1.1 1.42-1.63 1.31-1.44 2.66-2.92 2.94-4.65a44.58 44.58 0 0 0 .08-9.18l-.08-1.4a80 80 0 0 0-1.34-9.35 59.41 59.41 0 0 1-1.27-9.85c.07-4.5-.19-10.2-.22-10.88l-5.42-16.27a.52.52 0 0 1 .05-.42.5.5 0 0 1 .35-.23l15.6-2.45a.48.48 0 0 1 .37.09.5.5 0 0 1 .2.34c.83 6.09 1.47 10.34 1.94 13.45.21 1.4.38 2.55.52 3.51.07.51.17 1.12.27 1.81.71 4.5 2 12.89 1 21.27-.83 6.51-2.6 18.64-3.78 26.66-.54 3.69-.93 6.35-1 7-.29 2.31-.88 3.73-2 4.75a3.51 3.51 0 0 1-2.83.73 3.31 3.31 0 0 1-1.66.49l-1.48-.18a3.43 3.43 0 0 1-2.36 1.48Zm-2.25-1.64a9.34 9.34 0 0 0 2.14.64c.77.1 1.61-.89 1.87-1.28a.49.49 0 0 1 .48-.22l1.76.22a3.35 3.35 0 0 0 1.18-.46.56.56 0 0 1 .38-.06 2.58 2.58 0 0 0 2.13-.45c.9-.84 1.4-2.08 1.66-4.13.09-.68.48-3.35 1-7 1.18-8 2.95-20.14 3.77-26.64 1-8.24-.25-16.54-1-21-.1-.69-.2-1.3-.27-1.82-.14-1-.31-2.11-.52-3.5-.46-3-1.08-7.13-1.87-13l-14.51 2.27 5.25 15.78v.13c0 .06.3 6.21.22 11a57.84 57.84 0 0 0 1.26 9.66 85.33 85.33 0 0 1 1.35 9.48l.08 1.39a44.76 44.76 0 0 1-.1 9.4c-.32 2-1.77 3.62-3.18 5.16-.47.52-1 1.05-1.38 1.58a10.24 10.24 0 0 0-1.51 3.6 10.88 10.88 0 0 1-1.68 3.73c-.14.17-.14.24-.14.24a4.13 4.13 0 0 0 1 .36c.6.19 1.33-.42 1.57-.67a.49.49 0 0 1 .64-.07.48.48 0 0 1 .17.62 14.77 14.77 0 0 0-.83 2.49 14.54 14.54 0 0 1-.92 2.55Z"
              style="fill:#263238"/>
        <path d="M420.48 283.5a.48.48 0 0 1-.2 0 .5.5 0 0 1-.25-.66l1.5-3.4a.5.5 0 0 1 .66-.26.51.51 0 0 1 .26.66l-1.51 3.4a.5.5 0 0 1-.46.26Z"
              style="fill:#263238"/>
    </g>
    <g>
        <path d="M291.83 374.57s3.33 10.16 4.83 13.16 5.16 10.16 5.66 11.65 0 2.5-2.16 3a11.17 11.17 0 0 1-10-3.83c-3.17-3.66-5-8-6.16-9.32s-4.5-1.83-4-6.33a22.13 22.13 0 0 1 3.33-8.66Z"
              style="fill:#fff"/>
        <path d="M298.69 403a12 12 0 0 1-8.9-4.15 42.57 42.57 0 0 1-4.56-6.78 20 20 0 0 0-1.6-2.54 5.44 5.44 0 0 0-1.12-.86c-1.44-.93-3.4-2.21-3-5.86a22.38 22.38 0 0 1 3.42-8.88.55.55 0 0 1 .43-.22l8.49.33a.52.52 0 0 1 .46.35c0 .1 3.33 10.15 4.8 13.08l1 1.91c1.81 3.61 4.3 8.55 4.73 9.82a2.6 2.6 0 0 1-.06 2.17 3.52 3.52 0 0 1-2.47 1.47 7.26 7.26 0 0 1-1.62.16Zm-15.09-28.25a21.41 21.41 0 0 0-3.09 8.21c-.34 3 1.19 4 2.54 4.9a6 6 0 0 1 1.33 1 19.12 19.12 0 0 1 1.72 2.7 41.44 41.44 0 0 0 4.45 6.62c2.91 3.38 7.3 4.18 9.5 3.67a2.71 2.71 0 0 0 1.82-1 1.7 1.7 0 0 0 0-1.37c-.4-1.2-3-6.3-4.68-9.68l-1-1.91c-1.36-2.72-4.15-11.09-4.74-12.89Z"
              style="fill:#263238"/>
        <path d="M300.16 402.38c1.65-.38 2.33-1.05 2.34-2-3.75.29-9.69-1.5-11.83-4.64-2.5-3.66-4.83-8.32-7-9.82-1-.68-2.4-1.84-3.67-2.9-.43 4.4 2.85 4.9 4 6.23s3 5.66 6.16 9.32a11.17 11.17 0 0 0 10 3.81Z"
              style="fill:#fff"/>
        <path d="M298.69 403a12 12 0 0 1-8.9-4.15 42.57 42.57 0 0 1-4.56-6.78 20 20 0 0 0-1.6-2.54 5.44 5.44 0 0 0-1.12-.86c-1.42-.92-3.36-2.19-3-5.75a.46.46 0 0 1 .3-.41.47.47 0 0 1 .51.08c1.61 1.34 2.83 2.31 3.64 2.87 1.59 1.1 3.19 3.7 4.89 6.46.73 1.17 1.47 2.38 2.23 3.49 2 2.88 7.62 4.7 11.38 4.42a.51.51 0 0 1 .54.51c0 1.87-2.06 2.34-2.73 2.5a7.26 7.26 0 0 1-1.58.16Zm-18.22-19c.1 2.21 1.41 3.06 2.59 3.83a5.81 5.81 0 0 1 1.32 1 19.12 19.12 0 0 1 1.72 2.7 41.44 41.44 0 0 0 4.45 6.62c2.91 3.38 7.3 4.18 9.5 3.67 1.14-.26 1.63-.63 1.82-1-4 .11-9.52-1.81-11.62-4.89-.76-1.12-1.52-2.35-2.25-3.53-1.64-2.66-3.19-5.18-4.61-6.16-.7-.41-1.67-1.17-2.92-2.24ZM243.64 202.67l-3.72 30.51h-5.13s-4.42 41.21-3.72 41.45 51 11.64 51 11.64l4.89-51.7-42.38-2.32 3.73-30Z"
              style="fill:#263238"/>
        <path d="M282.06 286.77H282c-5.15-1.17-50.34-11.43-51-11.66-.54-.18-.82-.27 1.26-21.34 1-10.21 2.11-20.53 2.13-20.64a.49.49 0 0 1 .49-.44h4.68l3.68-30.07a.48.48 0 0 1 .44-.43l4.66-.47a.53.53 0 0 1 .41.15.51.51 0 0 1 .13.41l-3.66 29.51 41.85 2.3a.47.47 0 0 1 .35.17.5.5 0 0 1 .12.37l-4.89 51.7a.49.49 0 0 1-.2.35.47.47 0 0 1-.39.09Zm-50.57-12.55c3.22.78 33.45 7.65 50.13 11.44l4.79-50.66-41.86-2.3a.49.49 0 0 1-.36-.17.5.5 0 0 1-.11-.39l3.65-29.41-3.64.36-3.68 30.11a.5.5 0 0 1-.49.44h-4.68c-1.63 15.29-3.89 37.81-3.75 40.58Z"
              style="fill:#263238"/>
        <path d="M223.06 255.34s1.33-8.16.33-10.32-11.16-3.83-17.48-2.5-14.49 5.33-15 7.66 1.67 2.17 4.83 2.5 9.49.67 11.82 1.5a12.84 12.84 0 0 1 4.5 3.49s3.84-5.67 11-2.33Z"
              style="fill:#fff"/>
        <path d="M212.07 258.17a.5.5 0 0 1-.39-.18 12.28 12.28 0 0 0-4.28-3.34c-1.7-.61-5.71-1-8.94-1.22-1-.09-2-.17-2.76-.25l-1.18-.12c-1.85-.16-3.19-.28-3.83-1.14a2.18 2.18 0 0 1-.26-1.84c.57-2.67 9.07-6.72 15.37-8.05s16.88.26 18 2.78c1 2.24-.16 9.76-.3 10.61a.5.5 0 0 1-.26.37.52.52 0 0 1-.44 0c-6.68-3.11-10.22 1.94-10.37 2.16a.47.47 0 0 1-.39.21Zm-.91-15.64a25.74 25.74 0 0 0-5.16.47c-6.78 1.43-14.21 5.44-14.6 7.28a1.29 1.29 0 0 0 .08 1c.38.51 1.65.62 3.12.75l1.19.11 2.75.25c3.28.28 7.36.62 9.19 1.28a12.12 12.12 0 0 1 4.31 3.19 9 9 0 0 1 10.61-2.27c.39-2.59 1-7.88.28-9.4-.6-1.28-6.24-2.66-11.77-2.66Z"
              style="fill:#263238"/>
        <path d="M219.89 246.35c1.46.59 2.78 1 3.87 1.4a7.2 7.2 0 0 0-.37-2.73c-1-2.17-11.16-3.83-17.48-2.5s-14.49 5.33-15 7.66c-.22 1 .07 1.56.74 1.88a14.81 14.81 0 0 1 7.09-5.21c6.5-2.5 16.99-2.16 21.15-.5Z"
              style="fill:#fff"/>
        <path d="M191.65 252.56a.54.54 0 0 1-.21-.05 2 2 0 0 1-1-2.43c.57-2.67 9.07-6.72 15.37-8.05s16.88.26 18 2.78a7.74 7.74 0 0 1 .41 2.93.49.49 0 0 1-.65.48c-1.3-.42-2.62-.89-3.9-1.4-3.84-1.54-14.27-2-20.78.5a14.33 14.33 0 0 0-6.86 5 .52.52 0 0 1-.38.24Zm19.51-10a25.74 25.74 0 0 0-5.16.44c-6.78 1.43-14.21 5.44-14.6 7.28a1.2 1.2 0 0 0 .12 1.09 15.76 15.76 0 0 1 7-5c6.42-2.47 17-2.29 21.51-.49 1 .41 2.11.8 3.16 1.16a5 5 0 0 0-.3-1.82c-.56-1.31-6.2-2.69-11.73-2.69ZM243 250.18s-4.83 10.49-5.33 16.32-1.33 12.32-1.33 12.32l-2.5 12.33s-9.82-31-10.32-33.64a5.14 5.14 0 0 0-4.16-4.5c-2.17-.5-6.83-.16-7.66 1.5a3.12 3.12 0 0 0 .33 3.16s-.83.34-.17 2.34a11.89 11.89 0 0 0 2.5 3.83s6.16 33.13 8 40.63 13.16 21.15 14.82 19.81 27-40.46 27.48-40.79 4-5.67 4-5.67 3 24.48 5.66 34.31 5.49 21.81 5.49 21.81-2.83 7.66-2.5 13.82 6.33 25.31 6.33 25.31-1.16 1.67-1 2.34.5 1.66.5 1.66a12.41 12.41 0 0 0 2.33.33 10.49 10.49 0 0 0 4.33-1l2-.66a47.57 47.57 0 0 0 .5-5c0-1.66 3-38.8 3.17-42s4.49-28.31 2.66-40.8-4.5-26.14-4.5-26.14l.17-6.16-49.12-7.83Z"
              style="fill:#263238"/>
        <path d="M285.88 377.92h-.42a13.16 13.16 0 0 1-2.45-.36.48.48 0 0 1-.31-.31s-.34-1-.51-1.7.51-1.9.93-2.54c-.71-2.29-6-19.34-6.27-25.2s2.07-12.76 2.47-13.88c-.33-1.39-3-12.53-5.46-21.65-2.28-8.42-4.83-27.77-5.5-33a40.12 40.12 0 0 1-3.36 4.62c-.28.33-4.17 6.23-8.28 12.48-10.23 15.53-18.14 27.47-19.16 28.29a1.1 1.1 0 0 1-1.11.11c-3.19-1.09-12.81-13.22-14.51-20.19-1.75-7.17-7.52-38.09-8-40.51a11.92 11.92 0 0 1-2.51-3.92c-.47-1.41-.27-2.17 0-2.56a3.5 3.5 0 0 1-.14-3.31c1-2 6-2.29 8.22-1.77a5.69 5.69 0 0 1 4.54 4.9c.42 2.23 7.61 25 9.73 31.73l2.11-10.43s.83-6.51 1.32-12.26 5.18-16.06 5.38-16.49v-.08l1.67-2.33a.47.47 0 0 1 .49-.2l49.12 7.82a.5.5 0 0 1 .42.51l-.16 6.11c.18.95 2.73 14.15 4.48 26.11 1.46 9.89-.93 27.69-2.08 36.24-.31 2.32-.54 4-.57 4.66-.08 1.39-.71 9.46-1.37 18-.84 10.78-1.8 23-1.8 23.92a47.74 47.74 0 0 1-.5 5.07.5.5 0 0 1-.34.4l-2 .67a11.49 11.49 0 0 1-4.07 1.05Zm-2.32-1.27a19.13 19.13 0 0 0 2 .26 10.34 10.34 0 0 0 4.07-1l1.76-.59a43.32 43.32 0 0 0 .45-4.62c0-.95.92-12.67 1.8-24 .67-8.54 1.29-16.6 1.37-18 0-.69.26-2.39.58-4.73 1.14-8.51 3.52-26.21 2.09-36-1.81-12.33-4.47-26-4.5-26.12s0-.07 0-.11l.16-5.72-48.39-7.71-1.45 2c-.34.74-4.8 10.62-5.27 16.11-.49 5.77-1.33 12.28-1.33 12.35l-2.51 12.36a.5.5 0 0 1-1 .05c-.4-1.27-9.84-31-10.34-33.7a4.65 4.65 0 0 0-3.79-4.1c-2.13-.49-6.45-.07-7.1 1.23a2.65 2.65 0 0 0 .28 2.64.49.49 0 0 1-.21.77c-.07.06-.27.52.13 1.71a11.44 11.44 0 0 0 2.37 3.63.55.55 0 0 1 .14.26c.06.34 6.18 33.21 8 40.61s12.41 19.84 14.06 19.52c1-.79 11.76-17.19 18.91-28 7.63-11.57 8.34-12.61 8.56-12.76s2.22-3 3.86-5.52a.48.48 0 0 1 .53-.21.49.49 0 0 1 .38.42c0 .25 3 24.56 5.65 34.24s5.47 21.71 5.5 21.83a.45.45 0 0 1 0 .28c0 .08-2.79 7.64-2.47 13.63s6.25 25 6.31 25.18a.49.49 0 0 1-.07.44 4.76 4.76 0 0 0-.92 1.93c.1.51.28 1.1.39 1.44Z"
              style="fill:#263238"/>
        <path d="M233.72 292.64a133.27 133.27 0 0 0-3 18.65" style="fill:#fff"/>
        <path d="M230.72 311.79a.49.49 0 0 1-.47-.53 134.34 134.34 0 0 1 3-18.73.5.5 0 1 1 1 .23 134.5 134.5 0 0 0-3 18.57.5.5 0 0 1-.53.46Z"
              style="fill:#263238"/>
        <path d="M255.86 170.08s-9.65 10.33-13.32 13.83-27.14 34-27.47 34.8-.67 9.49 6.49 7.66 23.15-17.15 23.15-17.15 8.82 4.49 10.65 7.16a8.56 8.56 0 0 1 .84 7.66c-.67 2.16-12.66 23.31-13.16 26.14 0 0 5 9.83 23.48 10.33s26.81-3.33 27.31-4.83a18.2 18.2 0 0 0 .5-4.33s.83-22.48.33-31.48.34-16.65-2.16-30.47-2.83-16-2.83-16 9.16-17.65 16.15-31.3 8.49-21.32 6.66-23.65-8.66-3-13.15 4-10.33 21.32-12.66 24.49a52.29 52.29 0 0 1-11.16 10.49c-4 2.66-9.49 5.49-9.49 5.49s-8.66 3.83-10.16 7.16Z"
              style="fill:#fff"/>
        <path d="M269.72 261.05h-3.21c-18.57-.51-23.7-10.19-23.91-10.6a.51.51 0 0 1 0-.32c.31-1.74 4.52-9.65 8.25-16.62 2.39-4.49 4.66-8.74 4.92-9.58.87-2.84.62-5.21-.77-7.23-1.55-2.25-8.58-6-10.16-6.84-2.16 2.06-16.32 15.3-23.11 17-2.4.62-4.28.19-5.56-1.28-2-2.26-1.8-6.35-1.52-7 .44-1.09 24.11-31.65 27.6-35s12.46-12.9 13.24-13.74c1.65-3.44 10-7.18 10.38-7.33 0 0 5.49-2.84 9.42-5.46a51.47 51.47 0 0 0 11-10.37 86 86 0 0 0 4.87-9.47 153.24 153.24 0 0 1 7.77-15c2.27-3.55 5.54-5.67 9-5.83a6 6 0 0 1 5 1.79c2.23 2.83-.18 11.65-6.61 24.19-6.57 12.84-15.17 29.43-16.07 31.16.11.7.67 4 2.8 15.81a123.94 123.94 0 0 1 2 22.94c0 2.58.07 5 .21 7.6.5 8.91-.32 31.29-.33 31.52a18.33 18.33 0 0 1-.53 4.46c-.72 1.85-8.77 5.2-24.68 5.2Zm-26.15-11c.73 1.22 6.28 9.45 23 9.91 18.55.51 26.48-3.44 26.83-4.49a18.21 18.21 0 0 0 .47-4.17c0-.25.83-22.58.33-31.45-.14-2.6-.17-5.05-.21-7.64a123.49 123.49 0 0 0-1.99-22.72c-2.47-13.67-2.83-16-2.84-16a.57.57 0 0 1 .05-.31c.1-.17 9.24-17.8 16.16-31.3 7.23-14.13 8.21-21.2 6.71-23.11a5.11 5.11 0 0 0-4.17-1.41c-3.09.14-6.07 2.1-8.17 5.37A152 152 0 0 0 292 137.6c-2.08 4.37-3.87 8.15-5 9.63a52.48 52.48 0 0 1-11.28 10.61c-4 2.65-9.48 5.5-9.54 5.53s-8.53 3.8-9.93 6.92a.42.42 0 0 1-.09.14c-.1.1-9.71 10.37-13.34 13.84s-26.73 33.45-27.37 34.65c-.13.36-.4 4.05 1.38 6 1 1.13 2.54 1.44 4.54.93 6.95-1.77 22.76-16.87 22.92-17a.5.5 0 0 1 .57-.09c.37.19 9 4.59 10.85 7.32a9 9 0 0 1 .89 8.09c-.27.89-2.07 4.29-5 9.76-3.32 6.37-7.52 14.24-8.03 16.17Zm12.29-80Z"
              style="fill:#263238"/>
        <path d="M293.83 255.68a18.2 18.2 0 0 0 .5-4.33s.83-22.48.33-31.48.34-16.65-2.16-30.47-2.83-16-2.83-16 4.14-8 9-17.38l-9.55-13.49a35.33 35.33 0 0 1-2.44 4.4 52.29 52.29 0 0 1-11.16 10.49c-4 2.66-9.49 5.49-9.49 5.49s-8.66 3.83-10.16 7.16c0 0-9.65 10.33-13.32 13.83-2.29 2.18-12.3 14.89-19.58 24.32l15.94 6.25c3.38-2.94 5.81-5.26 5.81-5.26s8.82 4.49 10.65 7.16a8.56 8.56 0 0 1 .84 7.66c-.67 2.16-12.66 23.31-13.16 26.14 0 0 5 9.83 23.48 10.33s26.8-3.32 27.3-4.82Z"
              style="fill:#566bb1"/>
        <path d="M269.72 261.05h-3.21c-18.57-.51-23.7-10.19-23.91-10.6a.51.51 0 0 1 0-.32c.31-1.74 4.52-9.65 8.25-16.62 2.39-4.49 4.66-8.74 4.92-9.58.87-2.84.62-5.21-.77-7.23-1.55-2.25-8.58-6-10.16-6.84-.71.68-2.84 2.67-5.56 5a.5.5 0 0 1-.51.09l-15.95-6.25a.54.54 0 0 1-.3-.34.48.48 0 0 1 .09-.43c6.13-8 17.17-22 19.64-24.39 3.47-3.31 12.46-12.9 13.24-13.74 1.65-3.44 10-7.18 10.38-7.33 0 0 5.49-2.84 9.42-5.46a51.47 51.47 0 0 0 11-10.37 33.31 33.31 0 0 0 2.39-4.32.51.51 0 0 1 .41-.28.53.53 0 0 1 .45.21l9.55 13.49a.51.51 0 0 1 0 .52c-4.46 8.65-8.33 16.11-8.91 17.24.11.7.67 4 2.8 15.81a123.94 123.94 0 0 1 2 22.94c0 2.58.07 5 .21 7.6.5 8.91-.32 31.29-.33 31.52a18.33 18.33 0 0 1-.53 4.46c-.65 1.87-8.7 5.22-24.61 5.22Zm-26.15-11c.73 1.22 6.28 9.45 23 9.91 18.54.5 26.48-3.44 26.83-4.49a18.21 18.21 0 0 0 .47-4.17c0-.25.83-22.58.33-31.45-.14-2.6-.17-5.05-.21-7.64a123.49 123.49 0 0 0-1.99-22.72c-2.47-13.67-2.83-16-2.84-16a.57.57 0 0 1 .05-.31s4.07-7.84 8.85-17.11l-8.89-12.56a28.22 28.22 0 0 1-2.11 3.72 52.48 52.48 0 0 1-11.28 10.61c-4 2.65-9.48 5.5-9.54 5.53s-8.53 3.8-9.93 6.92a.42.42 0 0 1-.09.14c-.1.1-9.71 10.37-13.34 13.84-2.09 2-11 13.26-19.13 23.74l15 5.89c3.22-2.8 5.54-5 5.56-5a.5.5 0 0 1 .57-.09c.37.19 9 4.59 10.85 7.32a9 9 0 0 1 .89 8.09c-.27.89-2.07 4.29-5 9.76-3.34 6.32-7.54 14.19-8.05 16.12Zm50.26 5.58Z"
              style="fill:#263238"/>
        <path d="M244.71 209.72a.51.51 0 0 1-.44-.26.48.48 0 0 1 .13-.63l7.32-5.83a.5.5 0 0 1 .62.78l-5 4 9.22-3.2a.5.5 0 1 1 .33.95l-12 4.16a.45.45 0 0 1-.18.03ZM289.67 173.91a.5.5 0 0 1-.48-.48l-.5-14.15a.5.5 0 0 1 .48-.52.51.51 0 0 1 .52.48l.26 7.46 1.24-10.83a.5.5 0 1 1 1 .12l-2 17.48a.49.49 0 0 1-.52.44Z"
              style="fill:#263238"/>
        <path d="M313 123.94s.78-3.76-.48-5.48-5.33-2.21-10.35-.17-30.3 14.29-32.66 16.64-8.16 10.21-8.16 10.21l9.73 8.32a33.9 33.9 0 0 0 2.51-5.81c.63-2.36-.47-9-.47-9s16.8-6.12 21.2-6.12 13.5-3.77 15.38-5.65"
              style="fill:#fff"/>
        <path d="M271 154a.53.53 0 0 1-.32-.12l-9.68-8.36a.5.5 0 0 1-.08-.68c.24-.32 5.86-7.91 8.21-10.26 2.51-2.51 28.14-14.85 32.82-16.75 5.4-2.2 9.6-1.49 10.94.34s.6 5.71.57 5.88a.5.5 0 0 1-1-.21c.2-1 .53-3.83-.39-5.08-1.09-1.48-4.89-2-9.77 0-5.34 2.17-30.23 14.27-32.48 16.53-2 2-6.66 8.18-7.84 9.77l8.9 7.61a30.53 30.53 0 0 0 2.18-5.15c.59-2.22-.47-8.67-.48-8.74a.5.5 0 0 1 .32-.55c.69-.25 16.93-6.15 21.37-6.15 4.28 0 13.21-3.69 15-5.51a.5.5 0 0 1 .7 0 .5.5 0 0 1 0 .71c-2 2-11.16 5.8-15.73 5.8-3.9 0-18.1 5-20.64 5.95.24 1.5 1 6.64.4 8.75a34.84 34.84 0 0 1-2.56 5.92.51.51 0 0 1-.35.25Z"
              style="fill:#263238"/>
        <path d="M250.36 168.11s4.27 4.13 5.27 5.83a11.1 11.1 0 0 0 11.82 4.13c6.12-1.71 3.27-10.25 2.84-10.67s-6.83 3.27-10.82 2.7a88.85 88.85 0 0 1-9.11-1.99Z"
              style="fill:#fff"/>
        <path d="M264.52 179a11.68 11.68 0 0 1-9.32-4.78c-.95-1.63-5.14-5.69-5.18-5.73a.5.5 0 0 1 .48-.85 84 84 0 0 0 9.05 2c2.48.36 6.14-1.11 8.33-2 1.83-.74 2.39-1 2.77-.58a11.54 11.54 0 0 1 .9 7.48 5.41 5.41 0 0 1-4 4 11.28 11.28 0 0 1-3.03.46ZM252 169.06a33.77 33.77 0 0 1 4 4.63 10.69 10.69 0 0 0 11.25 3.9 4.38 4.38 0 0 0 3.12-2.82c.94-2.59-.06-6-.43-6.88-.36.1-1.09.39-1.75.65-2.43 1-6.1 2.45-8.85 2.06-2.45-.36-5.44-1.07-7.34-1.54Z"
              style="fill:#263238"/>
        <path d="M237.69 141.48s-2.42 7.55-5 9.26-12.39-4.27-21.07-1.85-10.68 11-10.39 13.24a8.76 8.76 0 0 0 1.14 3.56 11.78 11.78 0 0 1 1.85-5.56 12.47 12.47 0 0 1 4.69-3.7s-7.54 10.11-2.27 16.94a13.91 13.91 0 0 0 12.52 5.56c-.42 0-2.84-1.85-2.42-3.7s3.42-4.13 3.42-4.13-1.85 6 .71 7.83 12 6.26 19.36 3.84 13.39-13 11.82-16.51-7.69-13-5.55-16.38a14.27 14.27 0 0 0 2.28-6.12s-1.85-3.7-5.41-4.13a7 7 0 0 0-5.68 1.85Z"
              style="fill:#263238"/>
        <path d="M235.53 184a29.64 29.64 0 0 1-14.93-4.64c-2-1.42-1.66-4.84-1.27-6.84a7.2 7.2 0 0 0-2.08 2.85c-.33 1.41 1.56 3 2 3.09a.45.45 0 0 1 .44.39.5.5 0 0 1-.28.56c-.54.26-8 .93-13.15-5.7-4.16-5.4-.81-12.56 1.14-15.82a10.6 10.6 0 0 0-2.76 2.56 11.5 11.5 0 0 0-1.76 5.29.49.49 0 0 1-.36.46.5.5 0 0 1-.52-.2 9.24 9.24 0 0 1-1.22-3.77c-.29-2.3 1.59-11.23 10.76-13.78 5.2-1.46 10.85.05 15 1.15 2.72.72 5.06 1.35 5.94.76 2-1.32 4.13-6.94 4.79-9a.52.52 0 0 1 .11-.19 7.48 7.48 0 0 1 6.12-2c3.78.45 5.71 4.24 5.79 4.4a.54.54 0 0 1 .06.25 14.74 14.74 0 0 1-2.36 6.36c-1.5 2.41 1.8 8.64 4 12.76.67 1.25 1.24 2.34 1.6 3.15.59 1.33.29 3.47-.85 6-1.89 4.23-6.22 9.52-11.27 11.18a15.77 15.77 0 0 1-4.94.73Zm-15.35-13.4a.52.52 0 0 1 .29.09.49.49 0 0 1 .19.55c-.49 1.57-1.33 5.94.53 7.28 2.53 1.83 11.72 6.12 18.91 3.78 4.76-1.56 8.87-6.61 10.67-10.64 1-2.21 1.3-4.16.84-5.2-.34-.78-.91-1.85-1.56-3.08-2.44-4.59-5.77-10.86-4-13.76a14.22 14.22 0 0 0 2.19-5.75c-.34-.61-2.06-3.39-4.95-3.74a6.49 6.49 0 0 0-5.2 1.62c-.33 1-2.62 7.72-5.14 9.4-1.26.84-3.56.22-6.76-.63-4.24-1.12-9.51-2.53-14.46-1.15-8.42 2.35-10.28 10.67-10 12.7a10.16 10.16 0 0 0 .4 1.82 11.14 11.14 0 0 1 1.69-4 13 13 0 0 1 4.91-3.88.5.5 0 0 1 .6.76c-.08.1-7.26 9.89-2.29 16.34a13.65 13.65 0 0 0 10.62 5.44 7.76 7.76 0 0 1-.56-.61 3.28 3.28 0 0 1-.83-2.79c.46-2 3.47-4.31 3.6-4.41a.47.47 0 0 1 .31-.14Z"
              style="fill:#263238"/>
        <ellipse cx="268.16" cy="152.95" rx="2.92" ry="6.55" transform="rotate(-30.59 268.162 152.94)"
                 style="fill:#fff"/>
        <path d="M270.73 159.28c-1.66 0-3.84-1.76-5.52-4.59a12.29 12.29 0 0 1-1.68-4.62c-.18-1.56.19-2.69 1-3.19 1.68-1 4.49.86 6.54 4.32s2.32 6.82.64 7.81a2 2 0 0 1-.98.27Zm-4.66-5.1c1.82 3.07 4.18 4.56 5.17 4s.82-3.37-1-6.44-4.17-4.55-5.16-4c-.48.28-.69 1.09-.56 2.21a11.36 11.36 0 0 0 1.55 4.23Z"
              style="fill:#263238"/>
        <path d="M245.81 142.62S240.4 149 241 152s2.13 2.56 2.13 4-.28 3.7-.28 3.7 7.54 8 9.54 10 14.09 5 17.51 2.42.42-14-.86-17.08-5.83-10-7.26-11.82-14.12-4.16-15.97-.6Z"
              style="fill:#fff"/>
        <path d="M265.39 173.58c-5.05 0-11.81-2-13.39-3.55-2-2-9.47-9.9-9.55-10a.5.5 0 0 1-.13-.4s.28-2.27.28-3.64c0-.38-.13-.52-.51-.87a4.77 4.77 0 0 1-1.61-3c-.59-3.08 4.2-8.92 4.91-9.77.62-1.13 2.14-1.81 4.5-2 4.32-.38 11.08 1 12.26 2.57 1.3 1.69 6 8.61 7.33 11.93 1.25 3.07 4.49 14.82.69 17.67a8.28 8.28 0 0 1-4.78 1.06Zm-22-14.05c1.11 1.17 7.57 8 9.37 9.79 1.95 2 13.71 4.73 16.86 2.37s.28-13.31-1-16.49c-1.23-3-5.71-9.77-7.19-11.7-.81-1.05-7-2.58-11.39-2.19-2 .18-3.29.71-3.72 1.54l-.06.1c-1.46 1.73-5.16 6.72-4.73 9a3.83 3.83 0 0 0 1.31 2.48 2 2 0 0 1 .83 1.6c-.07 1.16-.26 2.88-.33 3.5Zm2.47-16.91Z"
              style="fill:#263238"/>
        <path d="M249.94 157.64a.47.47 0 0 1-.17 0 .51.51 0 0 1-.31-.64 5.45 5.45 0 0 1 3.64-3.31.5.5 0 1 1 .22 1 4.49 4.49 0 0 0-2.91 2.67.5.5 0 0 1-.47.28ZM247.23 155.79a.5.5 0 0 1-.48-.51 5.89 5.89 0 0 1 4.07-5.45.5.5 0 0 1 .27 1 4.83 4.83 0 0 0-3.34 4.52.5.5 0 0 1-.52.44ZM262.18 157.5a.49.49 0 0 1-.37-.16.5.5 0 0 1 0-.71c1.1-1 .63-1.78.63-1.78a.49.49 0 0 1 .16-.69.48.48 0 0 1 .68.16 2.4 2.4 0 0 1-.8 3.05.46.46 0 0 1-.3.13ZM261.62 165.35c-2.42 0-5.67-2.93-6-3.28a.5.5 0 0 1 .52-.83c3.71 1.45 8.91-1.51 9-1.54a.48.48 0 0 1 .55 0 .5.5 0 0 1 .19.52c-.13.48-1.3 4.75-3.84 5.07Zm-3.77-2.73c1.27.92 2.89 1.85 4 1.72s2.12-1.88 2.63-3.21a14.58 14.58 0 0 1-6.63 1.49ZM261.32 150.81a.48.48 0 0 1-.33-.13.5.5 0 0 1 0-.7 4.25 4.25 0 0 1 3.89-1.16.5.5 0 0 1 .39.59.51.51 0 0 1-.59.4 3.23 3.23 0 0 0-2.95.84.51.51 0 0 1-.41.16ZM258.19 147.68a.49.49 0 0 1-.35-.15.49.49 0 0 1 0-.7 5.2 5.2 0 0 1 5.67-.83.51.51 0 0 1 .27.66.5.5 0 0 1-.65.27 4.24 4.24 0 0 0-4.58.6.51.51 0 0 1-.36.15Z"
              style="fill:#263238"/>
        <path d="M242.39 145.76s4.41-4.13 10-2.14 10 3.13 11.95 1.42 1.71-5.26.72-5-1.28.86-2.14-.43-5.41-5-12.81-5.41-12.53 3.56-12.39 7.26 2.56 4.28 2.56 4.28"
              style="fill:#263238"/>
        <path d="M261.5 146.37c-2.35 0-5.52-.92-9.31-2.28-5.19-1.86-9.42 2-9.46 2a.49.49 0 0 1-.7 0 .5.5 0 0 1 0-.71c.19-.18 4.7-4.31 10.47-2.24 4.85 1.74 9.59 3.13 11.47 1.51a4.21 4.21 0 0 0 1.31-3.16 1.81 1.81 0 0 0-.23-1 2 2 0 0 1-.41.21c-.76.31-1.35.43-2.19-.82s-5.31-4.78-12.42-5.19c-4.12-.23-7.92.94-10.17 3.15a5 5 0 0 0-1.69 3.6c.13 3.24 2.1 3.78 2.18 3.8a.51.51 0 0 1 .37.6.49.49 0 0 1-.6.37c-.11 0-2.79-.7-2.95-4.74a5.94 5.94 0 0 1 2-4.35c2.45-2.4 6.53-3.68 10.93-3.42 7.35.42 12.14 4 13.2 5.63.44.66.47.65 1 .44a5.87 5.87 0 0 1 .61-.22 1 1 0 0 1 1.11.55 5 5 0 0 1-1.36 5.29 4.68 4.68 0 0 1-3.16.98Z"
              style="fill:#263238"/>
        <path d="M239.08 163.05a77.11 77.11 0 0 1-4.52-11.6c-1.71-6 3-11.39 3-11.39s-1.28 3.56.57 10a75.77 75.77 0 0 0 5.4 12.94Z"
              style="fill:#fff"/>
        <path d="M239.08 163.55a.51.51 0 0 1-.45-.28 77.66 77.66 0 0 1-4.55-11.68c-1.76-6.17 2.89-11.63 3.09-11.86a.5.5 0 0 1 .63-.1.5.5 0 0 1 .22.6s-1.2 3.51.58 9.66a74.57 74.57 0 0 0 5.4 12.85.5.5 0 0 1 0 .49.48.48 0 0 1-.42.25l-4.45.07Zm-2.42-21.33c-1.19 2-2.65 5.47-1.62 9.09a76.36 76.36 0 0 0 4.35 11.23h3.32a75 75 0 0 1-5.07-12.32 22.62 22.62 0 0 1-.98-8Z"
              style="fill:#263238"/>
        <path d="M237.14 161s-5.19 8.16-5.34 10.83l-.47 8.32s-11.93 23.71-15.54 32-1.26 13.18 1.88 14.28 9-2.2 10.2-4.86 8.95-38.78 9.27-39.56 5.18-2.2 5.65-3.3a34.66 34.66 0 0 1 3.76-5c.48-.47-.94-1.26-2.35-.79s-1.88.94-2.51 1.1-.74-3.22-.74-3.22-.36-8.87-.83-11.06-2.98 1.26-2.98 1.26Z"
              style="fill:#fff"/>
        <path d="M219.08 227.17a4.72 4.72 0 0 1-1.58-.25 5.74 5.74 0 0 1-3.29-3.25c-1.28-2.93-.89-7.08 1.12-11.7 3.46-8 14.68-30.32 15.5-32 0-.78.32-5.76.47-8.22.16-2.76 5.2-10.73 5.41-11.07.42-.57 1.85-2.41 3-2.17.32.06.74.31.91 1.1.47 2.21.83 10.79.84 11.15a12.2 12.2 0 0 0 .34 2.68 3.86 3.86 0 0 0 .5-.25 10.63 10.63 0 0 1 1.75-.76 2.73 2.73 0 0 1 3 .62.79.79 0 0 1-.11 1 35.48 35.48 0 0 0-3.66 4.87c-.31.72-1.52 1.3-3.46 2.16a10.88 10.88 0 0 0-2.21 1.15c-.09.29-1 4.32-2 9-3.22 14.52-6.43 28.84-7.24 30.58-1.26 2.58-5.89 5.36-9.29 5.36Zm18.47-65.9c-1.43 2.25-5.13 8.5-5.25 10.58-.16 2.67-.47 8.32-.47 8.32a.66.66 0 0 1-.06.2c-.12.23-12 23.78-15.53 32-1.89 4.36-2.29 8.23-1.12 10.9a4.8 4.8 0 0 0 2.71 2.71c2.81 1 8.37-2 9.59-4.61.84-1.78 4.8-19.67 7.17-30.36 1.46-6.58 2-8.91 2.08-9.17.21-.52 1.08-.93 2.71-1.66 1-.46 2.77-1.23 3-1.65a34.16 34.16 0 0 1 3.73-5 2.16 2.16 0 0 0-1.7-.1 9.7 9.7 0 0 0-1.6.7 4.62 4.62 0 0 1-.95.41.72.72 0 0 1-.58-.13c-.56-.42-.73-2.17-.78-3.56 0-.08-.36-8.85-.82-11-.06-.28-.14-.34-.14-.34-.29-.07-1.22.71-1.99 1.76Zm-6.22 18.87Z"
              style="fill:#263238"/>
        <path d="M247 164c2.71 2.4 3.55 5.87 1.88 7.75s-5.22 1.46-7.93-.94-3.54-5.87-1.87-7.75 5.22-1.47 7.92.94Z"
              style="fill:#fff"/>
        <path d="M246 173.41a8.32 8.32 0 0 1-5.35-2.23 8.73 8.73 0 0 1-2.73-4.33 4.16 4.16 0 0 1 4.82-5.43 8.68 8.68 0 0 1 4.62 2.19c2.91 2.58 3.77 6.38 1.92 8.46a4.27 4.27 0 0 1-3.28 1.34Zm-4-11a3.28 3.28 0 0 0-2.53 1 3.53 3.53 0 0 0-.59 3.23 7.6 7.6 0 0 0 2.43 3.82c2.49 2.21 5.73 2.65 7.21 1s.66-4.83-1.83-7a7.63 7.63 0 0 0-4.08-2 4.26 4.26 0 0 0-.61-.09Z"
              style="fill:#263238"/>
        <path d="M245.46 166.26c2 1.83 2.69 4.46 1.42 5.89s-4 1.11-6-.71-2.69-4.46-1.42-5.89 3.95-1.11 6 .71Z"
              style="fill:#fff"/>
        <path d="M244.68 173.54h-.57a7.11 7.11 0 0 1-5.68-5 3.27 3.27 0 0 1 3.79-4.27 6.73 6.73 0 0 1 3.57 1.7c2.26 2 2.91 5 1.47 6.59a3.37 3.37 0 0 1-2.58.98Zm-3-8.38a2.38 2.38 0 0 0-1.83.72 2.55 2.55 0 0 0-.42 2.35 6.09 6.09 0 0 0 4.83 4.28 2.54 2.54 0 0 0 2.28-.69c1.08-1.22.46-3.55-1.38-5.18a5.66 5.66 0 0 0-3-1.45ZM279.84 183.41a.5.5 0 0 1-.48-.38 80.69 80.69 0 0 0-6.78-16.7.5.5 0 0 1 .19-.68.5.5 0 0 1 .68.19 82.09 82.09 0 0 1 6.88 16.94.51.51 0 0 1-.36.61ZM279.18 174.08a.51.51 0 0 1-.47-.31c-1.78-4.39-6.22-10.49-6.27-10.55a.5.5 0 1 1 .81-.59c.19.25 4.56 6.26 6.39 10.76a.5.5 0 0 1-.27.65.46.46 0 0 1-.19.04ZM246.54 179.91s32.3 30.47 47.79 57.12v-8.66L266 192.56a221.37 221.37 0 0 0-15.49-17Z"
              style="fill:#263238"/>
        <path d="M294.33 237.53a.52.52 0 0 1-.43-.25c-15.28-26.28-47.38-56.7-47.71-57a.5.5 0 0 1 0-.7l4-4.33a.5.5 0 0 1 .71 0 221.27 221.27 0 0 1 15.53 17l28.31 35.81a.49.49 0 0 1 .11.31V237a.5.5 0 0 1-.37.48Zm-47.09-57.64c3.51 3.36 31.82 30.8 46.59 55.31v-6.66c-1.66-2.1-22.13-28-28.2-35.66a218.81 218.81 0 0 0-15.08-16.58Z"
              style="fill:#263238"/>
        <path d="M233.21 172s1.1-3.92 1.73-4.4 6-6.59 6.28-4.39-1.1 3.3-1.89 4.08-2.67 2.83-2.67 2.83a28.66 28.66 0 0 1-.31 3.61 25.21 25.21 0 0 1-1.73 5.33"
              style="fill:#fff"/>
        <path d="M234.62 179.54a.45.45 0 0 1-.2 0 .49.49 0 0 1-.25-.66 25.27 25.27 0 0 0 1.69-5.2 28 28 0 0 0 .3-3.54.48.48 0 0 1 .14-.34c.07-.09 1.9-2.06 2.68-2.84l.25-.24a3.72 3.72 0 0 0 1.49-3.42c-.43-.11-2 1.18-4.51 3.78a12.08 12.08 0 0 1-1 .94 17.68 17.68 0 0 0-1.55 4.13.5.5 0 0 1-1-.26c.34-1.23 1.22-4.15 1.91-4.67.1-.07.48-.46.85-.84 2.83-2.9 4.57-4.41 5.58-4.08a1 1 0 0 1 .64.86 4.65 4.65 0 0 1-1.79 4.28l-.23.22c-.65.65-2.09 2.2-2.53 2.68a30.29 30.29 0 0 1-.31 3.48 25.45 25.45 0 0 1-1.77 5.47.51.51 0 0 1-.39.25Z"
              style="fill:#263238"/>
    </g>
    <g>
        <path d="M81.12 227.54s-4.83 41.27-2 45.1 12.48-.4 16.71-3 9.87-5.64 9.87-5.64l2.22-5.81s-5.44-47.35-5.64-48.55-19.13 7-20.54 8.86-.62 9.04-.62 9.04Z"
              style="fill:#263238"/>
        <path d="M82.92 274.67a4.92 4.92 0 0 1-4.21-1.73c-2.84-3.86 1.38-40.9 1.91-45.41-.11-1-.75-7.49.71-9.36s19.12-9.6 20.94-9.14a.63.63 0 0 1 .49.5c.2 1.21 5.43 46.65 5.65 48.59a.45.45 0 0 1 0 .23l-2.22 5.81a.53.53 0 0 1-.23.26c-.06 0-5.68 3.05-9.84 5.62-2.52 1.55-8.7 4.63-13.2 4.63ZM101.81 210c-2.52.22-18.55 7.32-19.69 8.78s-.72 6.74-.5 8.7a.2.2 0 0 1 0 .11c-1.93 16.52-4.09 42.06-2.11 44.75 2.57 3.49 12.1-.7 16-3.15 3.79-2.34 8.77-5 9.73-5.56l2.11-5.52c-.24-2.58-5.01-44.04-5.54-48.11Z"
              style="fill:#263238"/>
        <path d="M59.18 354.59a88.51 88.51 0 0 0-5.84 9.87 96.18 96.18 0 0 0-3.83 11.47c-.6 2.22-1 2.62-3 .2s-4.43-7.85-3.22-16.71 6-18.32 7-17.92 9.71 5.84 9.71 5.84Z"
              style="fill:#fff"/>
        <path d="M48.44 378.28c-.67 0-1.38-.68-2.33-1.82-1.14-1.38-4.76-6.66-3.34-17.1 1.13-8.25 5.42-17.29 7-18.24a.72.72 0 0 1 .68-.08c1 .41 8.86 5.32 9.75 5.88a.51.51 0 0 1 .23.48l-.81 7.25a.45.45 0 0 1-.08.22 89.08 89.08 0 0 0-5.79 9.79A96.78 96.78 0 0 0 50 376.07c-.31 1.14-.6 2-1.34 2.19ZM50.25 342c-1.17.82-5.37 9.31-6.48 17.47-1.37 10 2 15 3.11 16.32s1.48 1.48 1.57 1.47.27-.34.58-1.48a98.83 98.83 0 0 1 3.85-11.55 88.26 88.26 0 0 1 5.81-9.84l.76-6.81c-3.31-2.06-8.16-5.05-9.2-5.58Zm8.93 12.57Z"
              style="fill:#263238"/>
        <path d="M51.33 342.05c-.48-.28-.85-.48-1-.55-1-.4-5.84 9.06-7 17.92s1.21 14.3 3.22 16.71c1.07 1.29 1.69 1.77 2.12 1.61-1.25-3.08-3.63-10.11-2.72-16.91s3.91-15.08 5.38-18.78Z"
              style="fill:#fff"/>
        <path d="M48.44 378.27c-.67 0-1.39-.68-2.33-1.81-1.14-1.38-4.76-6.66-3.34-17.1 1.13-8.25 5.42-17.29 7-18.24a.72.72 0 0 1 .68-.08 8.55 8.55 0 0 1 1.08.57.5.5 0 0 1 .21.62c-1.32 3.33-4.49 11.82-5.41 18.67s1.58 13.91 2.69 16.65a.53.53 0 0 1 0 .39.48.48 0 0 1-.29.27 1 1 0 0 1-.29.06ZM50.25 342c-1.18.83-5.37 9.31-6.48 17.47-1.37 10 2 15 3.11 16.32a10.57 10.57 0 0 0 .79.89c-1.38-3.74-3.08-9.88-2.28-15.93.87-6.51 3.63-14.23 5.32-18.5Z"
              style="fill:#263238"/>
        <path d="M108.31 256.13s-3 12.89-2.62 20.34 1.61 16.3 1.61 16.3l-1.81 33.83s-15.1 1.21-17.72 3.22-21.14 14.5-24.77 15.91c-1.73.67-5.43 2.42-5.43 2.42s-3.63 1.85-.81 5.85 53.16-11.08 54.77-11.28 11.27-3.62 12.89-5.64 12.68-39.66 12.68-39.66l23.76 34.23s-.4 9.86 5.44 16.91 17.11 26.78 17.11 26.78l-.4 3.42s-4 4-3.22 7.25 5.23 2.62 8.05 4.43 9.67 5.64 9.67 5.64 10.47 4 9.26 0c-.44-1.47-5.42-7.38-7.25-10.07a73 73 0 0 1-8.26-15.5c-1.81-5-11.07-40.27-12.28-44.9s-7-28.19-11.48-41.68-7.45-18.93-7.45-18.93l-3.42-9.26Z"
              style="fill:#fff"/>
        <path d="M204.86 398.35c-2.64 0-6.56-1.44-7.53-1.81-.14-.07-7-3.89-9.76-5.69a12.21 12.21 0 0 0-3.41-1.28c-2.1-.56-4.28-1.14-4.86-3.45-.79-3.16 2.53-6.86 3.23-7.59l.37-3.1c-1-1.79-11.5-19.94-17-26.56s-5.58-15.69-5.55-17.08l-23.07-33.24c-2 6.8-11 36.92-12.48 38.83-1.76 2.2-11.65 5.63-13.22 5.83-.27 0-2.45.64-5.2 1.41-33.32 9.27-48.29 12.16-50 9.65a4.9 4.9 0 0 1-1.05-4 4.2 4.2 0 0 1 2-2.53c.17-.08 3.76-1.76 5.48-2.44 3.46-1.34 21.86-13.69 24.64-15.83 2.48-1.91 15-3.07 17.55-3.29l1.79-33.39s-1.21-8.87-1.61-16.26 2.51-19.95 2.63-20.48a.49.49 0 0 1 .48-.38l48.33-.4a.51.51 0 0 1 .47.32l3.42 9.27s3.07 5.59 7.46 18.95c3.8 11.58 8.64 30.55 10.7 38.66.35 1.34.61 2.39.79 3.05.1.39 10.34 39.5 12.26 44.86a72 72 0 0 0 8.2 15.39c.68 1 1.79 2.43 3 3.95 2.45 3.17 4.08 5.32 4.36 6.25a1.7 1.7 0 0 1-.35 1.87 3 3 0 0 1-2.07.51ZM137.1 296.91a.51.51 0 0 1 .41.21l23.76 34.23a.56.56 0 0 1 .09.31c0 .09-.32 9.76 5.32 16.57 5.8 7 17 26.65 17.17 26.85a.54.54 0 0 1 .06.31l-.4 3.42a.57.57 0 0 1-.15.3s-3.81 3.86-3.09 6.77c.44 1.74 2.16 2.19 4.15 2.73a12.4 12.4 0 0 1 3.69 1.4c2.78 1.78 9.57 5.58 9.64 5.62 2.9 1.11 7.51 2.32 8.46 1.42.07-.05.26-.23.08-.84-.25-.83-2.43-3.66-4.19-5.93-1.18-1.53-2.3-3-3-4a72.91 72.91 0 0 1-8.32-15.61c-1.94-5.4-12.19-44.56-12.29-44.95l-.79-3.06c-2.06-8.09-6.89-27-10.68-38.59-4.36-13.27-7.38-18.78-7.41-18.84l-3.34-9-47.57.4c-.49 2.18-2.88 13.23-2.52 19.81.4 7.34 1.59 16.18 1.61 16.27L106 326.63a.5.5 0 0 1-.46.47c-4.16.33-15.41 1.54-17.46 3.12-2.34 1.8-21.08 14.5-24.89 16-1.69.66-5.36 2.38-5.4 2.4a3.24 3.24 0 0 0-1.52 1.88 4 4 0 0 0 .91 3.22c1.39 2 17.86-1.4 49-10.05 3.48-1 5-1.4 5.35-1.44 1.57-.19 11-3.57 12.55-5.45 1.14-1.42 8.16-24.4 12.6-39.49a.51.51 0 0 1 .4-.36Z"
              style="fill:#263238"/>
        <path d="M127.55 329.08a.39.39 0 0 1-.15 0L105.61 322a.5.5 0 0 1-.35-.5l1.54-28.71s-1.21-8.87-1.61-16.26 2.51-19.95 2.63-20.48a.49.49 0 0 1 .48-.38l48.33-.4a.51.51 0 0 1 .47.32l3.42 9.27s3.07 5.59 7.46 18.95c3.7 11.26 8.4 29.64 9.94 35.68a.5.5 0 0 1-.21.55 75 75 0 0 1-19.2 8.54.49.49 0 0 1-.55-.2l-20.68-29.78c-1.22 4.14-6 20.14-9.25 30.19a.5.5 0 0 1-.48.29Zm-21.27-8 21 6.83c3.77-11.59 9.33-30.49 9.39-30.68a.51.51 0 0 1 .4-.36.5.5 0 0 1 .49.21l21.07 30.35a73.76 73.76 0 0 0 18.28-8.13c-1.62-6.37-6.21-24.25-9.83-35.27-4.36-13.27-7.38-18.78-7.41-18.84l-3.34-9-47.57.4c-.49 2.18-2.88 13.23-2.52 19.81.4 7.34 1.59 16.18 1.61 16.27Z"
              style="fill:#263238"/>
        <path d="M137.1 297.91h-.1a.49.49 0 0 1-.43-.56l1.61-12.28a.49.49 0 0 1 .56-.43.5.5 0 0 1 .43.56l-1.61 12.28a.51.51 0 0 1-.46.43ZM139.72 294.89a.5.5 0 0 1-.32-.89l6.24-5.23a.5.5 0 1 1 .64.76l-6.28 5.24a.49.49 0 0 1-.28.12ZM129.25 308.78h-.14l-19.93-5.64a.5.5 0 1 1 .27-1l19.22 5.43a6.23 6.23 0 0 1 .07-2.31c-2.08-.66-10.41-2.7-15.72-4a.52.52 0 0 1-.37-.61.51.51 0 0 1 .61-.37c16.67 4 16.68 4.2 16.7 4.68a.5.5 0 0 1-.25.46 8.43 8.43 0 0 0 0 2.73.48.48 0 0 1-.17.45.47.47 0 0 1-.29.18ZM124.15 324.39c-.75 0-2.81-.46-9.53-2.87a.5.5 0 0 1 .34-.94c6.57 2.36 8.49 2.76 9 2.81.56-1.93 3.6-10.61 4-11.65a.51.51 0 0 1 .64-.31.49.49 0 0 1 .3.64c-1.06 3-3.84 11-4 11.81a.75.75 0 0 1-.3.4.79.79 0 0 1-.45.11ZM112.58 320.75h-.18c-2.84-1.05-5.08-1.91-5.08-1.91a.5.5 0 0 1-.32-.51l1.21-12.33a.5.5 0 0 1 1 .09L108 318c.73.28 2.54 1 4.71 1.76a.5.5 0 0 1 .3.64.52.52 0 0 1-.43.35ZM111.73 274.55a.49.49 0 0 1-.47-.34.51.51 0 0 1 .31-.64l.35-.09a9.06 9.06 0 0 0 4.86-3 21.68 21.68 0 0 0 3.34-5.88.5.5 0 0 1 .94.33 22.17 22.17 0 0 1-3.51 6.2 10 10 0 0 1-5.38 3.29l-.28.08a.45.45 0 0 1-.16.05ZM110.52 298.51a.49.49 0 0 1-.52-.51s.1-.93.23-2.48a.5.5 0 1 1 1 .08c-.14 1.58-.24 2.52-.24 2.52a.51.51 0 0 1-.47.39Z"
              style="fill:#263238"/>
        <path d="M110.93 293.88a.5.5 0 0 1-.46-.54 45.82 45.82 0 0 0-1-11.55c-1-5.48 2.28-17.82 2.42-18.34a.49.49 0 0 1 .61-.35.5.5 0 0 1 .36.61c0 .12-3.38 12.64-2.41 17.9a46.3 46.3 0 0 1 1 11.8.49.49 0 0 1-.52.47ZM144 281.39a.47.47 0 0 1-.17 0 .49.49 0 0 1-.3-.64s.8-2.22 1.39-4.39c.08-.28 0-.38-.05-.42-.5-.54-2.68-.41-4-.16a.5.5 0 0 1-.49-.19.47.47 0 0 1-.05-.52l3.62-7.45a.49.49 0 0 1 .67-.23.5.5 0 0 1 .23.67l-3.21 6.59c1.23-.15 3.19-.23 4 .61a1.39 1.39 0 0 1 .28 1.37c-.6 2.21-1.42 4.44-1.42 4.47a.51.51 0 0 1-.5.29ZM158.44 324.48a.47.47 0 0 1-.41-.22L155.2 320a.5.5 0 0 1 .84-.55l2.82 4.3a.5.5 0 0 1-.14.69.48.48 0 0 1-.28.04ZM154.12 317.9a.52.52 0 0 1-.42-.22l-13.8-21a.5.5 0 0 1 .84-.55l13.8 21a.49.49 0 0 1-.15.69.45.45 0 0 1-.27.08Z"
              style="fill:#263238"/>
        <path d="M108.31 256.13s-3 12.89-2.62 20.34 1.61 16.3 1.61 16.3l-1.81 33.83s-15.1 1.21-17.72 3.22-21.14 14.5-24.77 15.91c-1.73.67-5.43 2.42-5.43 2.42s-3.63 1.85-.81 5.85 53.16-11.08 54.77-11.28 11.27-3.62 12.89-5.64 12.68-39.66 12.68-39.66l23.76 34.23s-.4 9.86 5.44 16.91 17.11 26.78 17.11 26.78l-.4 3.42s-4 4-3.22 7.25 5.23 2.62 8.05 4.43 9.67 5.64 9.67 5.64 10.47 4 9.26 0c-.44-1.47-5.42-7.38-7.25-10.07a73 73 0 0 1-8.26-15.5c-1.81-5-11.07-40.27-12.28-44.9s-7-28.19-11.48-41.68-7.45-18.93-7.45-18.93l-3.42-9.26Z"
              style="fill:#fff"/>
        <path d="M204.86 398.35c-2.64 0-6.56-1.44-7.53-1.81-.14-.07-7-3.89-9.76-5.69a12.21 12.21 0 0 0-3.41-1.28c-2.1-.56-4.28-1.14-4.86-3.45-.79-3.16 2.53-6.86 3.23-7.59l.37-3.1c-1-1.79-11.5-19.94-17-26.56s-5.58-15.69-5.55-17.08l-23.07-33.24c-2 6.8-11 36.92-12.48 38.83-1.76 2.2-11.65 5.63-13.22 5.83-.27 0-2.45.64-5.2 1.41-33.32 9.27-48.29 12.16-50 9.65a4.9 4.9 0 0 1-1.05-4 4.2 4.2 0 0 1 2-2.53c.17-.08 3.76-1.76 5.48-2.44 3.46-1.34 21.86-13.69 24.64-15.83 2.48-1.91 15-3.07 17.55-3.29l1.79-33.39s-1.21-8.87-1.61-16.26 2.51-19.95 2.63-20.48a.49.49 0 0 1 .48-.38l48.33-.4a.51.51 0 0 1 .47.32l3.42 9.27s3.07 5.59 7.46 18.95c3.8 11.58 8.64 30.55 10.7 38.66.35 1.34.61 2.39.79 3.05.1.39 10.34 39.5 12.26 44.86a72 72 0 0 0 8.2 15.39c.68 1 1.79 2.43 3 3.95 2.45 3.17 4.08 5.32 4.36 6.25a1.7 1.7 0 0 1-.35 1.87 3 3 0 0 1-2.07.51ZM137.1 296.91a.51.51 0 0 1 .41.21l23.76 34.23a.56.56 0 0 1 .09.31c0 .09-.32 9.76 5.32 16.57 5.8 7 17 26.65 17.17 26.85a.54.54 0 0 1 .06.31l-.4 3.42a.57.57 0 0 1-.15.3s-3.81 3.86-3.09 6.77c.44 1.74 2.16 2.19 4.15 2.73a12.4 12.4 0 0 1 3.69 1.4c2.78 1.78 9.57 5.58 9.64 5.62 2.9 1.11 7.51 2.32 8.46 1.42.07-.05.26-.23.08-.84-.25-.83-2.43-3.66-4.19-5.93-1.18-1.53-2.3-3-3-4a72.91 72.91 0 0 1-8.32-15.61c-1.94-5.4-12.19-44.56-12.29-44.95l-.79-3.06c-2.06-8.09-6.89-27-10.68-38.59-4.36-13.27-7.38-18.78-7.41-18.84l-3.34-9-47.57.4c-.49 2.18-2.88 13.23-2.52 19.81.4 7.34 1.59 16.18 1.61 16.27L106 326.63a.5.5 0 0 1-.46.47c-4.16.33-15.41 1.54-17.46 3.12-2.34 1.8-21.08 14.5-24.89 16-1.69.66-5.36 2.38-5.4 2.4a3.24 3.24 0 0 0-1.52 1.88 4 4 0 0 0 .91 3.22c1.39 2 17.86-1.4 49-10.05 3.48-1 5-1.4 5.35-1.44 1.57-.19 11-3.57 12.55-5.45 1.14-1.42 8.16-24.4 12.6-39.49a.51.51 0 0 1 .4-.36Z"
              style="fill:#263238"/>
        <path d="M206.77 396.07c-.44-1.47-5.42-7.38-7.25-10.07-1.31-1.92-2.55-3.9-3.69-5.89-5.63 2.09-12.82-1.36-12.82-1.36s-4 4-3.22 7.25 5.23 2.62 8.05 4.43 9.67 5.64 9.67 5.64 10.49 4.03 9.26 0Z"
              style="fill:#fff"/>
        <path d="M204.86 398.35c-2.64 0-6.56-1.44-7.53-1.81-.14-.07-7-3.89-9.76-5.69a12.21 12.21 0 0 0-3.41-1.28c-2.1-.56-4.28-1.14-4.86-3.45-.86-3.45 3.18-7.55 3.36-7.72a.5.5 0 0 1 .57-.1c.07 0 7.06 3.33 12.42 1.34a.51.51 0 0 1 .61.22 92.31 92.31 0 0 0 3.67 5.86c.68 1 1.79 2.43 3 3.95 2.45 3.17 4.08 5.32 4.36 6.25a1.7 1.7 0 0 1-.35 1.87 3 3 0 0 1-2.08.56Zm-21.73-19c-.82.89-3.48 4-2.86 6.52.44 1.74 2.16 2.19 4.15 2.73a12.4 12.4 0 0 1 3.69 1.4c2.78 1.78 9.57 5.58 9.64 5.62 2.9 1.11 7.51 2.32 8.46 1.42.07-.05.26-.23.08-.84-.25-.83-2.44-3.66-4.19-5.93-1.18-1.53-2.3-3-3-4a89.716 89.716 0 0 1-3.51-5.56c-5.04 1.65-10.99-.71-12.46-1.35Z"
              style="fill:#263238"/>
        <path d="M190.66 389.22c-3-2.41-8.39-4.14-10.91-4.86a3.94 3.94 0 0 0 0 1.64c.8 3.22 5.23 2.62 8.05 4.43s9.67 5.64 9.67 5.64 4.79 1.84 7.51 1.78c-3.83-2.07-11.25-6.17-14.32-8.63Z"
              style="fill:#fff"/>
        <path d="M204.9 398.36c-2.8 0-7.38-1.75-7.57-1.82s-7-3.89-9.76-5.69a12.21 12.21 0 0 0-3.41-1.28c-2.1-.56-4.28-1.14-4.86-3.45a4.51 4.51 0 0 1 0-1.84.46.46 0 0 1 .23-.34.47.47 0 0 1 .4-.06c2.84.81 8.06 2.54 11.08 4.95 3.2 2.56 11.06 6.86 14.29 8.58a.51.51 0 0 1 .25.56.5.5 0 0 1-.48.38Zm-7.15-2.73a39.41 39.41 0 0 0 4.72 1.41c-3.8-2.08-9.48-5.31-12.12-7.43s-7.67-3.86-10.16-4.6a3.07 3.07 0 0 0 .08.87c.44 1.74 2.16 2.19 4.15 2.73a12.4 12.4 0 0 1 3.69 1.4c2.78 1.78 9.57 5.58 9.64 5.62Z"
              style="fill:#263238"/>
        <path d="M167.5 283.92c-4.43-13.5-7.45-18.93-7.45-18.93l-3.42-9.26-48.32.4s-3 12.89-2.62 20.34 1.61 16.3 1.61 16.3l-1.54 28.71 21.79 7.1c3.82-11.68 9.55-31.17 9.55-31.17l21.27 30.64a74.67 74.67 0 0 0 19.07-8.48c-2.33-9.13-6.55-25.33-9.94-35.65Z"
              style="fill:#566bb1"/>
        <path d="M127.55 329.08a.39.39 0 0 1-.15 0L105.61 322a.5.5 0 0 1-.35-.5l1.54-28.71s-1.21-8.87-1.61-16.26 2.51-19.95 2.63-20.48a.49.49 0 0 1 .48-.38l48.33-.4a.51.51 0 0 1 .47.32l3.42 9.27s3.07 5.59 7.46 18.95c3.7 11.26 8.4 29.64 9.94 35.68a.5.5 0 0 1-.21.55 75 75 0 0 1-19.2 8.54.49.49 0 0 1-.55-.2l-20.68-29.78c-1.22 4.14-6 20.14-9.25 30.19a.5.5 0 0 1-.48.29Zm-21.27-8 21 6.83c3.77-11.59 9.33-30.49 9.39-30.68a.51.51 0 0 1 .4-.36.5.5 0 0 1 .49.21l21.07 30.35a73.76 73.76 0 0 0 18.28-8.13c-1.62-6.37-6.21-24.25-9.83-35.27-4.36-13.27-7.38-18.78-7.41-18.84l-3.34-9-47.57.4c-.49 2.18-2.88 13.23-2.52 19.81.4 7.34 1.59 16.18 1.61 16.27Z"
              style="fill:#263238"/>
        <path d="M137.1 297.91h-.1a.49.49 0 0 1-.43-.56l1.61-12.28a.49.49 0 0 1 .56-.43.5.5 0 0 1 .43.56l-1.61 12.28a.51.51 0 0 1-.46.43ZM139.72 294.89a.5.5 0 0 1-.32-.89l6.24-5.23a.5.5 0 1 1 .64.76l-6.28 5.24a.49.49 0 0 1-.28.12ZM129.25 308.78h-.14l-19.93-5.64a.5.5 0 1 1 .27-1l19.22 5.43a6.23 6.23 0 0 1 .07-2.31c-2.08-.66-10.41-2.7-15.72-4a.52.52 0 0 1-.37-.61.51.51 0 0 1 .61-.37c16.67 4 16.68 4.2 16.7 4.68a.5.5 0 0 1-.25.46 8.43 8.43 0 0 0 0 2.73.48.48 0 0 1-.17.45.47.47 0 0 1-.29.18ZM124.15 324.39c-.75 0-2.81-.46-9.53-2.87a.5.5 0 0 1 .34-.94c6.57 2.36 8.49 2.76 9 2.81.56-1.93 3.6-10.61 4-11.65a.51.51 0 0 1 .64-.31.49.49 0 0 1 .3.64c-1.06 3-3.84 11-4 11.81a.75.75 0 0 1-.3.4.79.79 0 0 1-.45.11ZM112.58 320.75h-.18c-2.84-1.05-5.08-1.91-5.08-1.91a.5.5 0 0 1-.32-.51l1.21-12.33a.5.5 0 0 1 1 .09L108 318c.73.28 2.54 1 4.71 1.76a.5.5 0 0 1 .3.64.52.52 0 0 1-.43.35ZM111.73 274.55a.49.49 0 0 1-.47-.34.51.51 0 0 1 .31-.64l.35-.09a9.06 9.06 0 0 0 4.86-3 21.68 21.68 0 0 0 3.34-5.88.5.5 0 0 1 .94.33 22.17 22.17 0 0 1-3.51 6.2 10 10 0 0 1-5.38 3.29l-.28.08a.45.45 0 0 1-.16.05ZM110.52 298.51a.49.49 0 0 1-.52-.51s.1-.93.23-2.48a.5.5 0 1 1 1 .08c-.14 1.58-.24 2.52-.24 2.52a.51.51 0 0 1-.47.39Z"
              style="fill:#263238"/>
        <path d="M110.93 293.88a.5.5 0 0 1-.46-.54 45.82 45.82 0 0 0-1-11.55c-1-5.48 2.28-17.82 2.42-18.34a.49.49 0 0 1 .61-.35.5.5 0 0 1 .36.61c0 .12-3.38 12.64-2.41 17.9a46.3 46.3 0 0 1 1 11.8.49.49 0 0 1-.52.47ZM144 281.39a.47.47 0 0 1-.17 0 .49.49 0 0 1-.3-.64s.8-2.22 1.39-4.39c.08-.28 0-.38-.05-.42-.5-.54-2.68-.41-4-.16a.5.5 0 0 1-.49-.19.47.47 0 0 1-.05-.52l3.62-7.45a.49.49 0 0 1 .67-.23.5.5 0 0 1 .23.67l-3.21 6.59c1.23-.15 3.19-.23 4 .61a1.39 1.39 0 0 1 .28 1.37c-.6 2.21-1.42 4.44-1.42 4.47a.51.51 0 0 1-.5.29ZM158.44 324.48a.47.47 0 0 1-.41-.22L155.2 320a.5.5 0 0 1 .84-.55l2.82 4.3a.5.5 0 0 1-.14.69.48.48 0 0 1-.28.04ZM154.12 317.9a.52.52 0 0 1-.42-.22l-13.8-21a.5.5 0 0 1 .84-.55l13.8 21a.49.49 0 0 1-.15.69.45.45 0 0 1-.27.08Z"
              style="fill:#263238"/>
        <path d="M112.41 183.17s-7.54 1.3-8.41 1.3-8.71-.72-9.87.29-28.44 30.76-28.44 30.76L76 223.21l22-10.88 2.9.14 8.7 39.76s-2.17 4.78-1.74 5.94a6 6 0 0 0 1.89 2.18S132 266.44 138 266.3s16.39-3.05 17.7-3.77 4.49-3.49 3.91-6.1-2.17-7.83-2.17-7.83l-4.26-58.6 16.1-34.53-11.75-8.47-18 21.33s-13.06 7.25-13.78 8.56-13.34 6.28-13.34 6.28Z"
              style="fill:#adadad"/>
        <path d="M137.73 266.8c-6.24 0-27.16-5.72-28.06-6a.46.46 0 0 1-.16-.07 6.43 6.43 0 0 1-2.06-2.41c-.46-1.21 1.09-4.86 1.68-6.18L100.54 213l-2.39-.12-21.93 10.78a.51.51 0 0 1-.52 0l-10.31-7.69a.49.49 0 0 1-.19-.35.48.48 0 0 1 .13-.39c1.11-1.21 27.3-29.77 28.47-30.8.92-.8 4.32-.76 9.14-.47l1.06.04c.6 0 5.26-.77 8.28-1.29 6-2.36 12.55-5.24 13-6 .75-1.34 11.52-7.39 13.9-8.71l17.93-21.25a.5.5 0 0 1 .67-.09l11.76 8.42a.51.51 0 0 1 .16.62l-16.05 34.41 4.19 58.43c.18.59 1.62 5.33 2.17 7.81.65 2.94-2.82 5.9-4.16 6.64s-12 3.69-17.93 3.84ZM110 259.89c1.54.42 22.26 6.06 27.91 5.91 5.95-.15 16.34-3.08 17.47-3.71s4.2-3.2 3.68-5.55c-.57-2.56-2.15-7.74-2.17-7.8a.36.36 0 0 1 0-.11L152.68 190a.56.56 0 0 1 0-.25l15.93-34.15-11-7.91-17.7 21a.31.31 0 0 1-.14.11c-5.33 3-13.07 7.52-13.58 8.37-.76 1.36-10.61 5.29-13.61 6.46h-.09c-.78.13-7.62 1.31-8.5 1.31-.17 0-.57 0-1.12-.06-5.06-.31-7.89-.23-8.42.23-.89.78-18.5 19.93-28 30.31l9.61 7.17 21.78-10.74a.4.4 0 0 1 .24 0l2.9.14a.51.51 0 0 1 .47.4l8.7 39.75a.48.48 0 0 1 0 .31c-1 2.21-2 5-1.73 5.57a5.24 5.24 0 0 0 1.58 1.87Zm2.39-76.72Z"
              style="fill:#263238"/>
        <path d="M153.18 190.48a.49.49 0 0 1-.49-.46l-1-16.4a.5.5 0 1 1 1-.06l.6 9.55 1.16-13.92a.51.51 0 0 1 .54-.45.5.5 0 0 1 .46.54L153.68 190a.49.49 0 0 1-.5.48ZM107.62 217.47a.51.51 0 0 1-.28-.09l-6.67-4.49a.5.5 0 0 1-.19-.59.48.48 0 0 1 .52-.3l9.58 1a.5.5 0 0 1 .44.55.5.5 0 0 1-.55.44l-7.57-.8 5 3.38a.5.5 0 0 1 .14.69.52.52 0 0 1-.42.21ZM148.48 215.49a.5.5 0 0 1-.5-.48c-.39-9.8-7.31-33.53-7.37-33.76a.49.49 0 0 1 .33-.62.5.5 0 0 1 .63.34c.28 1 7 24.08 7.41 34a.5.5 0 0 1-.48.52ZM140.74 224.09h-.1a.51.51 0 0 1-.39-.59 139.57 139.57 0 0 0 2.75-26.22.51.51 0 0 1 .5-.51.49.49 0 0 1 .5.5 140.79 140.79 0 0 1-2.76 26.41.5.5 0 0 1-.5.41Z"
              style="fill:#263238"/>
        <path d="M134.55 173.37s6.58 4.43 3.15 29.2-36.64 58.79-36.64 58.79l4.63 2.62s19.53-20.54 27.58-38.26 9.47-32.82 9.07-37.65-3.83-16.31-3.83-16.31Z"
              style="fill:#263238"/>
        <path d="M105.69 264.48a.57.57 0 0 1-.25-.06l-4.63-2.62a.54.54 0 0 1-.25-.37.52.52 0 0 1 .14-.42c.33-.33 33.15-34.19 36.51-58.51 3.32-24-2.88-28.67-3-28.72a.5.5 0 0 1 .1-.87l4-1.61a.53.53 0 0 1 .41 0 .51.51 0 0 1 .26.31c.14.47 3.44 11.58 3.84 16.41.35 4.2-.6 19.2-9.1 37.9-8 17.59-27.48 38.19-27.68 38.4a.51.51 0 0 1-.35.16Zm-3.83-3.23 3.73 2.1c2.37-2.53 19.81-21.51 27.23-37.83 8.37-18.42 9.34-33.56 9-37.41-.35-4.14-3-13.37-3.65-15.68l-2.74 1.11c1.62 1.84 5.58 8.61 2.75 29.1-3.18 23.07-32.33 54.41-36.32 58.61Z"
              style="fill:#263238"/>
        <path d="M115.3 175.16s-3 .88-3.63 2.76-2.26 5.63-2.26 5.63 4.13 7.14 6.64 10.52 5.38 9.51 6.26 8.13 5.25-9.39 5.38-10a3.27 3.27 0 0 1 1.5-1.88c.5-.13 9.27 3.25 10.89 3.63s.88-.88.13-2.88-7.39-10.64-9.14-12.64-14.15-4.52-15.77-3.27Z"
              style="fill:#adadad"/>
        <path d="M122 202.9c-.94 0-2-1.59-3.8-4.63-.84-1.37-1.71-2.79-2.53-3.91-2.52-3.36-6.67-10.49-6.67-10.56a.51.51 0 0 1 0-.45s1.63-3.76 2.24-5.59 3.38-2.89 3.89-3c2.16-1.33 14.44 1.18 16.37 3.38 1.78 2 8.45 10.72 9.23 12.8.11.29.21.56.32.82.47 1.19.78 2 .34 2.49a1.37 1.37 0 0 1-1.37.23c-.76-.18-2.92-1-5.2-1.76s-5.12-1.83-5.55-1.86a3.45 3.45 0 0 0-1 1.48c-.15.77-4.63 8.89-5.45 10.18a.86.86 0 0 1-.82.38Zm-12-19.38c.71 1.22 4.26 7.26 6.48 10.25.85 1.15 1.73 2.59 2.58 4 1 1.61 2.32 3.79 2.9 4.12 1-1.61 5.09-9.13 5.27-9.79a3.7 3.7 0 0 1 1.87-2.26c.33-.08 1 .1 6 1.9 2.16.77 4.39 1.57 5.09 1.73a2 2 0 0 0 .36.06 8.48 8.48 0 0 0-.48-1.43l-.33-.84c-.69-1.85-7.08-10.25-9.05-12.49-1.72-2-13.85-4.15-15.09-3.19a.48.48 0 0 1-.16.08s-2.77.83-3.3 2.43-1.8 4.57-2.14 5.43Zm5.33-8.36ZM106.56 159.38a36.76 36.76 0 0 1-4-11.5c-1-6.37 3.5-13.37 5-13.62s1.87 2.75 1.87 2.75 11.5-12.12 15.75-10.62.62 5.38.62 5.38 9.62-2.5 8.75 2.62-2.63 5.62-2.63 5.62a21.85 21.85 0 0 0-10.87 2.5c-6.12 3-6.62 3.5-6 4.75s.87.5-.63 5.25-2 5.62-.62 8.37 1.5 2.87-.13 3.12-4.62-2.5-4.62-2.5Z"
              style="fill:#263238"/>
        <path d="M113.48 164.51c-1.82 0-4.45-2.36-4.76-2.64l-2.48-2.11a.45.45 0 0 1-.11-.13 36.58 36.58 0 0 1-4.06-11.63c-1-6.51 3.44-13.86 5.41-14.19a1.45 1.45 0 0 1 1.15.29 3.62 3.62 0 0 1 1.1 1.92c2.68-2.73 11.64-11.46 15.61-10.06a3.23 3.23 0 0 1 2.33 2.16A4.07 4.07 0 0 1 127 131c2-.36 5.63-.77 7.27.73a2.85 2.85 0 0 1 .78 2.74c-.9 5.28-2.77 6-3 6a.58.58 0 0 1-.19 0 21.59 21.59 0 0 0-10.6 2.45c-3.75 1.84-5.69 2.88-5.9 3.51 0 .11 0 .24.13.56.08.17.16.29.22.4.55.92.5 1.09-.81 5.23l-.38 1.17c-1.19 3.73-1.44 4.5-.28 6.82l.14.28c.85 1.69 1.17 2.32.88 2.88s-.87.58-1.51.68a1.32 1.32 0 0 1-.27.06Zm-6.48-5.46 2.43 2.07c1.11 1 3.24 2.55 4.23 2.39a3.49 3.49 0 0 0 .8-.19 17.42 17.42 0 0 0-.91-1.95l-.14-.27c-1.34-2.69-1-3.82.22-7.57l.38-1.18c1.22-3.87 1.21-3.88.9-4.41-.07-.13-.16-.27-.25-.46a1.67 1.67 0 0 1-.19-1.33c.33-1 1.82-1.84 6.41-4.09a22.66 22.66 0 0 1 11-2.56c.27-.16 1.52-1.1 2.21-5.19a1.91 1.91 0 0 0-.47-1.85c-1.53-1.4-6-.63-7.65-.21a.5.5 0 0 1-.49-.83c.44-.47 1.53-2 1.26-3.1-.16-.63-.73-1.11-1.69-1.46-3.24-1.14-12.08 7.19-15.21 10.5a.51.51 0 0 1-.52.13.48.48 0 0 1-.34-.41 4 4 0 0 0-.91-2.22.43.43 0 0 0-.39-.1c-1.15.19-5.55 6.9-4.58 13a36.65 36.65 0 0 0 3.9 11.29Z"
              style="fill:#263238"/>
        <path d="M114.56 144s-5.25 7.12-4.13 6.87 3.25-2.5 3.13-.25-2.88 5.75-2.5 6.5 2.5 4.5 1.62 5-1.37.62-1.75.25-2.25-2.5-4.37-3-3.5 3.12-2.37 5.74 7.12 4 7.12 4l2.75.75.5 8S123.68 189 125.43 191s4.12 4.24 4.62 2.87 4.5-20.49 4.5-20.49 6.49-1.25 6.87-5.62-.63-14.12-3.87-20.12-4.63-7.87-9.62-8.12-12.12 2.48-13.37 4.48Z"
              style="fill:#fff"/>
        <path d="M129.47 194.79c-.52 0-1.71-.37-4.42-3.47-1.73-2-10.79-13-10.88-13.13a.48.48 0 0 1-.11-.29l-.48-7.64-2.4-.66c-.24 0-6.24-1.45-7.45-4.28a5.71 5.71 0 0 1 .63-5.57 2.27 2.27 0 0 1 2.31-.86 10.24 10.24 0 0 1 4.49 3l.13.13c.07.07.2.21 1.14-.33 0-.12 0-.85-1.62-3.95l-.2-.39c-.27-.55.1-1.31.91-2.85a11.54 11.54 0 0 0 1.54-3.9 1 1 0 0 0 0-.5 9.73 9.73 0 0 0-1.09.6 5.11 5.11 0 0 1-1.38.67.61.61 0 0 1-.66-.25c-.2-.3-.56-.85 4.26-7.39 1.39-2.17 8.74-5 13.81-4.72s6.72 2.26 10 8.38c3.2 5.91 4.34 15.65 3.94 20.4-.36 4.16-5.56 5.67-6.95 6-.54 2.58-4 18.93-4.45 20.24a1.07 1.07 0 0 1-.81.73 1.29 1.29 0 0 1-.26.03Zm-14.42-17.11c1 1.23 9.13 11.12 10.75 13 2.27 2.59 3.5 3.22 3.73 3.12a.32.32 0 0 0 .05-.09c.38-1.06 3.1-13.82 4.48-20.42a.49.49 0 0 1 .39-.39c.06 0 6.13-1.23 6.47-5.17.4-4.64-.71-14.1-3.81-19.84-3.34-6.16-4.59-7.63-9.21-7.86-5-.25-11.83 2.52-12.92 4.26a66.19 66.19 0 0 0-3.85 5.71l.29-.18c.8-.48 1.55-.93 2.16-.57s.51 1.13.5 1.39a12.16 12.16 0 0 1-1.65 4.31 8.19 8.19 0 0 0-.89 2l.18.31c1.53 2.92 2.23 4.72 1.23 5.29-.78.44-1.66.86-2.35.17l-.14-.15a9.59 9.59 0 0 0-4-2.72 1.3 1.3 0 0 0-1.33.54 4.7 4.7 0 0 0-.47 4.53c.84 2 5.17 3.34 6.77 3.7l2.77.76a.53.53 0 0 1 .37.45Zm-.49-33.68Z"
              style="fill:#263238"/>
        <path style="fill:#263238" d="m134.55 173.37-12-.12 10.62 6.62 1.38-6.5z"/>
        <path d="M133.17 180.37a.5.5 0 0 1-.26-.08l-10.62-6.62a.51.51 0 0 1-.22-.57.56.56 0 0 1 .49-.35l12 .12a.5.5 0 0 1 .49.6l-1.38 6.5a.5.5 0 0 1-.29.36.65.65 0 0 1-.21.04Zm-8.84-6.61 8.5 5.3 1.1-5.2ZM135.8 155.13a.52.52 0 0 1-.38-.17.51.51 0 0 1 .05-.71c1.79-1.56 3.3-3.33 3.24-3.79-.38-.43-4-1.05-7.08-1.33a.49.49 0 0 1-.45-.54.5.5 0 0 1 .54-.46c2.71.25 7.35.82 7.9 1.9s-1.94 3.62-3.5 5a.49.49 0 0 1-.32.1ZM127.59 165.94a3 3 0 0 1-.66-.08c-3.27-.82-3.6-7.46-3.63-8.21a.51.51 0 0 1 .32-.49.52.52 0 0 1 .56.14c3.73 4.19 9.91 2.37 10 2.35a.5.5 0 0 1 .55.18.51.51 0 0 1 0 .59c-.45.58-4.03 5.52-7.14 5.52Zm-3.19-7c.26 2.21 1 5.54 2.77 6s4.39-2.15 5.9-4c-1.98.28-5.71.43-8.67-2.03ZM120.68 152.88a.45.45 0 0 1-.2 0 .5.5 0 0 1-.26-.66 4.37 4.37 0 0 1 5.35-2.4.5.5 0 1 1-.29 1 3.39 3.39 0 0 0-4.14 1.84.51.51 0 0 1-.46.22Z"
              style="fill:#263238"/>
        <path d="M133.42 148.75a.52.52 0 0 1-.21 0 .49.49 0 0 1-.24-.66 2.54 2.54 0 0 1 2.93-1.28.5.5 0 0 1-.21 1 1.51 1.51 0 0 0-1.81.72.51.51 0 0 1-.46.22ZM118.36 148.88h-.08a.5.5 0 0 1-.42-.57s.55-3.49 5.14-3.59a.52.52 0 0 1 .51.49.49.49 0 0 1-.49.51c-3.71.08-4.15 2.63-4.17 2.74a.49.49 0 0 1-.49.42ZM130.39 144.23a.51.51 0 0 1-.36-.15.5.5 0 0 1 0-.7 3.53 3.53 0 0 1 4.2-.52.49.49 0 0 1 .19.68.5.5 0 0 1-.68.19 2.52 2.52 0 0 0-3 .36.52.52 0 0 1-.35.14Z"
              style="fill:#263238"/>
        <path d="M66.44 223.76a66.75 66.75 0 0 1-6-3.44c-1-.86 4.29-12.56 4.81-12.9s12.73.69 14.45 1.72 4.64 9.29 4 11.52-4.81 3.79-5.67 4.13-11.59-1.03-11.59-1.03Z"
              style="fill:#adadad"/>
        <path d="M77.31 225.33c-2.29 0-8.18-.72-10.93-1.08a.37.37 0 0 1-.17-.05 63.2 63.2 0 0 1-6.1-3.5 1.16 1.16 0 0 1-.31-1c.13-2.52 4.41-12.2 5.16-12.71 1-.64 13.43.78 15 1.71 2 1.2 4.93 9.68 4.18 12.1-.49 1.59-2.4 3-5.84 4.4h-.13a2.61 2.61 0 0 1-.86.13Zm-10.71-2.06c4.26.55 10.51 1.24 11.2 1h.11c3.86-1.53 5-2.89 5.25-3.76.65-2.11-2.31-10.1-3.73-11s-12.5-1.92-13.94-1.7c-.85 1.1-5 10.83-4.69 12.11a61.85 61.85 0 0 0 5.8 3.35Z"
              style="fill:#263238"/>
        <path d="M90.69 233.22s-8.77-13.76-10.49-16.17-9.11-4.3-12.72-2.75-6.37 6.53-5.51 8.43 18.75 12.55 18.75 12.55-2.06 10-1.2 10.84a30.76 30.76 0 0 0 6 4.12c1.38.52 3.44-1.37 3.44-1.37a10.61 10.61 0 0 0 2.41 0c.86-.17 1.89-1.55 1.89-1.55s1 1.72 2.07.17 1.2-2.75.34-3.27-1.55-3.95-1.55-3.95 1-2.75.18-4.65-3.61-2.4-3.61-2.4Z"
              style="fill:#fff"/>
        <path d="M86.05 250.83a1.83 1.83 0 0 1-.69-.12 30.89 30.89 0 0 1-6.2-4.24c-.88-.89.21-7.08 1-10.94-3.6-2.15-17.79-10.72-18.64-12.6a4.24 4.24 0 0 1 .24-3.09 11.45 11.45 0 0 1 5.52-6c3.91-1.68 11.51.37 13.33 2.92 1.62 2.27 9.33 14.34 10.39 16 .72.18 2.94.85 3.76 2.65s.1 4.27-.11 4.88c.32 1.53.9 3.26 1.29 3.5a1.56 1.56 0 0 1 .75 1 4.05 4.05 0 0 1-.94 3 1.56 1.56 0 0 1-1.37.87 1.7 1.7 0 0 1-1.11-.53 4 4 0 0 1-1.79 1.25 10.29 10.29 0 0 1-2.34 0 5.62 5.62 0 0 1-3.09 1.45Zm-15.29-36.59a8.1 8.1 0 0 0-3.09.52 10.36 10.36 0 0 0-5 5.45 3.28 3.28 0 0 0-.26 2.31c.58 1.27 11.68 8.24 18.54 12.33a.5.5 0 0 1 .24.53c-.93 4.48-1.69 9.73-1.32 10.41a31.17 31.17 0 0 0 5.82 4c.89.34 2.45-.83 2.93-1.27a.5.5 0 0 1 .39-.13 9.3 9.3 0 0 0 2.25 0 4 4 0 0 0 1.61-1.39.54.54 0 0 1 .43-.2.49.49 0 0 1 .4.24c.14.23.46.57.7.58s.42-.26.52-.43a3.33 3.33 0 0 0 .79-2.17.6.6 0 0 0-.29-.39c-1-.58-1.6-3.43-1.78-4.28a.54.54 0 0 1 0-.28s.94-2.58.18-4.26-3.22-2.12-3.25-2.12a.57.57 0 0 1-.33-.22c-.09-.14-8.78-13.78-10.47-16.15-1.16-1.64-5.49-3.08-9.01-3.08Z"
              style="fill:#263238"/>
        <path style="fill:#fff" d="m93.27 247.32-1.2-7.91"/>
        <path d="M93.27 247.82a.5.5 0 0 1-.49-.42l-1.2-7.92a.5.5 0 1 1 1-.15l1.21 7.91a.5.5 0 0 1-.42.57Z"
              style="fill:#263238"/>
        <path d="M176.69 84.8s1.54-5.85 2.4-4.48-1 7.57-1 7.57 2.41-4.64 2.58-2.23-3.78 7.56-3.78 7.56Z"
              style="fill:#fff"/>
        <path d="M176.86 93.72h-.16a.5.5 0 0 1-.34-.47l-.17-8.42a.32.32 0 0 1 0-.14c.59-2.22 1.5-4.9 2.49-5a.82.82 0 0 1 .83.44c.54.87.23 3.06-.19 5 .62-.64 1-.57 1.11-.54.42.08.65.47.7 1.14.18 2.52-3.47 7.36-3.89 7.91a.49.49 0 0 1-.38.08Zm.33-8.86.14 6.86c1.24-1.81 2.91-4.6 2.81-6v-.07a12.08 12.08 0 0 0-1.63 2.5.5.5 0 0 1-.64.23.49.49 0 0 1-.29-.6c.72-2.35 1.51-5.93 1.16-7a16.15 16.15 0 0 0-1.55 4.08Z"
              style="fill:#263238"/>
        <path d="M160 145.51s15.83-38.53 16.17-39.73-4.82-13.59-5.17-16.17-1.55-10 0-10 1 1.37 1 2.23 1.72 7.91 1.72 7.91 1-8.25 1.21-9.11 1-2.24 1.89-1.21.34 2.24.34 3.1.17 7.74.17 8.25a55.39 55.39 0 0 0 2.24 5.34s2.41-4.82 2.75-7.05 1.72-5.51 2.24-2.41a15 15 0 0 1-.52 6.88c-.34.86 2.24 6.53 1.38 8.25S182 107 182 107.67s-10.49 44.2-10.49 44.2Z"
              style="fill:#fff"/>
        <path d="M171.53 152.37a.54.54 0 0 1-.25-.06l-11.52-6.37a.49.49 0 0 1-.22-.62c5.47-13.32 15.88-38.75 16.15-39.68.08-.64-1.46-4.9-2.58-8a64.35 64.35 0 0 1-2.6-7.95l-.12-.88c-.7-5-1-8.34-.11-9.32a.92.92 0 0 1 .73-.34 1.61 1.61 0 0 1 1.26.46 2.24 2.24 0 0 1 .31 1.78 4.4 4.4 0 0 0 0 .49c0 .42.53 2.8 1.07 5.12.32-2.49.76-5.87.87-6.42s.63-1.73 1.46-1.94a1.24 1.24 0 0 1 1.3.51 3.28 3.28 0 0 1 .53 2.77 3.9 3.9 0 0 0-.07.65c0 .48.06 2.87.1 5 0 1.63.07 3.07.07 3.29s.87 2.22 1.75 4.16a29.8 29.8 0 0 0 2.25-6s.69-4.09 2.09-4.1c.84 0 1 1.22 1.12 1.68a15.32 15.32 0 0 1-.54 7.15 12.19 12.19 0 0 0 .59 2.44c.64 2.18 1.37 4.64.76 5.86-.38.76-1.08 1.84-1.76 2.88a18 18 0 0 0-1.62 2.76c0 .67-8 34.08-10.51 44.3a.5.5 0 0 1-.28.34.79.79 0 0 1-.23.04Zm-10.89-7.09 10.55 5.83c3.61-15 10.21-42.48 10.33-43.48 0-.45.52-1.3 1.79-3.25.66-1 1.34-2.06 1.7-2.78s-.33-3.43-.83-5.13-.76-2.61-.56-3.09a14.44 14.44 0 0 0 .48-6.61 3.7 3.7 0 0 0-.18-.74 8.74 8.74 0 0 0-1.06 3.14c-.36 2.29-2.7 7-2.8 7.2a.58.58 0 0 1-.46.28.51.51 0 0 1-.44-.29 36.32 36.32 0 0 1-2.29-5.55c0-.22 0-1.65-.07-3.27 0-2.09-.1-4.49-.1-5a5.87 5.87 0 0 1 .08-.79 2.33 2.33 0 0 0-.31-2c-.08-.09-.19-.2-.29-.18a1.75 1.75 0 0 0-.72 1.17c-.14.66-.85 6.23-1.2 9.07a.5.5 0 0 1-.47.44.48.48 0 0 1-.51-.38c-.29-1.19-1.74-7.15-1.74-8v-.6c0-.37.09-.84-.06-1s-.25-.13-.51-.13c-.48.37-.37 3.24.37 8.52l.13.88a64.65 64.65 0 0 0 2.54 7.75c2 5.44 2.81 7.9 2.6 8.63-.29 1.16-14.18 34.99-15.97 39.36Z"
              style="fill:#263238"/>
        <path d="M152.09 149.29s5.16 6 7 7.57 9.81 5 9.81 5l5-10.14s-5.33-4.47-8.94-6-6.88-3.27-6.88-3.27Z"
              style="fill:#adadad"/>
        <path d="M169 162.34a.45.45 0 0 1-.2 0c-.33-.14-8-3.48-9.92-5.06a99.71 99.71 0 0 1-7.12-7.63.49.49 0 0 1 0-.65l6-6.88a.51.51 0 0 1 .61-.11s3.3 1.73 6.85 3.25 8.85 5.91 9.07 6.09a.52.52 0 0 1 .12.61l-5 10.14a.5.5 0 0 1-.41.24Zm-16.2-13.05c1.11 1.27 5.13 5.88 6.71 7.18s7.57 4 9.25 4.72l4.6-9.36c-1.17-1-5.5-4.4-8.52-5.69s-5.62-2.62-6.56-3.11Z"
              style="fill:#263238"/>
    </g>
</svg>