<svg xmlns="http://www.w3.org/2000/svg" viewBox="0 0 500 500" height="500" width="500">
    <path d="M447.84 167.17c.69-5-6.43-9.21-11.79-9.64-2.55-.2-5.2.19-7.62-.66-5.24-1.82-7.34-8.59-12.45-10.75-3.82-1.61-8.23-.18-11.93 1.69s-7.37 4.21-11.51 4.48c-3.6.23-7.52-1.11-10.67.65-2.35 1.31-3.58 4-5.74 5.61s-4.88 1.9-7.51 2-5.34.17-7.74 1.26-4.37 3.63-3.87 6.21ZM228.08 120.82c.7-5-6.43-9.2-11.78-9.64-2.55-.2-5.21.19-7.62-.65-5.25-1.83-7.34-8.6-12.45-10.76-3.83-1.61-8.23-.18-11.93 1.69s-7.37 4.21-11.52 4.48c-3.6.23-7.51-1.11-10.66.65-2.35 1.31-3.58 4-5.74 5.61s-4.88 1.9-7.51 2-5.35.17-7.74 1.27-4.37 3.62-3.87 6.2ZM130.2 279c.69-5.05-6.43-9.21-11.79-9.64-2.55-.2-5.21.19-7.62-.66-5.24-1.82-7.34-8.59-12.45-10.75-3.83-1.61-8.23-.18-11.93 1.69S79 263.8 74.9 264.06c-3.61.24-7.52-1.1-10.67.66-2.35 1.31-3.58 4-5.74 5.61s-4.88 1.9-7.51 2-5.35.17-7.74 1.26-4.37 3.63-3.87 6.21ZM312.16 210.7c.43-3.09-3.93-5.63-7.2-5.89-1.56-.13-3.18.11-4.66-.4-3.2-1.12-4.48-5.26-7.61-6.58-2.33-1-5-.1-7.29 1s-4.5 2.57-7 2.73c-2.2.14-4.59-.67-6.52.4-1.43.8-2.18 2.46-3.51 3.43a8.33 8.33 0 0 1-4.58 1.25 12.74 12.74 0 0 0-4.73.77 3.73 3.73 0 0 0-2.37 3.79Z"
          style="fill:#ebebeb"/>
    <path d="M490.78 488.19c0 .14-107.76.26-240.68.26s-240.7-.12-240.7-.26 107.75-.26 240.7-.26 240.68.12 240.68.26Z"
          style="fill:#263238"/>
    <path style="fill:#e0e0e0" d="m319.06 412.95 75.6 75 14.76-.04 5.25-74.96h-95.61z"/>
    <path style="fill:#e0e0e0"
          d="m380.53 420.05-76.18 67.9 53.21-.08 44.85-37.72-21.88-30.1zM373.37 226.01l93.9 87.05 1.65-90.29-95.55 3.24z"/>
    <path style="fill:#e0e0e0"
          d="M436.63 229.77 182.66 487.91h50.04l226.82-228.8-22.89-29.34zM107.07 325.36l90.9 90.18 4.71-90.18h-95.61z"/>
    <path style="fill:#e0e0e0" d="M170.17 331.26 6.97 487.91h52.59l132.49-126.55-21.88-30.1z"/>
    <path style="fill:#566bb1" d="m186.32 294.4 129.76 128.74V294.4H186.32z"/>
    <path d="M271.94 297.3C269 299.65 82.2 487.91 82.2 487.91h80.48l146.85-147.72Z" style="fill:#566bb1"/>
    <g>
        <circle cx="93.99" cy="75.6" r="12.83" transform="rotate(-22.32 93.965 75.597)" style="fill:#566bb1"/>
        <path d="M92.16 104.29A49.27 49.27 0 0 1 92 99a49.27 49.27 0 0 1 .14-5.29c.07 0 .13 2.37.13 5.29s-.04 5.29-.11 5.29ZM84.76 90.72c.07 0-1.14 2.25-2.69 4.94s-2.87 4.84-2.93 4.8 1.14-2.24 2.69-4.94 2.87-4.84 2.93-4.8ZM77.17 86a29.13 29.13 0 0 1-3 2.55A28.92 28.92 0 0 1 71 90.89a30 30 0 0 1 3-2.55A29.42 29.42 0 0 1 77.17 86ZM105 99.08a8.36 8.36 0 0 1-.34-1.3c-.18-.81-.44-1.93-.77-3.15s-.66-2.31-.91-3.1a8.83 8.83 0 0 1-.36-1.3 5.62 5.62 0 0 1 .54 1.24 32 32 0 0 1 1 3.09c.33 1.23.56 2.36.7 3.18a5.41 5.41 0 0 1 .14 1.34ZM118 89.84a43.23 43.23 0 0 1-3.79-3.14 45 45 0 0 1-3.62-3.33 42 42 0 0 1 3.79 3.13 46.15 46.15 0 0 1 3.62 3.34ZM123 77.15a11.76 11.76 0 0 1-1.54-.22c-1-.16-2.27-.37-3.73-.53s-2.78-.27-3.75-.33a9.58 9.58 0 0 1-1.55-.14 7.88 7.88 0 0 1 1.56-.05 37.06 37.06 0 0 1 3.77.25 37.71 37.71 0 0 1 3.73.61 6.62 6.62 0 0 1 1.51.41ZM123 64.67c0 .07-2.76.81-6.2 1.65s-6.26 1.46-6.27 1.38 2.76-.81 6.2-1.65 6.27-1.46 6.27-1.38ZM108.48 50.12c.06 0-1.27 2.16-3 4.74s-3.13 4.63-3.19 4.59a51.91 51.91 0 0 1 3-4.74c1.71-2.57 3.13-4.63 3.19-4.59ZM94.09 47.08a13.3 13.3 0 0 1 0 1.77v4.24c0 1.66 0 3.16.05 4.25a13.09 13.09 0 0 1 0 1.76 10.16 10.16 0 0 1-.18-1.76c-.06-1.08-.12-2.59-.12-4.25s0-3.16.11-4.25a10.16 10.16 0 0 1 .14-1.76ZM83.19 60.66a54.79 54.79 0 0 1-3-4.68c-1.61-2.63-2.85-4.79-2.79-4.83s1.42 2.06 3 4.69 2.85 4.78 2.79 4.82ZM76.68 66.19a6.19 6.19 0 0 1-1.37-.19c-.83-.18-2-.46-3.22-.83s-2.37-.75-3.16-1.06a5.74 5.74 0 0 1-1.27-.56 8.2 8.2 0 0 1 1.33.38c.81.26 1.93.62 3.17 1s2.38.68 3.2.9a7.32 7.32 0 0 1 1.32.36ZM73.83 76.05a30.5 30.5 0 0 1-4.09.53 30.1 30.1 0 0 1-4.12.26 32.58 32.58 0 0 1 4.09-.53 32.15 32.15 0 0 1 4.12-.26Z"
              style="fill:#566bb1"/>
    </g>
    <g>
        <path d="M456.14 358.1c.53-3.8-4.84-6.93-8.87-7.26-1.92-.15-3.92.14-5.74-.49-3.95-1.38-5.52-6.48-9.37-8.1-2.88-1.21-6.2-.13-9 1.27s-5.55 3.17-8.66 3.37c-2.71.18-5.66-.83-8 .5-1.77 1-2.7 3-4.33 4.22a10.19 10.19 0 0 1-5.65 1.53 15.9 15.9 0 0 0-5.83 1c-1.8.82-3.29 2.73-2.91 4.67Z"
              style="fill:#fff"/>
        <path d="M456.14 358.1h-1.33l-3.9.07-14.48.22-48.67.59h-.22v-.21a4.08 4.08 0 0 1 .9-3.24 6 6 0 0 1 2.84-2c2.56-.87 5.21-.5 7.63-.95a7.25 7.25 0 0 0 3.31-1.38 24.44 24.44 0 0 0 2.48-2.68 7.25 7.25 0 0 1 1.41-1.24 5.23 5.23 0 0 1 1.75-.72 12.25 12.25 0 0 1 3.62-.09 18 18 0 0 0 3.43.08 11.85 11.85 0 0 0 3.22-.84c2.06-.83 3.92-2 5.88-2.88a12.74 12.74 0 0 1 6.08-1.36 7 7 0 0 1 2.88.87 10.21 10.21 0 0 1 2.24 1.81c1.3 1.36 2.32 2.82 3.51 4a7.13 7.13 0 0 0 4.06 2.25c1.48.24 2.93.11 4.29.21a12.79 12.79 0 0 1 6.46 2.42 6.55 6.55 0 0 1 2.6 3.47 3.78 3.78 0 0 1 .05 1.53 5.59 5.59 0 0 0-.15-1.5 6.58 6.58 0 0 0-2.62-3.34A12.74 12.74 0 0 0 447 351c-1.33-.08-2.78.06-4.32-.17a7.53 7.53 0 0 1-4.27-2.32c-1.23-1.21-2.26-2.67-3.54-4a9.78 9.78 0 0 0-2.15-1.73A6.66 6.66 0 0 0 430 342a12.29 12.29 0 0 0-5.86 1.35c-1.92.87-3.78 2.05-5.89 2.9a12.09 12.09 0 0 1-3.35.89 18.79 18.79 0 0 1-3.52-.08 12.19 12.19 0 0 0-3.47.09 5.31 5.31 0 0 0-2.9 1.81 23.77 23.77 0 0 1-2.52 2.74 7.77 7.77 0 0 1-3.55 1.49c-2.53.46-5.15.1-7.55.93a5.54 5.54 0 0 0-2.6 1.81 3.57 3.57 0 0 0-.8 2.83l-.26-.21 48.5-.37 14.54-.07h5a2.45 2.45 0 0 1 .37-.01Z"
              style="fill:#263238"/>
        <path d="M241.3 441.8c.69-5.05-6.43-9.21-11.79-9.64-2.55-.2-5.2.19-7.62-.66-5.24-1.82-7.34-8.59-12.45-10.75-3.83-1.61-8.23-.18-11.93 1.69s-7.37 4.21-11.51 4.47c-3.61.24-7.52-1.1-10.67.66-2.35 1.31-3.58 4-5.74 5.61s-4.88 1.9-7.51 2-5.35.17-7.74 1.26-4.37 3.63-3.87 6.21Z"
              style="fill:#fff"/>
        <path d="M241.3 441.8h-1.78l-5.19.09-19.25.27-64.61.74h-.22v-.21a5.38 5.38 0 0 1 1.17-4.24 8 8 0 0 1 3.74-2.61c3.38-1.15 6.89-.66 10.12-1.26a9.66 9.66 0 0 0 4.44-1.85 31.22 31.22 0 0 0 3.3-3.57 9.12 9.12 0 0 1 1.86-1.64 7.25 7.25 0 0 1 2.29-.94 16.71 16.71 0 0 1 4.78-.12 24.32 24.32 0 0 0 4.58.11 15.7 15.7 0 0 0 4.29-1.13c2.75-1.1 5.22-2.64 7.81-3.83a16.91 16.91 0 0 1 8-1.79 9 9 0 0 1 3.8 1.14 13.09 13.09 0 0 1 3 2.39c1.72 1.79 3.08 3.74 4.67 5.32a9.6 9.6 0 0 0 5.42 3 57.08 57.08 0 0 0 5.71.27 16 16 0 0 1 4.88 1.16 17.32 17.32 0 0 1 3.69 2 11.14 11.14 0 0 1 2.38 2.38 6.48 6.48 0 0 1 1.07 2.22 4.6 4.6 0 0 1 .13 1.51v.51-.53a5.07 5.07 0 0 0-.18-1.47 8.73 8.73 0 0 0-3.47-4.45 17.24 17.24 0 0 0-3.66-2 16 16 0 0 0-4.81-1.1c-1.77-.11-3.7.08-5.74-.23a10 10 0 0 1-5.72-2.94c-1.63-1.6-3-3.55-4.69-5.3a12.94 12.94 0 0 0-2.88-2.31 8.7 8.7 0 0 0-3.63-1.07 16.34 16.34 0 0 0-7.82 1.78c-2.55 1.17-5 2.73-7.82 3.86a16.37 16.37 0 0 1-4.42 1.17 26 26 0 0 1-4.67-.1 16 16 0 0 0-4.63.11 6.8 6.8 0 0 0-2.12.88 9 9 0 0 0-1.77 1.55 31.46 31.46 0 0 1-3.35 3.63 10.22 10.22 0 0 1-4.66 2c-3.35.61-6.83.14-10.05 1.24a7.36 7.36 0 0 0-3.49 2.44 4.86 4.86 0 0 0-1.08 3.82l-.26-.21 64.45-.53 19.3-.11h6.61a4.57 4.57 0 0 1 .48-.05Z"
              style="fill:#263238"/>
        <path d="M148.82 203.31c.58-4.24-5.4-7.72-9.89-8.09-2.15-.17-4.37.16-6.4-.55-4.4-1.53-6.16-7.21-10.45-9-3.21-1.35-6.91-.14-10 1.42s-6.18 3.54-9.66 3.76c-3 .19-6.3-.93-9 .55-2 1.1-3 3.37-4.82 4.71s-4.1 1.59-6.3 1.71-4.49.14-6.5 1.06-3.67 3-3.25 5.21Z"
              style="fill:#fff"/>
        <path d="M148.82 203.31H147.33l-4.35.08-16.15.24-54.25.64h-.21v-.21a4.53 4.53 0 0 1 1-3.59 6.77 6.77 0 0 1 3.15-2.21c2.85-1 5.8-.55 8.51-1.06a7.93 7.93 0 0 0 3.7-1.54 25.47 25.47 0 0 0 2.76-3 8 8 0 0 1 1.51-1.32 5.94 5.94 0 0 1 1.93-.8 14.38 14.38 0 0 1 4-.1 20.57 20.57 0 0 0 3.83.1 13.47 13.47 0 0 0 3.6-.95c2.3-.92 4.37-2.22 6.55-3.21a14.11 14.11 0 0 1 6.76-1.51 7.69 7.69 0 0 1 3.21 1 11.24 11.24 0 0 1 2.49 2c1.45 1.51 2.58 3.14 3.91 4.46a8 8 0 0 0 4.54 2.52c1.66.26 3.28.12 4.79.23a14.2 14.2 0 0 1 7.2 2.69 7.28 7.28 0 0 1 2.89 3.86 3.66 3.66 0 0 1 .11 1.28v.42-.44a4.35 4.35 0 0 0-.16-1.23 7.31 7.31 0 0 0-2.91-3.73 14.19 14.19 0 0 0-7.1-2.56c-1.48-.09-3.1.07-4.82-.19a8.43 8.43 0 0 1-4.75-2.59c-1.36-1.34-2.51-3-3.94-4.44a10.54 10.54 0 0 0-2.41-1.93 7.32 7.32 0 0 0-3-.9 13.81 13.81 0 0 0-6.54 1.5c-2.14 1-4.22 2.29-6.56 3.24a13.77 13.77 0 0 1-3.73 1 20.53 20.53 0 0 1-3.92-.08 13.61 13.61 0 0 0-3.88.09 6 6 0 0 0-3.24 2 26.57 26.57 0 0 1-2.85 3.04 8.45 8.45 0 0 1-3.94 1.65c-2.82.52-5.74.12-8.42 1.05a6.18 6.18 0 0 0-2.92 2 4 4 0 0 0-.89 3.17l-.26-.21 54.07-.42 16.21-.09h6Z"
              style="fill:#263238"/>
        <path d="M421.44 92.92c.45-3.33-4.25-6.07-7.78-6.36-1.69-.13-3.43.12-5-.43-3.46-1.21-4.84-5.68-8.21-7.1-2.53-1.06-5.43-.12-7.88 1.12s-4.86 2.78-7.59 2.95c-2.38.15-5-.73-7 .43-1.55.87-2.36 2.65-3.79 3.71a9.07 9.07 0 0 1-4.95 1.34 14 14 0 0 0-5.11.83c-1.58.73-2.88 2.39-2.55 4.1Z"
              style="fill:#fff"/>
        <path d="M421.44 92.92h-1.17l-3.41.07-12.69.2-42.66.53h-.22v-.21a3.61 3.61 0 0 1 .79-2.87 5.37 5.37 0 0 1 2.51-1.75c2.25-.77 4.57-.44 6.69-.84a6.11 6.11 0 0 0 2.89-1.2 20.34 20.34 0 0 0 2.16-2.35 5.15 5.15 0 0 1 2.79-1.72 11 11 0 0 1 3.18-.08 16 16 0 0 0 3 .07 10.46 10.46 0 0 0 2.82-.73c1.8-.72 3.43-1.74 5.15-2.52a11 11 0 0 1 5.34-1.19 6 6 0 0 1 2.54.76 8.81 8.81 0 0 1 2 1.59c1.13 1.19 2 2.48 3.07 3.51a6.31 6.31 0 0 0 3.54 2c1.3.21 2.57.09 3.76.18a11.21 11.21 0 0 1 5.67 2.13 5.63 5.63 0 0 1 2.27 3 3.31 3.31 0 0 1 .05 1.34 6 6 0 0 0-.15-1.31 5.69 5.69 0 0 0-2.36-2.84 11.14 11.14 0 0 0-5.57-2c-1.16-.07-2.43.06-3.79-.14a6.64 6.64 0 0 1-3.75-2c-1.08-1.06-2-2.35-3.1-3.5a8.66 8.66 0 0 0-1.89-1.51 5.62 5.62 0 0 0-2.36-.69 10.76 10.76 0 0 0-5.12 1.15c-1.68.77-3.31 1.8-5.16 2.55a10.81 10.81 0 0 1-2.94.78 16.87 16.87 0 0 1-3.1-.06 10.58 10.58 0 0 0-3 .07 4.6 4.6 0 0 0-2.52 1.58 21.47 21.47 0 0 1-2.22 2.4 6.66 6.66 0 0 1-3.12 1.31c-2.22.41-4.52.1-6.61.82a4.88 4.88 0 0 0-2.3 1.55 3.12 3.12 0 0 0-.69 2.45l-.26-.21 42.5-.3h17.13Z"
              style="fill:#263238"/>
    </g>
    <g>
        <path d="m247.09 268.69-.72 16.44s16.47 6.26 16.64 9.31l-31.94-.25.07-25.67Z" style="fill:#455a64"/>
        <path d="M236.51 283.67a1.31 1.31 0 0 0-.92 1.48 1.25 1.25 0 0 0 1.46.92 1.37 1.37 0 0 0 1-1.57 1.3 1.3 0 0 0-1.62-.79"
              style="fill:#e0e0e0"/>
        <g style="opacity:.6000000000000001">
            <path d="m231.07 294.19.11-2.59 30.58 1.21s1.42.63 1.25 1.63Z" style="fill:#fff"/>
        </g>
        <path d="M246.89 285c0 .16-.79.23-1.56.72s-1.18 1.15-1.33 1.09.1-1 1-1.55 1.92-.43 1.89-.26ZM250.23 286.39c0 .15-.64.41-1.18 1.06s-.69 1.35-.85 1.35-.25-.89.43-1.7 1.6-.86 1.6-.71ZM252.1 290.41c-.14 0-.35-.75.05-1.6s1.14-1.18 1.21-1.05-.39.58-.72 1.28-.39 1.36-.54 1.37ZM246.64 281.21c-.07.14-.78-.08-1.67 0s-1.57.33-1.65.19.59-.68 1.63-.73 1.76.42 1.69.54Z"
              style="fill:#263238"/>
        <path d="m296.71 268.69-.71 16.44s16.48 6.26 16.64 9.31l-31.94-.25.07-25.67Z" style="fill:#455a64"/>
        <path d="M286.13 283.67a1.32 1.32 0 0 0-.92 1.48 1.25 1.25 0 0 0 1.46.92 1.36 1.36 0 0 0 1-1.57 1.29 1.29 0 0 0-1.62-.79"
              style="fill:#e0e0e0"/>
        <g style="opacity:.6000000000000001">
            <path d="m280.69 294.19.11-2.59 30.58 1.21s1.42.63 1.25 1.63Z" style="fill:#fff"/>
        </g>
        <path d="M296.51 285c0 .16-.79.23-1.56.72s-1.18 1.15-1.32 1.09.09-1 1-1.55 1.92-.43 1.88-.26ZM299.85 286.39c0 .15-.64.41-1.18 1.06s-.69 1.35-.85 1.35-.24-.89.44-1.7 1.59-.86 1.59-.71ZM301.72 290.41c-.14 0-.35-.75.06-1.6s1.13-1.18 1.2-1.05-.39.58-.71 1.28-.39 1.36-.55 1.37ZM296.26 281.21c-.07.14-.78-.08-1.66 0s-1.57.33-1.65.19.58-.68 1.62-.73 1.77.42 1.69.54ZM231.22 52.74a57.37 57.37 0 0 1-2.81-9.4 19.82 19.82 0 0 1 .43-9.71c.15-.47 1.51-3.64 2-3.61.35 0-.45 3-.26 3.27a16.81 16.81 0 0 1 2.26 9.71 43.9 43.9 0 0 1-1.62 9.71"
              style="fill:#263238"/>
        <path d="m232.27 70.17-1.19-29.71c-.56-8.19 3.1-15.54 11.31-15.87h.89a14.55 14.55 0 0 1 14.26 13.62c.45 7.14.86 15.06.74 18.89-.23 7.87-8.13 9-8.13 9s.34 5.71.4 8c0 0-.84.61-8.18.87s-10.1-4.8-10.1-4.8Z"
              style="fill:#ffbf9d"/>
        <path d="M250.15 66.07A19 19 0 0 1 240 62.86s2.4 5.77 10.27 5.2Z" style="fill:#ff9a6c"/>
        <path d="M254.83 45.37a1.12 1.12 0 0 1-1.1 1.12 1.09 1.09 0 0 1-1.15-1 1.13 1.13 0 0 1 1.11-1.11 1.07 1.07 0 0 1 1.14.99ZM255.55 42.56c-.14.15-1-.5-2.2-.52s-2.1.57-2.23.42.08-.32.47-.6a3.1 3.1 0 0 1 1.8-.52 3 3 0 0 1 1.74.6c.37.29.49.56.42.62ZM244.48 45.56c-.14.14-1-.5-2.19-.52s-2.11.57-2.24.42.08-.33.48-.6a3 3 0 0 1 1.79-.52 2.93 2.93 0 0 1 1.75.59c.36.3.48.56.41.63ZM248.17 52.1a7.63 7.63 0 0 1 2-.32c.31 0 .6-.08.66-.29a1.56 1.56 0 0 0-.19-.92l-.87-2.37a41.91 41.91 0 0 1-2-6.2 40.33 40.33 0 0 1 2.44 6l.84 2.38a1.75 1.75 0 0 1 .13 1.21.76.76 0 0 1-.51.45 2.69 2.69 0 0 1-.53.06 7.53 7.53 0 0 1-1.97 0ZM244.54 42.33c-.15.32-1.34.06-2.77.1s-2.61.33-2.77 0c-.07-.14.16-.43.65-.71a4.79 4.79 0 0 1 4.22-.08c.5.26.74.54.67.69ZM256 38c-.18.32-1.19.25-2.33.48s-2.07.64-2.35.41c-.13-.12 0-.42.33-.76a3.65 3.65 0 0 1 1.8-.86 3.74 3.74 0 0 1 2 .14c.46.22.65.47.55.59Z"
              style="fill:#263238"/>
        <path d="M231.62 46.25c-.14-.06-5.39-1.69-5.31 3.69s5.47 4.2 5.48 4.05-.17-7.74-.17-7.74Z"
              style="fill:#ffbf9d"/>
        <path d="M230 52s-.1.07-.26.14a.9.9 0 0 1-.7 0 2.33 2.33 0 0 1-1.1-2.07 3.1 3.1 0 0 1 .24-1.35 1.11 1.11 0 0 1 .7-.73.47.47 0 0 1 .55.25c.08.15 0 .26.08.27s.11-.09.06-.32a.61.61 0 0 0-.21-.33.71.71 0 0 0-.52-.13 1.29 1.29 0 0 0-1 .85 3.19 3.19 0 0 0-.31 1.51 2.42 2.42 0 0 0 1.41 2.3 1 1 0 0 0 .85-.15c.21-.12.21-.24.21-.24Z"
              style="fill:#ff9a6c"/>
        <path d="M253.85 29.51c.86-.51-1.82-3.27-4-4.19-3.27-1.39-8.24-2.18-11.2-1.27-3.57 1.11-6.52 3-8.25 6.28a21.28 21.28 0 0 0-2.12 10.87 6.48 6.48 0 0 0 .83 3.28c.78 1.17 2.24 1.89 2.22 3.53a2.26 2.26 0 0 0 .6 1.63c1 1 2.19 0 2.72-1 1.14-2.13 1.21-4.66 1.26-7.08a15.91 15.91 0 0 0-.46-5.11c-.29-.89-.73-1.73-1-2.64a3.22 3.22 0 0 1 .31-2.7 3.37 3.37 0 0 1 .43-.45 5.63 5.63 0 0 1 5.55-1.19c3.06 1 8.28 2.48 9.61 1.42a8.19 8.19 0 0 0 2.35-2.5ZM249 55.37c0 .09-.27.27-.81.33a3.86 3.86 0 0 1-2.07-.37 3.81 3.81 0 0 1-1.64-1.33c-.29-.46-.34-.8-.26-.84s.83 1 2.15 1.58 2.54.43 2.63.63Z"
              style="fill:#263238"/>
        <path d="M324 42.26s-.21-1.26-.83-1.26a2.2 2.2 0 0 0-2 1.26c-.43.92 2.83 0 2.83 0ZM308.1 62.31l.62-9.93 2-10.23s1.56-1.66 2.39-1.28.52 1.76.52 1.76 2.18-2.36 3-1.82.52 1.82.52 1.82 2-2.62 2.91-1.9 0 1.9 0 1.9 1.23 11.45.61 15.55a7.58 7.58 0 0 1-4.11 5.61l-1.65 6.44-8.13-4.42Z"
              style="fill:#ffbf9d"/>
        <path style="fill:#566bb1" d="m313.07 49.31-44.14-.49v-3.53l44.14-1.24v5.26z"/>
        <path d="m359.68 52.81-62.37-2.63a10.47 10.47 0 0 1 0-6.89l62-2.74c2.79 2.97 2.82 9.21.37 12.26Z"
              style="fill:#566bb1"/>
        <path d="M359.08 41.12s-1.88 1.76-1.81 5.59 2 5.44 2 5.44a8.19 8.19 0 0 0 1.75-6c-.33-3.75-1.94-5.03-1.94-5.03Z"
              style="fill:#e0e0e0"/>
        <path d="M356.58 52.81a4.44 4.44 0 0 1-1.21-1.51 8.78 8.78 0 0 1-1.23-4.53 10 10 0 0 1 1.09-4.55 3.81 3.81 0 0 1 1.22-1.52c.07 0-.41.62-.89 1.68a11.48 11.48 0 0 0-.9 4.4 9.68 9.68 0 0 0 1 4.35 16.53 16.53 0 0 1 .92 1.68ZM359.36 40.69c.07.06-.39.64-.89 1.7a9.81 9.81 0 0 0 .17 8.77 4.77 4.77 0 0 0 1.11 1.5s-.21 0-.5-.21a3.65 3.65 0 0 1-.93-1.11 9 9 0 0 1-.17-9.12 4.16 4.16 0 0 1 1.21-1.53Z"
              style="fill:#263238"/>
        <path d="M360.17 43.89a1.51 1.51 0 0 0-.33-.54.64.64 0 0 0-.58-.2.6.6 0 0 0-.44.43.9.9 0 0 0 .07.62c.23.45.6.87.58 1.32s-.12.9-.09 1.35a.93.93 0 0 0 .15.46.45.45 0 0 0 .42.21c.27 0 .4-.34.46-.6a5.06 5.06 0 0 0-.24-3.05Z"
              style="fill:#fff"/>
        <path d="M297.3 50.4a5.93 5.93 0 0 1-.85-3.58 5.92 5.92 0 0 1 1-3.55c.15.06-.43 1.59-.45 3.56s.45 3.52.3 3.57Z"
              style="fill:#263238"/>
        <path d="M268.84 49.66a.67.67 0 0 1-.67-.67v-3.74a.67.67 0 0 1 .67-.67.68.68 0 0 1 .68.67V49a.68.68 0 0 1-.68.66Z"
              style="fill:#566bb1"/>
        <path d="M268.84 49.66s.18 0 .36-.23a.57.57 0 0 0 .17-.4v-.7c0-.6 0-1.22-.05-1.86v-1.1a.43.43 0 0 0-.42-.53.44.44 0 0 0-.42.53v1.1q0 1-.06 1.86v.7a.56.56 0 0 0 .16.4c.18.18.37.19.36.23s-.19.11-.49-.07a.75.75 0 0 1-.32-.53v-.73c0-.6 0-1.22-.05-1.86v-1.1a1 1 0 0 1 .21-.71.94.94 0 0 1 .72-.34 1 1 0 0 1 .73.34 1 1 0 0 1 .2.71v1.1q0 1-.06 1.86v.73a.79.79 0 0 1-.33.53c-.55.18-.72.09-.71.07Z"
              style="fill:#263238"/>
        <path d="M276.51 57.06s-.94-11.59-.66-12.61 3.47-4.6 4.59-4.72 1.24 1.12 1.24 1.12a7 7 0 0 1 3.11-1.13 1.7 1.7 0 0 1 1.84 1.39 3.35 3.35 0 0 1 2.47-.39c.66.12 1.42 1.28 1.42 1.28s1.63-.7 2.41 0a3.85 3.85 0 0 1 1 2.56 4.93 4.93 0 0 0-2.9.92A61.73 61.73 0 0 1 290 53c-.62 2.48-3.08 4.54-3.91 5.82l-.65 8.57-10.54-5.56Z"
              style="fill:#ffbf9d"/>
        <path d="M278.88 45.32a3.92 3.92 0 0 1 .87-3 3.88 3.88 0 0 1 2.53-1.85 17.65 17.65 0 0 0-2.1 2.15 19.37 19.37 0 0 0-1.3 2.7ZM284 45.12a3.06 3.06 0 0 1 .44-2.75 3.14 3.14 0 0 1 1.56-1.32c.5-.17.83-.13.84-.07s-1.22.4-1.95 1.67a12.8 12.8 0 0 0-.89 2.47ZM287.82 44.74c-.14 0 .09-1.13 1.08-2s2.09-1 2.1-.88-.89.47-1.75 1.27-1.25 1.66-1.43 1.61Z"
              style="fill:#ff9a6c"/>
        <path d="M314.8 59.91c1.76-2.07.42-7.64.42-7.64a5 5 0 0 0 3.11-3.27c.62-2.49-.62-2.91-.62-2.91-.42.21-4.26 2.7-6.23 3.74s-2.59 11.6-2.59 11.6"
              style="fill:#ffbf9d"/>
        <path d="M308.89 61.39a6.26 6.26 0 0 1 0-1.39c.05-.89.14-2.17.33-3.76a22.59 22.59 0 0 1 1.24-5.49 4.23 4.23 0 0 1 .42-.74 1.91 1.91 0 0 1 .71-.57c.48-.26 1-.54 1.45-.83l3-1.85c.52-.32 1-.63 1.54-.94l.1-.06.1.05a1.57 1.57 0 0 1 .83 1 3 3 0 0 1 .13 1.14 5 5 0 0 1-3.46 4.56l.14-.26a15.55 15.55 0 0 1 .28 5.74 4.83 4.83 0 0 1-.54 1.52 1.9 1.9 0 0 1-.37.43 2.27 2.27 0 0 1 .25-.5 5.23 5.23 0 0 0 .42-1.49 16.7 16.7 0 0 0-.46-5.59l-.05-.19.19-.07a5 5 0 0 0 2.61-2.3 4.7 4.7 0 0 0 .48-1.87 1.63 1.63 0 0 0-.62-1.6h.2c-.47.27-1 .61-1.49.92-1 .64-2 1.26-3 1.85-.49.29-1 .57-1.47.83a1.39 1.39 0 0 0-.56.43 2.68 2.68 0 0 0-.37.64 23.1 23.1 0 0 0-1.31 5.34c-.24 1.57-.39 2.85-.5 3.73a7.31 7.31 0 0 1-.22 1.32Z"
              style="fill:#ff9a6c"/>
        <path d="M232.3 152.59s1.23 50.33 0 56.47-3.3 31.51-3.3 50.33.79 23.11.79 23.11h18.27s1.3-35.78 6.94-56.5c5.24-19.23 11.27-48.47 11.27-61.15v-17.17h-32.33Z"
              style="fill:#263238"/>
        <path d="M276.5 147.68s19.17 53.2 20.4 68.75 1.28 66.07 1.28 66.07h-18.92l-2.52-61-14.56-39.54v-34.28Z"
              style="fill:#263238"/>
        <path d="M266.27 176.33a8.28 8.28 0 0 1-.24 1.44c-.19 1-.45 2.34-.76 3.92-.65 3.41-1.52 7.94-2.47 12.94s-1.9 9.63-2.63 12.92c-.37 1.65-.69 3-.93 3.89a7.61 7.61 0 0 1-.43 1.41 8.15 8.15 0 0 1 .24-1.45c.19-1 .45-2.34.75-3.92.66-3.41 1.52-7.94 2.48-12.95s1.9-9.62 2.63-12.91c.37-1.65.69-3 .93-3.89a7 7 0 0 1 .43-1.4ZM283.76 171.17h4.05s.93-14-1.41-23.49S272.1 97 272.1 97l-13.24-21.84-7.1-3.16 23.32 78.19Z"
              style="fill:#455a64"/>
        <path d="M269 103.24s12.26 36.33 14.29 45.85a213.39 213.39 0 0 1 3.08 22.08h-2.62l-9.63-25.36s-10-40.32-9.57-40.22 4.45-2.35 4.45-2.35Z"
              style="opacity:.30000000000000004"/>
        <path d="m229.5 71.12 1.1-7 19.56 8.78v-4.23l8.64 14.42 19 54c.61 1.67 1.35 7.21.24 8.6l-1.55 2-20.6 2.67-19.53-70.55Z"
              style="fill:#e0e0e0"/>
        <path d="M232.74 176.33s26.16 2.93 31.52.8a9.09 9.09 0 0 0 5.62-7.61s2.62-18.57 2.44-22.67a81.24 81.24 0 0 0-1.7-11.27l-37.93 37.47Z"
              style="opacity:.30000000000000004"/>
        <path d="M252.44 79.19s8.94 30.44 8.87 30.66 9.91 31.15 9.91 31.15l2-9.31-13.9-46.39-5.59-6.85Z"
              style="fill:#566bb1"/>
        <path d="M223.69 74c-9.17 5.59-9.64 14.26-5.56 24.2.67 1.65 2 4.48 2.88 6.4 3.94 8.39 12.13 22.08 12.13 25.28 0 7.54-6.75 42.51-6.75 42.51s36.58 4.44 39.88 1 5.84-25 4.78-34.64c-1.17-10.64-6.65-28.64-8.87-35.3-1.34-4-5.75-14-11-20.52a59.71 59.71 0 0 0-13.87-12.57l-7.79-5.1-1.6 5.4a27.65 27.65 0 0 1-4.23 3.34ZM259.29 76.39c.76 0 34.19 10.92 32.25 10.12l.9-.94 12-18.16 11 6.51S304.57 94.73 302.77 98a10 10 0 0 1-8.87 5.26c-2.45 0-23.39-3.51-23.39-3.51Z"
              style="fill:#455a64"/>
        <path style="fill:#e0e0e0" d="m272.74 63.89 2.59-4.58 11.64 6.63-1.81 5.04-12.42-7.09z"/>
        <path d="M221.53 98.51S244 111 251.15 112.69s15.12 3.94 15.12 3.94l-3.21-10.22-19.53-11.87Z"
              style="opacity:.30000000000000004"/>
        <path d="M221.53 98.51c-.28-.21 33.71 11.88 40.64 9.7s9.17-9 11.65-13.27c4.53-7.73 12.56-23.11 12.56-23.11L272 63.6l-14.32 24S232.33 77.14 230 76.46s-9.54-1.62-13.06 6.81c-3.94 9.33 4.59 15.24 4.59 15.24Z"
              style="fill:#455a64"/>
        <path d="M221.53 98.51a1.05 1.05 0 0 1-.26-.16c-.16-.12-.4-.31-.7-.57a15 15 0 0 1-2.34-2.57 12.64 12.64 0 0 1-2.24-5.1 11.33 11.33 0 0 1-.19-1.7c0-.59.06-1.2.08-1.84s.22-1.26.42-1.9a16.79 16.79 0 0 1 .72-1.93 13.19 13.19 0 0 1 2.42-3.74 9.82 9.82 0 0 1 4.08-2.62 11 11 0 0 1 5.23-.41 11.44 11.44 0 0 1 2.67.76l2.65 1c7.14 2.81 15.09 6.06 23.66 9.58l-.3.1 14.31-24 .13-.22.22.13 5.19 3 9.23 5.27.22.12-.12.22c-2.83 5.4-5.62 10.63-8.36 15.62-1.38 2.5-2.74 4.94-4.12 7.31s-2.44 4.8-3.88 7a16.21 16.21 0 0 1-5.39 5.38 11.27 11.27 0 0 1-3.44 1.33 15.59 15.59 0 0 1-3.55 0 87.6 87.6 0 0 1-12.5-2.56c-7.52-2-13.46-4-17.54-5.32s-6.3-2.18-6.3-2.18a1.49 1.49 0 0 1 .42.1l1.22.38 4.71 1.52c4.11 1.29 10.06 3.2 17.57 5.16a87.38 87.38 0 0 0 12.46 2.49 15.3 15.3 0 0 0 3.45 0 11.09 11.09 0 0 0 3.28-1.29 15.73 15.73 0 0 0 5.22-5.26c1.42-2.15 2.48-4.6 3.86-7s2.72-4.8 4.09-7.29c2.73-5 5.52-10.23 8.34-15.63l.11.35-9.26-5.25-5.18-3 .35-.09c-5.06 8.44-9.9 16.54-14.34 24l-.11.18-.19-.08C249 84.27 241 81 233.92 78.15l-2.64-1a10.9 10.9 0 0 0-2.59-.76 10.73 10.73 0 0 0-5.06.37 9.54 9.54 0 0 0-3.95 2.51 13.09 13.09 0 0 0-2.39 3.61 16.23 16.23 0 0 0-.72 1.89c-.2.62-.28 1.26-.42 1.86s-.13 1.21-.1 1.79a11.11 11.11 0 0 0 .17 1.67 12.63 12.63 0 0 0 2.14 5.05 15.63 15.63 0 0 0 2.27 2.6c.28.27.51.46.67.59Z"
              style="fill:#263238"/>
        <path style="fill:#455a64" d="m237.87 149.74 3.15-6.38 22.04.39-2.45 6.6-22.74-.61z"/>
        <path d="M237.87 149.74h6.59c4.07.06 9.7.14 16.16.3l-.25.17c.75-2 1.53-4.13 2.34-6.3l.11-.3.24.35c-8.88-.16-16.8-.33-22-.48l.15-.09-2.42 4.61c-.27.51-.49.92-.66 1.26a3.81 3.81 0 0 1-.26.45s0-.13.17-.41.35-.74.58-1.25l2.25-4.79v-.1h.13c5.24 0 13.16.14 22 .3h.37l-.13.34-.11.3-2.34 6.29-.07.17h-.18c-6.58-.19-12.32-.41-16.36-.57l-4.72-.19-1.24-.06a2.25 2.25 0 0 1-.35 0ZM252.58 84.76c-.07.13-5.65-2.94-12.47-6.85s-12.28-7.18-12.21-7.3 5.65 2.94 12.47 6.85 12.29 7.18 12.21 7.3ZM260.2 132.88c0 .14-5.31-.08-11.85-.5s-11.84-.87-11.83-1 5.32.08 11.86.5 11.83.86 11.82 1Z"
              style="fill:#263238"/>
        <path style="fill:#e0e0e0" d="m305.17 67.9 2.22-3.74 8.8 5.14-1.71 4.06-9.31-5.46z"/>
        <path d="M293.84 94.19a9.08 9.08 0 0 1-2.58-7.49c.15 0 .2 1.8.92 3.87s1.82 3.53 1.66 3.62ZM272.31 97.76a42.39 42.39 0 0 1 2.07 6.24 40.84 40.84 0 0 1 1.57 6.39 43.3 43.3 0 0 1-2.07-6.24 40.84 40.84 0 0 1-1.57-6.39ZM258.81 95.15a7.54 7.54 0 0 1-1.29-7.67 26 26 0 0 0 .1 3.93 25.77 25.77 0 0 0 1.19 3.74Z"
              style="fill:#263238"/>
        <path style="opacity:.30000000000000004" d="m239.64 149.78-.39 1.93 22.82.64.99-8.6-2.45 6.6-20.97-.57z"/>
        <path style="fill:#566bb1" d="m249.68 77.15.24.26 2.52 1.78 1.26-.71-.82-2.79-2.66-2-.54 3.46z"/>
        <path d="M253.08 73.69a11.87 11.87 0 0 1 .57 2.41l.08.43-.37-.26c-.88-.62-2-1.44-3.29-2.38l.4-.16c-.12.79-.25 1.62-.38 2.48-.09.52-.17 1-.24 1.51l-.06.35-.31-.16c-1.92-.94-3.59-1.78-4.78-2.41a10.08 10.08 0 0 1-1.87-1.09 9.5 9.5 0 0 1 2 .79c1.23.54 2.94 1.33 4.86 2.25l-.36.19.23-1.51c.14-.86.27-1.69.4-2.47l.07-.42.33.25c1.26 1 2.37 1.83 3.21 2.5l-.29.17a12.36 12.36 0 0 1-.2-2.47Z"
              style="fill:#263238"/>
    </g>
</svg>