<svg width="120" height="120" viewBox="0 0 120 120" fill="none" xmlns="http://www.w3.org/2000/svg">
    <path fill-rule="evenodd" clip-rule="evenodd" d="M22.5 21C21.6729 21 21 20.3271 21 19.5C21 18.6728 21.6729 18 22.5 18C23.3271 18 24 18.6728 24 19.5C24 20.3271 23.3271 21 22.5 21Z" fill="#ECECFE"/>
    <path fill-rule="evenodd" clip-rule="evenodd" d="M7.5 105C6.6729 105 6 104.327 6 103.5C6 102.673 6.6729 102 7.5 102C8.3271 102 9 102.673 9 103.5C9 104.327 8.3271 105 7.5 105Z" fill="#ECECFE"/>
    <path fill-rule="evenodd" clip-rule="evenodd" d="M112.5 96C111.673 96 111 95.3271 111 94.5C111 93.6728 111.673 93 112.5 93C113.327 93 114 93.6728 114 94.5C114 95.3271 113.327 96 112.5 96Z" fill="#ECECFE"/>
    <path fill-rule="evenodd" clip-rule="evenodd" d="M88.5 18C87.6729 18 87 17.3271 87 16.5C87 15.6728 87.6729 15 88.5 15C89.3271 15 90 15.6728 90 16.5C90 17.3271 89.3271 18 88.5 18Z" fill="#ECECFE"/>
    <path d="M63.2218 15C88.0746 15 108.222 35.1472 108.222 60C108.222 60.8284 107.55 61.5 106.722 61.5C105.893 61.5 105.222 60.8284 105.222 60C105.222 36.804 86.4177 18 63.2218 18C40.0258 18 21.2218 36.804 21.2218 60C21.2218 83.196 40.0258 102 63.2218 102C79.9539 102 94.8825 92.1262 101.589 77.1125C101.927 76.3561 102.814 76.0168 103.571 76.3547C104.327 76.6926 104.666 77.5797 104.329 78.3361C97.1432 94.4209 81.1481 105 63.2218 105C38.369 105 18.2218 84.8528 18.2218 60C18.2218 35.1472 38.369 15 63.2218 15Z" fill="#FFFF6B"/>
    <path d="M106.722 72.8889C106.722 73.7787 106 74.5 105.111 74.5C104.221 74.5 103.5 73.7787 103.5 72.8889C103.5 71.9991 104.221 71.2778 105.111 71.2778C106 71.2778 106.722 71.9991 106.722 72.8889Z" fill="#FFFF6B"/>
    <path d="M21.7393 31.5481C21.0802 31.0463 20.139 31.1739 19.6372 31.833C14.5678 38.4921 11.7773 46.6196 11.7773 55.1667C11.7773 55.9951 12.4489 56.6667 13.2773 56.6667C14.1058 56.6667 14.7773 55.9951 14.7773 55.1667C14.7773 47.2818 17.349 39.7914 22.0242 33.6502C22.526 32.9911 22.3985 32.0499 21.7393 31.5481Z" fill="#FFFF6B"/>
    <path fill-rule="evenodd" clip-rule="evenodd" d="M83.9948 52.3754C82.9301 39.599 75.7812 33 63 33C50.2188 33 43.0699 39.599 42.0052 52.3754C41.9246 53.3423 42.7692 54.1301 43.7281 53.9826L46.5 53.5561V54.2115C45.4263 54.4184 44.6349 54.7048 44.0801 55.1184C42.6732 56.1674 41.9999 57.8448 41.9999 60C41.9999 63.8284 44.1714 66 47.9999 66C48.1632 66 48.3204 65.9739 48.4676 65.9256C50.0633 69.0199 52.537 71.5483 55.5428 73.1429C55.5148 73.2573 55.5 73.3769 55.5 73.5C55.5 75.448 54.5717 77.1792 53.1332 78.2753C53.11 78.2917 53.0874 78.3087 53.0653 78.3263C52.0685 79.0639 50.8352 79.5 49.5 79.5H46.5L46.1626 79.5062C41.3484 79.6836 37.5 83.6424 37.5 88.5C37.5 89.3284 38.1716 90 39 90C39.8284 90 40.5 89.3284 40.5 88.5C40.5 85.1863 43.1863 82.5 46.5 82.5H49.5L49.8374 82.4938C51.092 82.4476 52.281 82.1445 53.3534 81.6357C54.9616 84.1667 57.9276 84.9393 61.8638 83.9552C62.6675 83.7543 63.1561 82.9399 62.9552 82.1362C62.7543 81.3325 61.9399 80.8439 61.1362 81.0448C58.3316 81.7459 56.6935 81.3664 55.8196 79.908C57.2875 78.4602 58.2603 76.5119 58.4613 74.3398C59.9027 74.7697 61.4252 75 63 75C64.5748 75 66.0973 74.7697 67.5387 74.3398C67.952 78.8063 71.629 82.3267 76.1626 82.4938L76.5 82.5H79.5C82.8137 82.5 85.5 85.1863 85.5 88.5C85.5 89.3284 86.1716 90 87 90C87.8284 90 88.5 89.3284 88.5 88.5C88.5 83.6424 84.6516 79.6836 79.8374 79.5062L79.5 79.5H76.5C73.1863 79.5 70.5 76.8137 70.5 73.5C70.5 73.3769 70.4852 73.2573 70.4572 73.1429C73.463 71.5483 75.9367 69.0199 77.5324 65.9257C77.6796 65.9739 77.8367 66 78 66C81.8284 66 84 63.8284 84 60C84 57.8448 83.3266 56.1674 81.9198 55.1184C81.1614 54.553 79.9608 54.2254 78.2016 54.0134C78.1375 54.0048 78.072 54.0003 78.0056 54L78.0032 53.9999C77.8584 53.9994 77.7173 54.0198 77.5833 54.0586C77.3673 54.121 77.1712 54.2306 77.0072 54.3756C76.7169 54.632 76.5267 54.9991 76.5026 55.4108C76.5003 55.4485 76.4995 55.4859 76.5 55.5231V57.75L76.4944 58.1636C76.2869 65.8573 70.3085 72 63 72C55.561 72 49.5 65.636 49.5 57.75V53.0946L63.2281 50.9826L63.4051 50.9443C63.8096 50.8309 64.1513 50.5516 64.3416 50.1708L65.8416 47.1708L65.9108 47.0098C66.167 46.3038 65.8589 45.5024 65.1708 45.1584L65.0098 45.0892C64.3038 44.833 63.5024 45.1411 63.1584 45.8292L62.004 48.135L45.21 50.718L45.2373 50.5249C46.7074 40.7266 52.505 36 63 36L63.5387 36.0042C73.5155 36.1617 79.1192 40.7309 80.6828 50.0226L80.76 50.5185L70.8638 48.0448L70.6917 48.0121C69.9469 47.9153 69.2314 48.3899 69.0448 49.1362C68.8439 49.9399 69.3325 50.7543 70.1362 50.9552L82.1362 53.9552L82.3114 53.9884C83.2412 54.1091 84.0752 53.3395 83.9948 52.3754ZM46.5 57.2852C46.1818 57.3687 45.9695 57.4518 45.8733 57.5235C45.311 57.9427 44.9999 58.7179 44.9999 60C44.9999 61.9078 45.6392 62.7789 47.267 62.9624C46.8095 61.4518 46.5455 59.8518 46.5054 58.1945L46.5 57.75V57.2852ZM81 60C81 61.9077 80.3607 62.7788 78.733 62.9624C79.2313 61.3172 79.5 59.5659 79.5 57.75V57.2852C79.8181 57.3687 80.0304 57.4518 80.1266 57.5235C80.6888 57.9427 81 58.7179 81 60Z" fill="white"/>
</svg>
