<svg width="120" height="120" viewBox="0 0 120 120" fill="none" xmlns="http://www.w3.org/2000/svg">
    <path fill-rule="evenodd" clip-rule="evenodd" d="M88.5 114C87.6729 114 87 113.327 87 112.5C87 111.673 87.6729 111 88.5 111C89.3271 111 90 111.673 90 112.5C90 113.327 89.3271 114 88.5 114Z" fill="#ECECFE"/>
    <path fill-rule="evenodd" clip-rule="evenodd" d="M100.5 18C99.6729 18 99 17.3271 99 16.5C99 15.6728 99.6729 15 100.5 15C101.327 15 102 15.6728 102 16.5C102 17.3271 101.327 18 100.5 18Z" fill="#ECECFE"/>
    <path fill-rule="evenodd" clip-rule="evenodd" d="M13.5 24C12.6729 24 12 23.3271 12 22.5C12 21.6728 12.6729 21 13.5 21C14.3271 21 15 21.6728 15 22.5C15 23.3271 14.3271 24 13.5 24Z" fill="#ECECFE"/>
    <path d="M55.5 34.5C55.5 33.6716 54.8284 33 54 33H36L35.8251 33.0101C35.0791 33.0967 34.5 33.7307 34.5 34.5C34.5 35.3284 35.1716 36 36 36H54L54.1749 35.9899C54.9209 35.9033 55.5 35.2693 55.5 34.5Z" fill="#FFFF6B"/>
    <path d="M58.5 60C56.8431 60 55.5 61.3431 55.5 63C55.5 66.7306 57.013 69 60 69C60.8284 69 61.5 68.3284 61.5 67.5C61.5 66.6716 60.8284 66 60 66L59.8589 65.9949C59.6798 65.9817 59.5189 65.9418 59.3758 65.8701C60.6054 65.4954 61.5 64.3522 61.5 63C61.5 61.3431 60.1569 60 58.5 60Z" fill="#FFFF6B"/>
    <path d="M64.5 63C64.5 61.3431 65.8431 60 67.5 60C69.1569 60 70.5 61.3431 70.5 63C70.5 64.3522 69.6054 65.4954 68.3758 65.8701C68.5189 65.9418 68.6798 65.9817 68.8589 65.9949L69 66C69.8284 66 70.5 66.6716 70.5 67.5C70.5 68.3284 69.8284 69 69 69C66.013 69 64.5 66.7306 64.5 63Z" fill="#FFFF6B"/>
    <path d="M51 39C51.8284 39 52.5 39.6716 52.5 40.5C52.5 41.2693 51.9209 41.9033 51.1749 41.9899L51 42H36C35.1716 42 34.5 41.3284 34.5 40.5C34.5 39.7307 35.0791 39.0967 35.8251 39.0101L36 39H51Z" fill="#FFFF6B"/>
    <path d="M46.5 46.5C46.5 45.6716 45.8284 45 45 45H36L35.8251 45.0101C35.0791 45.0967 34.5 45.7307 34.5 46.5C34.5 47.3284 35.1716 48 36 48H45L45.1749 47.9899C45.9209 47.9033 46.5 47.2693 46.5 46.5Z" fill="#FFFF6B"/>
    <path d="M84 75C84.8284 75 85.5 75.6716 85.5 76.5C85.5 77.2693 84.9209 77.9033 84.1749 77.9899L84 78H57C56.1716 78 55.5 77.3284 55.5 76.5C55.5 75.7307 56.0791 75.0967 56.8251 75.0101L57 75H84Z" fill="#FFFF6B"/>
    <path d="M79.5 82.5C79.5 81.6716 78.8284 81 78 81H57L56.8251 81.0101C56.0791 81.0967 55.5 81.7307 55.5 82.5C55.5 83.3284 56.1716 84 57 84H78L78.1749 83.9899C78.9209 83.9033 79.5 83.2693 79.5 82.5Z" fill="#FFFF6B"/>
    <path d="M48 18C58.2811 18 66.4319 24.0857 70.3918 33.9407C70.7007 34.7094 70.328 35.583 69.5593 35.8918C68.7906 36.2007 67.917 35.828 67.6082 35.0593C64.0857 26.2931 56.9965 21 48 21C35.5736 21 25.5 31.0736 25.5 43.5C25.5 48.3237 27.0199 52.9143 29.7986 56.7301C30.1509 57.2139 30.1787 57.8544 29.8857 58.3622L29.7761 58.5262L24.0405 66H33C33.7693 66 34.4033 66.5791 34.4899 67.3251L34.5 67.5C34.5 68.2693 33.9209 68.9033 33.1749 68.9899L33 69H21C19.8129 69 19.1179 67.7003 19.7157 66.724L19.8099 66.5869L26.73 57.567L26.6452 57.4416C24.0762 53.5151 22.6292 48.9436 22.5083 44.1544L22.5 43.5C22.5 29.4167 33.9167 18 48 18Z" fill="white"/>
    <path d="M70.5 42C87.0685 42 100.5 55.4315 100.5 72C100.5 76.696 99.419 81.2407 97.3706 85.3547C97.0013 86.0963 96.1008 86.3981 95.3593 86.0289C94.6177 85.6597 94.3158 84.7592 94.6851 84.0176C96.5278 80.3166 97.5 76.2293 97.5 72C97.5 57.0883 85.4117 45 70.5 45C55.5883 45 43.5 57.0883 43.5 72C43.5 86.746 55.3212 98.731 70.004 98.9955L70.5 99H96.1965L91.7519 92.332C91.3252 91.692 91.4553 90.8433 92.028 90.3574L92.168 90.2519C92.808 89.8252 93.6567 89.9553 94.1426 90.528L94.2481 90.668L100.248 99.668C100.881 100.617 100.263 101.874 99.1678 101.991L99 102H70.5C53.9315 102 40.5 88.5685 40.5 72C40.5 55.4315 53.9315 42 70.5 42Z" fill="white"/>
    <path d="M82.5 28.5C82.5 29.3271 83.1729 30 84 30C84.8271 30 85.5 29.3271 85.5 28.5C85.5 27.6728 84.8271 27 84 27C83.1729 27 82.5 27.6728 82.5 28.5Z" fill="white"/>
    <path d="M90 30C89.1729 30 88.5 29.3271 88.5 28.5C88.5 27.6728 89.1729 27 90 27C90.8271 27 91.5 27.6728 91.5 28.5C91.5 29.3271 90.8271 30 90 30Z" fill="white"/>
    <path d="M94.5 28.5C94.5 29.3271 95.1729 30 96 30C96.8271 30 97.5 29.3271 97.5 28.5C97.5 27.6728 96.8271 27 96 27C95.1729 27 94.5 27.6728 94.5 28.5Z" fill="white"/>
    <path fill-rule="evenodd" clip-rule="evenodd" d="M102 21H78C77.1716 21 76.5 21.6716 76.5 22.5V34.5L76.5101 34.6749C76.5967 35.4209 77.2307 36 78 36H89.3775L94.9393 41.5607L95.0662 41.6748C96.0217 42.4462 97.5 41.7783 97.5 40.5V36H102C102.828 36 103.5 35.3284 103.5 34.5V22.5C103.5 21.6716 102.828 21 102 21ZM100.5 24V33H96L95.8251 33.0101C95.0791 33.0967 94.5 33.7307 94.5 34.5V36.8775L91.0607 33.4393L90.912 33.3091C90.6517 33.1097 90.3315 33 90 33H79.5V24H100.5Z" fill="white"/>
    <path d="M24 87C24.8284 87 25.5 87.6716 25.5 88.5C25.5 89.2693 24.9209 89.9033 24.1749 89.9899L24 90H18C17.1716 90 16.5 89.3284 16.5 88.5C16.5 87.7307 17.0791 87.0967 17.8251 87.0101L18 87H24Z" fill="white"/>
    <path d="M28.5 88.5C28.5 89.3271 29.1729 90 30 90C30.8271 90 31.5 89.3271 31.5 88.5C31.5 87.6728 30.8271 87 30 87C29.1729 87 28.5 87.6728 28.5 88.5Z" fill="white"/>
    <path d="M36 90C35.1729 90 34.5 89.3271 34.5 88.5C34.5 87.6728 35.1729 87 36 87C36.8271 87 37.5 87.6728 37.5 88.5C37.5 89.3271 36.8271 90 36 90Z" fill="white"/>
</svg>
