<?xml version="1.0" encoding="utf-8"?>
<!-- Generator: Adobe Illustrator 14.0.0, SVG Export Plug-In . SVG Version: 6.00 Build 43363)  -->
<!DOCTYPE svg PUBLIC "-//W3C//DTD SVG 1.1//EN" "http://www.w3.org/Graphics/SVG/1.1/DTD/svg11.dtd">
<svg version="1.1" id="Calque_1" xmlns="http://www.w3.org/2000/svg" xmlns:xlink="http://www.w3.org/1999/xlink" x="0px" y="0px"
	 width="141.73px" height="141.73px" viewBox="0 0 141.73 141.73" enable-background="new 0 0 141.73 141.73" xml:space="preserve">
<g>
	<rect x="1.416" y="1.428" fill-rule="evenodd" clip-rule="evenodd" fill="none" width="138.875" height="138.875"/>
	<rect x="1.425" y="1.428" fill="#0F6BAF" width="138.89" height="138.875"/>
	<path fill-rule="evenodd" clip-rule="evenodd" fill="#9CB4DA" d="M51.345,55.687l0.953-0.531h-1.76
		C50.835,55.349,51.109,55.528,51.345,55.687"/>
	<path fill-rule="evenodd" clip-rule="evenodd" fill="#9CB4DA" d="M65.871,62.167c-0.767-0.281-1.367-0.863-1.688-1.641
		c-0.053-0.125-0.094-0.254-0.129-0.387c-0.401,0.408-0.861,0.77-1.379,1.059l-4.609,2.564h7.295
		c0.146-0.551,0.361-1.072,0.639-1.557L65.871,62.167"/>
	<path fill-rule="evenodd" clip-rule="evenodd" fill="#9CB4DA" d="M79.922,61.132c-0.471-0.311-0.871-0.703-1.195-1.15
		c-0.104,0.316-0.25,0.625-0.443,0.902c-0.617,0.896-1.559,1.404-2.512,1.455c0.162,0.453,0.262,0.932,0.307,1.424h7.516
		c0.01-0.068,0.018-0.135,0.027-0.203L79.922,61.132"/>
	<path fill-rule="evenodd" clip-rule="evenodd" fill="#9CB4DA" d="M106.34,55.155c0.355,2.322-0.83,4.811-3.043,6.041
		c0,0.002-3.029,1.688-4.611,2.566h29.826v-8.607H106.34"/>
	<path fill-rule="evenodd" clip-rule="evenodd" fill="#AFC2E1" d="M43.001,63.56l-3.702-2.428c-1.083-0.715-1.813-1.842-2.061-3.176
		c-0.169-0.922-0.096-1.887,0.203-2.801H13.352v8.607h29.621C42.982,63.694,42.992,63.628,43.001,63.56"/>
	<path fill-rule="evenodd" clip-rule="evenodd" fill="#9CB4DA" d="M91.158,55.155c0.301,0.193,0.57,0.373,0.807,0.531l0.955-0.531
		H91.158"/>
	<path fill-rule="evenodd" clip-rule="evenodd" fill="#FFFFFF" d="M75.971,12.967c2.701,0,5.207-2.148,5.596-4.802
		c0.391-2.649-1.486-4.801-4.188-4.801c-2.697,0-5.207,2.151-5.596,4.801C71.393,10.819,73.268,12.967,75.971,12.967"/>
	<path fill-rule="evenodd" clip-rule="evenodd" fill="#FFFFFF" d="M92.824,11.083c-0.965-2.185-3.699-2.931-6.105-1.67l-11.057,5.79
		l-9.35-5.79c-2.039-1.261-4.994-0.515-6.6,1.67c-1.605,2.184-1.25,4.976,0.786,6.237l6.48,3.989l-1.677,11.42
		c-0.042,0.294-0.013,0.592,0.107,0.863c0.365,0.828,1.406,1.111,2.318,0.633l5.573-2.916l4.713,2.916
		c0.773,0.479,1.895,0.195,2.504-0.633c0.199-0.271,0.318-0.569,0.365-0.863l1.674-11.42l7.648-3.989
		C92.615,16.058,93.787,13.266,92.824,11.083"/>
	<path fill-rule="evenodd" clip-rule="evenodd" fill="#FFFFFF" d="M71.291,44.852c2.698,0,5.204-2.152,5.596-4.802
		c0.387-2.651-1.486-4.802-4.188-4.802c-2.702,0-5.207,2.15-5.596,4.802C66.714,42.7,68.586,44.852,71.291,44.852"/>
	<path fill-rule="evenodd" clip-rule="evenodd" fill="#FFFFFF" d="M88.145,42.966c-0.965-2.184-3.699-2.932-6.109-1.672
		l-11.053,5.792l-9.352-5.792c-2.039-1.26-4.994-0.512-6.599,1.672s-1.252,4.977,0.786,6.233l6.479,3.992l-1.679,11.42
		c-0.041,0.297-0.008,0.592,0.111,0.863c0.365,0.828,1.403,1.111,2.318,0.635l5.571-2.92l4.712,2.92
		c0.775,0.477,1.896,0.193,2.502-0.635c0.199-0.271,0.322-0.566,0.363-0.863l1.678-11.42l7.65-3.992
		C87.936,47.943,89.107,45.15,88.145,42.966"/>
	<path fill-rule="evenodd" clip-rule="evenodd" fill="#FFFFFF" d="M45.628,28.916c2.701,0,5.207-2.148,5.596-4.802
		c0.391-2.649-1.486-4.802-4.187-4.802c-2.702,0-5.207,2.152-5.597,4.802C41.051,26.767,42.926,28.916,45.628,28.916"/>
	<path fill-rule="evenodd" clip-rule="evenodd" fill="#FFFFFF" d="M62.482,27.03c-0.964-2.184-3.699-2.93-6.108-1.67l-11.054,5.793
		l-9.35-5.793c-2.039-1.26-4.995-0.514-6.6,1.67c-1.603,2.184-1.252,4.978,0.786,6.238l6.479,3.99l-1.676,11.42
		c-0.042,0.292-0.009,0.59,0.11,0.862c0.364,0.828,1.404,1.11,2.316,0.632l5.572-2.916l4.715,2.916
		c0.775,0.479,1.894,0.196,2.502-0.632c0.198-0.272,0.317-0.57,0.362-0.862l1.677-11.42l7.651-3.99
		C62.273,32.007,63.445,29.213,62.482,27.03"/>
	<path fill-rule="evenodd" clip-rule="evenodd" fill="#FFFFFF" d="M40.945,60.8c2.704,0,5.208-2.15,5.598-4.803
		c0.39-2.651-1.484-4.8-4.185-4.8c-2.702,0-5.208,2.149-5.598,4.8C36.371,58.649,38.244,60.8,40.945,60.8"/>
	<path fill-rule="evenodd" clip-rule="evenodd" fill="#FFFFFF" d="M57.801,58.913c-0.964-2.182-3.698-2.93-6.106-1.668L40.64,63.034
		l-9.353-5.789c-2.039-1.262-4.993-0.514-6.598,1.668c-1.605,2.184-1.253,4.977,0.786,6.234l6.479,3.994l-1.677,11.422
		c-0.042,0.291-0.009,0.588,0.111,0.861c0.365,0.826,1.402,1.111,2.317,0.633l5.569-2.918l4.715,2.918
		c0.774,0.479,1.897,0.193,2.503-0.633c0.201-0.273,0.32-0.57,0.365-0.861l1.677-11.422l7.649-3.994
		C57.593,63.89,58.765,61.097,57.801,58.913"/>
	<path fill-rule="evenodd" clip-rule="evenodd" fill="#FFFFFF" d="M101.645,28.916c-2.699,0-4.578-2.148-4.188-4.802
		c0.389-2.649,2.895-4.802,5.598-4.802c2.701,0,4.576,2.152,4.188,4.802C106.85,26.767,104.346,28.916,101.645,28.916"/>
	<path fill-rule="evenodd" clip-rule="evenodd" fill="#FFFFFF" d="M85.344,27.03c1.605-2.184,4.561-2.93,6.598-1.67l9.354,5.793
		l11.055-5.793c2.408-1.26,5.143-0.514,6.105,1.67s-0.209,4.978-2.617,6.238l-7.652,3.99l-1.676,11.42
		c-0.043,0.292-0.16,0.59-0.361,0.862c-0.611,0.828-1.732,1.11-2.506,0.632l-4.715-2.916l-5.57,2.916
		c-0.91,0.479-1.951,0.196-2.316-0.632c-0.119-0.272-0.152-0.57-0.109-0.862l1.678-11.42l-6.479-3.99
		C84.09,32.007,83.74,29.213,85.344,27.03"/>
	<path fill-rule="evenodd" clip-rule="evenodd" fill="#FFFFFF" d="M96.965,60.8c-2.703,0-4.578-2.15-4.188-4.803
		c0.389-2.651,2.896-4.8,5.598-4.8s4.574,2.149,4.188,4.8C102.17,58.649,99.666,60.8,96.965,60.8"/>
	<path fill-rule="evenodd" clip-rule="evenodd" fill="#FFFFFF" d="M80.664,58.913c1.604-2.182,4.557-2.93,6.598-1.668l9.35,5.789
		l11.055-5.789c2.41-1.262,5.145-0.514,6.107,1.668c0.965,2.184-0.207,4.977-2.617,6.234l-7.65,3.994l-1.678,11.422
		c-0.041,0.291-0.158,0.588-0.359,0.861c-0.611,0.826-1.73,1.111-2.506,0.633l-4.715-2.918l-5.57,2.918
		c-0.914,0.479-1.949,0.193-2.316-0.633c-0.121-0.273-0.152-0.57-0.109-0.861l1.676-11.422l-6.48-3.994
		C79.41,63.89,79.057,61.097,80.664,58.913"/>
	<path fill-rule="evenodd" clip-rule="evenodd" fill="#FFFFFF" d="M66.608,76.735c2.702,0,5.207-2.15,5.599-4.803
		c0.387-2.652-1.489-4.801-4.19-4.801s-5.207,2.148-5.597,4.801S63.907,76.735,66.608,76.735"/>
	<path fill-rule="evenodd" clip-rule="evenodd" fill="#FFFFFF" d="M83.461,74.851c-0.963-2.184-3.697-2.932-6.105-1.672
		l-11.053,5.795l-9.352-5.795c-2.039-1.26-4.996-0.512-6.601,1.672c-1.604,2.182-1.253,4.975,0.788,6.234l6.479,3.988L55.94,96.497
		c-0.042,0.295-0.012,0.59,0.109,0.861c0.366,0.828,1.401,1.111,2.317,0.633l5.57-2.916l4.715,2.916
		c0.771,0.479,1.895,0.195,2.504-0.633c0.197-0.271,0.319-0.566,0.363-0.861l1.676-11.424l7.648-3.988
		C83.254,79.825,84.428,77.032,83.461,74.851"/>
	<path fill="#FFFFFF" d="M12.481,108.448l-0.819-4.486l-2.609,4.486H12.481 M8.326,109.628c-0.762,1.459-1.456,2.656-2.062,3.986
		c-0.296-0.021-0.57-0.062-0.87-0.062c-0.299,0-0.606,0.041-0.911,0.062l7.878-13.35c0.236,0.039,0.458,0.059,0.701,0.059
		s0.47-0.02,0.723-0.059l2.694,13.387c-0.537-0.037-1.05-0.1-1.594-0.1s-1.078,0.062-1.628,0.1
		c-0.162-1.424-0.305-2.734-0.569-4.023H8.326z"/>
	<path fill="#FFFFFF" d="M21.682,112.167c1.631,0,3.043-0.137,4.339-0.268c-0.088,0.268-0.198,0.557-0.25,0.828
		c-0.051,0.27-0.049,0.557-0.062,0.824h-7.097l2.48-13.115c0.461,0.039,0.917,0.098,1.385,0.098c0.467,0,0.948-0.059,1.424-0.098
		L21.682,112.167"/>
	<path fill="#FFFFFF" d="M31.421,112.167c1.628,0,3.039-0.137,4.337-0.268c-0.087,0.268-0.198,0.557-0.248,0.828
		c-0.051,0.27-0.051,0.557-0.066,0.824H28.35l2.478-13.115c0.463,0.039,0.919,0.098,1.387,0.098c0.468,0,0.946-0.059,1.423-0.098
		L31.421,112.167"/>
	<path fill="#FFFFFF" d="M41.387,107.585c-0.474,2.5,0.127,5.16,2.937,5.16c2.883,0,4.735-2.965,5.34-6.164
		c0.469-2.482-0.117-5.336-2.922-5.336C44.137,101.245,42.201,103.269,41.387,107.585 M44.012,113.899
		c-4.137,0-6.453-2.502-5.627-6.875c0.724-3.834,4.025-6.932,8.685-6.932c5.338,0,6.178,3.869,5.631,6.855
		C52.011,110.704,48.598,113.899,44.012,113.899z"/>
	<path fill="#FFFFFF" d="M64.511,111.415l-0.727,1.656c-1.236,0.6-2.607,0.828-3.862,0.828c-4.007,0-6.561-2.539-5.812-6.488
		c0.947-5.029,4.752-7.318,8.832-7.318c1.236,0,2.674,0.326,3.643,0.943c-0.292,0.654-0.527,1.309-0.806,1.984h-0.263
		c-0.495-1.041-1.557-1.775-2.771-1.775c-3.11,0-4.942,3.064-5.479,5.895c-0.621,3.293,0.516,5.605,3.396,5.605
		c1.162,0,2.627-0.613,3.626-1.445L64.511,111.415"/>
	<path fill="#FFFFFF" d="M73.553,108.448l-0.818-4.486l-2.608,4.486H73.553 M69.401,109.628c-0.766,1.459-1.458,2.656-2.067,3.986
		c-0.294-0.021-0.568-0.062-0.867-0.062s-0.607,0.041-0.91,0.062l7.879-13.35c0.234,0.039,0.457,0.059,0.699,0.059
		c0.24,0,0.471-0.02,0.719-0.059l2.697,13.387c-0.537-0.037-1.047-0.1-1.592-0.1s-1.078,0.062-1.629,0.1
		c-0.16-1.424-0.309-2.734-0.57-4.023H69.401z"/>
	<path fill="#FFFFFF" d="M84.947,113.651c-0.461-0.037-0.918-0.1-1.389-0.1c-0.467,0-0.945,0.062-1.418,0.1l2.236-11.846
		c-1.328,0-2.533,0.133-3.533,0.27c0.088-0.27,0.193-0.539,0.25-0.83c0.053-0.27,0.043-0.537,0.057-0.809h9.643
		c-0.086,0.271-0.191,0.539-0.246,0.809c-0.055,0.291-0.045,0.561-0.059,0.83c-1.08-0.137-2.162-0.27-3.305-0.27L84.947,113.651"/>
	<path fill="#FFFFFF" d="M93.266,100.437c0.461,0.039,0.918,0.098,1.385,0.098c0.469,0,0.947-0.059,1.424-0.098l-2.498,13.215
		c-0.459-0.037-0.92-0.1-1.385-0.1c-0.469,0-0.949,0.062-1.422,0.1L93.266,100.437"/>
	<path fill="#FFFFFF" d="M100.297,107.585c-0.473,2.5,0.129,5.16,2.939,5.16c2.883,0,4.734-2.965,5.34-6.164
		c0.471-2.482-0.113-5.336-2.924-5.336C103.051,101.245,101.113,103.269,100.297,107.585 M102.922,113.899
		c-4.135,0-6.451-2.502-5.627-6.875c0.725-3.834,4.025-6.932,8.689-6.932c5.336,0,6.174,3.869,5.627,6.855
		C110.924,110.704,107.512,113.899,102.922,113.899z"/>
	<path fill="#FFFFFF" d="M115.426,100.437h1.852c2.094,2.986,4.332,5.914,6.387,9.016l1.703-9.016
		c0.238,0.039,0.492,0.059,0.736,0.059s0.512-0.02,0.76-0.059l-2.496,13.215l-1.588-0.02c-1.701-2.484-3.275-4.855-4.957-7.146
		l-1.627-2.197l-1.764,9.326c-0.236-0.021-0.496-0.062-0.734-0.062c-0.244,0-0.516,0.041-0.76,0.062L115.426,100.437"/>
	<path fill="#FFFFFF" d="M135.566,102.923c-0.178-1.023-0.77-1.678-1.838-1.678c-1.479,0-2.209,0.793-2.414,1.889
		c-0.492,2.602,5.293,2.121,4.457,6.529c-0.465,2.469-2.859,4.238-5.762,4.238c-1.029,0-2.086-0.25-2.859-0.83
		c0.377-0.807,0.738-1.615,1.008-2.447h0.354c0.029,1.334,0.893,2.121,2.186,2.121c1.16,0,2.316-0.676,2.566-2.002
		c0.584-3.082-5.205-1.967-4.328-6.604c0.418-2.221,2.242-4.047,5.09-4.047c1.346,0,2.447,0.52,2.781,0.922
		c-0.338,0.617-0.648,1.252-0.961,1.908H135.566"/>
	<path fill="#FFFFFF" d="M14.112,133.347c-0.535-0.041-1.064-0.102-1.607-0.102s-1.098,0.061-1.652,0.102l2.898-13.633h8.277
		c-0.104,0.277-0.231,0.574-0.292,0.852c-0.058,0.277-0.056,0.576-0.072,0.854c-1.295-0.139-2.678-0.277-4.958-0.277l-0.908,4.273
		h2.3c0.848,0,1.734-0.08,2.667-0.18c-0.103,0.281-0.23,0.578-0.289,0.857c-0.058,0.277-0.058,0.576-0.072,0.854
		c-0.896-0.08-1.745-0.178-2.613-0.178h-2.282L14.112,133.347"/>
	<path fill="#FFFFFF" d="M29.656,127.979l-0.949-4.631l-3.024,4.631H29.656 M24.839,129.192c-0.886,1.512-1.691,2.742-2.396,4.113
		c-0.343-0.02-0.661-0.061-1.008-0.061c-0.347,0-0.704,0.041-1.055,0.061l9.138-13.77c0.273,0.035,0.53,0.059,0.812,0.059
		c0.283,0,0.548-0.023,0.84-0.059l3.125,13.811c-0.621-0.041-1.215-0.102-1.845-0.102s-1.251,0.061-1.89,0.102
		c-0.187-1.473-0.357-2.82-0.661-4.154H24.839z"/>
	<path fill="#FFFFFF" d="M53.16,119.714c0.293,0.041,0.585,0.1,0.891,0.1c0.303,0,0.641-0.059,0.954-0.1
		c-0.462,5.344-0.882,9.678-0.985,13.633c-0.6-0.041-1.174-0.102-1.781-0.102c-0.609,0-1.164,0.061-1.781,0.102
		c0.497-3.158,0.71-6.201,1.033-9.264c-2.297,3.043-4.572,6.082-6.77,9.162c-0.272-0.041-0.53-0.059-0.823,0
		c-0.807-2.742-1.869-5.82-2.858-8.941c-1.243,3.5-2.176,6.258-2.834,9.043c-0.338-0.041-0.65-0.102-0.998-0.102
		c-0.349,0-0.665,0.061-1.02,0.102c1.63-3.996,3.304-8.607,5.111-13.633c0.296,0.041,0.564,0.1,0.868,0.1
		c0.305,0,0.622-0.059,0.935-0.1c0.9,3.121,1.957,6.219,3.012,9.34C48.275,126.229,50.785,123.112,53.16,119.714"/>
	<path fill="#FFFFFF" d="M60.064,119.714c0.535,0.041,1.064,0.1,1.61,0.1c0.541,0,1.097-0.059,1.649-0.1l-2.898,13.633
		c-0.533-0.041-1.063-0.102-1.607-0.102c-0.543,0-1.098,0.061-1.651,0.102L60.064,119.714"/>
	<path fill="#FFFFFF" d="M67.957,131.815c1.893,0,3.528-0.141,5.034-0.281c-0.1,0.281-0.23,0.58-0.287,0.857
		c-0.061,0.277-0.059,0.576-0.078,0.854h-8.229l2.875-13.531c0.536,0.041,1.066,0.1,1.609,0.1c0.541,0,1.098-0.059,1.649-0.1
		L67.957,131.815"/>
	<path fill="#FFFFFF" d="M78.588,119.714c0.535,0.041,1.066,0.1,1.605,0.1c0.545,0,1.104-0.059,1.654-0.1l-2.896,13.633
		c-0.537-0.041-1.066-0.102-1.609-0.102s-1.098,0.061-1.652,0.102L78.588,119.714"/>
	<path fill="#FFFFFF" d="M90.729,127.979l-0.949-4.631l-3.023,4.631H90.729 M85.908,129.192c-0.885,1.512-1.688,2.742-2.393,4.113
		c-0.344-0.02-0.66-0.061-1.012-0.061c-0.346,0-0.701,0.041-1.053,0.061l9.137-13.77c0.275,0.035,0.533,0.059,0.816,0.059
		c0.281,0,0.547-0.023,0.838-0.059l3.125,13.811c-0.621-0.041-1.219-0.102-1.85-0.102c-0.629,0-1.248,0.061-1.887,0.102
		c-0.186-1.473-0.355-2.82-0.66-4.154H85.908z"/>
	<path fill="#FFFFFF" d="M101.186,131.815c1.893,0,3.529-0.141,5.035-0.281c-0.102,0.281-0.229,0.58-0.291,0.857
		c-0.059,0.277-0.055,0.576-0.072,0.854h-8.232l2.873-13.531c0.537,0.041,1.066,0.1,1.611,0.1s1.098-0.059,1.652-0.1
		L101.186,131.815"/>
	<path fill="#FFFFFF" d="M120.033,119.714c-0.105,0.277-0.236,0.574-0.293,0.852c-0.059,0.277-0.059,0.576-0.072,0.854
		c-1.289-0.156-2.734-0.316-4.963-0.277l-0.904,4.273h2.258c0.98,0,1.887-0.08,2.711-0.18c-0.104,0.281-0.232,0.578-0.291,0.857
		c-0.057,0.277-0.057,0.576-0.072,0.854c-0.779-0.098-1.654-0.178-2.635-0.178h-2.26l-1.072,5.047
		c2.221-0.018,3.721-0.119,5.078-0.281c-0.102,0.281-0.23,0.58-0.287,0.857c-0.062,0.277-0.061,0.576-0.078,0.854h-8.275
		l2.877-13.531H120.033"/>
	<path fill="#FFFFFF" d="M129.219,122.276c-0.215-1.055-0.893-1.73-2.131-1.73c-1.717,0-2.562,0.816-2.805,1.949
		c-0.572,2.684,6.139,2.184,5.172,6.736c-0.543,2.543-3.318,4.375-6.684,4.375c-1.197,0-2.424-0.26-3.318-0.857
		c0.439-0.834,0.855-1.668,1.166-2.523h0.416c0.033,1.371,1.033,2.184,2.533,2.184c1.344,0,2.688-0.693,2.98-2.062
		c0.674-3.182-6.045-2.029-5.027-6.818c0.488-2.287,2.604-4.174,5.906-4.174c1.562,0,2.838,0.537,3.227,0.955
		c-0.396,0.633-0.75,1.289-1.113,1.967H129.219"/>
</g>
</svg>
