<?xml version="1.0" encoding="UTF-8" standalone="no"?>
<svg xmlns="http://www.w3.org/2000/svg" viewBox="0 0 755.90533 394.95734" height="394.95734" width="755.90533" xml:space="preserve" id="svg2" version="1.1">
  <metadata id="metadata8">
  </metadata>
	<defs id="defs6">
    <clipPath id="clipPath18" clipPathUnits="userSpaceOnUse">
      <path id="path16" d="M 0,296.218 H 566.929 V 0 H 0 Z" />
    </clipPath>
  </defs>
	<g transform="matrix(1.3333333,0,0,-1.3333333,0,394.95733)" id="g10">
    <g id="g12">
      <g clip-path="url(#clipPath18)" id="g14">
        <g transform="translate(233.6306,102.3074)" id="g20">
          <path id="path22" style="fill:#283276;fill-opacity:1;fill-rule:nonzero;stroke:none" d="m 0,0 c 0,-10.138 -8.218,-18.356 -18.356,-18.356 -10.138,0 -18.357,8.218 -18.357,18.356 0,10.138 8.219,18.356 18.357,18.356 C -8.218,18.356 0,10.138 0,0" />
        </g>
				<g transform="translate(112.6045,170.8664)" id="g24">
          <path id="path26" style="fill:#f29fc5;fill-opacity:1;fill-rule:nonzero;stroke:none" d="m 0,0 c 0,-10.138 -8.218,-18.356 -18.356,-18.356 -10.138,0 -18.356,8.218 -18.356,18.356 0,10.138 8.218,18.356 18.356,18.356 C -8.218,18.356 0,10.138 0,0" />
        </g>
				<g transform="translate(198.9017,122.3999)" id="g28">
          <path id="path30" style="fill:#008ecf;fill-opacity:1;fill-rule:nonzero;stroke:none" d="m 0,0 c 0,-10.138 -8.218,-18.356 -18.356,-18.356 -10.138,0 -18.357,8.218 -18.357,18.356 0,10.138 8.219,18.356 18.357,18.356 C -8.218,18.356 0,10.138 0,0" />
        </g>
				<g transform="translate(154.4747,100.1958)" id="g32">
          <path id="path34" style="fill:#f29fc5;fill-opacity:1;fill-rule:nonzero;stroke:none" d="m 0,0 c 0,-10.138 -8.218,-18.356 -18.356,-18.356 -10.138,0 -18.357,8.218 -18.357,18.356 0,10.138 8.219,18.356 18.357,18.356 C -8.218,18.356 0,10.138 0,0" />
        </g>
				<g transform="translate(154.4798,56.8805)" id="g36">
          <path id="path38" style="fill:#283276;fill-opacity:1;fill-rule:nonzero;stroke:none" d="m 0,0 c 0,-10.14 -8.22,-18.362 -18.362,-18.362 -10.14,0 -18.36,8.222 -18.36,18.362 0,10.14 8.22,18.362 18.36,18.362 C -8.22,18.362 0,10.14 0,0" />
        </g>
				<g transform="translate(233.6306,193.7088)" id="g40">
          <path id="path42" style="fill:#283276;fill-opacity:1;fill-rule:nonzero;stroke:none" d="m 0,0 c 0,-10.138 -8.218,-18.356 -18.356,-18.356 -10.138,0 -18.357,8.218 -18.357,18.356 0,10.138 8.219,18.356 18.357,18.356 C -8.218,18.356 0,10.138 0,0" />
        </g>
				<g transform="translate(198.9017,170.8664)" id="g44">
          <path id="path46" style="fill:#283276;fill-opacity:1;fill-rule:nonzero;stroke:none" d="m 0,0 c 0,-10.138 -8.218,-18.356 -18.356,-18.356 -10.138,0 -18.357,8.218 -18.357,18.356 0,10.138 8.219,18.356 18.357,18.356 C -8.218,18.356 0,10.138 0,0" />
        </g>
				<g transform="translate(109.8896,120.7552)" id="g48">
          <path id="path50" style="fill:#283276;fill-opacity:1;fill-rule:nonzero;stroke:none" d="m 0,0 c 0,-10.138 -8.218,-18.356 -18.356,-18.356 -10.138,0 -18.357,8.218 -18.357,18.356 0,10.138 8.219,18.356 18.357,18.356 C -8.218,18.356 0,10.138 0,0" />
        </g>
				<g transform="translate(74.8758,197.6813)" id="g52">
          <path id="path54" style="fill:#283276;fill-opacity:1;fill-rule:nonzero;stroke:none" d="m 0,0 c 2.194,-9.894 -4.047,-19.692 -13.941,-21.886 -9.895,-2.194 -19.692,4.047 -21.886,13.941 -2.194,9.893 4.047,19.692 13.941,21.886 C -11.994,16.135 -2.194,9.894 0,0" />
        </g>
				<g transform="translate(73.0705,157.9734)" id="g56">
          <path id="path58" style="fill:#e1000f;fill-opacity:1;fill-rule:nonzero;stroke:none" d="m 0,0 c -0.815,-5.714 -6.107,-9.682 -11.82,-8.867 -5.712,0.816 -9.682,6.107 -8.866,11.82 0.815,5.712 6.107,9.682 11.819,8.867 C -3.154,11.004 0.814,5.713 0,0" />
        </g>
				<g transform="translate(178.3718,82.3457)" id="g60">
          <path id="path62" style="fill:#e1000f;fill-opacity:1;fill-rule:nonzero;stroke:none" d="m 0,0 c -0.937,-6.563 -7.018,-11.126 -13.581,-10.189 -6.566,0.938 -11.126,7.017 -10.19,13.583 0.939,6.563 7.018,11.124 13.582,10.187 C -3.624,12.645 0.937,6.563 0,0" />
        </g>
				<g transform="translate(213.9747,158.4261)" id="g64">
          <path id="path66" style="fill:#e1000f;fill-opacity:1;fill-rule:nonzero;stroke:none" d="m 0,0 c -0.565,-3.96 -4.236,-6.715 -8.196,-6.148 -3.963,0.564 -6.715,4.234 -6.151,8.196 0.567,3.96 4.236,6.715 8.199,6.148 C -2.188,7.632 0.565,3.96 0,0" />
        </g>
				<g transform="translate(142.4671,192.531)" id="g68">
          <path id="path70" style="fill:#e1000f;fill-opacity:1;fill-rule:nonzero;stroke:none" d="m 0,0 c -0.815,-5.714 -6.107,-9.682 -11.82,-8.867 -5.712,0.816 -9.682,6.107 -8.866,11.82 0.815,5.712 6.107,9.682 11.819,8.867 C -3.154,11.004 0.814,5.713 0,0" />
        </g>
				<g transform="translate(172.5323,206.0865)" id="g72">
          <path id="path74" style="fill:#f29fc5;fill-opacity:1;fill-rule:nonzero;stroke:none" d="m 0,0 c -0.815,-5.714 -6.107,-9.682 -11.82,-8.867 -5.712,0.816 -9.682,6.107 -8.866,11.82 0.815,5.712 6.107,9.682 11.819,8.867 C -3.154,11.004 0.814,5.713 0,0" />
        </g>
				<g transform="translate(104.5913,91.1739)" id="g76">
          <path id="path78" style="fill:#ffe000;fill-opacity:1;fill-rule:nonzero;stroke:none" d="m 0,0 c -0.815,-5.714 -6.107,-9.682 -11.82,-8.867 -5.712,0.816 -9.682,6.107 -8.866,11.82 0.815,5.712 6.107,9.682 11.819,8.867 C -3.154,11.004 0.814,5.713 0,0" />
        </g>
				<g transform="translate(207.3456,138.1654)" id="g80">
          <path id="path82" style="fill:#ffe000;fill-opacity:1;fill-rule:nonzero;stroke:none" d="m 0,0 c -0.815,-5.714 -6.107,-9.682 -11.82,-8.867 -5.712,0.816 -9.682,6.107 -8.866,11.82 0.815,5.712 6.107,9.682 11.819,8.867 C -3.154,11.004 0.814,5.711 0,0" />
        </g>
				<g transform="translate(195.3882,89.6189)" id="g84">
          <path id="path86" style="fill:#283276;fill-opacity:1;fill-rule:nonzero;stroke:none" d="m 0,0 c 3.079,-4.879 1.621,-11.332 -3.258,-14.412 -4.881,-3.081 -11.333,-1.621 -14.414,3.259 -3.079,4.879 -1.621,11.332 3.26,14.411 C -9.532,6.339 -3.079,4.879 0,0" />
        </g>
				<g transform="translate(115.5734,212.2859)" id="g88">
          <path id="path90" style="fill:#ffe000;fill-opacity:1;fill-rule:nonzero;stroke:none" d="m 0,0 c -0.815,-5.712 -6.107,-9.682 -11.82,-8.867 -5.712,0.816 -9.682,6.109 -8.866,11.82 0.815,5.712 6.107,9.682 11.819,8.867 C -3.154,11.004 0.814,5.713 0,0" />
        </g>
				<g transform="translate(155.3811,238.4409)" id="g92">
          <path id="path94" style="fill:#008ecf;fill-opacity:1;fill-rule:nonzero;stroke:none" d="m 0,0 c 0,-10.636 -8.623,-19.259 -19.259,-19.259 -10.636,0 -19.26,8.623 -19.26,19.259 0,10.636 8.624,19.259 19.26,19.259 C -8.623,19.259 0,10.636 0,0" />
        </g>
				<g transform="translate(75.2311,102.3988)" id="g96">
          <path id="path98" style="fill:#008ecf;fill-opacity:1;fill-rule:nonzero;stroke:none" d="m 0,0 c 0,-10.138 -8.218,-18.356 -18.356,-18.356 -10.138,0 -18.357,8.218 -18.357,18.356 0,10.138 8.219,18.356 18.357,18.356 C -8.218,18.356 0,10.138 0,0" />
        </g>
				<g transform="translate(165.671,151.8378)" id="g100">
          <path id="path102" style="fill:#008ecf;fill-opacity:1;fill-rule:nonzero;stroke:none" d="m 0,0 c 0,-17.701 -14.349,-32.05 -32.05,-32.05 -17.699,0 -32.047,14.349 -32.047,32.05 0,17.701 14.348,32.05 32.047,32.05 C -14.349,32.05 0,17.701 0,0" />
        </g>
				<g transform="translate(276.6183,215.1065)" id="g104">
          <path id="path106" style="fill:#283276;fill-opacity:1;fill-rule:nonzero;stroke:none" d="M 0,0 H 32.368 V -8.051 H 9.461 v -16.434 h 19.588 v -8.049 H 9.461 V -58.097 H 0 Z" />
        </g>
				<g transform="translate(316.62,198.8391)" id="g108">
          <path id="path110" style="fill:#283276;fill-opacity:1;fill-rule:nonzero;stroke:none" d="m 0,0 h 8.548 v -4.73 c 2.906,3.237 6.558,5.56 11.703,5.56 1.328,0 2.573,-0.248 3.653,-0.58 v -8.383 c -1.33,0.332 -2.658,0.58 -4.399,0.58 -5.312,0 -8.798,-2.821 -10.957,-6.39 V -41.83 H 0 Z" />
        </g>
				<g transform="translate(361.1025,162.7359)" id="g112">
          <path id="path114" style="fill:#283276;fill-opacity:1;fill-rule:nonzero;stroke:none" d="m 0,0 c 5.229,0 9.296,2.491 11.785,6.475 v 7.22 L 0.498,11.785 C -4.73,10.872 -6.888,8.631 -6.888,5.477 -6.888,2.241 -4.315,0 0,0 m -15.521,5.147 c 0,6.307 4.897,10.872 13.778,12.365 l 13.528,2.241 v 2.158 c 0,5.145 -3.817,8.299 -9.212,8.299 -4.566,0 -8.133,-2.074 -10.541,-5.477 l -6.39,4.897 c 3.734,4.979 9.711,8.133 17.179,8.133 11.29,0 17.513,-6.64 17.513,-15.852 V -5.727 h -8.549 v 4.731 C 8.798,-4.647 3.569,-6.973 -1.578,-6.973 c -8.299,0 -13.943,4.732 -13.943,12.12" />
        </g>
				<g transform="translate(393.5238,198.8391)" id="g116">
          <path id="path118" style="fill:#283276;fill-opacity:1;fill-rule:nonzero;stroke:none" d="m 0,0 h 8.548 v -4.067 c 3.154,3.321 7.304,5.728 13.279,5.728 9.213,0 16.269,-6.225 16.269,-18.343 V -41.83 h -8.632 v 24.816 c 0,6.64 -3.653,10.624 -9.628,10.624 -5.725,0 -9.129,-3.569 -11.288,-7.221 V -41.83 H 0 Z" />
        </g>
				<g transform="translate(475.2667,168.9603)" id="g120">
          <path id="path122" style="fill:#283276;fill-opacity:1;fill-rule:nonzero;stroke:none" d="m 0,0 6.723,-5.145 c -3.819,-5.147 -9.959,-8.466 -17.68,-8.466 -14.026,0 -22.822,10.375 -22.822,22.575 0,12.2 8.796,22.574 22.822,22.574 7.636,0 13.861,-3.319 17.68,-8.464 L 0,17.927 c -2.324,3.237 -6.142,5.562 -10.957,5.562 -8.051,0 -13.858,-6.309 -13.858,-14.525 0,-8.299 5.807,-14.524 13.943,-14.524 4.73,0 8.548,2.324 10.872,5.56" />
        </g>
				<g transform="translate(496.5399,183.3187)" id="g124">
          <path id="path126" style="fill:#283276;fill-opacity:1;fill-rule:nonzero;stroke:none" d="M 0,0 H 22.494 C 22.327,5.229 18.592,10.044 11.87,10.044 5.645,10.044 1.328,6.473 0,0 m 13.778,-27.969 c -14.441,0 -22.99,10.374 -22.99,22.574 0,12.533 7.967,22.575 21.247,22.575 11.537,0 19.005,-7.884 19.005,-18.508 0,-1.908 -0.248,-3.817 -0.58,-5.062 H -0.415 c 0.582,-9.131 6.142,-13.861 14.193,-13.861 5.062,0 9.296,2.241 11.868,5.727 l 6.225,-4.979 c -3.9,-5.23 -10.292,-8.466 -18.093,-8.466" />
        </g>
				<g transform="translate(270.3939,140.4549)" id="g128">
          <path id="path130" style="fill:#283276;fill-opacity:1;fill-rule:nonzero;stroke:none" d="M 0,0 H 46.892 V -8.714 H 28.219 V -58.097 H 18.673 V -8.714 L 0,-8.714 Z" />
        </g>
				<g transform="translate(321.3491,124.1874)" id="g132">
          <path id="path134" style="fill:#283276;fill-opacity:1;fill-rule:nonzero;stroke:none" d="m 0,0 h 8.548 v -4.73 c 2.906,3.237 6.558,5.56 11.703,5.56 1.328,0 2.573,-0.248 3.653,-0.58 v -8.383 c -1.33,0.332 -2.658,0.58 -4.399,0.58 -5.312,0 -8.798,-2.821 -10.957,-6.39 V -41.83 H 0 Z" />
        </g>
				<g transform="translate(365.8326,88.0842)" id="g136">
          <path id="path138" style="fill:#283276;fill-opacity:1;fill-rule:nonzero;stroke:none" d="m 0,0 c 5.229,0 9.296,2.491 11.785,6.475 v 7.22 L 0.498,11.785 C -4.73,10.872 -6.888,8.631 -6.888,5.477 -6.888,2.241 -4.315,0 0,0 m -15.521,5.147 c 0,6.307 4.897,10.872 13.778,12.365 l 13.528,2.241 v 2.158 c 0,5.145 -3.817,8.299 -9.212,8.299 -4.566,0 -8.133,-2.074 -10.541,-5.477 l -6.39,4.897 c 3.734,4.979 9.711,8.133 17.179,8.133 11.29,0 17.513,-6.64 17.513,-15.852 V -5.727 h -8.549 v 4.731 C 8.798,-4.647 3.569,-6.973 -1.578,-6.973 c -8.299,0 -13.943,4.732 -13.943,12.12" />
        </g>
				<g transform="translate(402.1823,124.1874)" id="g140">
          <path id="path142" style="fill:#283276;fill-opacity:1;fill-rule:nonzero;stroke:none" d="M 0,0 12.283,-32.534 24.483,0 h 9.296 L 17.927,-41.83 H 6.557 L -9.214,0 Z" />
        </g>
				<g transform="translate(455.9586,88.0842)" id="g144">
          <path id="path146" style="fill:#283276;fill-opacity:1;fill-rule:nonzero;stroke:none" d="m 0,0 c 5.229,0 9.296,2.491 11.785,6.475 v 7.22 L 0.498,11.785 C -4.73,10.872 -6.888,8.631 -6.888,5.477 -6.888,2.241 -4.315,0 0,0 m -15.521,5.147 c 0,6.307 4.897,10.872 13.778,12.365 l 13.528,2.241 v 2.158 c 0,5.145 -3.817,8.299 -9.212,8.299 -4.564,0 -8.133,-2.074 -10.539,-5.477 l -6.392,4.897 c 3.734,4.979 9.711,8.133 17.179,8.133 11.29,0 17.513,-6.64 17.513,-15.852 V -5.727 h -8.549 v 4.731 C 8.798,-4.647 3.569,-6.973 -1.578,-6.973 c -8.299,0 -13.943,4.732 -13.943,12.12" />
        </g>
				<path id="path148" style="fill:#283276;fill-opacity:1;fill-rule:nonzero;stroke:none" d="m 489.651,124.188 h 8.549 v -41.83 h -8.549 z" />
				<path id="path150" style="fill:#283276;fill-opacity:1;fill-rule:nonzero;stroke:none" d="m 512.141,144.604 h 8.549 V 82.356 h -8.549 z" />
				<g transform="translate(488.837,136.9453)" id="g152">
          <path id="path154" style="fill:#283276;fill-opacity:1;fill-rule:nonzero;stroke:none" d="M 0,0 C 0,2.762 2.325,5.09 5.09,5.09 7.85,5.09 10.178,2.762 10.178,0 10.178,-2.762 7.85,-5.088 5.09,-5.088 2.325,-5.088 0,-2.762 0,0" />
        </g>
      </g>
    </g>
  </g>
</svg>
