<svg width="188" height="80" viewBox="0 0 188 80" fill="none" xmlns="http://www.w3.org/2000/svg">
    <g clip-path="url(#clip0_514_11321)">
        <path d="M157.8 56.1987H94.9971V70.6014H157.8V56.1987Z" fill="#C7297E"/>
        <path d="M101.864 63.725H101.422V66.3685H100.237V58.9272H102.005C103.605 58.9272 104.63 59.7645 104.63 61.2885C104.629 61.6367 104.553 61.9808 104.409 62.2979C104.265 62.615 104.056 62.8979 103.795 63.1281C103.533 63.3584 103.226 63.5306 102.893 63.6335C102.561 63.7363 102.21 63.7675 101.864 63.725ZM101.864 59.9621H101.394V62.7843H101.911C102.108 62.8096 102.307 62.7901 102.495 62.7272C102.682 62.6643 102.853 62.5596 102.995 62.421C103.136 62.2824 103.244 62.1136 103.311 61.9272C103.377 61.7408 103.4 61.5417 103.379 61.3449C103.39 61.151 103.358 60.957 103.286 60.7766C103.214 60.5962 103.103 60.4339 102.961 60.3011C102.82 60.1683 102.65 60.0682 102.466 60.008C102.281 59.9478 102.085 59.9289 101.893 59.9526L101.864 59.9621Z" fill="white"/>
        <path d="M109.729 61.6459C109.979 61.9198 110.172 62.2402 110.298 62.5889C110.424 62.9376 110.48 63.3076 110.463 63.6779C110.488 64.439 110.218 65.1804 109.71 65.7475C109.462 65.9906 109.168 66.181 108.845 66.3071C108.521 66.4332 108.176 66.4925 107.829 66.4813C107.503 66.4959 107.178 66.4452 106.873 66.3321C106.568 66.219 106.288 66.0458 106.051 65.8228C105.778 65.5461 105.565 65.2161 105.426 64.8535C105.287 64.491 105.224 64.1035 105.242 63.7155C105.216 62.9481 105.493 62.2014 106.013 61.6365C106.249 61.3949 106.531 61.2043 106.844 61.0765C107.156 60.9486 107.491 60.8863 107.829 60.8933C108.181 60.8774 108.532 60.9362 108.859 61.0659C109.187 61.1956 109.483 61.3933 109.729 61.6459ZM108.534 60.3759L107.876 59.4352L107.245 60.3759H106.229L107.396 58.7202H108.337L109.513 60.3759H108.534ZM106.465 63.6873C106.465 64.7974 107.001 65.5688 107.866 65.5688C108.732 65.5688 109.259 64.8068 109.259 63.6873C109.259 62.5678 108.741 61.8058 107.847 61.8058C106.954 61.8058 106.465 62.596 106.465 63.6873Z" fill="white"/>
        <path d="M112.655 66.4811C112.504 66.4974 112.351 66.4797 112.208 66.4292C112.064 66.3788 111.934 66.2968 111.827 66.1894C111.719 66.082 111.638 65.9519 111.587 65.8086C111.537 65.6654 111.519 65.5126 111.535 65.3616V58.3813H112.711V64.8536C112.711 65.2863 112.805 65.418 113.097 65.418C113.212 65.436 113.33 65.436 113.445 65.418L113.595 66.2929C113.303 66.4359 112.979 66.5007 112.655 66.4811Z" fill="white"/>
        <path d="M115.242 63.9693C115.237 64.1779 115.276 64.3851 115.356 64.5779C115.436 64.7708 115.554 64.9451 115.704 65.0899C115.854 65.2348 116.033 65.347 116.229 65.4197C116.424 65.4923 116.633 65.5238 116.841 65.5121C117.314 65.5038 117.777 65.3743 118.186 65.1358L118.487 65.8978C117.934 66.2802 117.278 66.4838 116.606 66.481C116.243 66.4883 115.883 66.4184 115.55 66.2761C115.216 66.1337 114.917 65.9221 114.671 65.6552C114.426 65.3883 114.24 65.0724 114.126 64.7282C114.012 64.384 113.972 64.0195 114.009 63.6588C114.009 62.1348 114.95 60.8931 116.352 60.8931C117.753 60.8931 118.647 61.9843 118.647 63.6494V63.9693H115.242ZM116.342 61.8056C116.183 61.815 116.027 61.8564 115.883 61.9272C115.74 61.9981 115.612 62.097 115.508 62.218C115.404 62.3391 115.325 62.4798 115.276 62.632C115.227 62.7841 115.209 62.9446 115.223 63.1038H117.452C117.466 62.9446 117.448 62.7841 117.399 62.632C117.35 62.4798 117.271 62.3391 117.167 62.218C117.063 62.097 116.935 61.9981 116.792 61.9272C116.648 61.8564 116.492 61.815 116.333 61.8056H116.342Z" fill="white"/>
        <path d="M123.426 63.9693C123.422 64.1779 123.461 64.3851 123.54 64.5779C123.62 64.7708 123.739 64.9451 123.889 65.0899C124.039 65.2348 124.217 65.347 124.413 65.4197C124.609 65.4923 124.817 65.5238 125.025 65.5121C125.499 65.5064 125.963 65.3766 126.371 65.1358L126.672 65.8978C126.119 66.2802 125.462 66.4838 124.79 66.481C124.428 66.4885 124.068 66.4186 123.735 66.2762C123.402 66.1337 123.103 65.9219 122.859 65.6549C122.614 65.3878 122.429 65.0717 122.316 64.7275C122.203 64.3833 122.164 64.019 122.203 63.6588C122.203 62.1348 123.087 60.8931 124.536 60.8931C125.985 60.8931 126.841 61.9843 126.841 63.6494V63.9693H123.426ZM124.536 61.8056C124.377 61.815 124.221 61.8564 124.077 61.9272C123.934 61.9981 123.806 62.097 123.702 62.218C123.598 62.3391 123.519 62.4798 123.47 62.632C123.421 62.7841 123.403 62.9446 123.417 63.1038H125.637C125.652 62.9458 125.636 62.7863 125.589 62.6348C125.541 62.4833 125.464 62.3428 125.361 62.2217C125.259 62.1007 125.133 62.0014 124.991 61.9299C124.849 61.8585 124.695 61.8162 124.536 61.8056Z" fill="white"/>
        <path d="M134.743 66.3682V63.0286C134.743 62.3983 134.63 61.9185 133.953 61.9185C133.421 61.9578 132.919 62.1806 132.532 62.5488V66.3682H131.356V63.0474C131.356 62.4171 131.234 61.9185 130.557 61.9185C130.021 61.9582 129.517 62.1884 129.136 62.5676V66.3305H127.96V61.0248H128.901L129.033 61.6269C129.558 61.1743 130.222 60.9153 130.914 60.8931C131.2 60.8767 131.484 60.9482 131.728 61.0979C131.971 61.2475 132.164 61.4682 132.278 61.7303C132.792 61.2447 133.456 60.9492 134.16 60.8931C134.397 60.8726 134.636 60.9058 134.859 60.9901C135.082 61.0744 135.283 61.2078 135.447 61.3803C135.612 61.5528 135.735 61.7601 135.809 61.9868C135.882 62.2134 135.904 62.4537 135.872 62.6899V66.3682H134.743Z" fill="white"/>
        <path d="M139.24 66.4812C138.966 66.4849 138.694 66.4337 138.44 66.3306V69.04H137.264V61.2507C137.894 61.0182 138.559 60.8972 139.23 60.8932C139.603 60.847 139.981 60.8846 140.338 61.0033C140.694 61.1221 141.019 61.3189 141.29 61.5795C141.56 61.8401 141.769 62.1578 141.901 62.5094C142.033 62.8611 142.085 63.2377 142.052 63.6119C142.072 63.9891 142.013 64.3663 141.88 64.7196C141.746 65.0729 141.541 65.3946 141.276 65.6643C141.012 65.934 140.694 66.1459 140.344 66.2865C139.993 66.4271 139.617 66.4934 139.24 66.4812ZM139.164 61.8998C138.92 61.8918 138.676 61.9203 138.44 61.9845V65.3523C138.673 65.4603 138.927 65.5149 139.183 65.5122C140.199 65.5122 140.811 64.7878 140.811 63.6307C140.833 63.4052 140.806 63.1777 140.732 62.9635C140.658 62.7493 140.539 62.5535 140.383 62.3894C140.227 62.2252 140.037 62.0965 139.827 62.012C139.617 61.9276 139.391 61.8893 139.164 61.8998Z" fill="white"/>
        <path d="M144.216 66.4811C144.066 66.4977 143.913 66.4801 143.77 66.4296C143.627 66.3791 143.498 66.297 143.391 66.1893C143.284 66.0817 143.203 65.9514 143.154 65.808C143.105 65.6647 143.088 65.5121 143.106 65.3616V58.3813H144.273V64.8536C144.273 65.2863 144.367 65.418 144.658 65.418C144.774 65.437 144.891 65.437 145.006 65.418L145.157 66.2929C144.865 66.4359 144.541 66.5007 144.216 66.4811Z" fill="white"/>
        <path d="M150.049 61.6458C150.299 61.9197 150.492 62.2401 150.618 62.5888C150.744 62.9374 150.8 63.3075 150.783 63.6778C150.808 64.4389 150.538 65.1803 150.03 65.7474C149.782 65.9905 149.488 66.1808 149.164 66.307C148.841 66.4331 148.495 66.4923 148.148 66.4811C147.823 66.4958 147.498 66.445 147.193 66.3319C146.887 66.2188 146.608 66.0456 146.37 65.8226C146.098 65.546 145.885 65.216 145.746 64.8534C145.607 64.4908 145.544 64.1034 145.561 63.7154C145.536 62.948 145.813 62.2013 146.333 61.6364C146.568 61.3948 146.851 61.2042 147.164 61.0763C147.476 60.9485 147.811 60.8862 148.148 60.8932C148.5 60.8772 148.852 60.9361 149.179 61.0658C149.507 61.1955 149.803 61.3932 150.049 61.6458ZM146.794 63.6872C146.794 64.7972 147.321 65.5686 148.186 65.5686C149.052 65.5686 149.578 64.8066 149.578 63.6872C149.578 62.5677 149.061 61.8057 148.167 61.8057C147.274 61.8057 146.775 62.5959 146.775 63.6872H146.794Z" fill="white"/>
        <path d="M153.229 59.3691C153.232 59.5191 153.191 59.6668 153.11 59.7932C153.03 59.9196 152.913 60.019 152.775 60.0786C152.637 60.1381 152.485 60.1552 152.338 60.1275C152.19 60.0999 152.054 60.0288 151.947 59.9234C151.841 59.818 151.768 59.683 151.738 59.5359C151.709 59.3888 151.724 59.2363 151.782 59.0978C151.84 58.9594 151.937 58.8414 152.063 58.7589C152.188 58.6765 152.335 58.6335 152.485 58.6353C152.583 58.6341 152.679 58.6521 152.769 58.6884C152.859 58.7248 152.941 58.7786 153.01 58.8469C153.079 58.9151 153.134 58.9964 153.172 59.0861C153.209 59.1757 153.229 59.2719 153.229 59.3691ZM151.93 66.3681V61.0248H153.106V66.3681H151.93Z" fill="white"/>
        <path d="M80.6885 39.9995C80.6885 47.9108 78.3425 55.6444 73.9473 62.2223C69.552 68.8003 63.3049 73.9272 55.9958 76.9547C48.6868 79.9822 40.6441 80.7743 32.8849 79.2309C25.1256 77.6875 17.9983 73.8779 12.4042 68.2838C6.81012 62.6897 3.00049 55.5624 1.45708 47.8031C-0.0863253 40.0439 0.705808 32.0012 3.73331 24.6922C6.76082 17.3831 11.8877 11.136 18.4657 6.74073C25.0436 2.34547 32.7772 -0.000488281 40.6885 -0.000488281C45.9414 -0.000488281 51.1428 1.03414 55.9958 3.04433C60.8488 5.05452 65.2584 8.0009 68.9728 11.7152C72.6871 15.4296 75.6335 19.8391 77.6437 24.6922C79.6539 29.5452 80.6885 34.7466 80.6885 39.9995Z" fill="#2C363E"/>
        <path d="M94.5454 27.7794V11.6553H97.8662V25.0137H103.511V27.7794H94.5454Z" fill="#2B343D"/>
        <path d="M112.419 27.7796L111.893 26.7824C111.011 27.5932 109.854 28.0373 108.656 28.0242C108.15 28.0546 107.642 27.9788 107.166 27.8019C106.69 27.6249 106.256 27.3506 105.892 26.9964C105.529 26.6423 105.243 26.2161 105.053 25.7451C104.863 25.2742 104.773 24.7688 104.79 24.2613C104.79 21.8153 106.775 20.4983 109.71 20.4983L111.667 20.4231V20.1973C111.667 18.9743 110.726 18.4569 109.494 18.4569C108.47 18.4652 107.465 18.7374 106.577 19.2471L105.58 17.234C106.981 16.3385 108.623 15.8952 110.284 15.964C113.37 15.964 115.082 17.2152 115.082 20.2725V25.1832C115.036 26.0629 115.102 26.9449 115.279 27.8078L112.419 27.7796ZM111.61 22.5397L110.171 22.5868C108.751 22.6432 108.064 23.1324 108.064 24.0073C108.064 24.8821 108.703 25.456 109.832 25.456C110.47 25.4802 111.096 25.2879 111.61 24.9104V22.5397Z" fill="#2B343D"/>
        <path d="M127.302 28.0239C125.922 28.068 124.553 27.7741 123.313 27.1679V10.4604H126.634V16.2083C127.322 16.0308 128.03 15.9392 128.741 15.9355C129.493 15.8948 130.245 16.0129 130.949 16.2821C131.652 16.5514 132.29 16.9657 132.823 17.4982C133.355 18.0307 133.77 18.6694 134.039 19.3726C134.308 20.0759 134.426 20.828 134.386 21.5799C134.414 25.5969 131.234 28.0239 127.302 28.0239ZM128.036 18.7013C127.555 18.6968 127.078 18.7896 126.634 18.9741V25.1547C127.055 25.2818 127.493 25.3421 127.932 25.3334C128.372 25.3245 128.806 25.2259 129.206 25.0436C129.607 24.8614 129.966 24.5994 130.262 24.2736C130.558 23.9478 130.784 23.565 130.927 23.1488C131.07 22.7326 131.126 22.2916 131.093 21.8527C131.104 21.4437 131.034 21.0366 130.885 20.6553C130.737 20.274 130.514 19.9263 130.229 19.6326C129.944 19.3389 129.603 19.1052 129.226 18.9453C128.85 18.7853 128.445 18.7024 128.036 18.7013Z" fill="#2B343D"/>
        <path d="M146.286 26.2835C145.715 26.8524 145.035 27.2999 144.286 27.599C143.538 27.8981 142.736 28.0426 141.93 28.0238C141.134 28.0743 140.337 27.9554 139.59 27.6751C138.843 27.3948 138.164 26.9594 137.598 26.3976C137.032 25.8358 136.591 25.1605 136.305 24.416C136.019 23.6715 135.894 22.8748 135.938 22.0784C135.909 20.4347 136.523 18.8447 137.65 17.6476C138.208 17.0891 138.873 16.6494 139.605 16.3552C140.338 16.0609 141.122 15.9181 141.912 15.9354C142.733 15.9008 143.553 16.0377 144.319 16.3373C145.086 16.637 145.781 17.0928 146.361 17.6758C147.408 18.8393 147.961 20.364 147.904 21.9279C147.961 23.5364 147.379 25.1022 146.286 26.2835ZM141.883 18.5318C140.143 18.5318 139.334 20.0182 139.334 22.0031C139.334 23.9881 140.275 25.5027 141.949 25.5027C143.624 25.5027 144.517 23.9881 144.517 22.0031C144.517 20.0182 143.511 18.5318 141.855 18.5318H141.883Z" fill="#2B343D"/>
        <path d="M157.575 27.7794V21.072C157.575 19.9713 157.33 18.7483 155.957 18.7483C154.973 18.8068 154.03 19.1572 153.247 19.7549V27.7794H149.917V16.2084H152.739L153.087 17.4313C154.228 16.4842 155.659 15.9564 157.142 15.9355C158.929 15.9355 160.905 16.9609 160.905 20.1218V27.7794H157.575Z" fill="#2B343D"/>
        <path d="M171.15 27.7794V21.072C171.15 19.9713 170.905 18.7483 169.541 18.7483C168.555 18.8055 167.608 19.156 166.822 19.7549V27.7794H163.492V16.2084H166.314L166.662 17.4313C167.812 16.4809 169.253 15.953 170.745 15.9355C172.532 15.9355 174.508 16.9609 174.508 20.1218V27.7794H171.15Z" fill="#2B343D"/>
        <path d="M179.833 22.9064C179.915 23.6443 180.286 24.3198 180.863 24.7864C181.441 25.2531 182.179 25.4733 182.918 25.3993C184.005 25.41 185.076 25.1342 186.023 24.5997L186.785 26.6975C185.482 27.5679 183.949 28.0297 182.382 28.024C178.224 28.024 176.512 25.0889 176.512 22.0503C176.512 18.7766 178.468 15.9355 181.94 15.9355C185.119 15.9355 187.321 18.3062 187.321 21.9092V22.9064H179.833ZM181.836 18.3626C181.261 18.3919 180.721 18.6461 180.332 19.0703C179.943 19.4945 179.737 20.0546 179.757 20.6298H183.915C183.929 20.3441 183.886 20.0584 183.789 19.7894C183.692 19.5203 183.542 19.2733 183.349 19.0624C183.155 18.8516 182.922 18.6812 182.663 18.561C182.403 18.4409 182.122 18.3735 181.836 18.3626Z" fill="#2B343D"/>
        <path d="M98.3085 49.6704C96.9291 49.7144 95.5597 49.4206 94.3198 48.8144V32.1069H97.6406V37.8548C98.3291 37.6773 99.0369 37.5857 99.7479 37.582C100.5 37.5413 101.252 37.6594 101.955 37.9286C102.658 38.1979 103.297 38.6122 103.83 39.1447C104.362 39.6772 104.776 40.3158 105.046 41.0191C105.315 41.7224 105.433 42.4745 105.392 43.2264C105.43 47.2433 102.203 49.6704 98.3085 49.6704ZM99.0423 40.3478C98.5615 40.3432 98.0847 40.436 97.6406 40.6206V46.8106C98.0619 46.9343 98.4999 46.9915 98.9388 46.9799C99.3784 46.9722 99.8117 46.8748 100.212 46.6936C100.613 46.5124 100.972 46.2512 101.268 45.9262C101.564 45.6011 101.791 45.219 101.934 44.8033C102.077 44.3875 102.133 43.947 102.1 43.5086C102.112 43.0996 102.043 42.6922 101.896 42.3105C101.748 41.9287 101.526 41.5803 101.242 41.2857C100.958 40.9912 100.618 40.7564 100.242 40.5953C99.8655 40.4343 99.4609 40.3501 99.0517 40.3478H99.0423Z" fill="#2B343D"/>
        <path d="M117.321 47.93C116.184 48.9953 114.699 49.612 113.142 49.6657C111.585 49.7193 110.062 49.2062 108.854 48.2216C108.239 47.6491 107.752 46.9518 107.428 46.1763C107.104 45.4009 106.948 44.5651 106.973 43.7249C106.94 42.0805 107.555 40.489 108.685 39.294C109.24 38.7349 109.904 38.2948 110.635 38.0004C111.366 37.7061 112.149 37.5637 112.937 37.5819C113.759 37.5473 114.579 37.6842 115.345 37.9838C116.111 38.2834 116.806 38.7393 117.387 39.3223C118.433 40.4857 118.986 42.0105 118.929 43.5744C118.989 45.1816 118.411 46.7472 117.321 47.93ZM112.918 40.1783C111.178 40.1783 110.369 41.6741 110.369 43.6496C110.369 45.6252 111.309 47.1492 112.993 47.1492C114.677 47.1492 115.562 45.6346 115.562 43.6496C115.562 41.6647 114.583 40.1783 112.918 40.1783Z" fill="#2B343D"/>
        <path d="M123.022 36.2647C122.756 36.2832 122.49 36.2469 122.24 36.1582C121.989 36.0694 121.759 35.93 121.565 35.7487C121.37 35.5674 121.215 35.348 121.109 35.1042C121.003 34.8603 120.949 34.5973 120.949 34.3315C120.949 34.0656 121.003 33.8026 121.109 33.5588C121.215 33.315 121.37 33.0956 121.565 32.9143C121.759 32.7329 121.989 32.5935 122.24 32.5048C122.49 32.416 122.756 32.3797 123.022 32.3983C123.279 32.3815 123.537 32.4178 123.779 32.5048C124.022 32.5918 124.244 32.7277 124.432 32.9042C124.62 33.0806 124.769 33.2937 124.871 33.5303C124.973 33.7669 125.026 34.022 125.025 34.2797C125.029 34.5431 124.98 34.8045 124.88 35.0483C124.781 35.2921 124.633 35.5133 124.446 35.6986C124.259 35.884 124.036 36.0297 123.791 36.1269C123.547 36.2242 123.285 36.271 123.022 36.2647ZM121.356 49.435V37.8639H124.649V49.435H121.356Z" fill="#2B343D"/>
        <path d="M131.874 49.67C129.55 49.67 128.713 48.4471 128.713 46.8478V40.2627H126.587V37.8168H128.713V35.1263L132.015 34.1855V37.8544H135.637L134.696 40.3003H132.024V45.8506C132.024 46.6314 132.372 47.0266 133.172 47.0266C133.822 46.9897 134.46 46.8334 135.054 46.5656L135.816 48.7387C134.605 49.3867 133.246 49.7077 131.874 49.67Z" fill="#2B343D"/>
        <path d="M140.115 44.5529C140.198 45.289 140.567 45.9629 141.142 46.4293C141.718 46.8957 142.454 47.1171 143.191 47.0458C144.281 47.0577 145.355 46.7819 146.305 46.2462L147.057 48.344C145.756 49.217 144.222 49.6791 142.655 49.6705C138.497 49.6705 136.784 46.7354 136.784 43.6968C136.784 40.423 138.741 37.582 142.212 37.582C145.392 37.582 147.603 39.9527 147.603 43.5557V44.5529H140.115ZM142.118 40.0091C141.544 40.0384 141.003 40.2926 140.614 40.7168C140.225 41.141 140.019 41.7011 140.039 42.2763H144.226C144.24 41.9883 144.196 41.7004 144.097 41.4295C143.998 41.1586 143.846 40.9103 143.649 40.6991C143.453 40.4879 143.216 40.318 142.954 40.1995C142.691 40.081 142.407 40.0163 142.118 40.0091Z" fill="#2B343D"/>
        <path d="M46.9821 22.897C46.9393 26.7945 48.0558 30.6169 50.19 33.8785C52.3242 37.1402 55.3796 39.6938 58.9683 41.2152C62.5569 42.7365 66.5168 43.1569 70.3449 42.4229C74.1729 41.6889 77.6965 39.8336 80.4678 37.0927C83.2392 34.3518 85.1334 30.8491 85.9097 27.0293C86.686 23.2096 86.3095 19.2453 84.828 15.6401C83.3464 12.0348 80.8267 8.95128 77.5889 6.78115C74.3511 4.61101 70.5413 3.45222 66.6435 3.45199C64.0755 3.43712 61.5298 3.92836 59.1518 4.89764C56.7738 5.86692 54.61 7.29524 52.7842 9.10101C50.9583 10.9068 49.5061 13.0546 48.5106 15.4217C47.5151 17.7889 46.9957 20.329 46.9821 22.897Z" fill="white"/>
        <path d="M50.4533 23.8376C50.4141 27.0478 51.3302 30.1972 53.0852 32.8855C54.8402 35.5738 57.3549 37.6796 60.3096 38.9353C63.2642 40.1911 66.5255 40.54 69.679 39.9378C72.8325 39.3356 75.7357 37.8094 78.0197 35.5533C80.3037 33.2971 81.8654 30.4128 82.5063 27.267C83.1472 24.1212 82.8383 20.8558 81.6189 17.886C80.3996 14.9161 78.3248 12.3758 75.6582 10.5879C72.9917 8.80006 69.8538 7.84534 66.6433 7.8451C62.3782 7.82754 58.28 9.50054 55.2456 12.4979C52.2113 15.4952 50.4881 19.5726 50.4533 23.8376ZM32.7581 52.6805L41.7327 43.7905C42.6834 42.8674 43.8978 42.2628 45.2074 42.0605C46.5171 41.8583 47.8572 42.0684 49.0422 42.6617L51.0836 40.6485C48.7204 38.5308 46.8291 35.9398 45.5325 33.0435C44.2359 30.1473 43.5631 27.0108 43.5577 23.8376C43.4601 18.6724 45.0804 13.6209 48.1642 9.47618C51.248 5.33141 55.6207 2.32793 60.5961 0.937149C65.5715 -0.453628 70.8679 -0.152965 75.654 1.79194C80.44 3.73685 84.4448 7.2159 87.0397 11.683C89.6347 16.1502 90.6728 21.3525 89.9913 26.4735C89.3098 31.5945 86.9471 36.3442 83.2742 39.9772C79.6013 43.6102 74.826 45.9207 69.6979 46.5462C64.5697 47.1717 59.3791 46.0767 54.9406 43.4331L52.4006 45.9448C53.0011 47.1166 53.2135 48.4488 53.0072 49.7492C52.8009 51.0496 52.1865 52.2507 51.2529 53.1791L42.2407 62.0596C41.0481 63.2305 39.4435 63.8865 37.7722 63.8865C36.1009 63.8865 34.4963 63.2305 33.3037 62.0596L32.7581 61.5234C32.1722 60.9457 31.7069 60.2574 31.3893 59.4983C31.0717 58.7393 30.9082 57.9247 30.9082 57.1019C30.9082 56.2791 31.0717 55.4645 31.3893 54.7055C31.7069 53.9465 32.1722 53.2581 32.7581 52.6805Z" fill="#C7297E"/>
    </g>
    <defs>
        <clipPath id="clip0_514_11321">
            <rect width="186.623" height="80" fill="white" transform="translate(0.688477 -0.000488281)"/>
        </clipPath>
    </defs>
</svg>
