<svg width="54" height="54" viewBox="0 0 54 54" fill="none" xmlns="http://www.w3.org/2000/svg">
  <path d="M53.5965 26.7982C53.5965 30.3174 52.9033 33.8022 51.5566 37.0535C50.2098 40.3048 48.2359 43.259 45.7474 45.7474C43.259 48.2359 40.3048 50.2098 37.0535 51.5566C33.8022 52.9033 30.3174 53.5965 26.7982 53.5965C23.279 53.5965 19.7943 52.9033 16.543 51.5566C13.2917 50.2098 10.3375 48.2359 7.84902 45.7474C5.36057 43.259 3.38663 40.3048 2.03989 37.0535C0.693157 33.8022 -5.24401e-08 30.3174 0 26.7982C1.05907e-07 19.6909 2.82338 12.8747 7.84902 7.84902C12.8747 2.82338 19.6909 0 26.7982 0C33.9056 0 40.7218 2.82338 45.7474 7.84902C50.7731 12.8747 53.5965 19.6909 53.5965 26.7982Z" fill="#2A2A2A"/>
  <path d="M41.2375 19.673C41.2375 9.33204 32.4099 5.67487 26.6089 5.61182H26.5458H26.4827C20.6187 5.67487 11.791 9.33204 11.791 19.673L11.8541 20.6188C12.6738 30.3923 25.0955 43.1924 25.7261 43.886L26.4197 44.6426V44.7057L26.4827 44.7688V44.7057L27.1764 43.949C27.87 43.2554 40.2917 30.4553 41.0484 20.6819C41.1661 20.3582 41.23 20.0174 41.2375 19.673ZM26.4827 24.9696C25.9783 24.9696 25.4739 24.9065 24.9694 24.7174C23.942 24.3788 23.0448 23.7301 22.4012 22.8607C21.7576 21.9912 21.3992 20.9437 21.3753 19.8622C21.3992 18.7807 21.7576 17.7331 22.4012 16.8637C23.0448 15.9942 23.942 15.3456 24.9694 15.007C25.4739 14.8808 25.9783 14.7547 26.4827 14.7547C27.1558 14.7463 27.8238 14.8726 28.4473 15.1263C29.0707 15.3799 29.6371 15.7558 30.1131 16.2318C30.5891 16.7078 30.965 17.2742 31.2186 17.8977C31.4723 18.5212 31.5986 19.1891 31.5902 19.8622C31.5986 20.5352 31.4723 21.2032 31.2186 21.8267C30.965 22.4502 30.5891 23.0166 30.1131 23.4925C29.6371 23.9685 29.0707 24.3444 28.4473 24.5981C27.8238 24.8517 27.1558 24.9781 26.4827 24.9696Z" fill="white"/>
</svg>
