<svg width="202" height="80" viewBox="0 0 202 80" fill="none" xmlns="http://www.w3.org/2000/svg">
  <g clip-path="url(#clip0_1554_10680)">
    <path d="M94.1242 55.8916H156.558V70.1916H94.1242V55.8916Z" fill="#3A55D1"/>
    <path d="M103.564 60.938C103.564 62.0596 102.817 63.2747 100.947 63.2747H100.386V65.9851H99.4518V58.4146H101.041C102.536 58.4146 103.564 59.3492 103.564 60.8446V60.938V60.938ZM102.536 60.938C102.536 60.0034 101.975 59.4427 100.947 59.4427H100.386V62.4335H100.947C102.069 62.4335 102.536 61.7792 102.536 60.938V60.938Z" fill="black"/>
    <path d="M103.564 60.938C103.564 62.0596 102.817 63.2747 100.947 63.2747H100.386V65.9851H99.4518V58.4146H101.041C102.536 58.4146 103.564 59.3492 103.564 60.8446V60.938V60.938ZM102.536 60.938C102.536 60.0034 101.975 59.4427 100.947 59.4427H100.386V62.4335H100.947C102.069 62.4335 102.536 61.7792 102.536 60.938V60.938Z" fill="white"/>
    <path d="M108.516 60.0031H107.581L106.833 59.0685L106.179 60.0031H105.244L106.459 58.3208H107.3L108.516 60.0031V60.0031ZM106.74 60.5639C107.487 60.5639 108.048 60.7508 108.516 61.2182C108.983 61.7789 109.263 62.4331 109.263 63.2743C109.263 64.2089 108.983 64.8632 108.516 65.424C108.048 65.7979 107.487 66.0782 106.646 66.0782C105.992 66.0782 105.431 65.8913 104.964 65.424C104.496 64.9567 104.216 64.2089 104.216 63.2743C104.216 62.4331 104.496 61.7789 104.964 61.2182C105.431 60.7508 105.992 60.5639 106.74 60.5639ZM106.74 61.3115C105.805 61.3115 105.244 62.1528 105.244 63.2743C105.244 64.4893 105.805 65.237 106.74 65.237C107.674 65.237 108.235 64.4893 108.235 63.3678C108.328 62.1528 107.674 61.2182 106.74 61.2182V61.3115V61.3115Z" fill="black"/>
    <path d="M108.516 60.0031H107.581L106.833 59.0685L106.179 60.0031H105.244L106.459 58.3208H107.3L108.516 60.0031V60.0031ZM106.74 60.5639C107.487 60.5639 108.048 60.7508 108.516 61.2182C108.983 61.7789 109.263 62.4331 109.263 63.2743C109.263 64.2089 108.983 64.8632 108.516 65.424C108.048 65.7979 107.487 66.0782 106.646 66.0782C105.992 66.0782 105.431 65.8913 104.964 65.424C104.496 64.9567 104.216 64.2089 104.216 63.2743C104.216 62.4331 104.496 61.7789 104.964 61.2182C105.431 60.7508 105.992 60.5639 106.74 60.5639ZM106.74 61.3115C105.805 61.3115 105.244 62.1528 105.244 63.2743C105.244 64.4893 105.805 65.237 106.74 65.237C107.674 65.237 108.235 64.4893 108.235 63.3678C108.328 62.1528 107.674 61.2182 106.74 61.2182V61.3115V61.3115Z" fill="white"/>
    <path d="M112.347 65.8915L111.6 66.0784C110.852 66.0784 110.665 65.6111 110.665 65.0503V58.0405H111.6V64.5829C111.6 65.0503 111.693 65.1438 111.974 65.1438H112.347V65.8915V65.8915Z" fill="black"/>
    <path d="M112.347 65.8915L111.6 66.0784C110.852 66.0784 110.665 65.6111 110.665 65.0503V58.0405H111.6V64.5829C111.6 65.0503 111.693 65.1438 111.974 65.1438H112.347V65.8915V65.8915Z" fill="white"/>
    <path d="M117.484 63.5549H114.026C114.026 64.4895 114.681 65.2373 115.708 65.2373C116.176 65.2373 116.643 65.0504 117.018 64.8634L117.298 65.5177C116.831 65.8915 116.176 66.0785 115.522 66.0785C113.84 66.0785 112.999 64.6765 112.999 63.2746C112.999 61.6857 113.933 60.4707 115.242 60.4707C116.643 60.4707 117.484 61.5922 117.484 63.2746V63.5549ZM116.457 62.7138C116.457 62.0595 115.989 61.3119 115.242 61.3119C114.494 61.3119 114.026 61.9661 114.026 62.7138H116.457Z" fill="black"/>
    <path d="M117.484 63.5549H114.026C114.026 64.4895 114.681 65.2373 115.708 65.2373C116.176 65.2373 116.643 65.0504 117.018 64.8634L117.298 65.5177C116.831 65.8915 116.176 66.0785 115.522 66.0785C113.84 66.0785 112.999 64.6765 112.999 63.2746C112.999 61.6857 113.933 60.4707 115.242 60.4707C116.643 60.4707 117.484 61.5922 117.484 63.2746V63.5549ZM116.457 62.7138C116.457 62.0595 115.989 61.3119 115.242 61.3119C114.494 61.3119 114.026 61.9661 114.026 62.7138H116.457Z" fill="white"/>
    <path d="M125.621 63.5549H122.257C122.257 64.4895 122.817 65.2373 123.845 65.2373C124.313 65.2373 124.78 65.0504 125.154 64.8634L125.435 65.5177C124.967 65.8915 124.313 66.0785 123.659 66.0785C121.976 66.0785 121.135 64.6765 121.135 63.2746C121.135 61.6857 122.07 60.4707 123.378 60.4707C124.78 60.4707 125.621 61.5922 125.621 63.2746V63.5549ZM124.5 62.7138C124.5 62.0595 124.126 61.3119 123.284 61.3119C122.537 61.3119 122.07 61.9661 122.07 62.7138H124.5Z" fill="black"/>
    <path d="M125.621 63.5549H122.257C122.257 64.4895 122.817 65.2373 123.845 65.2373C124.313 65.2373 124.78 65.0504 125.154 64.8634L125.435 65.5177C124.967 65.8915 124.313 66.0785 123.659 66.0785C121.976 66.0785 121.135 64.6765 121.135 63.2746C121.135 61.6857 122.07 60.4707 123.378 60.4707C124.78 60.4707 125.621 61.5922 125.621 63.2746V63.5549ZM124.5 62.7138C124.5 62.0595 124.126 61.3119 123.284 61.3119C122.537 61.3119 122.07 61.9661 122.07 62.7138H124.5Z" fill="white"/>
    <path d="M134.589 65.8914H133.655V62.6202C133.655 61.966 133.468 61.4986 132.72 61.4986C132.16 61.4986 131.599 61.8725 131.225 62.2464V65.8914H130.29V62.6202C130.29 61.8725 130.103 61.4051 129.356 61.4051C128.795 61.4051 128.234 61.779 127.86 62.1529V65.8914H126.925V60.7509H127.674L127.766 61.4051C128.515 60.8444 129.075 60.6574 129.636 60.6574C130.291 60.6574 130.851 60.9379 131.038 61.4986C131.599 60.9379 132.346 60.564 132.907 60.564C133.842 60.564 134.589 61.0313 134.589 62.3398V66.0784V65.8914V65.8914Z" fill="black"/>
    <path d="M134.589 65.8914H133.655V62.6202C133.655 61.966 133.468 61.4986 132.72 61.4986C132.16 61.4986 131.599 61.8725 131.225 62.2464V65.8914H130.29V62.6202C130.29 61.8725 130.103 61.4051 129.356 61.4051C128.795 61.4051 128.234 61.779 127.86 62.1529V65.8914H126.925V60.7509H127.674L127.766 61.4051C128.515 60.8444 129.075 60.6574 129.636 60.6574C130.291 60.6574 130.851 60.9379 131.038 61.4986C131.599 60.9379 132.346 60.564 132.907 60.564C133.842 60.564 134.589 61.0313 134.589 62.3398V66.0784V65.8914V65.8914Z" fill="white"/>
    <path d="M140.663 63.2746C140.663 65.0504 139.355 66.0785 137.953 66.0785C137.579 66.0785 137.393 66.0785 137.112 65.8915V68.6954H136.177V60.751C136.552 60.6575 137.112 60.4707 138.046 60.4707C139.636 60.4707 140.663 61.4053 140.663 63.1811V63.2746ZM139.728 63.2746C139.728 61.9661 138.795 61.4053 137.86 61.4053L137.112 61.4988V65.0504L137.953 65.2373C138.981 65.2373 139.636 64.4895 139.636 63.2746H139.728V63.2746Z" fill="black"/>
    <path d="M140.663 63.2746C140.663 65.0504 139.355 66.0785 137.953 66.0785C137.579 66.0785 137.393 66.0785 137.112 65.8915V68.6954H136.177V60.751C136.552 60.6575 137.112 60.4707 138.046 60.4707C139.636 60.4707 140.663 61.4053 140.663 63.1811V63.2746ZM139.728 63.2746C139.728 61.9661 138.795 61.4053 137.86 61.4053L137.112 61.4988V65.0504L137.953 65.2373C138.981 65.2373 139.636 64.4895 139.636 63.2746H139.728V63.2746Z" fill="white"/>
    <path d="M143.758 65.8915L142.916 66.0784C142.262 66.0784 141.982 65.6111 141.982 65.0503V58.0405H142.916V64.5829C142.916 65.0503 143.009 65.1438 143.291 65.1438H143.664L143.758 65.8915V65.8915Z" fill="black"/>
    <path d="M143.758 65.8915L142.916 66.0784C142.262 66.0784 141.982 65.6111 141.982 65.0503V58.0405H142.916V64.5829C142.916 65.0503 143.009 65.1438 143.291 65.1438H143.664L143.758 65.8915V65.8915Z" fill="white"/>
    <path d="M146.926 60.5645C147.581 60.5645 148.235 60.7514 148.61 61.2188C149.077 61.7795 149.357 62.4337 149.357 63.275C149.357 64.2096 149.077 64.8638 148.61 65.4246C148.142 65.7985 147.581 66.0789 146.834 66.0789C146.179 66.0789 145.525 65.8919 145.151 65.4246C144.591 64.9573 144.403 64.2096 144.403 63.275C144.403 62.4337 144.591 61.7795 145.151 61.2188C145.525 60.7514 146.085 60.5645 146.834 60.5645H146.926V60.5645ZM146.926 61.3122C145.899 61.3122 145.338 62.1534 145.338 63.275C145.338 64.4899 145.899 65.2376 146.834 65.2376C147.768 65.2376 148.328 64.4899 148.328 63.3684C148.328 62.1534 147.861 61.2188 146.926 61.2188V61.3122V61.3122Z" fill="black"/>
    <path d="M146.926 60.5645C147.581 60.5645 148.235 60.7514 148.61 61.2188C149.077 61.7795 149.357 62.4337 149.357 63.275C149.357 64.2096 149.077 64.8638 148.61 65.4246C148.142 65.7985 147.581 66.0789 146.834 66.0789C146.179 66.0789 145.525 65.8919 145.151 65.4246C144.591 64.9573 144.403 64.2096 144.403 63.275C144.403 62.4337 144.591 61.7795 145.151 61.2188C145.525 60.7514 146.085 60.5645 146.834 60.5645H146.926V60.5645ZM146.926 61.3122C145.899 61.3122 145.338 62.1534 145.338 63.275C145.338 64.4899 145.899 65.2376 146.834 65.2376C147.768 65.2376 148.328 64.4899 148.328 63.3684C148.328 62.1534 147.861 61.2188 146.926 61.2188V61.3122V61.3122Z" fill="white"/>
    <path d="M151.137 58.4147C151.511 58.4147 151.791 58.6016 151.791 58.9755C151.791 59.3493 151.511 59.6297 151.137 59.6297C150.963 59.6297 150.797 59.5608 150.674 59.4381C150.552 59.3154 150.482 59.149 150.482 58.9755C150.482 58.8019 150.552 58.6356 150.674 58.5129C150.797 58.3901 150.963 58.3213 151.137 58.3213V58.4147V58.4147ZM151.698 65.8918H150.669V60.7513H151.604V66.0786L151.698 65.8918Z" fill="black"/>
    <path d="M151.137 58.4147C151.511 58.4147 151.791 58.6016 151.791 58.9755C151.791 59.3493 151.511 59.6297 151.137 59.6297C150.963 59.6297 150.797 59.5608 150.674 59.4381C150.552 59.3154 150.482 59.149 150.482 58.9755C150.482 58.8019 150.552 58.6356 150.674 58.5129C150.797 58.3901 150.963 58.3213 151.137 58.3213V58.4147V58.4147ZM151.698 65.8918H150.669V60.7513H151.604V66.0786L151.698 65.8918Z" fill="white"/>
    <path d="M79.9178 39.7221C79.9178 44.9384 78.8905 50.1037 76.8943 54.9232C74.898 59.7424 71.9722 64.1214 68.2836 67.8095C64.5951 71.4976 60.2162 74.4239 55.3973 76.4201C50.5779 78.4163 45.4127 79.4437 40.1963 79.4437C34.9798 79.4437 29.8146 78.4163 24.9952 76.4201C20.1758 74.4239 15.797 71.498 12.1089 67.8095C8.42037 64.1209 5.49447 59.742 3.49826 54.9232C1.50205 50.1038 0.474579 44.9385 0.474579 39.7221C0.474579 29.1874 4.65953 19.0842 12.1093 11.6347C19.5586 4.18537 29.6619 0 40.1967 0C50.7314 0 60.8346 4.18495 68.284 11.6347C75.7333 19.084 79.9177 29.1874 79.9177 39.7221H79.9178Z" fill="#23333B"/>
    <path d="M93.8442 27.6651V11.5893H96.7416V25.1419H102.443V27.6654H93.8442V27.6651ZM111.322 27.6651L110.855 26.637C110.107 27.2913 109.079 27.9455 107.491 27.9455C105.341 27.9455 103.752 26.5435 103.752 24.207C103.752 21.8703 105.621 20.5619 108.519 20.4684L110.575 20.375V20.0946C110.575 18.6925 109.64 18.1318 108.425 18.1318C107.117 18.1318 106.182 18.5057 105.434 18.973L104.5 17.1037C105.817 16.1994 107.389 15.7409 108.986 15.7952C111.789 15.7952 113.565 16.9168 113.565 20.0011V24.5808C113.565 26.2632 113.659 27.1043 113.753 27.5716H111.322V27.6651ZM110.575 22.3377L108.893 22.4312C107.303 22.5245 106.649 22.9919 106.649 24.02C106.649 24.9547 107.303 25.6089 108.519 25.6089C108.894 25.6284 109.269 25.5723 109.622 25.4439C109.976 25.3154 110.3 25.1173 110.575 24.8612V22.3377V22.3377ZM125.903 27.852C124.314 27.852 123.099 27.5716 122.071 27.0109V10.374H124.968V16.1688C125.622 15.9818 126.371 15.7949 127.212 15.7949C130.015 15.7949 132.725 17.6642 132.725 21.4028C132.725 25.5151 129.547 27.8517 125.903 27.8517V27.852ZM126.651 18.3188C125.903 18.3188 125.436 18.5057 125.061 18.6926V25.2351C125.528 25.4219 125.903 25.4219 126.463 25.4219C128.426 25.4219 129.828 23.7396 129.828 21.5899C129.828 19.9076 128.613 18.3188 126.651 18.3188V18.3188ZM144.221 26.1697C143.683 26.7111 143.042 27.139 142.336 27.4279C141.629 27.717 140.873 27.8612 140.109 27.852C138.52 27.852 137.118 27.3847 136.184 26.45C135.593 25.8666 135.129 25.1663 134.823 24.3939C134.518 23.6215 134.376 22.7939 134.407 21.9638C134.407 20.188 135.062 18.5992 136.091 17.4776C136.633 16.9487 137.277 16.5352 137.984 16.262C138.691 15.989 139.445 15.8619 140.202 15.8887C141.979 15.8887 143.38 16.4495 144.408 17.5711C145.445 18.7561 145.981 20.2976 145.904 21.8703C145.904 23.5527 145.249 25.1416 144.221 26.1697V26.1697ZM140.016 18.1318C138.146 18.1318 137.305 19.7207 137.305 21.8703C137.305 24.1135 138.334 25.6089 140.109 25.6089C141.979 25.6089 142.82 24.02 142.82 21.8703C142.82 19.6273 141.792 18.1318 140.016 18.1318ZM155.531 27.6651V20.9357C155.531 19.7207 155.344 18.4122 153.848 18.4122C152.82 18.4122 151.792 18.973 150.951 19.6273V27.6651H148.054V16.1693H150.577L150.858 17.3843C151.992 16.4486 153.406 15.9217 154.877 15.8889C156.653 15.8889 158.521 16.917 158.521 20.0013V27.6653H155.531V27.6651ZM168.709 27.6651V20.9357C168.709 19.7207 168.522 18.4122 167.026 18.4122C165.999 18.4122 164.971 18.973 164.129 19.6273V27.6651H161.232V16.1693H163.756L164.036 17.3843C165.169 16.4486 166.585 15.9217 168.055 15.8889C169.831 15.8889 171.7 16.917 171.7 20.0013V27.6653H168.709V27.6651ZM176.746 22.618C176.84 24.3004 178.242 25.5154 180.018 25.5154C181.14 25.5154 181.981 25.2351 183.008 24.6742L183.757 26.5435C182.448 27.4781 180.953 27.852 179.551 27.852C175.532 27.852 173.849 24.9547 173.849 21.8703C173.849 18.5992 175.813 15.8887 179.083 15.8887C182.167 15.8887 184.224 18.2253 184.224 21.7769V22.618H176.746V22.618ZM178.989 18.0383C177.588 18.0383 176.746 19.3469 176.746 20.5619H181.233C181.14 19.3469 180.392 18.0383 178.989 18.0383Z" fill="black"/>
    <path d="M100.573 49.1619L100.105 48.1338C99.3576 48.788 98.3295 49.4422 96.7406 49.4422C94.5909 49.4422 93.0021 48.0403 93.0021 45.7037C93.0021 43.3672 94.8714 42.0586 97.7687 41.9652L99.8249 41.8717V41.5914C99.8249 40.1894 98.8903 39.6286 97.6753 39.6286C96.3667 39.6286 95.4321 40.0024 94.6844 40.4698L93.7498 38.6005C95.0669 37.6962 96.6393 37.2377 98.236 37.292C101.04 37.292 102.816 38.4136 102.816 41.4979V46.0776C102.816 47.7599 102.909 48.6011 103.003 49.0684H100.573V49.1619V49.1619ZM99.9183 43.8344L98.236 43.9279C96.6472 44.0214 95.9929 44.4887 95.9929 45.5167C95.9929 46.4515 96.6472 47.1057 97.8622 47.1057C98.2376 47.1253 98.6129 47.0691 98.9662 46.9406C99.3195 46.8122 99.6433 46.614 99.9183 46.358V43.8344V43.8344ZM108.143 49.3487C106.181 49.3487 105.526 48.2273 105.526 46.8253V31.8716H108.424V45.5168C108.424 46.3581 108.61 46.7319 109.171 46.7319L110.012 46.6384L110.386 48.7881C109.545 49.2555 108.797 49.3488 108.143 49.3488V49.3487ZM115.433 49.3487C113.377 49.3487 112.629 48.2273 112.629 46.6383V39.8155H110.573V37.6659H112.629V35.0488L115.527 34.2077V37.7594H119.079L118.237 39.909H115.527V45.7037C115.527 46.6383 115.901 47.0122 116.648 47.0122C117.396 47.0122 118.144 46.6383 118.611 46.358L119.359 48.2273C118.144 48.975 116.555 49.3487 115.433 49.3487V49.3487ZM123.097 44.1148C123.191 45.7972 124.592 47.0122 126.369 47.0122C127.49 47.0122 128.331 46.7318 129.36 46.1711L130.107 48.0403C128.799 48.975 127.303 49.3487 125.902 49.3487C121.883 49.3487 120.2 46.4515 120.2 43.3672C120.2 40.0959 122.163 37.3855 125.434 37.3855C128.519 37.3855 130.574 39.722 130.574 43.2737V44.1148H123.097V44.1148ZM125.247 39.5352C123.845 39.5352 123.004 40.8436 123.004 42.0586H127.49C127.396 40.8436 126.743 39.5352 125.247 39.5352ZM139.173 40.3763C138.747 40.1308 138.263 40.0019 137.771 40.0024C137.116 40.0024 136.369 40.2828 135.528 41.0305V49.1619H132.63V37.6661H135.061L135.341 38.8811C136.556 37.8529 137.397 37.3857 138.519 37.3857C139.08 37.3857 139.641 37.5726 140.108 37.8529L139.173 40.3765V40.3763ZM149.173 49.1619V42.4325C149.173 41.2175 148.987 39.909 147.491 39.909C146.463 39.909 145.435 40.4698 144.594 41.124V49.1619H141.696V37.6661H144.22L144.501 38.8811C145.634 37.9453 147.05 37.4185 148.52 37.3857C150.295 37.3857 152.165 38.4138 152.165 41.4981V49.1621H149.173V49.1619ZM161.791 49.1619L161.324 48.1338C160.576 48.788 159.548 49.4422 157.96 49.4422C155.809 49.4422 154.221 48.0403 154.221 45.7037C154.221 43.3672 156.09 42.0586 158.987 41.9652L161.044 41.8717V41.5914C161.044 40.1894 160.109 39.6286 158.894 39.6286C157.585 39.6286 156.651 40.0024 155.903 40.4698L154.968 38.6005C156.286 37.6962 157.857 37.2377 159.454 37.292C162.259 37.292 164.034 38.4136 164.034 41.4979V46.0776C164.034 47.7599 164.128 48.6011 164.222 49.0684H161.791V49.1619V49.1619ZM161.044 43.8344L159.361 43.9279C157.772 44.0214 157.119 44.4887 157.119 45.5167C157.119 46.4515 157.772 47.1057 158.987 47.1057C159.363 47.1253 159.739 47.0691 160.091 46.9406C160.445 46.8122 160.768 46.614 161.044 46.358V43.8344V43.8344ZM174.315 49.1619V42.4325C174.315 41.2175 174.128 39.909 172.633 39.909C171.605 39.909 170.576 40.4698 169.735 41.124V49.1619H166.839V37.6661H169.362L169.642 38.8811C170.775 37.9453 172.191 37.4185 173.661 37.3857C175.436 37.3857 177.306 38.4138 177.306 41.4981V49.1621H174.315V49.1619ZM184.97 49.3487C181.231 49.3487 179.269 46.6383 179.269 43.4606C179.269 40.0024 181.792 37.3855 185.25 37.3855C186.84 37.3855 187.868 37.7594 188.522 38.2266L188.428 40.5633C187.587 40.0024 186.746 39.6286 185.531 39.6286C183.568 39.6286 182.166 41.2175 182.166 43.3672C182.166 45.3299 183.194 47.1057 185.531 47.1057C186.652 47.1057 187.493 46.7318 188.242 46.2645L188.989 48.2273C188.148 48.788 186.559 49.3487 184.97 49.3487V49.3487ZM193.102 44.1148C193.195 45.7972 194.596 47.0122 196.372 47.0122C197.494 47.0122 198.335 46.7318 199.364 46.1711L200.111 48.0403C198.803 48.975 197.307 49.3487 195.905 49.3487C191.886 49.3487 190.204 46.4515 190.204 43.3672C190.204 40.0959 192.167 37.3855 195.438 37.3855C198.523 37.3855 200.578 39.722 200.578 43.2737V44.1148H193.102V44.1148ZM195.251 39.5352C193.849 39.5352 193.008 40.8436 193.008 42.0586H197.494C197.401 40.8436 196.747 39.5352 195.251 39.5352Z" fill="black"/>
    <path d="M61.5989 29.161C61.5989 13.8325 48.5137 8.41253 39.9158 8.31885H39.7288C31.0367 8.41231 17.952 13.8333 17.952 29.161L18.0455 30.5628C19.2604 45.0492 37.6728 64.0229 38.6076 65.0513L39.6357 66.1728V66.2663L39.7292 66.3598V66.2663L40.7573 65.1447C41.7854 64.1166 60.1973 45.1437 61.3194 30.6563C61.4939 30.1765 61.5885 29.6714 61.5997 29.161H61.5989ZM39.7284 37.0119C38.9807 37.0119 38.233 36.9184 37.4853 36.638C35.9624 36.1361 34.6325 35.1746 33.6784 33.8859C32.7244 32.5971 32.1933 31.0444 32.1579 29.4413C32.1933 27.8382 32.7244 26.2855 33.6784 24.9967C34.6325 23.708 35.9624 22.7465 37.4853 22.2446C38.233 22.0577 38.9807 21.8707 39.7284 21.8707C40.7261 21.8582 41.7161 22.0455 42.6403 22.4215C43.5645 22.7975 44.4041 23.3546 45.1096 24.0602C45.815 24.7657 46.3722 25.6053 46.7482 26.5294C47.1242 27.4536 47.3115 28.4437 47.2989 29.4413C47.3115 30.439 47.1242 31.4291 46.7482 32.3533C46.3722 33.2774 45.815 34.117 45.1096 34.8224C44.4041 35.528 43.5645 36.0852 42.6403 36.4612C41.7161 36.8372 40.7261 37.0244 39.7284 37.0119Z" fill="white"/>
  </g>
</svg>
