<svg width="44" height="17" viewBox="0 0 44 17" fill="none" xmlns="http://www.w3.org/2000/svg">
    <rect width="44" height="16" transform="translate(0 0.407715)" fill="white"/>
    <path d="M14.2106 14.4787C14.2159 14.4787 14.2212 14.4709 14.2212 14.4709C14.2637 14.4395 14.3062 14.4003 14.3433 14.3532C14.338 14.3532 14.3327 14.3532 14.3274 14.3454C14.2902 14.3846 14.2477 14.4317 14.2106 14.4787Z" fill="#000091"/>
    <path d="M20.0958 12.4956L20.0029 12.5756C20.056 12.5622 20.0958 12.5489 20.0958 12.4956Z" fill="#000091"/>
    <path fill-rule="evenodd" clip-rule="evenodd" d="M18.1931 14.5214C18.3635 14.3499 18.534 14.168 18.7044 13.981H18.6993C19.0195 13.6172 19.3295 13.269 19.7014 12.952C19.815 12.8481 19.9235 12.7598 20.0268 12.687C20.042 12.6718 20.0497 12.649 20.0573 12.6267C20.0652 12.6035 20.073 12.5808 20.0888 12.5675C20.0152 12.5956 19.9565 12.64 19.8975 12.6847C19.8364 12.731 19.775 12.7775 19.6962 12.8065C19.6652 12.8065 19.6342 12.7754 19.6652 12.7442C19.7737 12.6662 19.8822 12.5831 19.9855 12.5H19.9648C19.9338 12.5 19.9338 12.4688 19.9338 12.4376C19.5493 12.3765 19.2539 12.6395 18.9896 12.875L18.9731 12.8897C18.9319 12.9104 18.893 12.8899 18.8625 12.8737C18.847 12.8656 18.8337 12.8585 18.8232 12.8585C18.5893 12.937 18.3876 13.0816 18.1845 13.2271C17.9975 13.3612 17.8093 13.4961 17.5939 13.5808V13.5185C17.5207 13.5437 17.4484 13.5766 17.3759 13.6096C17.2692 13.6581 17.1622 13.7068 17.0515 13.7315C16.8493 13.7785 16.6618 13.7724 16.48 13.7665C16.4204 13.7646 16.3612 13.7627 16.3025 13.7627C15.9716 13.7955 15.645 13.8664 15.3188 13.9372L15.2125 13.9602C15.2074 13.9628 15.2022 13.9641 15.197 13.9654C15.1919 13.9667 15.1867 13.968 15.1815 13.9706C14.9852 14.0225 14.8045 14.0953 14.6237 14.1992L14.603 14.2096C14.5959 14.2191 14.5888 14.2276 14.5822 14.2354C14.5744 14.2447 14.5673 14.2531 14.5617 14.2616C14.4997 14.3343 14.4429 14.3967 14.3551 14.4434C14.2254 14.5087 14.1133 14.6093 14.003 14.7083C13.9552 14.7512 13.9076 14.7939 13.8592 14.8332C13.8488 14.8436 13.8282 14.8488 13.8127 14.8488C13.6526 15.0046 13.4924 15.1606 13.3271 15.3113C13.3168 15.3216 13.2703 15.3268 13.2341 15.3216C13.2341 15.3216 13.2393 15.3216 13.2393 15.3165L13.2548 15.2853L13.3323 15.1606C13.3478 15.1372 13.362 15.1138 13.3762 15.0904C13.3904 15.067 13.4046 15.0436 13.4201 15.0203C13.4614 14.9579 13.5028 14.8955 13.5492 14.8384C13.5596 14.8228 13.5596 14.8072 13.5492 14.7968C13.5389 14.7864 13.5234 14.7812 13.5079 14.7812C13.6577 14.6357 13.8333 14.511 14.0141 14.4019V14.3967C13.9935 14.4019 13.9625 14.3863 13.978 14.3655C13.9931 14.3464 14.0055 14.3246 14.0171 14.304L14.0296 14.2824C14.0322 14.2772 14.0335 14.2733 14.0348 14.2694C14.0361 14.2655 14.0374 14.2616 14.04 14.2564C14.0374 14.2512 14.0335 14.2473 14.0296 14.2434C14.0257 14.2395 14.0219 14.2356 14.0193 14.2304L13.988 14.2511C13.9505 14.2756 13.912 14.3008 13.8798 14.3291C13.857 14.3488 13.8357 14.3757 13.8139 14.4033C13.7665 14.4633 13.7165 14.5266 13.6422 14.5266C13.637 14.5266 13.6112 14.5266 13.5957 14.5214C13.5802 14.5214 13.5699 14.5162 13.5647 14.511C13.5647 14.5084 13.5647 14.5071 13.5654 14.5064C13.566 14.5058 13.5673 14.5058 13.5699 14.5058C13.5699 14.5058 13.5751 14.5006 13.5751 14.4954C13.5751 14.4954 13.5751 14.4902 13.5802 14.4902C13.5828 14.485 13.5854 14.4811 13.588 14.4772C13.5905 14.4733 13.5931 14.4694 13.5957 14.4642C13.5983 14.459 13.6009 14.4551 13.6035 14.4512C13.606 14.4473 13.6086 14.4434 13.6112 14.4382C13.6138 14.4356 13.6151 14.4317 13.6164 14.4279C13.6177 14.424 13.619 14.4201 13.6215 14.4175L13.6274 14.4067C13.6325 14.3976 13.6386 14.3868 13.6422 14.3759C13.6448 14.3707 13.6474 14.3668 13.65 14.3629C13.6525 14.359 13.6551 14.3551 13.6577 14.3499C13.6655 14.3395 13.6719 14.3278 13.6784 14.3161C13.6848 14.3044 13.6913 14.2927 13.699 14.2824C13.7042 14.272 13.7094 14.2616 13.7197 14.2512C13.7249 14.2408 13.73 14.2317 13.7352 14.2226C13.7404 14.2135 13.7455 14.2044 13.7507 14.194C13.7662 14.168 13.7507 14.1472 13.73 14.142C13.7868 14.0693 13.854 14.0069 13.9366 13.9602H13.9263C13.9976 13.9243 14.071 13.8823 14.1438 13.8406C14.1868 13.8159 14.2303 13.791 14.2724 13.7679C14.2879 13.7523 14.3034 13.7367 14.3241 13.7263C14.1536 13.7835 13.9986 13.8614 13.8488 13.9654C13.8488 13.9654 13.8075 13.981 13.7972 13.9913C13.7972 13.9913 13.7662 14.0017 13.7249 13.9654C13.7197 13.9602 13.7197 13.955 13.7197 13.9446C13.7376 13.9085 13.7747 13.8845 13.8147 13.8587C13.8438 13.8399 13.8744 13.8201 13.9005 13.7939C13.9315 13.7939 13.9573 13.7939 13.9573 13.8251C14.5522 13.3585 15.2858 13.2506 16.0218 13.1423C16.4745 13.0757 16.9282 13.0089 17.3511 12.8585C17.395 12.8273 17.4402 12.7975 17.4854 12.7676C17.5306 12.7377 17.5758 12.7078 17.6197 12.6766C17.695 12.6453 17.7625 12.5916 17.834 12.5347C17.9047 12.4785 17.9792 12.4191 18.0691 12.3752C18.3067 12.1934 18.4875 11.9855 18.5805 11.6789C18.5805 11.6477 18.5495 11.6165 18.5495 11.6165C18.1569 12.0375 17.7075 12.37 17.2271 12.6143C16.769 12.856 16.2782 12.8918 15.7923 12.9273C15.6097 12.9406 15.4279 12.9539 15.2487 12.978C15.2797 12.9157 15.3417 12.9157 15.3985 12.9157C15.3985 12.8419 15.4339 12.8101 15.4792 12.7694C15.4913 12.7585 15.5042 12.747 15.5173 12.7338H15.6051C15.6206 12.7338 15.6284 12.7182 15.6361 12.7026C15.6439 12.687 15.6516 12.6714 15.6671 12.6714C15.7291 12.6714 15.8169 12.6403 15.7859 12.6403C15.7385 12.5793 15.6697 12.6035 15.5937 12.6301C15.5206 12.6557 15.441 12.6836 15.3675 12.6403C15.3948 12.6103 15.403 12.5743 15.4105 12.5416C15.4186 12.5062 15.4258 12.4746 15.4553 12.4584H15.5741C15.5741 12.396 15.6361 12.3389 15.6361 12.3389C15.9055 12.1769 16.1656 12.0354 16.4209 11.8966C16.5914 11.8039 16.76 11.7123 16.9275 11.6165C16.8936 11.6165 16.8636 11.6305 16.8344 11.644C16.788 11.6655 16.7438 11.686 16.6899 11.6477C16.7209 11.6477 16.7209 11.6256 16.7209 11.6036C16.7209 11.5815 16.7209 11.5594 16.7519 11.5594C16.9457 11.5076 17.1181 11.4237 17.2943 11.338C17.4187 11.2775 17.5449 11.2161 17.6817 11.1645C17.6411 11.1645 17.6035 11.1754 17.5668 11.186C17.4963 11.2065 17.4293 11.226 17.3511 11.1645C17.3716 11.1541 17.3882 11.141 17.4045 11.128C17.4375 11.1017 17.4697 11.0761 17.5319 11.0761V10.9878C17.5319 10.9566 17.5629 10.9566 17.5939 10.9566C17.5629 10.9566 17.5319 10.9254 17.5319 10.9254C17.5483 10.8924 17.5806 10.8856 17.6166 10.878C17.6486 10.8713 17.6835 10.864 17.7127 10.8371C17.6817 10.8371 17.6248 10.8371 17.6248 10.8059C17.7127 10.6864 17.8625 10.6552 18.0123 10.624C17.9968 10.5928 17.9671 10.5928 17.9412 10.5928C17.9154 10.5928 17.8935 10.5928 17.8935 10.5617C17.8935 10.5305 17.9244 10.5305 17.9554 10.5305H17.8935C17.8448 10.506 17.8534 10.4623 17.8594 10.4321C17.861 10.4238 17.8625 10.4166 17.8625 10.411C17.9838 10.268 18.0237 10.0992 18.0634 9.93141C18.0828 9.84921 18.1022 9.76725 18.1311 9.68865C18.1001 9.68865 18.0691 9.68865 18.0691 9.65747C17.7786 9.97989 17.3183 10.1021 16.8809 10.2181L16.8397 10.2291H16.6899C16.5401 10.2914 16.3283 10.2914 16.1785 10.1979C16.1073 10.1605 16.0565 10.1138 16.0016 10.0633C15.9649 10.0296 15.9265 9.99424 15.8789 9.95887C15.6361 9.80817 15.3985 9.68865 15.1299 9.59511C14.3809 9.35608 13.6009 9.23136 12.8209 9.26254C13.0387 9.14271 13.27 9.09506 13.5044 9.04677C13.6257 9.02177 13.7479 8.9966 13.8695 8.96114C13.9462 8.93854 14.0222 8.91524 14.0978 8.89206C14.5262 8.76069 14.9419 8.63324 15.3985 8.65975C15.3387 8.63852 15.2622 8.64619 15.1917 8.65325C15.1587 8.65657 15.1269 8.65975 15.0989 8.65975C14.7536 8.63402 14.4048 8.71091 14.0409 8.79114C13.9638 8.80813 13.8861 8.82527 13.8075 8.84162C13.665 8.87129 13.5294 8.91389 13.3937 8.95657C13.2441 9.00359 13.0943 9.05069 12.9345 9.08066C12.8652 9.10456 12.8096 9.14526 12.7554 9.18491C12.6682 9.24869 12.5847 9.30974 12.4541 9.29372V9.20018C12.7537 8.83643 13.1153 8.47787 13.5957 8.44669C14.0601 8.37106 14.4979 8.42493 14.9547 8.48113C15.0314 8.49057 15.1087 8.50008 15.1867 8.50905C15.5611 8.53918 15.9115 8.62271 16.289 8.71272L16.3283 8.7221C16.4109 8.7221 16.4574 8.79487 16.5024 8.86534C16.539 8.9226 16.5746 8.97834 16.6279 8.99232C16.7014 9.01769 16.775 9.02242 16.8485 9.02715C16.9558 9.03404 17.063 9.04094 17.1703 9.11184C17.1703 9.09086 17.1668 9.07046 17.1633 9.05026C17.1564 9.01043 17.1497 8.97134 17.1703 8.92996C17.2369 8.86292 17.3133 8.8809 17.3885 8.89861C17.4474 8.91247 17.5055 8.92616 17.5577 8.89878C17.7215 8.79711 17.5679 8.64102 17.4141 8.4848C17.3399 8.40947 17.2657 8.33412 17.2271 8.26481C17.2271 8.23363 17.2581 8.20245 17.2581 8.20245C17.3259 8.26328 17.3891 8.32622 17.4518 8.38862C17.6086 8.54479 17.762 8.69757 17.9761 8.80525C18.1259 8.86761 18.4875 8.95595 18.4255 8.77407C18.3194 8.53851 18.1382 8.33424 17.9552 8.12801C17.8798 8.04307 17.8041 7.9578 17.7333 7.86988V7.75036C17.6862 7.75036 17.6749 7.73237 17.6609 7.71006C17.6564 7.70299 17.6517 7.6955 17.6455 7.688V7.56848C17.5698 7.52874 17.5528 7.46577 17.5358 7.40246C17.526 7.36643 17.5163 7.3303 17.4957 7.29826C17.4439 7.21434 17.4402 7.11108 17.4364 7.00464C17.4333 6.91994 17.4302 6.83323 17.4027 6.75263C17.3407 6.57075 17.3149 6.42006 17.2839 6.23818C17.2503 6.05211 17.2133 5.8742 17.177 5.70002C17.1131 5.39263 17.0516 5.09683 17.0153 4.78836C16.9675 4.34746 17.1901 3.97457 17.4177 3.59339C17.4852 3.48039 17.5531 3.36664 17.6145 3.2502C17.8263 2.88644 18.0639 2.52788 18.4565 2.28365C18.5421 1.92887 18.7752 1.63341 19.0071 1.33941L19.0247 1.3171C19.2536 1.0318 19.6358 0.857378 19.9175 0.728836L19.9493 0.714308C20.3678 0.527234 20.7448 0.407715 20.75 0.407715H0V16.4077H14.7218C15.1155 16.1222 15.5068 15.9421 15.9726 15.7277C16.1852 15.6299 16.4132 15.525 16.6641 15.3996C16.7172 15.3729 16.7803 15.3418 16.8504 15.3073C17.2708 15.1004 17.9407 14.7708 18.1931 14.5214ZM13.5217 12.3627C13.4633 12.3686 13.4013 12.3748 13.4247 12.3279C13.4464 12.2227 13.5541 12.1912 13.6592 12.1604C13.7043 12.1472 13.7488 12.1342 13.786 12.1155L13.8029 12.1068L13.8154 12.1002C13.8736 12.0692 13.9449 12.0314 13.9975 12.0534C14.033 12.1038 14.077 12.1169 14.1198 12.1295C14.1516 12.139 14.1827 12.1482 14.2091 12.1725C14.0975 12.2846 13.9672 12.2956 13.8351 12.3068C13.7474 12.3143 13.6588 12.3218 13.5744 12.359C13.5592 12.359 13.5406 12.3608 13.5217 12.3627ZM8.95162 11.632C8.95162 11.6632 8.98261 11.6944 8.98261 11.6944C9.70578 10.8785 10.3618 10.1822 11.2916 9.60536C11.3165 9.59493 11.3072 9.60796 11.2949 9.62527C11.2766 9.65107 11.2515 9.68638 11.3226 9.66772C11.6304 9.59753 11.7687 9.33379 11.9032 9.0772C11.9379 9.01085 11.9725 8.94498 12.0096 8.88305C12.1507 8.65359 12.351 8.50657 12.5529 8.35843C12.6985 8.2516 12.8449 8.14419 12.9704 8.00484C12.9704 8.03602 12.9704 8.0672 12.9394 8.09838C12.9704 8.12956 13.0014 8.12956 13.0324 8.12956C13.0869 8.08844 13.1464 8.07143 13.2034 8.05511C13.2761 8.03432 13.3448 8.01467 13.394 7.94768C13.1564 7.85415 12.8516 7.82297 12.614 7.9165C11.9838 8.2179 11.4466 8.70117 10.9352 9.24681C10.6253 9.57419 10.305 9.88078 9.91241 10.0938C9.6438 10.6343 9.3442 11.1175 8.95162 11.632ZM11.4734 9.69934C11.4572 9.73184 11.4411 9.74876 11.4256 9.76491C11.4115 9.77965 11.398 9.79377 11.3857 9.81848C11.3547 9.88063 11.3238 9.90653 11.267 9.93761C11.236 9.93761 11.2051 9.93761 11.2051 9.90653C11.236 9.7874 11.3238 9.66827 11.4425 9.63719C11.4734 9.64237 11.4734 9.67344 11.4734 9.69934ZM12.7943 14.3142C12.8202 14.2882 12.8511 14.257 12.8666 14.2258C12.8924 14.1635 12.7324 14.1791 12.7066 14.1946C12.6832 14.2135 12.6683 14.2324 12.6503 14.2551L12.6447 14.2622C12.6232 14.287 12.598 14.3099 12.5724 14.3332C12.555 14.349 12.5375 14.3649 12.5208 14.3817C12.4486 14.4545 12.3763 14.5272 12.2989 14.5948C12.2473 14.6415 12.4125 14.6623 12.4486 14.6312C12.4899 14.6 12.526 14.5636 12.5621 14.5272C12.5759 14.5272 12.5896 14.5249 12.5988 14.5234L12.6051 14.5224L12.6086 14.522C12.6941 14.4933 12.7578 14.4338 12.8197 14.3758L12.8356 14.3609C12.8563 14.3402 12.8305 14.3194 12.7943 14.3142ZM12.3273 13.9762C12.3267 13.9763 12.3263 13.9765 12.326 13.9768C12.3254 13.9774 12.3254 13.9787 12.3254 13.9813C12.2937 14.0031 12.2624 14.0252 12.2312 14.0473C12.1505 14.1044 12.0702 14.1613 11.9845 14.21C11.9025 14.2561 11.8185 14.296 11.7337 14.3363C11.6849 14.3595 11.6358 14.3828 11.5867 14.4074C11.5867 14.4074 11.5867 14.4022 11.5816 14.4022C11.5712 14.3867 11.5506 14.3815 11.5299 14.3919C11.4163 14.4542 11.3181 14.5374 11.2303 14.6257C11.2148 14.6361 11.1993 14.6517 11.189 14.6673L11.1425 14.714V14.7192C11.1218 14.74 11.1012 14.7608 11.0753 14.792C11.07 14.7974 11.0658 14.8028 11.0619 14.808C11.0544 14.8178 11.0475 14.8268 11.034 14.8336C11.0133 14.8439 10.9617 14.8439 10.9669 14.8128V14.8076C10.9514 14.818 10.9307 14.8284 10.9152 14.8336C10.9075 14.8388 10.8997 14.8426 10.892 14.8465C10.8842 14.8504 10.8765 14.8543 10.8687 14.8595C10.8635 14.8543 10.8532 14.8543 10.848 14.8543C10.8429 14.8543 10.8326 14.8543 10.8274 14.8595C10.8153 14.8699 10.8033 14.8797 10.7912 14.8896C10.7671 14.9092 10.743 14.9288 10.7189 14.9531C10.6569 15.0102 10.6001 15.0726 10.5433 15.1402C10.5433 15.1402 10.5433 15.1453 10.5381 15.1453C10.5381 15.1479 10.5368 15.1492 10.5355 15.1505C10.5342 15.1518 10.5329 15.1531 10.5329 15.1557L10.5226 15.1661C10.5206 15.1681 10.5194 15.1701 10.5184 15.1718C10.5167 15.1745 10.5155 15.1765 10.5123 15.1765L10.5071 15.1817C10.502 15.1921 10.4968 15.2025 10.4865 15.2129C10.4813 15.2181 10.471 15.2233 10.4606 15.2233C10.4555 15.2181 10.4503 15.2129 10.4503 15.2077C10.4477 15.2051 10.4464 15.2025 10.4451 15.1999C10.4438 15.1973 10.4426 15.1947 10.44 15.1921C10.4348 15.1843 10.4309 15.1765 10.4271 15.1687C10.4232 15.1609 10.4193 15.1531 10.4141 15.1453V15.1402C10.4141 15.1376 10.4128 15.135 10.4116 15.1324C10.4103 15.1298 10.409 15.1272 10.409 15.1246L10.502 15.0154L10.5071 15.0102C10.5123 15.005 10.5174 14.9986 10.5226 14.9921C10.5278 14.9856 10.5329 14.9791 10.5381 14.9739C10.5459 14.9635 10.5549 14.9531 10.5639 14.9427C10.573 14.9323 10.582 14.9219 10.5898 14.9115C10.5924 14.9063 10.5949 14.9024 10.5975 14.8985C10.6001 14.8946 10.6027 14.8907 10.6053 14.8855C10.6363 14.8439 10.6673 14.8024 10.6982 14.7556V14.7504C10.7034 14.7452 10.7086 14.74 10.7086 14.7296C10.7241 14.7088 10.7396 14.688 10.7499 14.6673L10.7809 14.6049V14.5997L10.7861 14.5945C10.7861 14.5919 10.7874 14.5906 10.7886 14.5893C10.7899 14.588 10.7912 14.5867 10.7912 14.5841C10.7964 14.5711 10.8016 14.5595 10.8067 14.5478C10.8119 14.5361 10.8171 14.5244 10.8222 14.5114V14.5062L10.8274 14.4854C10.83 14.4802 10.8313 14.475 10.8326 14.4698C10.8338 14.4646 10.8351 14.4594 10.8377 14.4542V14.449C10.8403 14.4412 10.8416 14.4334 10.8429 14.4256C10.8442 14.4178 10.8455 14.41 10.848 14.4022C10.848 14.3971 10.848 14.3867 10.8429 14.3815C10.8739 14.3243 10.9152 14.2723 10.9617 14.2204C10.9591 14.2204 10.9565 14.2217 10.9539 14.223C10.9525 14.2237 10.951 14.2245 10.9495 14.225C10.9484 14.2253 10.9473 14.2256 10.9462 14.2256C10.9232 14.24 10.9034 14.2593 10.8833 14.2789C10.8672 14.2946 10.8509 14.3105 10.8326 14.3243C10.8016 14.3503 10.7396 14.3087 10.7809 14.2775C10.8067 14.2568 10.8274 14.236 10.848 14.2152C10.848 14.2152 10.848 14.21 10.8532 14.21C10.8738 14.1913 10.8936 14.1702 10.9135 14.1489C10.9436 14.1168 10.974 14.0843 11.0082 14.0593C11.0443 14.0333 11.0702 14.0125 11.1012 13.9865C11.1063 13.9813 11.1115 13.9761 11.1167 13.9761C11.1373 13.9502 11.158 13.9242 11.1838 13.8982C11.1838 13.8982 11.189 13.8982 11.189 13.893C11.3664 13.7209 11.6156 13.6602 11.8701 13.5983C12.0305 13.5592 12.193 13.5196 12.3409 13.4513C12.4244 13.4165 12.5175 13.4302 12.6096 13.4437C12.6826 13.4545 12.755 13.4651 12.8213 13.4513C12.9091 13.4513 13.0021 13.4513 13.0899 13.5136C12.8856 13.6224 12.6907 13.7468 12.4979 13.8699C12.442 13.9055 12.3862 13.9411 12.3306 13.9761C12.3291 13.9761 12.3281 13.9761 12.3273 13.9762ZM12.9728 11.8583C12.9486 11.8611 12.933 11.8629 12.9464 11.8764C13.0342 11.9647 13.215 11.9335 13.339 11.866C13.4268 11.8036 13.5198 11.8036 13.6386 11.8036C13.6696 11.8036 13.6696 11.7465 13.6696 11.7153C13.7574 11.7465 13.8194 11.7465 13.9072 11.7465C14.6252 11.5958 15.3174 11.4451 15.9786 11.1125C15.3096 10.5955 14.4848 10.3652 13.6769 10.1396C13.5429 10.1022 13.4093 10.0649 13.277 10.0264C13.3061 10.0264 13.3352 10.0361 13.3644 10.0459C13.4235 10.0656 13.4834 10.0855 13.5456 10.0264C13.4636 9.96104 13.3724 9.94854 13.282 9.93616C13.2072 9.92591 13.133 9.91574 13.0652 9.87574C13.0723 9.87574 13.0807 9.87736 13.0899 9.87913C13.1208 9.8851 13.1601 9.89268 13.184 9.84456C13.0271 9.76563 12.8702 9.73883 12.7118 9.71176C12.6303 9.69785 12.5485 9.68386 12.466 9.66268C12.6158 9.6315 12.7088 9.51198 12.7088 9.36128C12.7088 9.3301 12.6468 9.3301 12.6158 9.3301C12.2594 9.51198 12.0166 9.84456 11.8668 10.2343C12.0019 10.3138 12.1474 10.3046 12.2901 10.2956C12.3711 10.2904 12.4513 10.2854 12.528 10.2967C12.4603 10.361 12.3624 10.3785 12.2683 10.3953C12.2332 10.4015 12.1987 10.4077 12.1664 10.4162C12.0734 10.437 11.9856 10.5045 12.0166 10.5669C12.0373 10.5929 12.0579 10.6032 12.0838 10.6084C12.0166 10.6292 11.9546 10.6604 11.8978 10.7176C11.9828 10.7845 12.0705 10.7716 12.1571 10.7588C12.1914 10.7538 12.2256 10.7487 12.2594 10.7487C12.2594 10.7865 12.2842 10.7993 12.3099 10.8126C12.3232 10.8195 12.3367 10.8265 12.3472 10.8371C12.1974 10.8942 12.0786 11.019 12.0476 11.1073C12.0106 11.1973 11.9422 11.2558 11.8744 11.3138C11.8288 11.3529 11.7834 11.3918 11.748 11.4399V11.5334C11.6482 11.6219 11.5456 11.7009 11.4445 11.7788C11.2367 11.9389 11.0348 12.0944 10.875 12.3181C10.906 12.3181 10.906 12.3493 10.906 12.3804C10.8774 12.4236 10.8368 12.4534 10.7982 12.4818C10.7531 12.5149 10.7109 12.5459 10.6942 12.5935C10.6942 12.6247 10.6942 12.6559 10.7252 12.6559C10.9148 12.5932 11.0788 12.4877 11.2395 12.3843C11.3855 12.2904 11.5287 12.1983 11.686 12.1414C11.8146 12.1105 11.9265 12.0522 12.0357 11.9953C12.1283 11.9471 12.219 11.8998 12.3162 11.8712C12.3911 11.8556 12.4738 11.8335 12.5564 11.8114C12.6391 11.7893 12.7217 11.7673 12.7966 11.7517C12.7966 11.7828 12.7966 11.814 12.8276 11.814H13.0652C13.0506 11.8494 13.0044 11.8547 12.9728 11.8583Z" fill="#000091"/>
    <path d="M44.0001 0.407715H26.7926C26.7926 0.407715 26.8238 0.412916 26.9539 0.480537C27.0943 0.553359 27.2764 0.652188 27.3856 0.709405C27.6093 0.82384 27.8226 0.969483 27.963 1.19315C28.0254 1.28158 28.1138 1.46363 28.0566 1.58327C27.9942 1.73411 27.963 1.97859 27.8121 2.0358C27.6301 2.12943 27.3908 2.12943 27.1775 2.09822C27.0579 2.09822 26.9382 2.06701 26.8134 2.0358C27.266 2.21786 27.6925 2.43112 27.9942 2.85245C28.0254 2.91487 28.1451 2.94087 28.2647 2.94087C28.2959 2.94087 28.2959 3.00329 28.2959 3.0293C28.2335 3.09172 28.1763 3.12293 28.2075 3.21136H28.2959C28.4468 3.14894 28.4156 2.84725 28.6288 2.94087C28.7797 3.0293 28.8421 3.24257 28.7485 3.39341C28.6288 3.51305 28.5092 3.60667 28.3843 3.6951C28.3531 3.75752 28.3531 3.84595 28.3843 3.90837C28.4728 4.028 28.504 4.14764 28.5352 4.27247C28.6288 4.48574 28.6548 4.72501 28.7485 4.93827C28.8681 5.39081 28.9877 5.84335 28.9617 6.30108C28.9617 6.54035 28.8421 6.75362 28.9305 6.99809C28.9929 7.23736 29.1438 7.41942 29.2634 7.63268C29.3831 7.81474 29.5027 7.93437 29.5964 8.11643C29.7784 8.41812 30.1113 8.71981 29.9605 9.08392C29.872 9.29718 29.5391 9.26597 29.3259 9.38561C29.1438 9.53645 29.2947 9.78093 29.3883 9.93177C29.5391 10.2023 29.2062 10.3843 28.9929 10.4779C29.0554 10.5716 29.175 10.5404 29.2062 10.5976C29.2374 10.7484 29.3883 10.8368 29.2947 10.9929C29.175 11.1749 28.8109 11.2634 28.9929 11.5391C29.1126 11.7523 29.0346 11.9864 28.9617 12.2049C28.8733 12.4753 28.6288 12.595 28.4156 12.6574C28.2335 12.7198 28.0202 12.7198 27.8434 12.6886C27.7809 12.6574 27.7237 12.6262 27.6613 12.6262C27.1463 12.5638 26.6313 12.4181 26.1216 12.4181C25.9707 12.4493 25.8199 12.4753 25.7002 12.5378C25.565 12.6366 25.4401 12.7458 25.3361 12.8603C25.3361 12.8603 25.3361 12.8603 25.3309 12.8655C25.3101 12.8915 25.2841 12.9123 25.2633 12.9383C25.2529 12.9539 25.2373 12.9695 25.2269 12.9851C25.2165 12.9955 25.2113 13.0059 25.2009 13.0163C25.1124 13.1255 25.0344 13.2452 24.9616 13.3648C24.9564 13.3752 24.9512 13.3804 24.946 13.3856C24.9408 13.4012 24.9304 13.4116 24.92 13.4272C24.8211 13.6093 24.7483 13.7965 24.6911 13.9838C24.483 14.6756 24.5766 15.2686 24.7223 15.4142C24.7639 15.4558 25.721 15.7523 26.3869 16.0488C26.699 16.1892 26.9174 16.2933 27.0995 16.4077H43.9949V0.407715H44.0001Z" fill="#E1000F"/>
    <path d="M27.8134 6.24987C27.9334 6.28088 28.1158 6.28088 28.1158 6.34291C28.0533 6.58068 27.6935 6.6427 27.511 6.88564H27.4172C27.3285 6.94767 27.3546 7.09757 27.266 7.09757C27.1773 7.06656 27.0835 7.09757 26.9949 7.12858C27.1148 7.24747 27.266 7.34051 27.4485 7.3095C27.4797 7.3095 27.5371 7.37152 27.5371 7.42838C27.5371 7.42838 27.5684 7.42838 27.5997 7.39737C27.6309 7.39737 27.6622 7.39737 27.6622 7.42838V7.54727C27.5736 7.66615 27.4172 7.6093 27.2973 7.63514C27.5423 7.69717 27.7822 7.69717 27.9959 7.63514C28.1784 7.57311 27.9959 7.27331 28.1158 7.12342C28.0533 7.12342 28.1158 7.03037 28.0533 7.03037C28.1158 6.96835 28.1732 6.88048 28.2358 6.84946C28.2983 6.84946 28.387 6.81845 28.4182 6.75642C28.4182 6.69439 28.2983 6.66855 28.3244 6.60652C28.5069 6.48764 28.6581 6.30672 28.5955 6.12581C28.5642 6.03277 28.3244 6.03277 28.1732 5.97591C28.022 5.91905 27.8395 5.97591 27.657 6.00693C27.5058 6.00693 27.3546 6.09997 27.2034 6.12581C26.9896 6.18784 26.8072 6.30672 26.6299 6.42561C26.8437 6.33774 27.0522 6.30672 27.2973 6.2447C27.4797 6.24987 27.6309 6.20851 27.8134 6.24987Z" fill="#808080"/>
</svg>
