<?xml version="1.0" encoding="UTF-8"?>
<svg width="146px" height="109px" viewBox="0 0 146 109" version="1.1" xmlns="http://www.w3.org/2000/svg" xmlns:xlink="http://www.w3.org/1999/xlink">
    <title>Logos/pix/pix-couleur</title>
    <defs>
        <linearGradient x1="41.0562084%" y1="0%" x2="58.9437916%" y2="100%" id="linearGradient-1">
            <stop stop-color="#12A3FF" offset="0%"></stop>
            <stop stop-color="#3D68FF" offset="100%"></stop>
        </linearGradient>
        <linearGradient x1="34.1515434%" y1="0%" x2="65.8484566%" y2="100%" id="linearGradient-2">
            <stop stop-color="#FFBE00" offset="0%"></stop>
            <stop stop-color="#FF9F00" offset="100%"></stop>
        </linearGradient>
        <linearGradient x1="28.9689343%" y1="0%" x2="71.0310657%" y2="100%" id="linearGradient-3">
            <stop stop-color="#12A3FF" offset="0%"></stop>
            <stop stop-color="#3D68FF" offset="100%"></stop>
        </linearGradient>
        <linearGradient x1="48.4100116%" y1="0%" x2="51.5899884%" y2="100%" id="linearGradient-4">
            <stop stop-color="#12A3FF" offset="0%"></stop>
            <stop stop-color="#3D68FF" offset="100%"></stop>
        </linearGradient>
    </defs>
    <g id="Logos/pix/pix-couleur" stroke="none" stroke-width="1" fill="none" fill-rule="evenodd">
        <g id="logos--pix/couleur-copy-4">
            <g id="Group" transform="translate(89.211111, 25.963636)">
                <path d="M36.4341362,34.2202469 L53.1042928,54.5750248 C56.1300179,58.4521054 55.9857528,59.1701778 50.9430911,59.1701778 L50.9430911,59.1701778 L49.2140444,59.1701778 C44.1713826,59.1701778 42.2982843,58.1649615 39.2725592,54.5750248 L39.2725592,54.5750248 L30.0893672,43.4318383 L32.2794409,40.7754034 C34.2283951,38.5280277 35.6132936,36.3578752 36.4341362,34.2202469 Z M51.1871492,0.00742800448 C55.9896309,0.0312306411 56.0804158,0.788469435 53.1042928,4.60199133 L53.1042928,4.60199133 L36.434018,24.9564614 C35.6131589,22.8189282 34.2282958,20.6488715 32.2794287,18.4015986 L30.0893672,15.7438383 L39.2725592,4.60199133 C42.2279186,1.09554152 44.0836384,0.0549904643 48.867319,0.00848914386 L49.2140444,0.00683831553 Z" id="Combined-Shape" fill="url(#linearGradient-1)"></path>
                <path d="M29.6019359,59.1701778 C34.6445976,59.1701778 34.7888627,58.4521054 31.7631376,54.5750248 L14.4735239,33.465695 C13.1768455,31.8861909 12.4563738,30.593618 12.4563738,29.5884017 C12.4563738,28.4396135 13.1768455,27.1472533 14.4735239,25.7113211 L31.7631376,4.60199133 C34.7888627,0.724910736 34.6445976,0.00683831553 29.6019359,0.00683831553 L27.8728891,0.00683831553 C22.8302274,0.00683831553 20.957129,1.01205462 17.931404,4.60199133 L4.67609036,20.6852396 C-0.943204825,27.1472533 -0.943204825,32.0297629 4.67609036,38.4917766 L17.931404,54.5750248 C20.957129,58.1649615 22.8302274,59.1701778 27.8728891,59.1701778 L29.6019359,59.1701778 Z" id="Page-1" fill="url(#linearGradient-2)" transform="translate(17.116103, 29.588508) scale(-1, 1) translate(-17.116103, -29.588508) "></path>
            </g>
            <path d="M0.12020202,103.543152 C0.12020202,107.830538 1.19562982,108.902384 5.497341,108.902384 L6.93110696,108.902384 C11.2328182,108.902384 12.3082459,107.830538 12.3082459,103.543152 L12.3082459,78.6527931 C15.5345293,83.7737228 21.3896592,86.3938148 29.8734289,86.3938148 C46.48263,86.3938148 54.7275076,77.6999949 54.7275076,60.4316094 L54.7275076,50.0704957 C54.7275076,32.8019043 45.8851931,24.7037377 27.3640284,24.7037377 C10.1573904,24.7037377 0.12020202,33.0402068 0.12020202,50.0704957 L0.12020202,103.543152 Z M42.4200176,60.669706 C42.4200176,70.6734689 39.0742882,74.8418064 27.4836812,74.8418064 C15.6539754,74.8418064 12.3082459,70.5544206 12.3082459,60.669706 L12.3082459,50.4276406 C12.3082459,40.4238777 15.8930742,36.1364919 27.4836812,36.1364919 C39.3131803,36.1364919 42.4200176,40.4238777 42.4200176,50.4276406 L42.4200176,60.669706 Z" id="Fill-1" fill="url(#linearGradient-3)"></path>
            <path d="M66.2212312,79.6314655 C66.2212312,83.9188512 67.296659,84.9906977 71.5983701,84.9906977 L73.1515822,84.9906977 C77.4532933,84.9906977 78.5287211,83.9188512 78.5287211,79.6314655 L78.5287211,31.2797389 C78.5287211,26.9923531 77.4532933,25.9205067 73.1515822,25.9205067 L71.5983701,25.9205067 C67.296659,25.9205067 66.2212312,26.9923531 66.2212312,31.2797389 L66.2212312,79.6314655 Z M67.0575602,13.0585552 C70.0449515,15.9167438 74.8244469,15.9167438 77.6923921,13.0585552 C80.6795767,10.0811124 80.6795767,5.31753353 77.6923921,2.45934499 C74.8244469,-0.518097801 70.0449515,-0.518097801 67.0575602,2.45934499 C64.0703756,5.31753353 64.0703756,10.0811124 67.0575602,13.0585552 L67.0575602,13.0585552 Z" id="Fill-2" fill="url(#linearGradient-4)"></path>
        </g>
    </g>
</svg>