<svg width="62" height="50" viewBox="0 0 62 50" fill="none" xmlns="http://www.w3.org/2000/svg">
  <path d="M35.14 6.45a8.7 8.7 0 00-3.26 2.17 9.48 9.48 0 00-2 3.41c-.47 1.33-.7 2.78-.7 4.35 0 3.34.93 5.94 2.8 7.85 1.86 1.91 4.46 2.88 7.88 2.88 1.46 0 2.74-.19 3.85-.55 2.04-.72 4.33-2.75 4.72-4.66.25-1.25-.52-1.52-.93-1.58l-.25-.01c-.47 0-.84.15-1.08.37-.28.26-1.12 1.04-1.54 1.41-.44.38-.91.74-1.43 1.07a6.1 6.1 0 01-3.5 1 5.4 5.4 0 01-2.8-.77 5.4 5.4 0 01-2.05-2.24 7.36 7.36 0 01-.77-3.1c0-.39.28-.62.62-.62h10.27c1.39 0 2.44-.2 3.15-.57.63-.32 1-1.05 1-2.36a8.78 8.78 0 00-4.38-7.51 10.21 10.21 0 00-5.28-1.3c-1.59 0-3.03.26-4.32.76zm7.8 3.86c.89.95 1.4 2.34 1.55 4.12.03.3-.29.56-.61.56h-9.16c-.33 0-.66-.27-.61-.6.2-1.74.74-3.1 1.62-4.06.92-1 2.14-1.5 3.56-1.5 1.48 0 2.72.49 3.64 1.48z" fill="url(#paint0_radial)"/>
  <path d="M14.8 16.4a16.2 16.2 0 1032.4.01 16.2 16.2 0 00-32.4 0z" fill="url(#paint1_linear)"/>
  <path d="M16.01 14.88a15 15 0 00.86 6.74c2.86-6.66 10.07-6.81 15.6-4.87 6.63 1.37 14.21 1.06 13.13-3.9A14.94 14.94 0 0030.99 1.34c-7.63 0-14.2 5.8-14.98 13.55z" fill="url(#paint2_linear)"/>
  <path d="M31.88 8.63a9.49 9.49 0 00-2.01 3.4c-.46 1.33-.7 2.78-.7 4.35 0 3.34.94 5.94 2.8 7.85 1.87 1.91 4.47 2.88 7.89 2.88 1.4 0 2.65-.17 3.73-.51 1.45-1.8 2.53-3.9 3.11-6.21-.21.06-.4.16-.6.35-.21.2-1.05.98-1.48 1.36-.43.37-.9.73-1.42 1.06a6.08 6.08 0 01-3.67 1 5.27 5.27 0 01-4.66-2.98 7.42 7.42 0 01-.79-3.13c0-.39.28-.62.45-.62h10.44c.87 0 1.6-.07 2.2-.22l.03-.8c0-3.73-1.26-7.15-3.36-9.89a10.76 10.76 0 00-4.34-.83c-1.63 0-3.07.26-4.36.76a8.7 8.7 0 00-3.26 2.18zm12.61 5.8c.03.3-.29.56-.61.56h-9.16c-.33 0-.66-.27-.61-.6a7.1 7.1 0 011.64-4.08 4.68 4.68 0 013.57-1.49c1.45 0 2.69.5 3.61 1.49.9.95 1.4 2.34 1.56 4.12z" fill="url(#paint3_radial)"/>
  <path d="M4.5 43.7c0-.7-.11-1.2-.32-1.5-.26-.4-.7-.59-1.34-.59-.64 0-1.08.2-1.34.58-.2.31-.3.82-.3 1.51v2.08h1.64c.63 0 1.08-.18 1.34-.56.2-.32.31-.83.31-1.52zm1.19 0c0 2.28-.95 3.41-2.85 3.41H1.19v2.7H0v-6.1c0-2.28.95-3.42 2.84-3.42 1.9 0 2.85 1.14 2.85 3.41zM11 43.7c0-.7-.1-1.2-.31-1.5-.25-.4-.7-.59-1.33-.59-.63 0-1.07.2-1.33.58-.2.31-.3.82-.3 1.51 0 .7.1 1.2.3 1.52.26.38.7.56 1.33.56.64 0 1.08-.18 1.33-.56.2-.31.3-.82.3-1.52zm.75-4.72l-.54.74-1.9-1.08-1.91 1.08-.54-.73 2.45-1.4 2.44 1.4zm.45 4.72c0 2.28-.94 3.41-2.84 3.41s-2.84-1.13-2.84-3.4c0-2.28.94-3.42 2.84-3.42s2.84 1.14 2.84 3.41zM16.22 47.11c-2.04 0-3.05-.82-3.05-2.47v-7.05h1.2v7.06c0 .35.1.61.31.79.29.23.8.34 1.54.34v1.33zM20.82 42.27c-.21-.5-.7-.85-1.33-.85a1.4 1.4 0 00-1.34.85c-.14.3-.16.5-.18.92H21a2.12 2.12 0 00-.18-.92zm-2.85 1.86c0 1.16.62 1.89 1.72 1.89.76 0 1.16-.21 1.63-.7l.87.82c-.7.69-1.34 1.05-2.53 1.05-1.69 0-3.03-.9-3.03-3.46 0-2.18 1.13-3.44 2.86-3.44 1.8 0 2.86 1.33 2.86 3.24v.6h-4.38z" fill="#18397A"/>
  <path d="M4.5 43.7c0-.7-.11-1.2-.32-1.5-.26-.4-.7-.59-1.34-.59-.64 0-1.08.2-1.34.58-.2.31-.3.82-.3 1.51v2.08h1.64c.63 0 1.08-.18 1.34-.56.2-.32.31-.83.31-1.52zm1.19 0c0 2.28-.95 3.41-2.85 3.41H1.19v2.7H0v-6.1c0-2.28.95-3.42 2.84-3.42 1.9 0 2.85 1.14 2.85 3.41zM11 43.7c0-.7-.1-1.2-.31-1.5-.25-.4-.7-.59-1.33-.59-.63 0-1.07.2-1.33.58-.2.31-.3.82-.3 1.51 0 .7.1 1.2.3 1.52.26.38.7.56 1.33.56.64 0 1.08-.18 1.33-.56.2-.31.3-.82.3-1.52zm.75-4.72l-.54.74-1.9-1.08-1.91 1.08-.54-.73 2.45-1.4 2.44 1.4zm.45 4.72c0 2.28-.94 3.41-2.84 3.41s-2.84-1.13-2.84-3.4c0-2.28.94-3.42 2.84-3.42s2.84 1.14 2.84 3.41zM16.22 47.11c-2.04 0-3.05-.82-3.05-2.47v-7.05h1.2v7.06c0 .35.1.61.31.79.29.23.8.34 1.54.34v1.33zM20.82 42.27c-.21-.5-.7-.85-1.33-.85a1.4 1.4 0 00-1.34.85c-.14.3-.16.5-.18.92H21a2.12 2.12 0 00-.18-.92zm-2.85 1.86c0 1.16.62 1.89 1.72 1.89.76 0 1.16-.21 1.63-.7l.87.82c-.7.69-1.34 1.05-2.53 1.05-1.69 0-3.03-.9-3.03-3.46 0-2.18 1.13-3.44 2.86-3.44 1.8 0 2.86 1.33 2.86 3.24v.6h-4.38z" fill="#18397A"/>
  <path d="M43.3 47.11h-1.19V43.7c0-.7-.1-1.2-.3-1.5-.27-.4-.71-.59-1.35-.59-.64 0-1.08.2-1.33.58-.21.31-.31.81-.31 1.5v3.42h-1.2V43.7c0-.7-.1-1.2-.3-1.5-.27-.4-.72-.59-1.35-.59-.64 0-1.08.2-1.34.58-.2.31-.3.81-.3 1.5v3.42h-1.2v-3.4c0-2.29.95-3.42 2.84-3.42 1 0 1.76.34 2.25 1.03.48-.7 1.23-1.03 2.24-1.03 1.9 0 2.85 1.13 2.85 3.41v3.41zM48.77 43.7c0-.7-.1-1.2-.32-1.5-.26-.4-.7-.59-1.34-.59-.63 0-1.08.2-1.33.58-.2.31-.31.82-.31 1.51v2.08h1.64c.64 0 1.08-.18 1.34-.56.21-.32.31-.83.31-1.52zm1.19 0c0 2.28-.95 3.41-2.85 3.41h-1.64v2.7h-1.2v-6.1c0-2.28.95-3.42 2.84-3.42 1.9 0 2.85 1.14 2.85 3.41zM53.89 47.11c-2.04 0-3.06-.82-3.06-2.47v-7.05h1.2v7.06c0 .35.1.61.32.79.28.23.8.34 1.54.34v1.33zM58.72 43.7c0-.7-.1-1.2-.3-1.5-.26-.4-.7-.59-1.34-.59-.63 0-1.08.2-1.33.58-.2.31-.31.82-.31 1.51 0 .7.1 1.2.3 1.52.26.38.7.56 1.34.56.64 0 1.08-.18 1.33-.56.21-.31.31-.82.31-1.52zm1.2 0c0 2.28-.95 3.41-2.84 3.41-1.9 0-2.85-1.13-2.85-3.4 0-2.28.95-3.42 2.85-3.42 1.9 0 2.84 1.14 2.84 3.41zM60.8 40.29H62v6.82h-1.2V40.3zm1.2-1.37h-1.2V37.6H62v1.33zM30.64 42.27c-.2-.5-.69-.85-1.32-.85a1.4 1.4 0 00-1.35.85c-.13.3-.16.5-.17.92h3.03a2.12 2.12 0 00-.19-.92zm-2.84 1.86c0 1.16.61 1.89 1.71 1.89.76 0 1.16-.21 1.64-.7l.86.82c-.69.7-1.34 1.05-2.52 1.05-1.7 0-3.03-.9-3.03-3.46 0-2.18 1.13-3.44 2.86-3.44 1.8 0 2.85 1.33 2.85 3.24v.6H27.8z" fill="#E31927"/>
  <path d="M43.3 47.11h-1.19V43.7c0-.7-.1-1.2-.3-1.5-.27-.4-.71-.59-1.35-.59-.64 0-1.08.2-1.33.58-.21.31-.31.81-.31 1.5v3.42h-1.2V43.7c0-.7-.1-1.2-.3-1.5-.27-.4-.72-.59-1.35-.59-.64 0-1.08.2-1.34.58-.2.31-.3.81-.3 1.5v3.42h-1.2v-3.4c0-2.29.95-3.42 2.84-3.42 1 0 1.76.34 2.25 1.03.48-.7 1.23-1.03 2.24-1.03 1.9 0 2.85 1.13 2.85 3.41v3.41zM48.77 43.7c0-.7-.1-1.2-.32-1.5-.26-.4-.7-.59-1.34-.59-.63 0-1.08.2-1.33.58-.2.31-.31.82-.31 1.51v2.08h1.64c.64 0 1.08-.18 1.34-.56.21-.32.31-.83.31-1.52zm1.19 0c0 2.28-.95 3.41-2.85 3.41h-1.64v2.7h-1.2v-6.1c0-2.28.95-3.42 2.84-3.42 1.9 0 2.85 1.14 2.85 3.41zM53.89 47.11c-2.04 0-3.06-.82-3.06-2.47v-7.05h1.2v7.06c0 .35.1.61.32.79.28.23.8.34 1.54.34v1.33zM58.72 43.7c0-.7-.1-1.2-.3-1.5-.26-.4-.7-.59-1.34-.59-.63 0-1.08.2-1.33.58-.2.31-.31.82-.31 1.51 0 .7.1 1.2.3 1.52.26.38.7.56 1.34.56.64 0 1.08-.18 1.33-.56.21-.31.31-.82.31-1.52zm1.2 0c0 2.28-.95 3.41-2.84 3.41-1.9 0-2.85-1.13-2.85-3.4 0-2.28.95-3.42 2.85-3.42 1.9 0 2.84 1.14 2.84 3.41zM60.8 40.29H62v6.82h-1.2V40.3zm1.2-1.37h-1.2V37.6H62v1.33zM30.64 42.27c-.2-.5-.69-.85-1.32-.85a1.4 1.4 0 00-1.35.85c-.13.3-.16.5-.17.92h3.03a2.12 2.12 0 00-.19-.92zm-2.84 1.86c0 1.16.61 1.89 1.71 1.89.76 0 1.16-.21 1.64-.7l.86.82c-.69.7-1.34 1.05-2.52 1.05-1.7 0-3.03-.9-3.03-3.46 0-2.18 1.13-3.44 2.86-3.44 1.8 0 2.85 1.33 2.85 3.24v.6H27.8z" fill="#E31927"/>
  <defs>
  <radialGradient id="paint0_radial" cx="0" cy="0" r="1" gradientUnits="userSpaceOnUse" gradientTransform="matrix(37.909 0 0 37.9267 35.6 6.39)">
    <stop stop-color="#E65D1B"/>
    <stop offset=".05" stop-color="#E65D1B"/>
    <stop offset=".35" stop-color="#ED1C24"/>
    <stop offset="1" stop-color="#A61217"/>
  </radialGradient>
  <radialGradient id="paint3_radial" cx="0" cy="0" r="1" gradientUnits="userSpaceOnUse" gradientTransform="matrix(21.7396 0 0 21.7497 36.2 8.04)">
    <stop stop-color="#fff"/>
    <stop offset=".25" stop-color="#fff"/>
    <stop offset=".46" stop-color="#fff"/>
    <stop offset="1" stop-color="#CEDDE3"/>
  </radialGradient>
  <linearGradient id="paint1_linear" x1="31" y1=".2" x2="31" y2="32.6" gradientUnits="userSpaceOnUse">
    <stop stop-color="#65CDEB"/>
    <stop offset=".05" stop-color="#65CDEB"/>
    <stop offset=".41" stop-color="#164789"/>
    <stop offset="1" stop-color="#06172F"/>
  </linearGradient>
  <linearGradient id="paint2_linear" x1="32.18" y1="1.37" x2="29.99" y2="22.95" gradientUnits="userSpaceOnUse">
    <stop stop-color="#99DEF9"/>
    <stop offset="1" stop-color="#103568"/>
  </linearGradient>
  </defs>
</svg>
