<svg xmlns="http://www.w3.org/2000/svg" id="HAUT" viewBox="0 0 390.68 236.16" version="1.1">
    <defs id="defs4">
        <style id="style2">.cls-1{fill:#e5321b}.cls-5{fill:#00507d}</style>
    </defs>
    <path class="cls-1"
          d="m57.92 173.82-39.44 35.44-.06.06-1.27 1.14-.19.15-.44.31-.63.38c-.24.14-.49.26-.74.39l-.83.35a10.64 10.64 0 0 1-7.27.05 9.41 9.41 0 0 1-1.47-.63l-.2-.11-.31-.18a10.52 10.52 0 0 1-4.27-5 3.43 3.43 0 0 1-.24-.59 1.11 1.11 0 0 1-.06-.19 5.17 5.17 0 0 1-.19-.63 1.06 1.06 0 0 1-.08-.3 2.92 2.92 0 0 1-.1-.45c0-.18-.06-.35-.09-.53a.4.4 0 0 1 0-.18c0-.24-.05-.49-.06-.73v-51.73a6.35 6.35 0 0 1 6.32-5.72 6.2 6.2 0 0 1 2.6.57 4.78 4.78 0 0 1 .57.29 2 2 0 0 1 .28.16z"
          id="path8" style="fill:#e5321b"/>
    <path class="cls-1"
          d="M136.48 129.22a7 7 0 0 1-.11 1.26 6.7 6.7 0 0 1-.33 1.22 4.67 4.67 0 0 1-.24.58c-.08.16-.15.33-.24.48l-.08.14a3.67 3.67 0 0 1-.3.46 4.49 4.49 0 0 1-.38.48 3.9 3.9 0 0 1-.36.41l-27.96 31.15-52-27.65-.41-.21-.13-.06a3.53 3.53 0 0 1-1.29-1.44 3.59 3.59 0 0 1 .35-3.66 3.25 3.25 0 0 1 .83-.83l.54-.31 42.52-24.54a4.93 4.93 0 0 1 5-.15l.34.19 30.18 16.07.1.05.59.31a6.94 6.94 0 0 1 2 1.71 2.35 2.35 0 0 1 .23.3c.11.16.21.33.31.49a7.11 7.11 0 0 1 .84 3.55z"
          id="path10" style="fill:#e5321b"/>
    <path d="M82.34 99.74a4.84 4.84 0 0 1-1.83 3.22 1.43 1.43 0 0 1-.16.13 4.24 4.24 0 0 1-.52.3l-41.12 23.72h-.05l-.58.33a3.54 3.54 0 0 1-3.25-.18.13.13 0 0 1-.09-.05L4.11 111l-.41-.21a6.85 6.85 0 0 1-2.69-2.6 7 7 0 0 1-.93-3v-1.15a7 7 0 0 1 3.27-5.44l.68-.4 39.47-23 15.49 8.58 20.49 10.88.89.48a4.59 4.59 0 0 1 1.97 4.6z"
          id="path12" style="fill:#45bedf"/>
    <path d="M136.48 129.23v47.39a33.72 33.72 0 0 1-14.47 26.42l-1.49.85a2.4 2.4 0 0 1-.34.2l-1.39.8a1.4 1.4 0 0 1-.26.15l-1.34.78-50.47 29.14h-.06l-.11.08-.53.29-.08.05a7.11 7.11 0 0 1-5.45.34l-.9-.4-28.19-12.31L7.1 212.1l-1.67-.74-.31-.18a10.52 10.52 0 0 1-4.27-5 3.43 3.43 0 0 1-.24-.59 1.11 1.11 0 0 1-.06-.19 5.17 5.17 0 0 1-.19-.63 1.32 1.32 0 0 1-.08-.3 2.92 2.92 0 0 1-.1-.45c0-.18-.06-.35-.09-.53-.03-.18 0-.11 0-.18 0-.24-.05-.49-.06-.73v-1.18c.05-.8.94-5.92 5.16-8.45l1.06-.64 119.42-69.14h.05l.16-.1.21-.11.19-.1a7.29 7.29 0 0 1 9.32 2.84 7.11 7.11 0 0 1 .88 3.53z"
          id="path14" style="fill:#cc1719"/>
    <path d="M120.99 46.21 51.38 86.98a4.09 4.09 0 0 1-.5.3l-.5.3-.21.13-39.22 22.96h-.06l-.16.1-.16.09a1.43 1.43 0 0 1-.24.13 7.29 7.29 0 0 1-9.32-2.84 7 7 0 0 1-.93-3V57.31a33.54 33.54 0 0 1 15.08-26.74l3.39-2L66.03 1.05l.18-.11.21-.11a7.13 7.13 0 0 1 6.43-.14l18.31 10.14 29 16.79.94.54a10.23 10.23 0 0 1 2.41 2.14 10.69 10.69 0 0 1-2.52 15.91z"
          id="path16" style="fill:#007ec2"/>
    <path class="cls-5"
          d="M326.73 200a3.65 3.65 0 0 0-3.79-3.24 3.37 3.37 0 0 0-3.53 3.29c0 4 5.75 4.05 5.75 7.19a2.07 2.07 0 0 1-2 2.07c-1.39 0-2.09-1.2-2.48-2.41l-1.72.37c.65 2.27 1.88 3.6 4.34 3.6a3.64 3.64 0 0 0 3.71-3.76c0-4.24-5.75-4.39-5.75-7.17a1.53 1.53 0 0 1 1.52-1.62c1.52 0 2 1 2.35 2.14zm-10.61-3h-1.88v10.61a3.57 3.57 0 0 1-2.59 1.67c-1 0-1.49-.68-1.49-2.25v-10h-1.88v10.3c0 2.51 1.1 3.55 3 3.55a5.38 5.38 0 0 0 3.09-1.75v1.49h1.77v-13.6zm-19 6.8c0 4.92 1.31 7.06 4.15 7.06 2.84 0 4.16-2.14 4.16-7.06s-1.31-7.06-4.16-7.06-4.15 2.14-4.15 7.06m1.88 0c0-4.5.68-5.49 2.28-5.49 1.6 0 2.28 1 2.28 5.49s-.68 5.49-2.28 5.49c-1.6 0-2.28-1-2.28-5.49m-9.85-5.23h1.83v9.33c0 2.09.84 2.92 2.61 2.92a5.58 5.58 0 0 0 1.78-.26v-1.36a4.12 4.12 0 0 1-1.15.26 1.24 1.24 0 0 1-1.36-1.36v-9.52h2.51v-1.57h-2.49v-4.55H291v4.55h-1.83v1.57zm-7 5.54v-.89c0-3.92-1.28-6.48-4.15-6.48s-4.16 2.14-4.16 7.05 1.31 7.06 4.16 7.06a4.35 4.35 0 0 0 4.31-3.92l-1.77-.21c-.24 1.23-.84 2.56-2.28 2.56-1.78 0-2.54-1.1-2.54-4.42v-.76h6.43zm-6.43-1.57c0-3.24.92-4.24 2.28-4.24 1.7 0 2.22 1.31 2.28 4.24h-4.5zm-6.72 5.44a3 3 0 0 1-2 1.31c-1.57 0-2.56-1.31-2.56-5.49s.92-5.49 2.51-5.49a3.14 3.14 0 0 1 2 1.2v8.47zm.42 2.61h1.78a14.73 14.73 0 0 1-.31-3.66v-15.19h-1.88v6.27a3.71 3.71 0 0 0-2.51-1.25c-2.14 0-3.92 1.83-3.92 7.06 0 5.23 1.77 7.06 3.92 7.06a3.29 3.29 0 0 0 2.8-1.57h.05zm-14.85-6.48v-.89c0-3.92-1.28-6.48-4.15-6.48s-4.16 2.14-4.16 7.05 1.37 7.11 4.22 7.11a4.35 4.35 0 0 0 4.31-3.92l-1.77-.21c-.24 1.23-.84 2.56-2.28 2.56-1.78 0-2.54-1.1-2.54-4.42v-.76h6.43zm-6.43-1.57c0-3.24.92-4.24 2.28-4.24 1.7 0 2.22 1.31 2.28 4.24h-4.55zm-3.92-1.52c-.37-2.67-1.52-4.28-4-4.28-2.85 0-4.15 2.14-4.15 7.06s1.41 7.1 4.24 7.1c2.46 0 3.71-1.88 4-4.55h-1.83c-.31 2.35-1 3-2.2 3-1.59 0-2.27-1-2.27-5.49s.68-5.49 2.27-5.49c1.15 0 2 .68 2.14 2.72h1.83zm-12.82-7.12h1.88v-2.2h-1.88zm0 16.68h1.88v-13.56h-1.88v13.59zm-11.66-13.59 3.35 13.59h2.51l3.35-13.59h-1.88l-2.67 11.71h-.05l-2.72-11.71h-1.88zm-6 13.59h1.88v-9.68c1-1.93 2.09-2.41 3.5-2.41v-1.77a3.49 3.49 0 0 0-3.45 1.9h-.05v-1.64h-1.88v13.59zm-2.67-6.48v-.89c0-3.92-1.28-6.48-4.15-6.48s-4.15 2.14-4.15 7.05 1.31 7.06 4.15 7.06a4.35 4.35 0 0 0 4.31-3.92l-1.78-.21c-.24 1.23-.84 2.56-2.28 2.56-1.78 0-2.54-1.1-2.54-4.42v-.76h6.43zm-6.43-1.57c0-3.24.92-4.24 2.28-4.24 1.7 0 2.22 1.31 2.28 4.24h-4.55zm-4.23-2.56a3.65 3.65 0 0 0-3.79-3.24 3.37 3.37 0 0 0-3.53 3.29c0 4 5.75 4.05 5.75 7.19a2.07 2.07 0 0 1-2 2.07c-1.39 0-2.09-1.2-2.48-2.41l-1.72.37c.65 2.27 1.88 3.6 4.34 3.6a3.64 3.64 0 0 0 3.71-3.76c0-4.24-5.75-4.39-5.75-7.17a1.53 1.53 0 0 1 1.52-1.62c1.52 0 2 1 2.35 2.14zm-16.42-3h-1.88v10.61a3.57 3.57 0 0 1-2.59 1.67c-1 0-1.49-.68-1.49-2.25v-10h-1.88v10.3c0 2.51 1.1 3.55 3 3.55a5.38 5.38 0 0 0 3.09-1.75v1.49h1.77v-13.57zm-13.68 10.93a3.85 3.85 0 0 1-2.59 1.41 1.8 1.8 0 0 1-1.94-2.09c0-2.14 2.8-3.4 4.53-3.92zm-4.32-6.9c.21-1.23.92-2.67 2.35-2.67 1.2 0 2 .94 2 2.43v1c-2.72.6-6.4 2.3-6.4 5.65a3.3 3.3 0 0 0 3.53 3.5 5 5 0 0 0 2.9-1.41l.23 1.15h2a5.56 5.56 0 0 1-.34-2.4v-7.58a3.54 3.54 0 0 0-3.89-3.87c-2.41 0-3.66 1.83-4 4z"
          id="path18" style="fill:#00507d"/>
    <path class="cls-5"
          d="M382.8 181.36h1.88v-10.61a3.57 3.57 0 0 1 2.59-1.67c1 0 1.49.68 1.49 2.25v10h1.88v-10.3c0-2.51-1.1-3.55-3-3.55a5.38 5.38 0 0 0-3.09 1.75v-1.49h-1.77v13.59zm-3.77-13.59h-1.88v10.61a3.57 3.57 0 0 1-2.59 1.67c-1 0-1.49-.68-1.49-2.25v-10h-1.88v10.3c0 2.51 1.1 3.55 3 3.55a5.38 5.38 0 0 0 3.09-1.75v1.49h1.77v-13.62zm-10.85 4c-.37-2.67-1.52-4.28-4-4.28-2.85 0-4.15 2.14-4.15 7.06s1.3 7.06 4.15 7.06c2.46 0 3.71-1.88 4-4.55h-1.83c-.31 2.35-1 3-2.2 3-1.6 0-2.27-1-2.27-5.49s.68-5.49 2.27-5.49c1.15 0 2 .68 2.14 2.72h1.83zm-13 6.85a3.85 3.85 0 0 1-2.59 1.41 1.8 1.8 0 0 1-1.94-2.09c0-2.14 2.8-3.4 4.53-3.92zm-4.32-6.9c.21-1.23.92-2.67 2.35-2.67 1.2 0 2 .94 2 2.43v1c-2.72.6-6.4 2.3-6.4 5.65a3.3 3.3 0 0 0 3.53 3.5 5 5 0 0 0 2.9-1.41l.24 1.15h2a5.56 5.56 0 0 1-.34-2.4v-7.58a3.54 3.54 0 0 0-3.89-3.87c-2.4 0-3.66 1.83-4 4zm-13.07 9.62h1.88v-10.59a3.57 3.57 0 0 1 2.59-1.67c1 0 1.49.68 1.49 2.25v10h1.88v-10.3c0-2.51-1.1-3.55-3-3.55a4.86 4.86 0 0 0-3 1.75v-6.77h-1.88v18.87zm-3-9.57c-.37-2.67-1.52-4.28-4-4.28-2.85 0-4.15 2.14-4.15 7.06s1.3 7.06 4.15 7.06c2.46 0 3.71-1.88 4-4.55h-1.83c-.31 2.35-1 3-2.2 3-1.59 0-2.27-1-2.27-5.49s.68-5.49 2.27-5.49c1.15 0 2 .68 2.14 2.72h1.83zm-20.39 9.57h1.88v-9.67c1-1.94 2.09-2.41 3.5-2.41v-1.77a3.49 3.49 0 0 0-3.45 1.91h-.05v-1.64h-1.88v13.59zm-3.61-13.59h-1.88v10.61a3.57 3.57 0 0 1-2.59 1.67c-1 0-1.49-.68-1.49-2.25v-10h-1.88v10.3c0 2.51 1.1 3.55 3 3.55a5.38 5.38 0 0 0 3.09-1.75v1.49h1.77v-13.6zm-19 6.8c0 4.92 1.31 7.06 4.15 7.06 2.84 0 4.15-2.14 4.15-7.06s-1.3-7.06-4.15-7.06c-2.85 0-4.15 2.14-4.15 7.06m1.88 0c0-4.5.68-5.49 2.28-5.49 1.6 0 2.28 1 2.28 5.49s-.68 5.49-2.28 5.49c-1.6 0-2.28-1-2.28-5.49m-10.48-4.18a3 3 0 0 1 2-1.31c1.57 0 2.56 1.31 2.56 5.49s-.92 5.49-2.51 5.49a3.13 3.13 0 0 1-2-1.2v-8.47zm-.31-2.61h-1.57v18h1.88v-5.43a3.7 3.7 0 0 0 2.51 1.25c2.14 0 3.92-1.83 3.92-7.06 0-5.23-1.77-7.06-3.92-7.06a3.22 3.22 0 0 0-2.77 1.57h-.05v-1.3zm-19.1 13.6h1.88v-10.61a3.57 3.57 0 0 1 2.59-1.67c1 0 1.49.68 1.49 2.25v10h1.88v-10.3c0-2.51-1.1-3.55-3-3.55a5.38 5.38 0 0 0-3.09 1.75v-1.49h-1.75v13.59zm-11.14-6.8c0 4.92 1.31 7.06 4.15 7.06 2.84 0 4.15-2.14 4.15-7.06s-1.3-7.06-4.15-7.06c-2.85 0-4.15 2.14-4.15 7.06m1.88 0c0-4.5.68-5.49 2.28-5.49 1.6 0 2.28 1 2.28 5.49s-.68 5.49-2.28 5.49c-1.6 0-2.28-1-2.28-5.49m-6.64-9.88h1.88v-2.2h-1.88zm0 16.68h1.88v-13.59h-1.88zm-3.4-10.61a3.65 3.65 0 0 0-3.79-3.24 3.37 3.37 0 0 0-3.53 3.29c0 4 5.75 4.05 5.75 7.19a2.07 2.07 0 0 1-2 2.07c-1.39 0-2.09-1.2-2.48-2.41l-1.72.37c.65 2.27 1.88 3.6 4.34 3.6a3.64 3.64 0 0 0 3.71-3.76c0-4.24-5.75-4.39-5.75-7.17a1.53 1.53 0 0 1 1.52-1.62c1.52 0 2 1 2.35 2.14zm-10.17 0a3.65 3.65 0 0 0-3.79-3.24 3.37 3.37 0 0 0-3.53 3.29c0 4 5.75 4.05 5.75 7.19a2.07 2.07 0 0 1-2 2.07c-1.39 0-2.09-1.2-2.48-2.41l-1.72.37c.65 2.27 1.88 3.6 4.34 3.6a3.64 3.64 0 0 0 3.71-3.76c0-4.24-5.75-4.39-5.75-7.17a1.53 1.53 0 0 1 1.52-1.62c1.52 0 2 1 2.35 2.14zm-12.57-6.06h1.88v-2.2h-1.88zm0 16.68h1.88v-13.6h-1.88v13.59zm-15.43 0v-10.88a3 3 0 0 1 2.3-1.41c1 0 1.49.42 1.49 1.83v10.46h1.88v-10.88a3.3 3.3 0 0 1 2.38-1.41c1 0 1.41.42 1.41 1.83v10.46h1.88v-10.73c0-1.93-1-3.13-2.74-3.13a4.48 4.48 0 0 0-3.17 1.72 2.59 2.59 0 0 0-2.43-1.72 4.41 4.41 0 0 0-3.17 1.75v-1.49h-1.66v13.59h1.88zm-10.71-6.47v-.89c0-3.92-1.28-6.48-4.15-6.48s-4.16 2.14-4.16 7.06 1.31 7.06 4.16 7.06a4.35 4.35 0 0 0 4.31-3.92l-1.77-.21c-.24 1.23-.84 2.56-2.28 2.56-1.78 0-2.54-1.1-2.54-4.42v-.76zm-6.43-1.56c0-3.24.92-4.24 2.28-4.24 1.7 0 2.22 1.31 2.28 4.24h-4.55zm-12.52 8h1.83v-10.59a3.57 3.57 0 0 1 2.59-1.67c1 0 1.49.68 1.49 2.25v10h1.92v-10.3c0-2.51-1.1-3.55-3-3.55a5.38 5.38 0 0 0-3.09 1.75v-1.49h-1.78v13.59zm-13.23-18.87v13.93c0 3 1.41 5.23 4.81 5.23 3.4 0 4.81-2.19 4.81-5.23v-13.91h-2v13.86c0 1.91-.55 3.55-2.77 3.55-2.22 0-2.77-1.65-2.77-3.56v-13.85h-2z"
          id="path20" style="fill:#00507d"/>
    <path class="cls-5"
          d="M390.68 83.79v-8.28h-17V59.26h12.27v-8.28h-12.3V36.71h16v-8.28h-25.5V83.8h26.53zM354.79 46.9v-4.06c0-8.28-4.6-15.18-14.11-15.18-10 0-14.57 6.36-14.57 14.19v28.53c0 7.82 4.6 14.19 14.57 14.19 9.51 0 14.11-6.36 14.11-14.19v-6.37h-9.51v6.67c0 3.6-1.15 5.6-4.6 5.6-3.83 0-5.06-2-5.06-6.13V42.08c0-4.14 1.23-6.14 5.06-6.14 2.45 0 4.6 2 4.6 6.67v4.29Zm-38.88-18.47h-9.51V83.8h9.51zm-32.05 38.42h-.15l-6.9-38.42h-9.33l11.58 55.37h9.51l11.58-55.37h-9.36zm-41-5.75a45.93 45.93 0 0 0 4.91-.23l6.71 22.92h9.66l-8.05-25.08c3.22-1.46 6.67-5.06 6.67-14 0-11.81-5.44-16.33-16.1-16.33h-13.34v55.37h9.51v-22.7zm0-24.85h3.37c5.14 0 7.06 1.92 7.05 8.51-.01 6.59-1.92 8.51-7.06 8.51h-3.37v-17zm-16.72 47.54v-8.28h-17V59.25h12.27v-8.28h-12.32V36.71h15.95v-8.28h-25.46V83.8h26.53zm-33.92-42.71c-.84-7.82-5.44-13.42-13.19-13.42-9.36 0-14.72 5-14.72 13.8 0 15.87 19.32 18.79 19.32 29.75 0 3.3-2.22 5.06-5.52 5.06-3.07 0-5.29-2.76-5.67-8.36l-9 1.3c.38 8.28 5.44 15.34 14.26 15.34s15-5.06 15-14.19c0-15-19.32-19.55-19.32-29 0-3.45 1.69-5.44 4.75-5.44 2.15 0 4.68 1.38 5.06 6.14z"
          id="path22" style="fill:#00507d"/>
    <path class="cls-5"
          d="M390.54 150.32v-8.3h-17.06v-16.3h12.3v-8.3h-12.3v-14.3h16v-8.3h-25.53v55.49h26.59zm-66.4-14c0 9.53 5.53 14.76 14.6 14.76s14.6-5.23 14.6-14.76v-41.5h-9.53v41.89c0 4.07-1.61 6.07-5.07 6.07s-5.07-2-5.07-6.07V94.83h-9.53v41.5zm-24.52 2.58a7.53 7.53 0 0 1 2.54 3 5.23 5.23 0 0 1-3.23.85c-3.84 0-5.07-2-5.07-6.15v-28.09c0-4.15 1.23-6.15 5.07-6.15 3.84 0 5.07 2 5.07 6.15v25.39a14 14 0 0 0-4.38-3.38zm16.75 7.22c-1-.08-2.31-.31-4.46-2.15a15.54 15.54 0 0 0 1.57-7.07v-28.63c0-7.84-4.61-14.22-14.6-14.22-9.99 0-14.6 6.38-14.6 14.22v28.63c0 7.84 4.61 14.22 14.6 14.22a15.88 15.88 0 0 0 7.76-1.77c3.38 4.53 6.15 5.15 9.68 5.15v-8.3zm-44-51.34h-9.49v55.49h9.53V94.82Zm-33.82 38.5h-.07l-7-38.46h-9.38l11.6 55.49h9.53l11.61-55.49h-9.36zm-24.44-38.5h-9.53v55.49h9.53V94.82Zm-21.9 18.52v-4.07c0-8.3-4.61-15.22-14.14-15.22-10 0-14.6 6.38-14.6 14.22v28.67c0 7.84 4.61 14.22 14.6 14.22 9.53 0 14.14-6.38 14.14-14.22v-6.38h-9.53v6.69c0 3.61-1.15 5.61-4.61 5.61-3.84 0-5.07-2-5.07-6.15V108.5c0-4.15 1.23-6.15 5.07-6.15 2.46 0 4.61 2 4.61 6.69v4.3h9.53z"
          id="path24" style="fill:#00507d"/>
</svg>