<svg width="110" height="110" viewBox="0 0 110 110" fill="none" xmlns="http://www.w3.org/2000/svg">
    <path fill-rule="evenodd" clip-rule="evenodd" d="M96.25 94.875C95.4918 94.875 94.875 94.2582 94.875 93.5C94.875 92.7418 95.4918 92.125 96.25 92.125C97.0082 92.125 97.625 92.7418 97.625 93.5C97.625 94.2582 97.0082 94.875 96.25 94.875Z" fill="#ECECFE"/>
    <path fill-rule="evenodd" clip-rule="evenodd" d="M93.5 17.875C92.7418 17.875 92.125 17.2582 92.125 16.5C92.125 15.7418 92.7418 15.125 93.5 15.125C94.2582 15.125 94.875 15.7418 94.875 16.5C94.875 17.2582 94.2582 17.875 93.5 17.875Z" fill="#ECECFE"/>
    <path fill-rule="evenodd" clip-rule="evenodd" d="M19.25 94.875C18.4918 94.875 17.875 94.2582 17.875 93.5C17.875 92.7418 18.4918 92.125 19.25 92.125C20.0082 92.125 20.625 92.7418 20.625 93.5C20.625 94.2582 20.0082 94.875 19.25 94.875Z" fill="#ECECFE"/>
    <path fill-rule="evenodd" clip-rule="evenodd" d="M26.6703 16.5086C26.944 16.5029 27.2207 16.5 27.5 16.5L27.917 16.5021C28.0553 16.5036 28.1928 16.5057 28.3297 16.5086L29.1413 16.5344L29.933 16.5773C30.3235 16.603 30.7057 16.6352 31.0785 16.6738L31.8114 16.7595C35.7693 17.2779 38.5 18.5715 38.5 20.625V28.875C38.5 29.6344 37.8844 30.25 37.125 30.25C36.4199 30.25 35.8387 29.7192 35.7593 29.0354L35.75 28.875V23.5484C34.676 23.9766 33.3346 24.291 31.8114 24.4905L31.0785 24.5762C30.7057 24.6148 30.3235 24.647 29.933 24.6727L29.1413 24.7156L28.3297 24.7414C28.056 24.7471 27.7793 24.75 27.5 24.75C27.2207 24.75 26.944 24.7471 26.6703 24.7414L25.8587 24.7156L25.067 24.6727C24.6765 24.647 24.2943 24.6148 23.9215 24.5762L23.1886 24.4905C19.2307 23.9721 16.5 22.6785 16.5 20.625C16.5 18.5715 19.2307 17.2779 23.1886 16.7595L23.9215 16.6738C24.2943 16.6352 24.6765 16.603 25.067 16.5773L25.8587 16.5344L26.6703 16.5086ZM35.75 20.625L35.72 20.6058C35.4078 20.4288 34.9672 20.2497 34.4213 20.0841L34.1397 20.0026C32.424 19.5279 30.0487 19.25 27.5007 19.25C24.9527 19.25 22.5774 19.5279 20.8618 20.0026C20.2814 20.1631 19.8025 20.3399 19.4481 20.5172L19.25 20.625L19.484 20.7505C19.7741 20.8923 20.1434 21.0335 20.5801 21.1659L20.8618 21.2474C22.5774 21.7221 24.9527 22 27.5007 22C30.0487 22 32.424 21.7221 34.1397 21.2474C34.72 21.0869 35.199 20.9101 35.5533 20.7328L35.75 20.625Z" fill="#E1000F"/>
    <path d="M82.131 68.4804C80.6744 66.9064 78.6813 66 76.5532 66C73.1503 66 70.2644 68.2993 69.1942 71.5H67.375L67.2146 71.5093C66.5308 71.5887 66 72.1698 66 72.875C66 73.6344 66.6156 74.25 67.375 74.25H68.75C68.75 74.7183 68.787 75.1777 68.858 75.625H67.375L67.2146 75.6343C66.5308 75.7137 66 76.2948 66 77C66 77.7594 66.6156 78.375 67.375 78.375H69.7941C71.142 80.8389 73.6608 82.5 76.5532 82.5C78.4947 82.5 80.3273 81.746 81.7454 80.4089C82.2883 79.897 82.3268 79.0273 81.8314 78.4664C81.3361 77.9054 80.4944 77.8656 79.9516 78.3775C79.0176 79.2581 77.8221 79.75 76.5532 79.75C75.2516 79.75 74.06 79.2314 73.1524 78.375H75.625L75.7854 78.3657C76.4692 78.2863 77 77.7052 77 77C77 76.2406 76.3844 75.625 75.625 75.625H71.5731C71.4675 75.1858 71.4113 74.7251 71.4113 74.25H75.625L75.7854 74.2407C76.4692 74.1613 77 73.5802 77 72.875C77 72.1156 76.3844 71.5 75.625 71.5H72.099C72.9894 69.854 74.6541 68.75 76.5532 68.75C77.9442 68.75 79.2461 69.3421 80.2077 70.3811C80.7156 70.9299 81.5579 70.9493 82.089 70.4245C82.6201 69.8996 82.639 69.0292 82.131 68.4804Z" fill="#E1000F"/>
    <path d="M17.875 27.5C18.5801 27.5 19.1613 27.9825 19.2407 28.6042L19.25 28.75V53.75C19.25 54.4404 18.6344 55 17.875 55C17.1699 55 16.5887 54.5174 16.5093 53.8958L16.5 53.75V28.75C16.5 28.0596 17.1156 27.5 17.875 27.5Z" fill="#E1000F"/>
    <path d="M17.875 60.5C18.6344 60.5 19.25 59.8844 19.25 59.125C19.25 58.3656 18.6344 57.75 17.875 57.75C17.1156 57.75 16.5 58.3656 16.5 59.125C16.5 59.8844 17.1156 60.5 17.875 60.5Z" fill="#E1000F"/>
    <path fill-rule="evenodd" clip-rule="evenodd" d="M82.5 38.5C82.2207 38.5 81.944 38.5029 81.6703 38.5086L80.8587 38.5344L80.067 38.5773C79.6765 38.603 79.2943 38.6352 78.9215 38.6738L78.1886 38.7595C74.2307 39.2779 71.5 40.5715 71.5 42.625C71.5 44.6785 74.2307 45.9721 78.1886 46.4905L78.9215 46.5762C79.2943 46.6148 79.6765 46.647 80.067 46.6727L80.8587 46.7156L81.6703 46.7414C81.944 46.7471 82.2207 46.75 82.5 46.75C82.7793 46.75 83.056 46.7471 83.3297 46.7414L84.1413 46.7156L84.933 46.6727C85.3235 46.647 85.7057 46.6148 86.0785 46.5762L86.8114 46.4905C88.3346 46.291 89.676 45.9766 90.75 45.5484V50.875L90.7593 51.0354C90.8387 51.7192 91.4199 52.25 92.125 52.25C92.8844 52.25 93.5 51.6344 93.5 50.875V42.625C93.5 40.5715 90.7693 39.2779 86.8114 38.7595L86.0785 38.6738C85.7057 38.6352 85.3235 38.603 84.933 38.5773L84.1413 38.5344L83.3297 38.5086C83.1928 38.5057 83.0553 38.5036 82.917 38.5021L82.5 38.5ZM90.5533 42.7328L90.75 42.625L90.72 42.6058C90.4078 42.4288 89.9672 42.2497 89.4213 42.0841L89.1397 42.0026C87.424 41.5279 85.0487 41.25 82.5007 41.25C79.9527 41.25 77.5774 41.5279 75.8618 42.0026C75.2814 42.1631 74.8025 42.3399 74.4481 42.5172L74.25 42.625L74.484 42.7505C74.7741 42.8923 75.1434 43.0335 75.5801 43.1659L75.8618 43.2474C77.5774 43.7221 79.9527 44 82.5007 44C85.0487 44 87.424 43.7221 89.1397 43.2474C89.72 43.0869 90.199 42.9101 90.5533 42.7328Z" fill="#E1000F"/>
    <path d="M74.2407 47.9646C74.1613 47.2808 73.5802 46.75 72.875 46.75C72.1156 46.75 71.5 47.3656 71.5 48.125V53.625L71.5093 53.7854C71.5887 54.4692 72.1698 55 72.875 55C73.6344 55 74.25 54.3844 74.25 53.625V48.125L74.2407 47.9646Z" fill="#E1000F"/>
    <path fill-rule="evenodd" clip-rule="evenodd" d="M50.4102 30.25L49.4917 30.2665C49.3399 30.2706 49.1888 30.2754 49.0384 30.2809L48.1446 30.3219L47.2691 30.379C46.8362 30.4116 46.4108 30.4501 45.9938 30.4945L45.171 30.5912C45.0358 30.6086 44.9016 30.6266 44.7684 30.6453L43.9819 30.7651C39.0813 31.5726 35.75 33.2983 35.75 35.749V42.036L35.7567 42.2398C35.76 42.2897 35.7645 42.3394 35.7702 42.3888C35.7569 42.4656 35.75 42.5445 35.75 42.625V48.911L35.7567 49.1148C35.76 49.1647 35.7645 49.2144 35.7702 49.2638C35.7569 49.3406 35.75 49.4195 35.75 49.5V55.786L35.7567 55.9898C35.76 56.0395 35.7645 56.0889 35.7701 56.1381C35.7569 56.2147 35.75 56.2934 35.75 56.3738V62.6598L35.7567 62.8636C35.7694 63.0563 35.8002 63.2452 35.8484 63.43C35.6443 63.4116 35.4385 63.3946 35.2309 63.379L34.3554 63.3219L33.4616 63.2809C33.3112 63.2754 33.1601 63.2706 33.0083 63.2665L32.0898 63.25H31.1602L30.2417 63.2665C30.0899 63.2706 29.9388 63.2754 29.7884 63.2809L28.8946 63.3219L28.0191 63.379C27.5862 63.4116 27.1608 63.4501 26.7438 63.4945L25.921 63.5912C25.7858 63.6086 25.6516 63.6266 25.5184 63.6453L24.7319 63.7651C19.8313 64.5726 16.5 66.2983 16.5 68.749V75.0352L16.5067 75.239C16.51 75.289 16.5145 75.3387 16.5202 75.3881C16.5069 75.4649 16.5 75.5439 16.5 75.6245V81.9104L16.5067 82.1142C16.6849 84.8125 20.4022 86.7428 25.6453 87.5623L26.443 87.6769C26.7125 87.7122 26.9856 87.7448 27.262 87.7745L28.1009 87.855C29.232 87.9507 30.4121 87.9999 31.625 87.9999C32.8379 87.9999 34.018 87.9507 35.1491 87.855L35.988 87.7745C36.2644 87.7448 36.5375 87.7122 36.807 87.6769L37.6047 87.5623C42.7441 86.759 46.4175 84.8884 46.7286 82.2734C48.0402 82.423 49.4097 82.5 50.8061 82.5C54.2301 82.5 58.4246 82.0623 60.753 81.4051C63.4182 86.9345 69.076 90.75 75.625 90.75C84.7377 90.75 92.125 83.3624 92.125 74.2494C92.125 65.1364 84.7377 57.7489 75.625 57.7489C72.033 57.7489 68.7091 58.8967 66 60.8456V56.3738L65.9907 56.2135C65.9893 56.2007 65.9876 56.1879 65.9858 56.1752C65.984 56.1628 65.982 56.1504 65.9799 56.1381C65.9932 56.0221 66 55.9048 66 55.786V49.5L65.9907 49.3397C65.9878 49.3142 65.9841 49.2889 65.9798 49.2638C65.9932 49.1476 66 49.03 66 48.911V42.625L65.9907 42.4647C65.9878 42.4392 65.9841 42.4139 65.9798 42.3888C65.9932 42.2726 66 42.155 66 42.036V35.75C66 33.3639 62.8417 31.664 58.1517 30.8308L57.378 30.7033C57.1158 30.6633 56.8494 30.626 56.579 30.5912L55.7562 30.4945C55.3392 30.4501 54.9138 30.4116 54.4809 30.379L53.6054 30.3219L52.7116 30.2809C52.5612 30.2754 52.4101 30.2706 52.2583 30.2665L51.3398 30.25H50.4102ZM60.5827 67.4585C59.4654 67.8133 58.2111 68.0996 56.8547 68.3117L56.057 68.4262C55.7875 68.4616 55.5144 68.4941 55.238 68.5238L54.3991 68.6043C53.268 68.7 52.0879 68.7492 50.875 68.7492C49.6621 68.7492 48.482 68.7 47.3509 68.6043L46.7423 68.5459C46.7474 68.613 46.75 68.6807 46.75 68.749V72.3153C48.0614 72.4786 49.445 72.5632 50.8613 72.5632C53.6599 72.5632 56.9952 72.242 59.3134 71.7481C59.5424 70.2417 59.9752 68.8021 60.5827 67.4585ZM59.1373 74.8929C56.6982 75.3471 53.5569 75.625 50.8613 75.625C49.446 75.625 48.0584 75.5459 46.7305 75.3924L46.7347 75.4189L46.7385 75.4455L46.7407 75.4641L46.75 75.6245V79.2071C48.0449 79.3661 49.4095 79.4485 50.8061 79.4485C53.8328 79.4485 57.5409 79.0797 59.6909 78.5494C59.3753 77.3771 59.1856 76.1531 59.1373 74.8929ZM38.5 42.036V39.1126C39.8243 39.7834 41.5677 40.3064 43.5983 40.6671L44.372 40.7946C44.6342 40.8346 44.9006 40.872 45.171 40.9068L45.9938 41.0034C46.4108 41.0478 46.8362 41.0863 47.2691 41.1189L48.1446 41.176L49.0384 41.217C49.1888 41.2225 49.3399 41.2273 49.4917 41.2314L50.4102 41.2479C50.5645 41.2493 50.7195 41.25 50.875 41.25L51.3398 41.2479L52.2583 41.2314C52.4101 41.2273 52.5612 41.2225 52.7116 41.217L53.6054 41.176L54.4809 41.1189C54.9138 41.0863 55.3392 41.0478 55.7562 41.0034L56.579 40.9068C56.7142 40.8894 56.8484 40.8713 56.9816 40.8526L57.7681 40.7328C59.963 40.3711 61.843 39.8253 63.25 39.1126V42.036L63.2404 42.12C63.1314 42.6138 62.0968 43.402 60.1518 44.0689C57.7437 44.8945 54.428 45.3754 50.875 45.3754C47.322 45.3754 44.0063 44.8945 41.5982 44.0689C39.5388 43.3627 38.5 42.5207 38.5 42.036ZM39.5625 36.6739C38.8801 36.3522 38.5 36.0309 38.5 35.7505C38.5 35.4702 38.8801 35.1489 39.5625 34.8271L39.9285 34.6664C40.0586 34.6129 40.1968 34.5596 40.3427 34.5067L40.803 34.3492C40.9639 34.2972 41.1321 34.2457 41.3073 34.195L41.8532 34.0451C41.9476 34.0206 42.0436 33.9963 42.1412 33.9722L42.7458 33.8311C42.9534 33.7852 43.1672 33.7405 43.3866 33.6972L44.0617 33.5717L44.7688 33.4556C44.8892 33.4371 45.0109 33.4191 45.1337 33.4015L45.8848 33.3017L46.6625 33.2142L47.4647 33.1401C47.736 33.1177 48.0109 33.0978 48.2892 33.0805L49.1339 33.0365L49.9965 33.0093C50.1417 33.0062 50.2875 33.0039 50.4339 33.0024L50.875 33C51.1702 33 51.4632 33.0032 51.7535 33.0093L52.6161 33.0365L53.4608 33.0805C53.7391 33.0978 54.014 33.1177 54.2853 33.1401L55.0875 33.2142L55.8652 33.3017L56.6163 33.4015L57.3386 33.5124C57.4565 33.5318 57.573 33.5515 57.6883 33.5717L58.3634 33.6972C58.4731 33.7189 58.5814 33.7409 58.6882 33.7632L59.3112 33.9008C59.5127 33.9479 59.708 33.9961 59.8968 34.0451L60.4427 34.195C60.5303 34.2203 60.6161 34.2459 60.7002 34.2716L61.1827 34.4276C61.4129 34.5064 61.6263 34.5862 61.8215 34.6664L62.1876 34.8271C62.8699 35.1489 63.25 35.4702 63.25 35.7505C63.25 36.0309 62.8699 36.3522 62.1876 36.6739L61.8215 36.8346C61.6914 36.8881 61.5532 36.9414 61.4073 36.9943L60.947 37.1518C60.7861 37.2039 60.6179 37.2553 60.4427 37.3061L59.8968 37.4559C59.8024 37.4804 59.7064 37.5047 59.6088 37.5288L59.0042 37.6699C58.7966 37.7158 58.5828 37.7605 58.3634 37.8038L57.6883 37.9293L56.9812 38.0454C56.8608 38.0639 56.7391 38.082 56.6163 38.0996L55.8652 38.1993L55.0875 38.2868L54.2853 38.361C54.014 38.3833 53.7391 38.4032 53.4608 38.4206L52.6161 38.4645L51.7535 38.4917C51.4632 38.4979 51.1702 38.501 50.875 38.501C50.5798 38.501 50.2868 38.4979 49.9965 38.4917L49.1339 38.4645L48.2892 38.4206C48.0109 38.4032 47.736 38.3833 47.4647 38.361L46.6625 38.2868L45.8848 38.1993L45.1337 38.0996L44.4114 37.9886C44.2935 37.9693 44.177 37.9495 44.0617 37.9293L43.3866 37.8038C43.2769 37.7821 43.1686 37.7601 43.0618 37.7378L42.4388 37.6002C42.2373 37.5531 42.0419 37.505 41.8532 37.4559L41.3073 37.3061C41.2197 37.2807 41.1339 37.2552 41.0498 37.2294L40.5673 37.0734C40.3371 36.9946 40.1237 36.9148 39.9285 36.8346L39.5625 36.6739ZM38.5 48.911V45.71C40.1015 46.6114 42.3134 47.2843 44.8953 47.6879L45.693 47.8024C45.9625 47.8378 46.2356 47.8704 46.512 47.9001L47.3509 47.9805C48.482 48.0762 49.6621 48.1255 50.875 48.1255C52.0879 48.1255 53.268 48.0762 54.3991 47.9805L55.238 47.9001C55.5144 47.8704 55.7875 47.8378 56.057 47.8024L56.8547 47.6879C59.4366 47.2843 61.6485 46.6114 63.25 45.71V48.911L63.2404 48.995C63.1314 49.4888 62.0968 50.277 60.1518 50.9439C57.7437 51.7695 54.428 52.2504 50.875 52.2504C47.322 52.2504 44.0063 51.7695 41.5982 50.9439C39.5388 50.2377 38.5 49.3957 38.5 48.911ZM44 78.7093C42.3985 79.6106 40.1866 80.2835 37.6047 80.6871L36.807 80.8016C36.5375 80.837 36.2644 80.8696 35.988 80.8993L35.1491 80.9797C34.018 81.0754 32.8379 81.1247 31.625 81.1247C30.4121 81.1247 29.232 81.0754 28.1009 80.9797L27.262 80.8993C26.9856 80.8696 26.7125 80.837 26.443 80.8016L25.6453 80.6871C23.0634 80.2835 20.8515 79.6106 19.25 78.7093V81.9104C19.25 82.3951 20.2888 83.2372 22.3482 83.9433C24.7563 84.769 28.072 85.2498 31.625 85.2498C35.178 85.2498 38.4937 84.769 40.9018 83.9433C42.8468 83.2764 43.8814 82.4883 43.9904 81.9944L44 81.9104V78.7093ZM38.5 52.585C40.1015 53.4864 42.3134 54.1593 44.8953 54.5629L45.693 54.6774C45.9625 54.7128 46.2356 54.7454 46.512 54.7751L47.3509 54.8555C48.482 54.9512 49.6621 55.0005 50.875 55.0005C52.0879 55.0005 53.268 54.9512 54.3991 54.8555L55.238 54.7751C55.5144 54.7454 55.7875 54.7128 56.057 54.6774L56.8547 54.5629C59.4366 54.1593 61.6485 53.4864 63.25 52.585V55.786L63.2404 55.87C63.1314 56.3638 62.0968 57.152 60.1518 57.8189C57.7437 58.6445 54.428 59.1254 50.875 59.1254C47.322 59.1254 44.0063 58.6445 41.5982 57.8189C39.5388 57.1127 38.5 56.2707 38.5 55.786V52.585ZM63.25 62.6598V59.46C61.6485 60.3614 59.4366 61.0343 56.8547 61.4379L56.057 61.5524C55.7875 61.5878 55.5144 61.6204 55.238 61.6501L54.3991 61.7305C53.268 61.8262 52.0879 61.8755 50.875 61.8755C49.6621 61.8755 48.482 61.8262 47.3509 61.7305L46.512 61.6501C46.2356 61.6204 45.9625 61.5878 45.693 61.5524L44.8953 61.4379C42.3134 61.0343 40.1015 60.3614 38.5 59.46V62.6598C38.5 63.0062 39.0308 63.5354 40.0859 64.0669C41.5386 64.3902 42.81 64.8057 43.842 65.3069C45.8992 65.7517 48.326 65.9991 50.875 65.9991C54.428 65.9991 57.7437 65.5183 60.1518 64.6926C62.0968 64.0258 63.1314 63.2376 63.2404 62.7438L63.25 62.6598ZM43.3108 68.0202C41.7733 67.692 40.4064 67.258 39.2721 66.729C39.2195 66.7183 39.1666 66.7078 39.1134 66.6972L38.4383 66.5717C38.323 66.5515 38.2065 66.5318 38.0886 66.5124L37.3663 66.4015L36.6152 66.3017L35.8375 66.2142L35.0353 66.1401C34.764 66.1177 34.4891 66.0978 34.2108 66.0805L33.3661 66.0365L32.5035 66.0093C32.2132 66.0032 31.9202 66 31.625 66L31.1839 66.0024C31.0375 66.0039 30.8917 66.0062 30.7465 66.0093L29.8839 66.0365L29.0392 66.0805C28.7609 66.0978 28.486 66.1177 28.2147 66.1401L27.4125 66.2142L26.6348 66.3017L25.8837 66.4015C25.7609 66.4191 25.6392 66.4371 25.5188 66.4556L24.8117 66.5717L24.1366 66.6972C23.9172 66.7405 23.7034 66.7852 23.4957 66.8311L22.8912 66.9722C22.7936 66.9963 22.6976 67.0206 22.6032 67.0451L22.0573 67.195C21.8821 67.2457 21.7139 67.2972 21.553 67.3492L21.0927 67.5067C20.9468 67.5596 20.8086 67.6129 20.6785 67.6664L20.3125 67.8271C19.6301 68.1489 19.25 68.4702 19.25 68.7505C19.25 69.0309 19.6301 69.3522 20.3125 69.6739L20.6785 69.8346C20.8737 69.9148 21.0871 69.9946 21.3173 70.0734L21.7998 70.2294C21.8839 70.2552 21.9697 70.2807 22.0573 70.3061L22.6032 70.4559C22.7919 70.505 22.9873 70.5531 23.1888 70.6002L23.8118 70.7378C23.9186 70.7601 24.0269 70.7821 24.1366 70.8038L24.8117 70.9293C24.927 70.9495 25.0435 70.9693 25.1614 70.9886L25.8837 71.0996L26.6348 71.1993L27.4125 71.2868L28.2147 71.361C28.486 71.3833 28.7609 71.4032 29.0392 71.4206L29.8839 71.4645L30.7465 71.4917C31.0368 71.4979 31.3298 71.501 31.625 71.501C31.9202 71.501 32.2132 71.4979 32.5035 71.4917L33.3661 71.4645L34.2108 71.4206C34.4891 71.4032 34.764 71.3833 35.0353 71.361L35.8375 71.2868L36.6152 71.1993L37.3663 71.0996C37.4891 71.082 37.6108 71.0639 37.7312 71.0454L38.4383 70.9293L39.1134 70.8038C39.3328 70.7605 39.5466 70.7158 39.7542 70.6699L40.3588 70.5288C40.4564 70.5047 40.5524 70.4804 40.6468 70.4559L41.1927 70.3061C41.3679 70.2553 41.5361 70.2039 41.697 70.1518L42.1573 69.9943C42.3032 69.9414 42.4414 69.8881 42.5715 69.8346L42.9375 69.6739C43.6199 69.3522 44 69.0309 44 68.7505C44 68.5263 43.757 68.276 43.3108 68.0202ZM44 75.0352V72.1126C42.593 72.8253 40.713 73.3711 38.5181 73.7328L37.7316 73.8526C37.5984 73.8713 37.4642 73.8894 37.329 73.9068L36.5062 74.0034C36.0892 74.0478 35.6638 74.0863 35.2309 74.1189L34.3554 74.176L33.4616 74.217C33.3112 74.2225 33.1601 74.2273 33.0083 74.2314L32.0898 74.2479L31.625 74.25C31.4695 74.25 31.3145 74.2493 31.1602 74.2479L30.2417 74.2314C30.0899 74.2273 29.9388 74.2225 29.7884 74.217L28.8946 74.176L28.0191 74.1189C27.5862 74.0863 27.1608 74.0478 26.7438 74.0034L25.921 73.9068C25.6506 73.872 25.3842 73.8346 25.122 73.7946L24.3483 73.6671C22.3177 73.3064 20.5743 72.7834 19.25 72.1126V75.0352C19.25 75.5199 20.2888 76.362 22.3482 77.0681C24.7563 77.8937 28.072 78.3746 31.625 78.3746C35.178 78.3746 38.4937 77.8937 40.9018 77.0681C42.8468 76.4012 43.8814 75.613 43.9904 75.1192L44 75.0352ZM75.625 60.499C83.2189 60.499 89.375 66.6553 89.375 74.2494C89.375 81.8436 83.2189 87.9999 75.625 87.9999C68.0311 87.9999 61.875 81.8436 61.875 74.2494C61.875 66.6553 68.0311 60.499 75.625 60.499Z" fill="#000091"/>
    <path d="M84.4545 55.1282C83.7657 54.8084 82.9481 55.1075 82.6282 55.7962C82.3084 56.485 82.6075 57.3027 83.2962 57.6225C89.4623 60.4861 93.5003 66.4881 93.5003 72.8759C93.5003 73.6354 94.1159 74.251 94.8753 74.251C95.6347 74.251 96.2503 73.6354 96.2503 72.8759C96.2503 65.3908 91.5687 58.4321 84.4545 55.1282Z" fill="#000091"/>
</svg>
