<svg xmlns="http://www.w3.org/2000/svg" viewBox="0 0 500 500" height="500" width="500">
    <defs>
        <clipPath id="a">
            <path style="fill:#fff;stroke:#263238;stroke-linecap:round;stroke-linejoin:round"
                  d="M113.77 101.66h233.02v301.37H113.77z"/>
        </clipPath>
    </defs>
    <ellipse cx="253.11" cy="412.03" rx="218" ry="19.62" style="fill:#92e3a9"/>
    <ellipse cx="253.11" cy="412.03" rx="218" ry="19.62" style="fill:#fff;opacity:.5"/>
    <path d="M403.11 104.56c-3.7-2-5.39-.34-6.73-2s3.7-6.06-6.4-10.43c0 0-.67-9.43-14.47-9.76s-10.09 9.42-13.79 11.77-4.71-1.34-8.41 1-2 7.07-5.05 7.74-7.07-3-10.77-.67-3.7 4.37-5.38 4.37-5.05-1.34-7.07 0-4.37 3-4.37 3h85.13s1.01-3.01-2.69-5.02Z"
          style="fill:#92e3a9"/>
    <path d="M403.11 104.56c-3.7-2-5.39-.34-6.73-2s3.7-6.06-6.4-10.43c0 0-.67-9.43-14.47-9.76s-10.09 9.42-13.79 11.77-4.71-1.34-8.41 1-2 7.07-5.05 7.74-7.07-3-10.77-.67-3.7 4.37-5.38 4.37-5.05-1.34-7.07 0-4.37 3-4.37 3h85.13s1.01-3.01-2.69-5.02Z"
          style="fill:#fff;opacity:.7000000000000001"/>
    <path d="M350.72 88.17c-2.29-1.25-3.33-.21-4.16-1.25s2.29-3.74-3.95-6.44c0 0-.41-5.82-8.94-6s-6.23 5.82-8.52 7.28-2.91-.84-5.2.62-1.25 4.36-3.12 4.78-4.36-1.87-6.65-.42-2.29 2.71-3.33 2.71-3.11-.83-4.36 0-2.7 1.87-2.7 1.87h52.59s.62-1.9-1.66-3.15Z"
          style="fill:#92e3a9"/>
    <path d="M350.72 88.17c-2.29-1.25-3.33-.21-4.16-1.25s2.29-3.74-3.95-6.44c0 0-.41-5.82-8.94-6s-6.23 5.82-8.52 7.28-2.91-.84-5.2.62-1.25 4.36-3.12 4.78-4.36-1.87-6.65-.42-2.29 2.71-3.33 2.71-3.11-.83-4.36 0-2.7 1.87-2.7 1.87h52.59s.62-1.9-1.66-3.15Z"
          style="fill:#fff;opacity:.7000000000000001"/>
    <path d="M96.81 134.49c-2.28-1.25-3.32-.21-4.15-1.25s2.28-3.74-4-6.44c0 0-.42-5.82-8.94-6s-6.24 5.82-8.53 7.28-2.91-.84-5.2.62-1.24 4.37-3.11 4.78-4.37-1.87-6.66-.41-2.28 2.7-3.32 2.7-3.12-.83-4.37 0-2.7 1.87-2.7 1.87h52.6s.67-1.9-1.62-3.15Z"
          style="fill:#92e3a9"/>
    <path d="M96.81 134.49c-2.28-1.25-3.32-.21-4.15-1.25s2.28-3.74-4-6.44c0 0-.42-5.82-8.94-6s-6.24 5.82-8.53 7.28-2.91-.84-5.2.62-1.24 4.37-3.11 4.78-4.37-1.87-6.66-.41-2.28 2.7-3.32 2.7-3.12-.83-4.37 0-2.7 1.87-2.7 1.87h52.6s.67-1.9-1.62-3.15Z"
          style="fill:#fff;opacity:.7000000000000001"/>
    <g>
        <path d="M406.53 381.33h66.58c-1.28-8.15-6.51-6.71-7.2-19.33-.35-6.36 5.53-14.22 5-22.57-.41-6.88-7.2-13.93-7.72-21.8-.48-7.1 5.31-15 4.75-22.63-.53-7.23-7.41-14.18-8-21.69-.59-7.34 5.08-15.3 4.41-22.71s-7.66-14.23-8.41-21.54c-.76-7.52 4.73-15.61 3.89-22.8-.89-7.64-8.1-14.23-9.07-21.27-1.09-7.83 4-16.19 2.82-23-1.47-8.28-9.18-14.28-10.8-20.39-3-11.38-2.64-22.36-6.21-23.07-3.82-.77-4.68 10-7.57 22-1.45 6-9 12.16-10.23 20.45-1 6.71 4.32 14.88 3.45 22.68-.78 7-7.8 13.7-8.49 21.29-.64 7.14 5.06 15 4.5 22.48-.55 7.26-7.36 14.18-7.83 21.55s5.41 15.1 5 22.38c-.41 7.46-7.1 14.5-7.44 21.68-.36 7.59 5.63 15.25 5.34 22.3-.33 7.8-6.92 15-7.17 21.77-.29 8.28 5.79 15.93 5.6 22.23-.4 13.69-6.67 10.85-6.89 21.87Z"
              style="fill:#92e3a9"/>
        <path d="M406.53 381.33h66.58c-1.28-8.15-6.51-6.71-7.2-19.33-.35-6.36 5.53-14.22 5-22.57-.41-6.88-7.2-13.93-7.72-21.8-.48-7.1 5.31-15 4.75-22.63-.53-7.23-7.41-14.18-8-21.69-.59-7.34 5.08-15.3 4.41-22.71s-7.66-14.23-8.41-21.54c-.76-7.52 4.73-15.61 3.89-22.8-.89-7.64-8.1-14.23-9.07-21.27-1.09-7.83 4-16.19 2.82-23-1.47-8.28-9.18-14.28-10.8-20.39-3-11.38-2.64-22.36-6.21-23.07-3.82-.77-4.68 10-7.57 22-1.45 6-9 12.16-10.23 20.45-1 6.71 4.32 14.88 3.45 22.68-.78 7-7.8 13.7-8.49 21.29-.64 7.14 5.06 15 4.5 22.48-.55 7.26-7.36 14.18-7.83 21.55s5.41 15.1 5 22.38c-.41 7.46-7.1 14.5-7.44 21.68-.36 7.59 5.63 15.25 5.34 22.3-.33 7.8-6.92 15-7.17 21.77-.29 8.28 5.79 15.93 5.6 22.23-.4 13.69-6.67 10.85-6.89 21.87Z"
              style="fill:#fff;opacity:.5"/>
        <path style="fill:none;stroke:#000;stroke-miterlimit:10"
              d="M435.11 140.45v237.81M445.51 165.38l-10.84 9.36-8.87-11.82M445.51 206.77l-10.84 9.37-8.87-11.83M445.51 245.7l-10.84 9.36-8.87-11.82M445.51 292.02l-10.84 9.36-8.87-11.82M445.51 338.83l-10.84 9.37-8.87-11.83"/>
        <path d="M51.71 381.33h59.77c-1.15-7.31-5.84-6-6.47-17.35-.31-5.71 5-12.77 4.51-20.26-.37-6.18-6.46-12.51-6.93-19.57-.43-6.37 4.76-13.45 4.26-20.31-.48-6.5-6.65-12.73-7.19-19.48-.54-6.58 4.55-13.73 4-20.38s-6.88-12.78-7.54-19.34c-.69-6.75 4.23-14 3.48-20.47-.8-6.85-7.26-12.77-8.14-19.08-1-7 3.6-14.54 2.53-20.61-1.31-7.44-8.23-12.82-9.69-18.31-2.71-10.22-2.38-20.07-5.58-20.71-3.42-.69-4.2 9-6.79 19.77-1.3 5.42-8.07 10.91-9.19 18.36-.9 6 3.89 13.35 3.1 20.35-.7 6.27-7 12.3-7.61 19.11-.58 6.41 4.53 13.48 4 20.19-.49 6.51-6.6 12.73-7 19.34s4.86 13.55 4.5 20.09-6.38 13-6.69 19.46c-.32 6.82 5.06 13.69 4.79 20-.29 7-6.21 13.42-6.43 19.54-.26 7.44 5.2 14.3 5 20-.37 12.28-6 9.74-6.19 19.62Z"
              style="fill:#92e3a9"/>
        <path d="M51.71 381.33h59.77c-1.15-7.31-5.84-6-6.47-17.35-.31-5.71 5-12.77 4.51-20.26-.37-6.18-6.46-12.51-6.93-19.57-.43-6.37 4.76-13.45 4.26-20.31-.48-6.5-6.65-12.73-7.19-19.48-.54-6.58 4.55-13.73 4-20.38s-6.88-12.78-7.54-19.34c-.69-6.75 4.23-14 3.48-20.47-.8-6.85-7.26-12.77-8.14-19.08-1-7 3.6-14.54 2.53-20.61-1.31-7.44-8.23-12.82-9.69-18.31-2.71-10.22-2.38-20.07-5.58-20.71-3.42-.69-4.2 9-6.79 19.77-1.3 5.42-8.07 10.91-9.19 18.36-.9 6 3.89 13.35 3.1 20.35-.7 6.27-7 12.3-7.61 19.11-.58 6.41 4.53 13.48 4 20.19-.49 6.51-6.6 12.73-7 19.34s4.86 13.55 4.5 20.09-6.38 13-6.69 19.46c-.32 6.82 5.06 13.69 4.79 20-.29 7-6.21 13.42-6.43 19.54-.26 7.44 5.2 14.3 5 20-.37 12.28-6 9.74-6.19 19.62Z"
              style="fill:#fff;opacity:.5"/>
        <path style="fill:none;stroke:#000;stroke-miterlimit:10"
              d="M77.36 165.1v213.47M86.7 187.48l-9.73 8.41L69 185.27M86.7 224.64l-9.73 8.4L69 222.43M86.7 259.58l-9.73 8.41L69 257.37M86.7 301.16l-9.73 8.41L69 298.95M86.7 343.18l-9.73 8.41L69 340.97"/>
    </g>
    <g>
        <path d="m388.45 395.18-13.58-9.63a.52.52 0 0 0-.16-.06c1.19-5.55 9.72-46.3 8.8-67.91-.63-14.63-2.44-41.65-3.69-59.56a96.43 96.43 0 0 0 5.61-12.49c1.75-5.69 3.35-13.25 1.9-26.22-1.5-13.56-4.32-38.08-4.32-38.08a.75.75 0 0 0-.05-.16.52.52 0 0 0-.17-.19l-8.41-5.74c0-1.5-.05-2.87-.15-3.7-.18-1.38-1.86-2.53-3.71-3.39l-.05-1.37c2.7-2.54 5-6.51 5.29-8.48a26.11 26.11 0 0 0 .12-3.64c.88-.58 1.65-1.29 1.65-2s-.92-2.36-1.84-3.69c-.05-1.25-.11-2.53-.18-3.76a4 4 0 0 0 1.07-5.23 3.94 3.94 0 0 0 .65-.71c1-1.42 1-3.44-.06-6.18a5.65 5.65 0 0 0-3-3.42 6.71 6.71 0 0 0-4.55 0 5.58 5.58 0 0 0-5.6-2.19 7 7 0 0 0-2.32.83 3.76 3.76 0 0 0-3-1.47 3.59 3.59 0 0 0-3.68 3.39 2.45 2.45 0 0 0-1.86-.93c-1.47 0-2.66 1.47-2.66 3.28a2.84 2.84 0 0 0-.42 0 3.81 3.81 0 0 0-3.69 3.9 4 4 0 0 0 1 2.66 3.15 3.15 0 0 0-.6 1.85 3 3 0 0 0 2.82 3.07 3.21 3.21 0 0 0-.67 2 3 3 0 0 0 2.88 3.08c-1.45.71-2.12 2.51-1.7 4.69s1.72 4.08 3.62 4.68a6.65 6.65 0 0 0 .79 1.37c.77 1 1.54 2 2.31 2.94l.24 4.11c-1.57.19-3.89.8-4.41 2.62a14 14 0 0 1-1.31 3l-1.64 1a.56.56 0 0 0-.47.07l-2.88 1.92-9.6 5.64c-.16.1-3.93 2.43-4.71 8.28-.18 1.33-.63 5.68-1.1 11.17-2.57 5.76-5.87 13.3-7.16 17-2.46 7-.93 22.14-.41 26.62.63 5.3 2.45 12.45 11.06 13.31q.92.09 1.86.09a22.33 22.33 0 0 0 4.44-.47c0 2.47.08 4.7.08 6.23 0 5.88 7.1 117.65 7.44 122.92l-1 9.19a3.21 3.21 0 0 0 3.2 3.55h36.76a2 2 0 0 0 1.27-3.56ZM366 391.6l-6.73-5.84c.2-3.91 2.47-48.93 2.47-60.72 0-8.61.48-31.85.77-45 1.18 12.25 3 32.56 3 36.61 0 5.89 1 68.77 1 69.41v.07Z"
              style="fill:#263238"/>
    </g>
    <g>
        <path style="fill:#fff" d="M113.77 101.66h233.02v301.37H113.77z"/>
        <g style="clip-path:url(#a)">
            <path style="fill:#92e3a9" d="M346.79 146.91 113.77 391.06v11.97h233.02V146.91z"/>
            <path style="fill:#fff;opacity:.7000000000000001" d="M346.79 146.91 113.77 391.06v11.97h233.02V146.91z"/>
        </g>
        <path style="fill:none;stroke:#263238;stroke-linecap:round;stroke-linejoin:round"
              d="M113.77 101.66h233.02v301.37H113.77z"/>
        <path style="fill:#263238" d="M113.77 101.66h233.02v13.36H113.77z"/>
        <path style="fill:#fff;stroke:#263238;stroke-linecap:round;stroke-linejoin:round"
              d="M107.11 101.66h245v8.11h-245z"/>
        <path style="fill:#263238;stroke:#263238;stroke-linecap:round;stroke-linejoin:round"
              d="M107.11 399.94h245v8.11h-245z"/>
    </g>
    <g>
        <path d="m403.59 392.16 12.74 9a1.35 1.35 0 0 1-.89 2.38h-17.25a2.49 2.49 0 0 1-2.48-2.75l.9-8.67Z"
              style="fill:#fff;stroke:#263238;stroke-linecap:round;stroke-linejoin:round"/>
        <path style="fill:none;stroke:#263238;stroke-linecap:round;stroke-linejoin:round" d="m416.33 401.2-20.62-.37"/>
        <path d="M364 196.65s-8.4 18.32-10.69 24.8-1.14 20.23-.38 26.72 3.06 12.21 10.69 13 16-3.43 19.08-7.25.76-44.65.76-51.13-15.31-17.21-19.46-6.14ZM412.23 184.79s2.85 24.83 4.38 38.57-.38 21.37-1.91 26.33-6.87 14.88-6.87 14.88L405.16 239Z"
              style="fill:#fff;stroke:#263238;stroke-linecap:round;stroke-linejoin:round"/>
        <path style="fill:#fff;stroke:#263238;stroke-linecap:round;stroke-linejoin:round"
              d="m381.55 175.82-15.39 9.04 3.89 60.18 37.66-.5 4.52-59.75-14.62-9.97-16.06 1z"/>
        <path d="M375.4 179.48s9.92 22.89 9.92 27.85S363.87 250 363.87 250l1.58 5.27s24.83-47.51 24.83-49-11.45-29-11.45-29Z"
              style="fill:#263238;stroke:#263238;stroke-linecap:round;stroke-linejoin:round"/>
        <path d="M366.16 184.86s-3.74 2.25-4.5 8-3.82 39.31-1.91 43.89 5.73 1.52 8.78 0 6.47-35.9 6.47-35.9-1.15-6.87-3.82-11.07M387.91 170.47s-4.69 0-5.35 2.34a17.94 17.94 0 0 1-2.35 4.69l10 9.7 5.35-6.36 7.7 5s.33-8.36 0-11-8.36-4.68-8.36-4.68Z"
              style="fill:#fff;stroke:#263238;stroke-linecap:round;stroke-linejoin:round"/>
        <path style="fill:#fff;stroke:#263238;stroke-linecap:round;stroke-linejoin:round"
              d="m386.57 161.77.67 11.71 8.36 9.04 4.02-8.7-.33-10.38-12.72-1.67z"/>
        <path d="M395.79 135.82s9.22 2.43 9.22 8.74.07 14.68-2.42 18c-3.54 4.65-7.28 9.22-11.17 9.22s-8.86-7.58-9.35-10.49c-.39-2.33.29-13.35.52-18.16a6.63 6.63 0 0 1 2.18-4.61c1.91-1.75 5.33-3.52 11.02-2.7Z"
              style="fill:#fff;stroke:#263238;stroke-linecap:round;stroke-linejoin:round"/>
        <path d="M384 148.9a2.57 2.57 0 0 1 2.86 2.86c0 3.18-2.22 7.32-1.27 8.27a6.93 6.93 0 0 0 3.18 1.28v3.5s1.91 2.22 5.41-1.28M390.38 150.49s1-3.19 5.41-.64"
              style="fill:none;stroke:#263238;stroke-linecap:round;stroke-linejoin:round"/>
        <path d="M392.29 154.3c0 .88.29 1.6.64 1.6s.64-.72.64-1.6-.29-1.59-.64-1.59-.64.72-.64 1.59ZM384.66 154.3c0 .88.28 1.6.63 1.6s.64-.72.64-1.6-.29-1.59-.64-1.59-.63.72-.63 1.59Z"
              style="fill:#263238"/>
        <path d="M404.71 155.41s-2.68 1.34-3.34.34-.34-3.68-.67-5.69-2-3-3-4.35.67-4 .67-5-6.35 3-12 3-7.7-2.34-5.69-7.69 7.36-3 7.36-3a5.1 5.1 0 0 1 5.35-2.34c3.69.66 4.35 3.34 4.35 3.34s8.7 2.68 8.7 6.69-1.73 14.7-1.73 14.7Z"
              style="fill:#263238;stroke:#263238;stroke-linecap:round;stroke-linejoin:round"/>
        <path d="M402.37 157.76s-.34-6.69 3-5.36 1.34 8.7-2.68 8.7"
              style="fill:#fff;stroke:#263238;stroke-linecap:round;stroke-linejoin:round"/>
        <path d="M407.71 244.54s2.32 5.18 3.16 17.3c.12 1.65-1.44 7-1.32 8.8 1.2 17.42 2.63 39.42 3.18 52.23 1 23.6-9 69.29-9 69.29h-7s-1-64.27-1-70.29-4-46.7-4-46.7-1 42.68-1 55.23-2.51 61.76-2.51 61.76h-10.14s-7.53-118.5-7.53-124.52-.5-22.6-.5-22.6Z"
              style="fill:#263238;stroke:#263238;stroke-linecap:round;stroke-linejoin:round"/>
        <path d="m383.35 207.35 5.33-2.22a2.33 2.33 0 0 1 3.12 3 2.62 2.62 0 0 1-.79 1 2.32 2.32 0 0 0-.93 2.31 6.75 6.75 0 0 1-2.62 6.85 5.83 5.83 0 0 1-1.57.75 31.23 31.23 0 0 0-6.14 2.54l-2.53-7.26Z"
              style="fill:#fff;stroke:#263238;stroke-linecap:round;stroke-linejoin:round"/>
        <path d="M377.22 214.28s-17.09 15.95-17.85 17.86-1.91 6.87 3.82 9.92 16.56-20.52 16.56-20.52ZM388.13 392.16l11.25 9.77a1.46 1.46 0 0 1-1 2.56h-18.6a2.68 2.68 0 0 1-2.67-3l1-9.37Z"
              style="fill:#fff;stroke:#263238;stroke-linecap:round;stroke-linejoin:round"/>
        <path style="fill:none;stroke:#263238;stroke-linecap:round;stroke-linejoin:round" d="m377.11 401.53 20.93-.22"/>
    </g>
    <g>
        <path d="M296.26 202.43c-.71.23-6.1 2.11-12.2-3.05s-3.52-18.3 6.8-19.47 12 5.16 14.08 7 4.45-2.58 12.9-2.11 16.16 11.3 15.24 20.68-6.1 9.85-6.8 17.36 7.74 10.79 13.37 14.77 11.26 14.55 7.51 22.76-12.9 14.07-9.85 19.46 8.44 17.6.23 22.76-14.54 4.22-16.89-1.41-3.52-54.65-5.16-57.7-7-5.63-7.74-12.67.7-10.09-1.17-12.9-6.8-8.68-7.27-11.49a7.17 7.17 0 0 1 .7-4.69Z"
              style="fill:#263238;stroke:#263238;stroke-linecap:round;stroke-linejoin:round"/>
        <path d="M287.14 188.36c1.39-2.75 3.88-5.18 8.27-4.2 9.79 2.17 6.66 9.33 14 12.66s16.66.34 21 5.34 1 8 1 8M285.41 194.49a19.37 19.37 0 0 1 .71-3.55M306.74 204.16s.67 4.66 8.67 5.33 10.66 7 8.33 11.33M328.53 289.59a10.12 10.12 0 0 0 2.54 3.23"
              style="fill:none;stroke:#fff;stroke-linecap:round;stroke-linejoin:round"/>
        <path d="M321.74 215.16s-2.33 2.66-4 12c-1.52 8.52 6 19.66 13.33 25.33s6 12 .67 18a19.71 19.71 0 0 0-4.53 14.39"
              style="fill:none;stroke:#fff;stroke-linecap:round;stroke-linejoin:round"/>
        <path d="M323.07 225.82s-1.2 5.94 1.34 11c5 10 22 11 21.33 20.34"
              style="fill:none;stroke:#fff;stroke-linecap:round;stroke-linejoin:round"/>
        <path d="M301.18 228.7a87.48 87.48 0 0 1 1.41 10.09c.24 4.22.24 7 .24 7l12-4.69a97.8 97.8 0 0 1-3.83-12.4 45.32 45.32 0 0 1-.93-6.1Z"
              style="fill:#fff;stroke:#263238;stroke-linecap:round;stroke-linejoin:round"/>
        <path d="M318.31 212.75c-1.41-3.05-4.93-3.28-6.57-.94a31.82 31.82 0 0 0-2.11 3.29s-6.34-6.34-5.16-9.62 4.69-5.87 1.87-6.8-13.34 2.11-13.34 2.11-.59 4.93-1.12 10.37c0 0-.61 2.43-2.38 3.14s-1.25 2.14-.18 2.31c.61.11 1.4.32 2.06.49-.15 2.12-.25 4.05-.25 5.5 0 6.33 2.81 9.85 5.16 9.85s12.93-3.35 14.33-5.69a33.45 33.45 0 0 0 2.56-6.27s6.53-4.69 5.13-7.74Z"
              style="fill:#fff;stroke:#263238;stroke-linecap:round;stroke-linejoin:round"/>
        <path d="M292.49 220.35a2.86 2.86 0 0 0 3.2-1.07"
              style="fill:none;stroke:#263238;stroke-linecap:round;stroke-linejoin:round"/>
        <path d="M295.51 211.39c0 .84-.33 1.5-.68 1.49s-.59-.7-.56-1.53.33-1.5.67-1.49.6.7.57 1.53Z"
              style="fill:#263238"/>
        <path d="M293.55 208.26s1.6-2.67 3.2.71"
              style="fill:none;stroke:#263238;stroke-linecap:round;stroke-linejoin:round"/>
        <path d="M313.15 237.61s-12.67 7.74-14.78 12-9.38 16.18-10.09 20.17 9.62 15.48 11 16.65.7 9.15.23 13.14-.7 8.21-6.8 12.19S288.52 335 297.9 338s25.57.24 26.27-19-1.17-54.65-3.52-67.78-6.33-15.95-7.5-13.61Z"
              style="fill:#92e3a9;stroke:#263238;stroke-linecap:round;stroke-linejoin:round"/>
        <path d="M253.8 303.29s-10.08-4.93-12.19 3.52-17.36 59.58-17.36 59.58-10.79-1.41-15.72-3.29-7-1.41-4.45 2.11 10.32 8.68 15.71 11.73 5.63 4 6.33 3.05 5.16-17.12 11-27.44 11-20.41 15-27a39.85 39.85 0 0 0 4.93-13.84"
              style="fill:#fff;stroke:#263238;stroke-linecap:round;stroke-linejoin:round"/>
        <path d="M265.3 316s-13.84-.94-16.89 2.81 9.38 54.42 10.55 62.16 1.88 14.31.94 15.48-9.38 11-12.9 13.37 1.17 3.28 5.16 1.88 12.43-6.1 15.72-7 4.92-1.88 4.45-4.93-3.75-.7-6.57-21.81c-1.17-8.84-.46-30.49-.93-39.41s-.71-13.6-.71-13.6l9.15-1.88Z"
              style="fill:#fff;stroke:#263238;stroke-linecap:round;stroke-linejoin:round"/>
        <path d="M247.23 311.5s18.53 20.64 19.24 19.23.7-24.39.7-24.39-18.17-5.34-20.1-4.18"
              style="fill:#fff;stroke:#263238;stroke-linecap:round;stroke-linejoin:round"/>
        <path d="m315.73 314.31-53.25-10.08-1.64 26.5s29.55 12.43 42.45 11.5 19.24-8.68 19.94-17.36M258.76 397.76c-2.63 3.07-8.86 10.09-11.76 12-3.52 2.34 1.17 3.28 5.16 1.88s12.43-6.1 15.72-7 4.92-1.88 4.45-4.93c-.19-1.24-.86-1.58-1.79-3l-8.54 4.62ZM221.2 369.9l2.46-3.59c-2.29-.32-10.88-1.59-15.13-3.21-4.92-1.87-7-1.41-4.45 2.11s10.32 8.68 15.71 11.73 5.63 4 6.33 3.05c.28-.37 1.14-3.1 2.44-6.91Z"
              style="fill:#92e3a9;stroke:#263238;stroke-linecap:round;stroke-linejoin:round"/>
        <path d="M317.13 257.32s.24-8.92-6.8-8-6.1 13.61-6.1 13.61l-.82 34.54-26.15 9.32 12.43 2.34s23.22-.23 24.63-2.11 2.81-49.7 2.81-49.7Z"
              style="fill:#fff;stroke:#263238;stroke-linecap:round;stroke-linejoin:round"/>
        <path d="M285.41 303.82s-6.67-2.66-8.67-1.66-4.33 4.66-4 6 12.67-4.34 12.67-4.34Z"
              style="fill:#fff;stroke:#263238;stroke-linecap:round;stroke-linejoin:round"/>
        <path style="fill:none;stroke:#263238;stroke-linecap:round;stroke-linejoin:round"
              d="m272.74 308.16 6.33-6 3.67 1-5.45 4.23"/>
        <rect x="274.29" y="339.41" width="58.54" height="72.42" rx="3.45"
              style="fill:#fff;stroke:#263238;stroke-linecap:round;stroke-linejoin:round"/>
    </g>
    <g>
        <rect x="86.3" y="339.41" width="58.54" height="72.42" rx="3.45"
              style="fill:#fff;stroke:#263238;stroke-linecap:round;stroke-linejoin:round"/>
        <path d="M199.86 263.54a65.33 65.33 0 0 1 7.27-5.16c3.29-1.87 19.24-3.28 19.24-3.28l.7 8.91s-10.56 2.58-11.26 2.82-3.28 2.34-6.8 2.81a46.2 46.2 0 0 1-7.51.24Z"
              style="fill:#fff;stroke:#263238;stroke-linecap:round;stroke-linejoin:round"/>
        <path style="fill:#fff;stroke:#263238;stroke-linecap:round;stroke-linejoin:round"
              d="m209.71 233.76 7.04 39.4 31.9-6.8-7.74-39.87-31.2 7.27z"/>
        <path d="m132.78 238.92 24.63 33.77L202 262.37l.94 7.51-44.57 19.7-37.29-33.31s-7.77-15.01 11.7-17.35Z"
              style="fill:#92e3a9;stroke:#263238;stroke-linecap:round;stroke-linejoin:round"/>
        <path d="M132.54 206.78a67.12 67.12 0 0 1-3.52 9.15 22.26 22.26 0 0 0-1.87 4l10.32 8.91s2.81-4.46 5.39-6.33a35.16 35.16 0 0 1 4.46-2.82 25.94 25.94 0 0 1-5.4-11.49c-1.64-7.51-1.64-9.38-1.64-9.38Z"
              style="fill:#fff;stroke:#263238;stroke-linecap:round;stroke-linejoin:round"/>
        <path d="M164.91 189.89s4.69 1.18 4.93-3-5.84-9.19-16.84-10.6-19.24 4.46-20.88 10.09-.47 11.72-.47 15.24-1.4 4.93.47 7 8.92.94 8.92.94 7.5-.94 8-3-.7-4.93 1.41-6.57 5.63-3.28 5.39-5.86a17.75 17.75 0 0 0-.47-3.29s4.93 1.88 6.57 1.17a11.31 11.31 0 0 0 2.97-2.12Z"
              style="fill:#263238;stroke:#263238;stroke-linecap:round;stroke-linejoin:round"/>
        <path d="M150.13 187.78s-11.33-1.26-17.79 7.37M148.51 191.1s-9.71 1.62-15.36 8.9"
              style="fill:none;stroke:#fff;stroke-linecap:round;stroke-linejoin:round"/>
        <path d="M162.43 203.76c1.51-6.72 2.48-13.87 2.48-13.87s-12-2.58-14.78-2.11-.7 4.69-.23 7.74-4.22 4.22-5.4 5.16.24 3.29.24 4.69-1.88 1.88-3.52 1.65-.47-6.57-2.81-7.51-5.4 2.11-5.16 5.16 4.45 4.22 4.45 4.22.24 8.68 3.05 10.56 11.26 5.39 13.37 4.92 3-5.39 5.87-12.19c.2-.49.4-1 .59-1.6 2.34.16 3.9-2 3.16-2.68-.51-.51-1.02-2.69-1.31-4.14Z"
              style="fill:#fff;stroke:#263238;stroke-linecap:round;stroke-linejoin:round"/>
        <path d="M160.25 200.73s-1.23-3.22-4.53-.6"
              style="fill:none;stroke:#263238;stroke-linecap:round;stroke-linejoin:round"/>
        <path d="M158 204.38c-.18.84-.61 1.47-1 1.4s-.49-.82-.32-1.67.61-1.48 1-1.4.48.82.32 1.67ZM153.27 212.62s-.06 2.86 1 3.39 3.35-2.13 3.35-2.13-3.05-.22-4.35-1.26Z"
              style="fill:#263238"/>
        <path d="M126.61 308s47.38 3.52 52.31 5.87 6.56 6.56 7 12.9 4.69 69.66 4.69 69.66l-6.56 2.35L166 330.09l-46.92 4s-6.09-.94-7.74-9.15a15.4 15.4 0 0 1 3.52-13.37"
              style="fill:#263238;stroke:#263238;stroke-linecap:round;stroke-linejoin:round"/>
        <path d="M89.85 302s-.7 27 2.11 32.61 28.38 5.16 33.55 2.34 8.44-14.07 6.8-23.45.47-11-3.29-12.2-39.17.7-39.17.7Z"
              style="fill:#263238;stroke:#263238;stroke-linecap:round;stroke-linejoin:round"/>
        <path d="M123.39 218.51c.88.58 14.31 15 15.25 18.53s.47 22.52-1.88 30.73-6.33 18.29-6.33 21.81 3 10.56 1.17 13.14-16.18 4.45-25.8 4-15.48-2.81-16-4.69 2.82-37.53 6.8-50.19 9.86-21.35 14.55-25.34 10.85-8.93 12.24-7.99Z"
              style="fill:#92e3a9;stroke:#263238;stroke-linecap:round;stroke-linejoin:round"/>
        <path d="M107.21 261s3.82 1.15 16.83-8.41M100.71 269.77s14.91-.38 24.48-15.68"
              style="fill:none;stroke:#263238;stroke-linecap:round;stroke-linejoin:round"/>
        <path style="fill:#92e3a9;stroke:#263238;stroke-linecap:round;stroke-linejoin:round"
              d="m126.47 211.76 14.99 16.6-2.82 8.68-16.63-19.18 4.46-6.1z"/>
        <path d="M118.36 314.69s41 .81 54.32 3.86 13 7.17 8 19.86c-2.26 5.76-42.76 57.88-42.76 57.88l-5.86-3.05 26.27-53.95s-48.32 3.52-58.64.47-9.62-11.49-8.45-16.42"
              style="fill:#263238;stroke:#263238;stroke-linecap:round;stroke-linejoin:round"/>
        <path d="M177.89 342.65c-1.67 2.86-3 4.86-3 4.86M121.05 315.2s51.25 3.17 57.06 4.75 7.4 5.81 4.76 12.68a63.81 63.81 0 0 1-3.53 7.43M111.54 315.2s-10 7.39-11.63 14.26M100.44 316.78s-6.87 9.51-5.81 14.27"
              style="fill:none;stroke:#fff;stroke-linecap:round;stroke-linejoin:round"/>
        <path d="M190.64 396.47s22.52-4.46 22.52-2.81-9.62 8-15 10.79-8.44 6.09-10.32 5.39-3.75-11-3.75-11ZM137.92 396.29s4.46 6.56 6.33 8.68 10.09 7.74 7.74 8.21-13.13-1.41-18.76-3.29-8.92-4.45-9.38-5.86 8.21-10.79 8.21-10.79M158.81 270.11s-29.08-35.88-33.07-37.76-10.09 4.22-11.73 10.32 1.64 12 5.63 14.78c1.77 1.24 37.53 30.49 39.41 30.72s43.62-39.64 43.62-39.64l-4.22-4Z"
              style="fill:#92e3a9;stroke:#263238;stroke-linecap:round;stroke-linejoin:round"/>
        <path d="M198.45 244.55s1.64-11.5 2.35-12 5.39-5.39 6.1-4.69 1.17 1.64.23 2.58a29.93 29.93 0 0 0-2.81 4.69s6.56-5.39 7.5-6.8 2.58-3.52 3.29-2.34-3.05 10.08-4.23 12.9-8.21 9.61-8.21 9.61ZM202 262.37s6.57-7.74 7.27-8.44 10.32-1.17 10.32-1.17 2.35 0 1.18 1.4-7.74 2.58-7.74 2.58-2.12 5.16-3.76 6.1a6.4 6.4 0 0 1-3.52.94"
              style="fill:#fff;stroke:#263238;stroke-linecap:round;stroke-linejoin:round"/>
    </g>
</svg>