<svg width="180" height="180" viewBox="0 0 180 180" fill="none" xmlns="http://www.w3.org/2000/svg">
<path d="M35.2783 139.77C66.7639 156.219 117.815 156.219 149.301 139.77C180.787 123.322 180.787 96.6529 149.301 80.2009C117.815 63.7489 66.7783 63.7525 35.2783 80.2009C3.77826 96.6493 3.80706 123.322 35.2783 139.77Z" fill="#F5F5F5"/>
<path d="M26.5043 112.795L16.2695 106.887V84.9346L26.5043 90.8458V112.795Z" fill="#E0E0E0"/>
<path d="M26.5039 90.8458L41.1271 82.4038V104.353L26.5039 112.795V90.8458Z" fill="#EBEBEB"/>
<path d="M41.1275 82.4039L26.5043 90.8459L16.2695 84.9347L30.8927 76.4927L41.1275 82.4039Z" fill="#F5F5F5"/>
<path d="M27.9684 91.6882L39.6648 84.9346L39.9348 85.0894V93.2218L28.2348 99.9754L27.9648 99.8206L27.9684 91.6882Z" fill="#E0E0E0"/>
<path d="M28.2344 91.8466L39.9344 85.0894V93.2218L28.2344 99.9754V91.8466Z" fill="#F5F5F5"/>
<path d="M32.8235 90.576L34.8143 89.4276C35.0699 89.2764 35.2787 89.3448 35.2787 89.5788C35.2601 89.7221 35.2085 89.8592 35.1279 89.9791C35.0473 90.0991 34.9399 90.1987 34.8143 90.27L32.8235 91.4184C32.5643 91.5696 32.3555 91.5012 32.3555 91.2672C32.3741 91.1235 32.4262 90.9861 32.5074 90.8661C32.5887 90.746 32.6969 90.6467 32.8235 90.576Z" fill="#E0E0E0"/>
<path d="M27.6992 101.977L39.3956 95.2236V103.356L39.6656 103.511L27.9656 110.264L27.6992 110.11V101.977Z" fill="#E0E0E0"/>
<path d="M27.9648 102.132L39.6648 95.3784V103.511L27.9648 110.264V102.132Z" fill="#F5F5F5"/>
<path d="M32.5516 100.865L34.5604 99.7201C34.8196 99.5689 35.0284 99.6373 35.0284 99.8713C35.0097 100.015 34.9577 100.152 34.8764 100.272C34.7951 100.392 34.6869 100.492 34.5604 100.562L32.5696 101.711C32.3104 101.862 32.1016 101.794 32.1016 101.56C32.1177 101.417 32.1668 101.28 32.2449 101.159C32.323 101.039 32.4279 100.938 32.5516 100.865Z" fill="#E0E0E0"/>
<path d="M26.5043 89.5787L16.2695 83.6675V61.7183L26.5043 67.6259V89.5787Z" fill="#E0E0E0"/>
<path d="M26.5039 67.6261L41.1271 59.1841V81.1369L26.5039 89.5789V67.6261Z" fill="#EBEBEB"/>
<path d="M41.1275 59.184L26.5043 67.626L16.2695 61.7184L30.8927 53.2764L41.1275 59.184Z" fill="#F5F5F5"/>
<path d="M27.9648 68.4719L39.6648 61.7183L39.9348 61.8731V70.0055L28.2348 76.7591L27.9648 76.6007V68.4719Z" fill="#E0E0E0"/>
<path d="M32.8235 67.3561L34.8107 66.2077C35.0699 66.0601 35.2787 66.1285 35.2787 66.3625C35.2595 66.506 35.2072 66.6432 35.126 66.7631C35.0448 66.8831 34.9368 66.9825 34.8107 67.0537L32.8235 68.2021C32.5643 68.3497 32.3555 68.2849 32.3555 68.0509C32.3744 67.9067 32.4265 67.769 32.5078 67.6484C32.589 67.5279 32.697 67.4278 32.8235 67.3561Z" fill="#E0E0E0"/>
<path d="M27.6992 78.7609L39.3956 72.0073V80.1361L39.6656 80.2909L27.9656 87.0445L27.6992 86.8897V78.7609Z" fill="#E0E0E0"/>
<path d="M27.9648 78.9157L39.6648 72.1621V80.2909L27.9648 87.0445V78.9157Z" fill="#F5F5F5"/>
<path d="M32.5539 77.6446L34.5627 76.4962C34.8183 76.3486 35.0307 76.417 35.0307 76.651C35.0105 76.7943 34.9578 76.931 34.8767 77.0508C34.7956 77.1706 34.6882 77.2702 34.5627 77.3422L32.5539 78.4798C32.2947 78.6274 32.0859 78.559 32.0859 78.3286C32.1065 78.1864 32.1593 78.0508 32.2404 77.9323C32.3216 77.8137 32.4288 77.7153 32.5539 77.6446Z" fill="#E0E0E0"/>
<path d="M27.9648 68.4719L39.6648 61.7183V69.8471L27.9648 76.6007V68.4719Z" fill="#E0E0E0"/>
<path d="M45.5177 65.7358L39.1133 62.0386V69.2026L45.5177 72.8962V65.7358Z" fill="#E0E0E0"/>
<path d="M32.3555 77.7597V67.6258L34.8647 66.1713L35.2787 66.7833L42.5903 62.5605V71.8485L32.3555 77.7597Z" fill="#EBEBEB"/>
<path d="M32.3555 77.7597L33.0863 68.8929L43.3211 62.9854L42.5903 71.8485L32.3555 77.7597Z" fill="#F5F5F5"/>
<path d="M33.8144 72.4896L28.2344 69.2676V76.4316L33.8144 79.65V72.4896Z" fill="#EBEBEB"/>
<path d="M33.8164 71.8488L45.5164 65.0952V73.224L33.8164 79.9776V71.8488Z" fill="#F5F5F5"/>
<path d="M38.4016 70.5778L40.3888 69.4293C40.648 69.2817 40.8568 69.3501 40.8568 69.5841C40.8373 69.7276 40.7849 69.8647 40.7038 69.9846C40.6226 70.1045 40.5148 70.204 40.3888 70.2754L38.4016 71.4237C38.1424 71.5713 37.9336 71.5029 37.9336 71.2725C37.9525 71.1284 38.0047 70.9907 38.0859 70.8701C38.1671 70.7495 38.2752 70.6495 38.4016 70.5778Z" fill="#E0E0E0"/>
<path d="M33.8146 71.8487L33.4258 71.6255V79.7543L33.8146 79.9775V71.8487Z" fill="#E0E0E0"/>
<path d="M33.4258 71.6254L45.1222 64.8682L45.5146 65.095L33.8146 71.8486L33.4258 71.6254Z" fill="#EBEBEB"/>
<path d="M147.422 99.4966L137.184 93.5854V71.6362L147.422 77.5438V99.4966Z" fill="#E0E0E0"/>
<path d="M147.422 77.5441L162.045 69.1021V91.0549L147.422 99.4969V77.5441Z" fill="#EBEBEB"/>
<path d="M162.045 69.1021L147.422 77.5441L137.184 71.6365L151.81 63.1909L162.045 69.1021Z" fill="#F5F5F5"/>
<path d="M148.883 78.3898L160.583 71.6362L160.853 71.791L160.849 79.9198L149.153 86.6734L148.883 86.5186V78.3898Z" fill="#E0E0E0"/>
<path d="M149.152 78.5446L160.852 71.791L160.849 79.9198L149.152 86.6734V78.5446Z" fill="#F5F5F5"/>
<path d="M153.738 77.2742L155.725 76.1258C155.984 75.9782 156.193 76.0466 156.193 76.277C156.174 76.4211 156.122 76.5589 156.04 76.6794C155.959 76.8 155.851 76.9001 155.725 76.9718L153.738 78.1202C153.478 78.2678 153.27 78.1994 153.27 77.969C153.288 77.8249 153.341 77.6871 153.422 77.5666C153.503 77.446 153.611 77.3459 153.738 77.2742Z" fill="#E0E0E0"/>
<path d="M148.613 88.6786L160.313 81.9214V90.0538L160.583 90.2086L148.883 96.9622L148.613 96.8074V88.6786Z" fill="#E0E0E0"/>
<path d="M148.883 88.8337L160.583 82.0801V90.2089L148.883 96.9625V88.8337Z" fill="#F5F5F5"/>
<path d="M153.468 87.5628L155.459 86.4144C155.714 86.2668 155.923 86.3352 155.923 86.5656C155.904 86.7092 155.852 86.8465 155.772 86.967C155.691 87.0874 155.584 87.1878 155.459 87.2604L153.468 88.4088C153.209 88.5564 153 88.488 153 88.254C153.019 88.1105 153.072 87.9735 153.153 87.8536C153.234 87.7336 153.342 87.6341 153.468 87.5628Z" fill="#E0E0E0"/>
<path d="M50.0425 122.44C50.0425 122.44 50.0821 116.73 46.4822 112.45C43.2962 108.659 41.6005 106.254 42.6049 105.145C43.6093 104.036 45.7694 103.77 48.6817 106.837C51.5941 109.904 51.821 118.4 51.4178 120.323L50.0425 122.44Z" fill="#BA68C8"/>
<path opacity="0.2" d="M50.0425 122.44C50.0425 122.44 50.0821 116.73 46.4822 112.45C43.2962 108.659 41.6005 106.254 42.6049 105.145C43.6093 104.036 45.7694 103.77 48.6817 106.837C51.5941 109.904 51.821 118.4 51.4178 120.323L50.0425 122.44Z" fill="black"/>
<path d="M50.6468 116.302C50.6058 116.302 50.5659 116.288 50.5339 116.262C50.5018 116.237 50.4794 116.201 50.4704 116.161C49.2104 110.268 45.9776 107.01 44.1596 105.592C44.1219 105.562 44.0974 105.519 44.0913 105.472C44.0852 105.425 44.0981 105.377 44.1272 105.34C44.157 105.302 44.2005 105.277 44.2483 105.271C44.2961 105.265 44.3444 105.278 44.3828 105.307C46.2368 106.747 49.538 110.081 50.8232 116.086C50.8284 116.108 50.8291 116.132 50.825 116.155C50.821 116.179 50.8123 116.201 50.7996 116.221C50.7868 116.24 50.7702 116.257 50.7508 116.271C50.7313 116.284 50.7094 116.293 50.6864 116.298L50.6468 116.302Z" fill="white"/>
<path d="M49.9049 124.56L48.4397 125.406C48.2835 124.979 48.0199 124.599 47.6744 124.303C47.3288 124.008 46.913 123.806 46.4669 123.717C44.8649 123.357 43.2017 123.419 42.0785 122.029C40.9553 120.639 42.3233 119.127 42.0785 118.105C41.8337 117.083 41.6753 116.787 39.6665 115.765C37.6577 114.743 36.8657 113.047 38.3777 111.899C39.8897 110.75 42.3377 111.593 43.8209 112.619C45.1385 113.519 46.3913 113.756 47.8637 113.94C49.3361 114.123 51.7337 114.941 51.3665 118.361C51.1261 120.478 50.6355 122.559 49.9049 124.56Z" fill="#BA68C8"/>
<path d="M44.282 120.067C44.2436 120.067 44.2063 120.054 44.1753 120.032C44.1443 120.009 44.1212 119.977 44.1092 119.941C44.0956 119.895 44.1003 119.846 44.1225 119.803C44.1447 119.761 44.1825 119.729 44.228 119.714C44.3576 119.674 47.468 118.688 48.7892 119.746C48.822 119.777 48.842 119.82 48.8452 119.865C48.8484 119.91 48.8346 119.954 48.8065 119.989C48.7785 120.025 48.7382 120.048 48.6936 120.055C48.6491 120.062 48.6035 120.052 48.566 120.027C47.3996 119.091 44.3684 120.049 44.336 120.06L44.282 120.067Z" fill="white"/>
<path d="M50.0652 124.286C50.0214 124.287 49.9791 124.271 49.9465 124.241C49.9138 124.212 49.8933 124.172 49.8888 124.128C49.086 116.546 39.9528 112.95 39.8628 112.914C39.8405 112.906 39.8201 112.893 39.8027 112.877C39.7854 112.86 39.7714 112.841 39.7617 112.819C39.752 112.797 39.7467 112.774 39.7461 112.75C39.7456 112.726 39.7498 112.702 39.7584 112.68C39.7761 112.636 39.8099 112.601 39.8528 112.582C39.8957 112.562 39.9444 112.56 39.9888 112.576C40.086 112.615 49.4208 116.287 50.2452 124.096C50.2503 124.143 50.2365 124.19 50.2068 124.227C50.1771 124.264 50.134 124.288 50.0868 124.294L50.0652 124.286Z" fill="white"/>
<path d="M139.61 119.581C139.65 119.455 141.194 111.506 139.61 105.869C138.17 100.699 136.291 98.7911 133.612 98.3699C130.934 97.9487 129.771 99.8783 131.193 102.492C132.615 105.105 136.039 108.572 136.878 114.411C137.238 116.816 137.511 118.904 137.511 118.904L139.61 119.581Z" fill="#BA68C8"/>
<path opacity="0.2" d="M139.61 119.581C139.65 119.455 141.194 111.506 139.61 105.869C138.17 100.699 136.291 98.7911 133.612 98.3699C130.934 97.9487 129.771 99.8783 131.193 102.492C132.615 105.105 136.039 108.572 136.878 114.411C137.238 116.816 137.511 118.904 137.511 118.904L139.61 119.581Z" fill="black"/>
<path d="M138.706 115.016C138.682 115.015 138.659 115.009 138.638 114.998C138.616 114.988 138.597 114.974 138.582 114.956C138.566 114.938 138.554 114.917 138.546 114.895C138.538 114.873 138.535 114.849 138.537 114.825C138.897 108.388 136.794 102.643 133.025 99.8241C132.987 99.7954 132.962 99.7528 132.955 99.7055C132.948 99.6583 132.96 99.6103 132.989 99.5721C133.018 99.5347 133.061 99.51 133.108 99.5033C133.155 99.4966 133.203 99.5083 133.241 99.5361C137.104 102.416 139.271 108.291 138.893 114.847C138.89 114.894 138.869 114.938 138.834 114.97C138.799 115.001 138.753 115.018 138.706 115.016Z" fill="white"/>
<path d="M143.752 123.721C143.547 122.242 144.397 120.024 146.416 119.498C148.436 118.973 149.336 117.814 148.609 116.546C147.881 115.279 148.051 114.116 149.883 113.591C151.715 113.065 153.321 112.151 152.266 110.214C151.499 108.814 151.33 107.906 153.209 105.149C154.768 102.859 153.494 101.516 151.543 101.768C149.591 102.02 148.385 104.346 147.165 104.735C145.945 105.124 145.664 103.05 144.055 103.979C142.445 104.908 142.543 107.287 142.492 108.947C142.442 110.606 142.334 110.981 140.879 110.779C139.425 110.578 137.999 110.815 138.032 114.332C138.057 117.349 139.666 121.086 139.666 121.086L143.752 123.721Z" fill="#BA68C8"/>
<path d="M141.201 121.471H141.183C141.134 121.466 141.09 121.441 141.06 121.404C141.03 121.366 141.015 121.318 141.021 121.269C142.036 112.201 149.819 104.551 151.849 102.999C151.888 102.97 151.936 102.958 151.983 102.964C152.031 102.97 152.074 102.995 152.103 103.034C152.132 103.072 152.145 103.12 152.139 103.168C152.132 103.215 152.107 103.258 152.069 103.287C150.064 104.817 142.381 112.367 141.381 121.309C141.375 121.353 141.354 121.394 141.321 121.424C141.288 121.454 141.245 121.471 141.201 121.471Z" fill="white"/>
<path d="M144.749 111.776C144.713 111.776 144.677 111.765 144.647 111.744C144.617 111.724 144.594 111.695 144.58 111.661C144.565 111.616 144.567 111.566 144.588 111.523C144.608 111.479 144.644 111.445 144.688 111.427C147.59 110.347 150.88 110.858 151.021 110.88C151.067 110.888 151.109 110.914 151.136 110.952C151.164 110.991 151.176 111.038 151.168 111.085C151.159 111.132 151.133 111.173 151.095 111.201C151.057 111.229 151.01 111.242 150.963 111.236C150.931 111.236 147.626 110.718 144.814 111.765C144.793 111.773 144.771 111.776 144.749 111.776Z" fill="white"/>
<path d="M142.164 117.227C142.139 117.226 142.114 117.221 142.091 117.21C142.068 117.2 142.047 117.185 142.031 117.166C140.824 115.76 140.006 114.064 139.658 112.244C139.655 112.221 139.656 112.197 139.661 112.174C139.667 112.151 139.677 112.129 139.691 112.11C139.705 112.091 139.723 112.075 139.743 112.063C139.764 112.051 139.786 112.043 139.81 112.039C139.833 112.036 139.857 112.037 139.88 112.042C139.903 112.048 139.924 112.058 139.943 112.072C139.963 112.086 139.979 112.104 139.991 112.124C140.003 112.144 140.011 112.167 140.015 112.19C140.359 113.938 141.146 115.568 142.301 116.924C142.323 116.951 142.338 116.983 142.343 117.018C142.347 117.052 142.342 117.087 142.328 117.119C142.314 117.151 142.291 117.178 142.262 117.197C142.233 117.216 142.199 117.226 142.164 117.227Z" fill="white"/>
<path d="M49.9023 68.8428V124.564L106.934 91.638L106.93 40.9824L64.5255 65.466L63.0603 61.2432L49.9023 68.8428Z" fill="#BA68C8"/>
<path opacity="0.7" d="M49.9023 68.8428V124.564L106.934 91.638L106.93 40.9824L64.5255 65.466L63.0603 61.2432L49.9023 68.8428Z" fill="black"/>
<path d="M49.9023 124.564L52.8255 73.908L109.857 40.9824L106.934 91.638L49.9023 124.564Z" fill="#E0E0E0"/>
<path d="M49.9023 124.564L54.2871 74.7539L111.318 41.8247L106.934 91.6379L49.9023 124.564Z" fill="#BA68C8"/>
<path opacity="0.7" d="M49.9023 124.564L54.2871 74.7539L111.318 41.8247L106.934 91.6379L49.9023 124.564Z" fill="black"/>
<path d="M58.6758 73.9078V129.632L115.707 96.703V46.0474L73.299 70.531L71.8374 66.3082L58.6758 73.9078Z" fill="#BA68C8"/>
<path opacity="0.5" d="M58.6758 73.9078V129.632L115.707 96.703V46.0474L73.299 70.531L71.8374 66.3082L58.6758 73.9078Z" fill="black"/>
<path d="M58.6758 129.632L61.599 78.973L118.63 46.0474L115.707 96.703L58.6758 129.632Z" fill="#E0E0E0"/>
<path d="M58.6758 129.632L63.0606 79.8189L120.092 46.8896L115.707 96.7029L58.6758 129.632Z" fill="#BA68C8"/>
<path opacity="0.5" d="M58.6758 129.632L63.0606 79.8189L120.092 46.8896L115.707 96.7029L58.6758 129.632Z" fill="black"/>
<path d="M106.917 147.362C96.6789 141.451 87.1821 135.025 82.8477 127.487L96.0237 119.88L106.917 147.362Z" fill="#E0E0E0"/>
<path d="M68.9102 79.8194V135.54L125.941 102.615V51.959L83.5334 76.4426L82.0718 72.2198L68.9102 79.8194Z" fill="#BA68C8"/>
<path opacity="0.2" d="M68.9102 79.8194V135.54L125.941 102.615V51.959L83.5334 76.4426L82.0718 72.2198L68.9102 79.8194Z" fill="black"/>
<path d="M85.3414 96.293C85.1974 96.293 85.1758 96.1274 85.1758 96.0302V48.5102C85.1873 48.3259 85.2415 48.1467 85.3339 47.9868C85.4264 47.8269 85.5546 47.6906 85.7086 47.5886L126.871 23.8286C126.927 23.7934 126.992 23.7736 127.058 23.771C127.202 23.771 127.224 23.9366 127.224 24.0338V71.5538C127.212 71.7387 127.158 71.9185 127.066 72.079C126.974 72.2395 126.845 72.3764 126.691 72.479L85.5286 96.239C85.4717 96.2724 85.4073 96.291 85.3414 96.293Z" fill="white"/>
<path d="M127.037 23.9365C127.04 23.9629 127.04 23.9894 127.037 24.0157V71.5357C127.025 71.689 126.979 71.8377 126.903 71.971C126.826 72.1042 126.721 72.2187 126.594 72.3061L85.432 96.0661L85.36 96.0985C85.3552 96.0723 85.3552 96.0455 85.36 96.0193V48.4993C85.3724 48.3467 85.4185 48.1987 85.4951 48.0661C85.5717 47.9335 85.6768 47.8195 85.8028 47.7325L126.965 23.9725C126.988 23.9567 127.014 23.9456 127.041 23.9401M127.062 23.5801C126.964 23.5831 126.869 23.6116 126.785 23.6629L85.6228 47.4229C85.4419 47.5418 85.2913 47.7014 85.1831 47.889C85.075 48.0765 85.0122 48.2868 85 48.5029V96.0229C85 96.3037 85.1404 96.4657 85.36 96.4657C85.4581 96.4631 85.5538 96.4346 85.6372 96.3829L126.8 72.6229C126.981 72.5049 127.133 72.3455 127.241 72.1578C127.349 71.9701 127.411 71.7593 127.422 71.5429V24.0229C127.422 23.7421 127.282 23.5765 127.062 23.5801Z" fill="#BA68C8"/>
<path opacity="0.7" d="M127.037 23.9365C127.04 23.9629 127.04 23.9894 127.037 24.0157V71.5357C127.025 71.689 126.979 71.8377 126.903 71.971C126.826 72.1042 126.721 72.2187 126.594 72.3061L85.432 96.0661L85.36 96.0985C85.3552 96.0723 85.3552 96.0455 85.36 96.0193V48.4993C85.3724 48.3467 85.4185 48.1987 85.4951 48.0661C85.5717 47.9335 85.6768 47.8195 85.8028 47.7325L126.965 23.9725C126.988 23.9567 127.014 23.9456 127.041 23.9401M127.062 23.5801C126.964 23.5831 126.869 23.6116 126.785 23.6629L85.6228 47.4229C85.4419 47.5418 85.2913 47.7014 85.1831 47.889C85.075 48.0765 85.0122 48.2868 85 48.5029V96.0229C85 96.3037 85.1404 96.4657 85.36 96.4657C85.4581 96.4631 85.5538 96.4346 85.6372 96.3829L126.8 72.6229C126.981 72.5049 127.133 72.3455 127.241 72.1578C127.349 71.9701 127.411 71.7593 127.422 71.5429V24.0229C127.422 23.7421 127.282 23.5765 127.062 23.5801Z" fill="white"/>
<path d="M89.3828 50.3136L104.006 41.8716V58.7556L89.3828 67.1976V50.3136Z" fill="#BA68C8"/>
<path opacity="0.8" d="M89.3828 50.3136L104.006 41.8716V58.7556L89.3828 67.1976V50.3136Z" fill="white"/>
<path d="M101.813 46.0801V51.1561L101.352 51.4117V49.8601C101.352 49.0033 100.658 48.7117 99.7936 49.2085L93.598 52.7905C92.7376 53.2873 92.0392 54.3853 92.0392 55.2421V56.7937L91.582 57.0673V52.0021L101.813 46.0801Z" fill="white"/>
<path d="M98.9971 59.0043C98.2483 59.4363 97.6399 58.9828 97.6399 57.9856V49.8604L95.7571 50.8828V59.0728C95.7571 60.0663 95.1487 61.2327 94.3999 61.6539L93.0391 62.4388V62.9788L100.351 58.756V58.2196L98.9971 59.0043Z" fill="white"/>
<path d="M106.918 41.0402C106.918 41.5082 107.339 41.6414 107.854 41.3462L122.081 33.1202C122.334 32.9771 122.549 32.7775 122.712 32.5371C122.874 32.2966 122.979 32.0218 123.017 31.7342C123.017 31.2698 122.596 31.133 122.081 31.4318L107.865 39.6398C107.608 39.7826 107.389 39.9838 107.224 40.2271C107.06 40.4703 106.955 40.7489 106.918 41.0402Z" fill="#455A64"/>
<path d="M106.918 46.0803C106.918 46.5483 107.339 46.6851 107.854 46.3863L122.07 38.1783C122.323 38.0352 122.539 37.8357 122.701 37.5952C122.863 37.3547 122.968 37.0799 123.006 36.7923C123.006 36.3279 122.585 36.1911 122.07 36.4899L107.854 44.6979C107.602 44.8406 107.386 45.0397 107.224 45.2795C107.062 45.5193 106.957 45.7934 106.918 46.0803Z" fill="#455A64"/>
<path d="M106.918 51.1563C106.918 51.6243 107.339 51.7611 107.854 51.4623L122.07 43.2543C122.322 43.1116 122.538 42.9126 122.7 42.6728C122.863 42.433 122.967 42.1589 123.006 41.8719C123.006 41.4039 122.585 41.2671 122.07 41.5659L107.854 49.7739C107.602 49.9167 107.386 50.1157 107.224 50.3555C107.062 50.5953 106.957 50.8694 106.918 51.1563Z" fill="#455A64"/>
<path d="M106.918 56.2213C106.918 56.6893 107.339 56.8261 107.854 56.5273L122.07 48.3193C122.322 48.1766 122.538 47.9775 122.7 47.7377C122.863 47.4979 122.967 47.2238 123.006 46.9369C123.006 46.4689 122.585 46.3321 122.07 46.6309L107.854 54.8389C107.602 54.9816 107.386 55.1806 107.224 55.4204C107.062 55.6602 106.957 55.9343 106.918 56.2213Z" fill="#455A64"/>
<path d="M89.3828 71.4205C89.3828 71.8885 89.8004 72.0253 90.3188 71.7265L122.082 53.3665C122.334 53.2242 122.55 53.0253 122.712 52.7854C122.875 52.5455 122.979 52.2712 123.018 51.9841C123.018 51.5161 122.596 51.3829 122.082 51.6781L90.3188 70.0381C90.0663 70.1802 89.8503 70.379 89.6878 70.6189C89.5254 70.8589 89.421 71.1333 89.3828 71.4205Z" fill="#455A64"/>
<path d="M89.3828 76.4856C89.3828 76.9536 89.8004 77.0904 90.3188 76.7916L122.082 58.4532C122.334 58.3101 122.55 58.1106 122.712 57.8701C122.875 57.6296 122.979 57.3548 123.018 57.0672C123.018 56.6028 122.596 56.466 122.082 56.7648L90.3188 75.1032C90.0663 75.2453 89.8503 75.4442 89.6878 75.6841C89.5254 75.924 89.421 76.1984 89.3828 76.4856Z" fill="#455A64"/>
<path d="M89.3828 81.5547C89.3828 82.0191 89.8004 82.1559 90.3188 81.8571L122.082 63.5187C122.334 63.3756 122.55 63.176 122.712 62.9355C122.875 62.6951 122.979 62.4203 123.018 62.1327C123.018 61.6683 122.596 61.5315 122.082 61.8303L90.3188 80.1687C90.0658 80.3111 89.8496 80.5105 89.6871 80.7511C89.5246 80.9917 89.4204 81.2668 89.3828 81.5547Z" fill="#455A64"/>
<path d="M68.9102 135.54L79.145 90.7959L136.176 57.8667L125.941 102.615L68.9102 135.54Z" fill="#BA68C8"/>
<path d="M82.8633 94.2986V127.487L96.0249 119.887V86.7026L82.8633 94.2986Z" fill="#BA68C8"/>
<path opacity="0.2" d="M82.8633 94.2986V127.487L96.0249 119.887V86.7026L82.8633 94.2986Z" fill="black"/>
<path d="M106.946 147.146C105.826 146.311 95.0332 138.064 89.5468 126.266C83.7076 113.724 83.7148 99.0937 83.7148 93.5893V93.4165L122.84 70.8301C122.84 76.3849 122.84 91.0369 128.704 103.622C134.064 115.142 144.443 123.286 146.088 124.531L106.946 147.146Z" fill="white"/>
<path d="M122.659 71.1539C122.659 76.9427 122.77 91.3139 128.541 103.712C133.722 114.836 143.571 122.836 145.764 124.524L106.956 146.93C105.44 145.789 95.0541 137.678 89.7117 126.205C83.8797 113.699 83.8797 99.0971 83.8797 93.5999V93.5315L122.644 71.1503M123.004 70.5275L83.5197 93.3263C83.5197 98.5067 83.4117 113.558 89.3697 126.356C95.2341 138.917 106.92 147.362 106.92 147.362L146.415 124.56C146.415 124.56 134.715 116.114 128.869 103.554C122.907 90.7559 123.019 75.7043 123.019 70.5239L123.004 70.5275Z" fill="#BA68C8"/>
<path opacity="0.7" d="M122.659 71.1539C122.659 76.9427 122.77 91.3139 128.541 103.712C133.722 114.836 143.571 122.836 145.764 124.524L106.956 146.93C105.44 145.789 95.0541 137.678 89.7117 126.205C83.8797 113.699 83.8797 99.0971 83.8797 93.5999V93.5315L122.644 71.1503M123.004 70.5275L83.5197 93.3263C83.5197 98.5067 83.4117 113.558 89.3697 126.356C95.2341 138.917 106.92 147.362 106.92 147.362L146.415 124.56C146.415 124.56 134.715 116.114 128.869 103.554C122.907 90.7559 123.019 75.7043 123.019 70.5239L123.004 70.5275Z" fill="white"/>
<path d="M118.552 78.1742L106.067 85.3742C105.817 85.5117 105.604 85.7076 105.447 85.9452C105.289 86.1827 105.19 86.4549 105.16 86.7386C105.178 87.1958 105.614 87.3254 106.129 87.0266L118.617 79.8266C118.864 79.6903 119.075 79.497 119.232 79.2628C119.389 79.0287 119.488 78.7603 119.521 78.4802C119.499 78.005 119.071 77.8754 118.552 78.1742Z" fill="#455A64"/>
<path d="M118.817 83.0882L106.332 90.2882C106.085 90.421 105.876 90.6141 105.724 90.8495C105.571 91.0849 105.481 91.3549 105.461 91.6346C105.501 92.0774 105.954 92.1962 106.469 91.8974L118.957 84.6974C119.203 84.5652 119.411 84.3725 119.562 84.1375C119.712 83.9026 119.8 83.6331 119.818 83.3546C119.782 82.9082 119.335 82.8002 118.817 83.0882Z" fill="#455A64"/>
<path d="M119.319 87.8656L106.831 95.0656C106.316 95.3644 105.941 95.9583 106.003 96.3867C106.064 96.8151 106.535 96.9268 107.054 96.628L119.542 89.428C120.057 89.1292 120.424 88.5388 120.359 88.1104C120.295 87.682 119.834 87.5668 119.319 87.8656Z" fill="#455A64"/>
<path d="M120.067 92.4986L107.579 99.6986C107.064 99.9974 106.708 100.581 106.794 100.998C106.881 101.416 107.37 101.509 107.874 101.211L120.359 94.0106C120.877 93.7118 121.223 93.1322 121.137 92.7146C121.05 92.297 120.6 92.1998 120.067 92.4986Z" fill="#455A64"/>
<path d="M121.08 96.9769L108.592 104.177C108.077 104.476 107.742 105.044 107.872 105.444C108.001 105.844 108.495 105.934 109.009 105.635L121.498 98.4349C122.016 98.1361 122.34 97.5709 122.218 97.1677C122.095 96.7645 121.595 96.6781 121.08 96.9769Z" fill="#455A64"/>
<path d="M122.398 101.294L91.9634 118.865C91.4486 119.164 91.1354 119.718 91.2758 120.104C91.4162 120.489 91.9526 120.561 92.4674 120.262L122.902 102.69C123.42 102.392 123.719 101.841 123.579 101.452C123.438 101.063 122.895 100.995 122.398 101.294Z" fill="#455A64"/>
<path d="M124.002 105.416L93.5712 122.987C93.0528 123.286 92.7684 123.826 92.9412 124.193C93.114 124.56 93.6612 124.618 94.1868 124.319L124.621 106.748C125.14 106.449 125.417 105.909 125.244 105.542C125.071 105.174 124.52 105.12 124.002 105.416Z" fill="#455A64"/>
<path d="M126 109.343L95.5655 126.915C95.0471 127.213 94.7915 127.739 94.9967 128.088C95.2019 128.437 95.7887 128.473 96.3071 128.175L126.72 110.603C127.235 110.308 127.483 109.786 127.278 109.437C127.073 109.087 126.504 109.044 126 109.343Z" fill="#455A64"/>
<path d="M128.33 113.058L97.8992 130.626C97.3808 130.925 97.1504 131.44 97.3844 131.767C97.6184 132.095 98.234 132.127 98.7524 131.825L129.183 114.253C129.702 113.954 129.925 113.447 129.691 113.116C129.457 112.784 128.848 112.759 128.33 113.058Z" fill="#455A64"/>
<path d="M130.984 116.59L100.549 134.158C100.035 134.457 99.8295 134.957 100.089 135.27C100.348 135.584 100.985 135.598 101.503 135.299L131.938 117.72C132.453 117.422 132.658 116.928 132.391 116.615C132.125 116.302 131.502 116.28 130.984 116.59Z" fill="#455A64"/>
<path d="M133.92 119.952L103.497 137.52C102.978 137.819 102.777 138.309 103.079 138.6C103.382 138.892 104.022 138.899 104.537 138.6L134.972 121.029C135.49 120.73 135.67 120.247 135.382 119.949C135.094 119.65 134.446 119.657 133.92 119.952Z" fill="#455A64"/>
<path d="M137.159 123.167L106.725 140.735C106.21 141.034 106.041 141.513 106.365 141.797C106.689 142.081 107.351 142.071 107.869 141.772L138.279 124.2C138.793 123.901 138.955 123.433 138.639 123.145C138.322 122.857 137.663 122.868 137.159 123.167Z" fill="#455A64"/>
<path d="M101.54 87.9985L87.1836 96.2785C87.342 101.481 87.936 108.983 90.1104 116.539L104.471 108.259C102.293 100.703 101.699 93.1969 101.54 87.9985Z" fill="#BA68C8"/>
<path opacity="0.8" d="M101.54 87.9985L87.1836 96.2785C87.342 101.481 87.936 108.983 90.1104 116.539L104.471 108.259C102.293 100.703 101.699 93.1969 101.54 87.9985Z" fill="white"/>
<path d="M93.0372 95.1336C93.0566 94.7978 93.0043 94.4618 92.8839 94.1477C92.7635 93.8336 92.5777 93.5488 92.3388 93.312L87.1836 96.2856C87.2268 97.6608 87.2988 99.198 87.4248 100.854C88.0954 100.931 88.7737 100.806 89.3724 100.494C91.3992 99.5652 93.0372 97.1568 93.0372 95.1336Z" fill="#BA68C8"/>
<path opacity="0.6" d="M93.0372 95.1336C93.0566 94.7978 93.0043 94.4618 92.8839 94.1477C92.7635 93.8336 92.5777 93.5488 92.3388 93.312L87.1836 96.2856C87.2268 97.6608 87.2988 99.198 87.4248 100.854C88.0954 100.931 88.7737 100.806 89.3724 100.494C91.3992 99.5652 93.0372 97.1568 93.0372 95.1336Z" fill="white"/>
<path d="M103.25 103.291C102.293 102.085 100.345 98.3593 99.5134 96.7357C99.4807 96.6715 99.4295 96.6186 99.3665 96.5838C99.3034 96.5491 99.2314 96.534 99.1597 96.5406C99.0879 96.5472 99.0199 96.5751 98.9642 96.6208C98.9085 96.6665 98.8678 96.7278 98.8474 96.7969C97.9477 99.8722 97.4255 103.045 97.2922 106.247C96.0932 105.295 95.0625 104.149 94.243 102.856C94.2081 102.806 94.1595 102.767 94.1031 102.743C94.0467 102.72 93.9848 102.713 93.9246 102.723C93.8645 102.734 93.8086 102.762 93.7636 102.803C93.7186 102.844 93.6863 102.897 93.6706 102.957C92.101 109.001 92.8894 114.948 92.8894 114.948L104.471 108.259C103.988 106.589 103.589 104.926 103.25 103.291Z" fill="#BA68C8"/>
<path opacity="0.6" d="M103.25 103.291C102.293 102.085 100.345 98.3593 99.5134 96.7357C99.4807 96.6715 99.4295 96.6186 99.3665 96.5838C99.3034 96.5491 99.2314 96.534 99.1597 96.5406C99.0879 96.5472 99.0199 96.5751 98.9642 96.6208C98.9085 96.6665 98.8678 96.7278 98.8474 96.7969C97.9477 99.8722 97.4255 103.045 97.2922 106.247C96.0932 105.295 95.0625 104.149 94.243 102.856C94.2081 102.806 94.1595 102.767 94.1031 102.743C94.0467 102.72 93.9848 102.713 93.9246 102.723C93.8645 102.734 93.8086 102.762 93.7636 102.803C93.7186 102.844 93.6863 102.897 93.6706 102.957C92.101 109.001 92.8894 114.948 92.8894 114.948L104.471 108.259C103.988 106.589 103.589 104.926 103.25 103.291Z" fill="white"/>
</svg>
